<svg xmlns="http://www.w3.org/2000/svg" version="1.1" xmlns:xlink="http://www.w3.org/1999/xlink" width="84" height="84"><svg width="84" height="84" viewBox="0 0 84 84" fill="none" xmlns="http://www.w3.org/2000/svg">
<rect x="2" y="2" width="80" height="80" fill="#232323" stroke="#00E2ED" stroke-width="4"></rect>
<path d="M37.6587 17.5404C31.6913 18.4807 26.8993 22.1154 24.2772 27.685C23.1561 30.09 22.8125 31.6271 22.8125 34.2672C22.8125 36.9616 23.1742 38.4805 24.3676 41.0303C25.3622 43.1279 26.5738 44.9181 28.6533 47.4136C30.4616 49.5835 30.9137 50.4877 31.1126 52.4949L31.2392 53.7969H41.0583H50.8955V52.8385C50.8955 51.7716 51.2752 50.1803 51.673 49.5835C51.8177 49.3665 52.6314 48.3539 53.4813 47.3412C56.3927 43.8693 58.0563 40.9398 58.8701 37.8838C59.4126 35.8043 59.4306 32.6397 58.8882 30.6144C57.9117 26.9616 55.4162 23.2004 52.5048 20.9581C48.5989 17.9563 43.1197 16.6905 37.6587 17.5404ZM41.0583 32.368C42.011 32.368 43.6356 32.8688 44.4314 33.5285C44.8624 33.9927 45.5708 35.3674 45.6251 36.579C45.7517 39.5446 45.2955 41.0303 43.3006 44.5926C42.7943 45.4968 42.1433 46.8168 41.8539 47.5401C41.221 49.0953 40.8413 49.2219 40.4073 48.0103C40.0818 47.1242 40.0818 47.1242 37.9299 42.9471C36.3205 39.8006 36.573 39.0021 36.573 36.579C36.573 34.5356 37.5233 33.7718 37.7667 33.5285C38.6951 32.6001 40.4858 32.368 41.0583 32.368Z" fill="white"></path>
<path d="M31.2077 55.423L31.2161 57.0765L31.2951 57.3253C31.4559 57.8368 31.6674 58.188 32.0313 58.5447C32.3951 58.9014 32.7505 59.1087 33.2751 59.2663L33.529 59.3438H41.0456H48.5622L48.8161 59.2663C49.3407 59.1087 49.6961 58.9014 50.0599 58.5447C50.4266 58.1852 50.6466 57.8202 50.7876 57.3364C50.9033 56.9354 50.9202 56.6562 50.9117 55.1686L50.9033 53.7861L41.0512 53.7778L31.1992 53.7723L31.2077 55.423Z" fill="#00E2ED"></path>
<path d="M33.6975 62.251C33.1183 62.3681 32.5897 62.6581 32.1932 63.0818C31.8727 63.4191 31.6674 63.7759 31.5212 64.2526C31.4509 64.4868 31.4453 64.537 31.4453 65.0053C31.4453 65.4736 31.4509 65.5238 31.5212 65.758C31.6787 66.2709 31.8924 66.6249 32.2551 66.9873C32.6178 67.3469 32.9721 67.556 33.495 67.7149L33.7481 67.793H41.2413H48.7344L48.9875 67.7149C49.5105 67.556 49.8647 67.3469 50.2275 66.9873C50.5902 66.6249 50.8039 66.2709 50.9613 65.758C51.0316 65.5238 51.0372 65.4736 51.0372 65.0053C51.0372 64.537 51.0316 64.4868 50.9613 64.2526C50.8039 63.7397 50.5902 63.3856 50.2275 63.0232C49.8591 62.6581 49.4908 62.4434 48.9875 62.3012L48.7344 62.2287L41.3003 62.2232C35.5504 62.2176 33.8268 62.226 33.6975 62.251Z" fill="#00E2ED"></path>
</svg><style>@media (prefers-color-scheme: light) { :root { filter: none; } }
@media (prefers-color-scheme: dark) { :root { filter: none; } }
</style></svg>