<svg class="icon-size" width="31" height="29" viewBox="0 0 31 29" fill="none" xmlns="http://www.w3.org/2000/svg"><g id="ada" clip-path="url(#clip0_406_217)"><g id="Layer_2_1_"><g id="Layer_1-2" fill="#0033AD"><path class="fill" d="M8.499 14.396a2.105 2.105 0 0 0 1.967 2.227h.124a2.09 2.09 0 0 0 2.083-2.118c0-1.171-.934-2.117-2.091-2.109a2.098 2.098 0 0 0-2.083 2Z"/><path class="fill" d="M.712 13.852a.673.673 0 0 0-.711.645.68.68 0 0 0 .636.72.678.678 0 0 0 .711-.645.68.68 0 0 0-.636-.72Z"/><path class="fill" d="M8.367 2.127a.694.694 0 0 0 .297-.92.678.678 0 0 0-.91-.302.685.685 0 0 0-.297.912c.165.343.57.486.91.31 0 0-.009 0 0 0Z"/><path class="fill" d="M10.483 5.868c.512-.26.719-.895.463-1.414a1.037 1.037 0 0 0-1.397-.469c-.513.26-.72.895-.463 1.414.256.52.884.729 1.397.47Z"/><path class="fill" d="M3.357 8.437c.397.26.926.151 1.19-.25A.882.882 0 0 0 4.3 6.98a.858.858 0 0 0-1.19.251.873.873 0 0 0 .248 1.205Z"/><path class="fill" d="M4.622 13.476a1.044 1.044 0 0 0-1.1.996 1.044 1.044 0 1 0 2.083.117 1.052 1.052 0 0 0-.983-1.113Z"/><path class="fill" d="M3.473 20.565a.878.878 0 0 0-.38 1.171.857.857 0 0 0 1.157.386.878.878 0 0 0 .38-1.172.86.86 0 0 0-1.157-.385Z"/><path class="fill" d="M7.523 11.291c.57.377 1.331.218 1.695-.36a1.241 1.241 0 0 0-.356-1.715 1.208 1.208 0 0 0-1.694.36c-.372.569-.215 1.339.355 1.715Z"/><path class="fill" d="M20.378 5.784c.48.318 1.133.184 1.447-.3a1.07 1.07 0 0 0-.298-1.466 1.041 1.041 0 0 0-1.447.302 1.054 1.054 0 0 0 .298 1.464Z"/><path class="fill" d="M22.51 2.06c.315.21.728.117.935-.2a.685.685 0 0 0-.198-.947.672.672 0 0 0-.935.193.71.71 0 0 0 .199.954Z"/><path class="fill" d="M20.535 12.38a2.093 2.093 0 0 0-2.199 1.991c-.066 1.164.819 2.168 1.968 2.227h.115c1.15 0 2.084-.946 2.084-2.118a2.086 2.086 0 0 0-1.968-2.1Z"/><path class="fill" d="M11.169 11.14a2.09 2.09 0 0 0 1.868 1.164c1.15 0 2.083-.946 2.083-2.117 0-.327-.074-.653-.223-.954a2.072 2.072 0 0 0-2.802-.938 2.134 2.134 0 0 0-.926 2.846Z"/><path class="fill" d="M27.529 8.437a.878.878 0 0 0 .372-1.171.857.857 0 0 0-1.158-.377.878.878 0 0 0-.38 1.163.87.87 0 0 0 1.166.385Z"/><path class="fill" d="M22.238 9.107a1.248 1.248 0 0 0-.546 1.666 1.219 1.219 0 0 0 1.645.552c.604-.31.852-1.055.546-1.666a1.226 1.226 0 0 0-1.645-.552Z"/><path class="fill" d="M15.418 1.742a.872.872 0 0 0 .1-1.74.868.868 0 0 0-.91.81.88.88 0 0 0 .81.93Z"/><path class="fill" d="M15.41 7.207a1.223 1.223 0 0 0 1.29-1.172 1.227 1.227 0 0 0-1.158-1.305 1.223 1.223 0 0 0-1.29 1.172c-.033.686.48 1.272 1.158 1.305Z"/><path class="fill" d="M8.763 19.895c.604-.31.852-1.054.546-1.665a1.219 1.219 0 0 0-1.645-.553 1.248 1.248 0 0 0-.546 1.666 1.219 1.219 0 0 0 1.645.552Z"/><path class="fill" d="M16.203 9.023c-.628.98-.363 2.285.604 2.921a2.066 2.066 0 0 0 2.885-.61c.628-.98.364-2.286-.604-2.922a2.054 2.054 0 0 0-1.14-.343c-.703 0-1.356.36-1.745.954Z"/><path class="fill" d="M19.832 17.861a2.072 2.072 0 0 0-2.802-.937 2.122 2.122 0 0 0-.926 2.837 2.072 2.072 0 0 0 2.803.938 2.115 2.115 0 0 0 .934-2.82c0-.01 0-.01-.009-.018Z"/><path class="fill" d="M23.478 17.71a1.208 1.208 0 0 0-1.695.36 1.241 1.241 0 0 0 .356 1.716c.57.377 1.33.218 1.694-.36.372-.569.215-1.339-.355-1.715Z"/><path class="fill" d="M27.479 14.539a1.047 1.047 0 0 0-.984-1.113 1.044 1.044 0 0 0-1.1.996c-.032.585.406 1.08.985 1.113a1.054 1.054 0 0 0 1.099-.996Z"/><path class="fill" d="M30.364 13.786a.673.673 0 0 0-.71.644.68.68 0 0 0 .636.72.678.678 0 0 0 .71-.645.686.686 0 0 0-.636-.72Z"/><path class="fill" d="M27.644 20.565a.858.858 0 0 0-1.19.25.882.882 0 0 0 .248 1.206c.397.26.926.15 1.19-.251a.873.873 0 0 0-.248-1.205Z"/><path class="fill" d="M8.482 26.942a.672.672 0 0 0-.934.193.69.69 0 0 0 .19.945c.314.21.728.118.934-.192a.677.677 0 0 0-.19-.946Z"/><path class="fill" d="M22.635 26.875a.694.694 0 0 0-.298.92.678.678 0 0 0 .91.302.684.684 0 0 0 .297-.912.665.665 0 0 0-.91-.31s.009 0 0 0Z"/><path class="fill" d="M14.798 19.979a2.135 2.135 0 0 0-.604-2.93 2.077 2.077 0 0 0-2.893.612 2.127 2.127 0 0 0 .604 2.929c.339.226.735.343 1.14.343a2.051 2.051 0 0 0 1.753-.954Z"/><path class="fill" d="M10.623 23.218a1.041 1.041 0 0 0-1.446.301 1.07 1.07 0 0 0 .297 1.465c.48.318 1.133.184 1.447-.302a1.055 1.055 0 0 0-.298-1.464Z"/><path class="fill" d="M15.492 27.26a.872.872 0 0 0-.1 1.74.868.868 0 0 0 .91-.81.88.88 0 0 0-.81-.93Z"/><path class="fill" d="M15.5 21.795a1.223 1.223 0 0 0-1.289 1.172 1.227 1.227 0 0 0 1.157 1.305 1.228 1.228 0 0 0 1.29-1.171 1.232 1.232 0 0 0-1.157-1.306Z"/><path class="fill" d="M20.518 23.134c-.512.268-.719.904-.454 1.423.264.519.893.728 1.405.46.513-.26.72-.895.463-1.414a1.049 1.049 0 0 0-1.413-.469Z"/></g></g></g><defs><clipPath id="clip0_406_217"><path fill="#fff" d="M0 0h31v29H0z"/></clipPath></defs></svg>