<svg version="1.1" viewBox="0 0 66.766 46.362" xmlns="http://www.w3.org/2000/svg"><g transform="matrix(.349778 0 0 .349778 -247.058 -23.0311)" fill="#fff" stroke-width="10.806"><g transform="matrix(1.6498,0,0,1.6498,470.37,-133.12)" fill="#fff" stroke-width="11.024"><path transform="matrix(.26458 0 0 .26458 0 11.25)" d="m623.84 413.43-17.42 46.197 17.41 45.65 0.01-0.0254 2.3809 6.2891 6.7793 17.777v0.14062l33.309 88.021h32.266s42.189-7e-3 74.836-23.523c-6.9646-8.9806-12.71-18.844-17.086-29.332-12.383 9.7767-27.525 14.433-39.213 16.672-1.8636 0.36912-3.7374 0.68566-5.6191 0.94922-2.1236 0.30606-4.0259 0.5286-5.709 0.68945-0.68814 0.0683-1.377 0.12947-2.0664 0.1836-3.2016 0.24634-5.1426 0.25586-5.1426 0.25586v-0.0762c-0.399 0.0167-0.7981 0.031-1.1973 0.043-2.9748-0.0226-5.9471-0.17638-8.9082-0.46093zm-32.066 87.039-44.875 117.01h34.748l27.561-71.305z" style="paint-order:markers fill stroke"/><path transform="matrix(.26458 0 0 .26458 0 11.25)" d="m875 413.43c-21.15 0-40.685 7.2322-56.553 19.473 6.9634 8.8561 12.735 18.588 17.166 28.945 10.905-8.967 24.582-14.314 39.387-14.314 35.574 0 64.256 30.318 64.256 67.922 0 37.312-28.681 67.92-64.256 67.92-1.0559 0-2.1045-0.0318-3.1484-0.0859-0.32849-0.0171-0.65326-0.0499-0.98047-0.0723-0.69925-0.0477-1.3986-0.0984-2.0918-0.16992-0.44371-0.0459-0.88312-0.1066-1.3242-0.16211-0.56272-0.0707-1.1253-0.14044-1.6836-0.22656-0.48687-0.0753-0.96976-0.16308-1.4531-0.25-0.52408-0.094-1.0466-0.19132-1.5664-0.29883-0.48179-0.0999-0.96149-0.20704-1.4395-0.31836-0.48691-0.11315-0.97227-0.23255-1.4551-0.35742-0.53484-0.13863-1.068-0.28076-1.5977-0.43359-0.38946-0.11215-0.77556-0.23185-1.1621-0.35157-0.5846-0.18143-1.1684-0.36591-1.7461-0.56445-0.32692-0.11212-0.64997-0.23404-0.97461-0.35156-0.62304-0.22598-1.2469-0.45166-1.8613-0.69727-0.18715-0.0747-0.37031-0.1579-0.55664-0.23437-4.2237-1.7366-8.2398-3.9252-11.984-6.5234-7e-3 -5e-3 -0.0145-9e-3 -0.0215-0.0137-0.77481-0.53805-1.5377-1.0942-2.2891-1.666-0.74146-0.56426-1.4698-1.1441-2.1875-1.7402-0.0239-0.0198-0.0484-0.0387-0.0723-0.0586-0.71592-0.59633-1.4201-1.2089-2.1113-1.8359-13.469-12.218-22.145-30.18-22.516-50.178h8e-3c0.0339-0.96899 0.0173-1.9341-2e-3 -2.832 1e-3 -0.039 9.5e-4 -0.0781 2e-3 -0.11719h-4e-3c-1.1966-100.1-112.21-100.12-112.21-100.12h-32.266v25.814l32.266 84.598v-76.598s78.944 0.0133 80.219 66.303h-0.0137c-8e-3 0.53945-0.0195 1.0777-0.0195 1.6191 0 32.285 14.17 61.013 36.301 79.639 1.0222 0.86027 2.0616 1.6991 3.1172 2.5156 0.011 9e-3 0.0222 0.0169 0.0332 0.0254 2.1163 1.6356 4.298 3.1828 6.541 4.6348 1.1048 0.71515 2.2237 1.4055 3.3574 2.0742 0.0385 0.0227 0.0767 0.0457 0.11523 0.0684 1.1372 0.66858 2.2881 1.3149 3.4531 1.9355h2e-3c2.298 1.2242 4.6493 2.3524 7.0488 3.3828 0.11925 0.0512 0.23792 0.10355 0.35742 0.15429 1.1537 0.48972 2.3187 0.95703 3.4941 1.4004 0.0882 0.0333 0.17727 0.0646 0.26562 0.0977 1.2122 0.45296 2.432 0.88454 3.666 1.2871 1.1983 0.39093 2.409 0.75337 3.627 1.0957 0.13757 0.0387 0.2743 0.0791 0.41211 0.11719 1.1549 0.31878 2.3187 0.61446 3.4902 0.88867 0.22091 0.0517 0.44258 0.10026 0.66406 0.15039 1.1884 0.26885 2.3835 0.52008 3.5879 0.74219 0.0916 0.0169 0.18374 0.0322 0.27539 0.0488 1.2099 0.2193 2.4274 0.41471 3.6523 0.58593 0.11021 0.0154 0.21976 0.0319 0.33008 0.0469 1.2094 0.16456 2.4272 0.29923 3.6504 0.41601 0.23242 0.0222 0.46437 0.0459 0.69727 0.0664 1.1939 0.10483 2.3936 0.1876 3.5996 0.24609 0.23719 0.0115 0.47524 0.0196 0.71289 0.0293 1.2584 0.0513 2.5206 0.0859 3.791 0.0859 53.5 0 96.521-45.474 96.521-101.73 0-0.54141-0.0116-1.0797-0.0195-1.6191-0.81709-55.516-43.517-100.41-96.502-100.41z"/><circle cx="231.55" cy="147.59" r="8.3956" style="paint-order:markers fill stroke"/></g></g><path d="m40.2541 35.2175v11h1.2168l0.06445-0.894531c0.534724 0.692276 1.29275 1.03906 2.27148 1.03906 0.916668 0 1.64713-0.358071 2.19141-1.07422 0.544272-0.720921 0.816406-1.67339 0.816406-2.85742v-0.115235c0-1.23655-0.271049-2.2105-0.810547-2.92188-0.534723-0.711373-1.27235-1.06641-2.21289-1.06641-0.940541 0-1.67817 0.330511-2.21289 0.994141v-4.10352zm-29.8984 3.10938c-0.964412 0-1.73068 0.333549-2.29883 1.00195l-0.0371094-0.859375h-1.25195v7.74805h1.32422v-5.65625c0.319879-0.740019 0.914278-1.11133 1.7832-1.11133 1.10287 0 1.6543 0.564667 1.6543 1.69141v5.07617h1.33203v-5.14062c0.05252-0.496529 0.241753-0.890407 0.566406-1.18164 0.324654-0.296007 0.732855-0.445312 1.22461-0.445312 0.596789 0 1.0204 0.139105 1.27344 0.416016 0.253039 0.272136 0.38086 0.68446 0.38086 1.23828v5.11328h1.32422v-5.19141c-0.02865-1.79992-0.89214-2.69922-2.5918-2.69922-0.56337 0-1.05338 0.114583-1.46875 0.34375-0.410592 0.229167-0.744141 0.529947-1.00195 0.902344-0.391494-0.830731-1.12912-1.24609-2.21289-1.24609zm12.3242 0c-0.615886 0-1.1888 0.171874-1.71875 0.515625-0.525174 0.338976-0.936414 0.811631-1.23242 1.41797-0.291234 0.601564-0.435547 1.28602-0.435547 2.05469v0.244141c0 1.15538 0.329425 2.07921 0.988281 2.77148 0.658856 0.687502 1.51215 1.03125 2.5625 1.03125 1.29861 0 2.27257-0.500214 2.92188-1.49805l-0.808594-0.628906c-0.24349 0.315105-0.526909 0.56684-0.851562 0.757813-0.324654 0.190972-0.72157 0.287109-1.18945 0.287109-0.658856 0-1.20312-0.233289-1.63281-0.701172-0.424914-0.472657-0.646918-1.09158-0.666016-1.85547h5.25v-0.550781c0-1.23655-0.279295-2.18793-0.83789-2.85156s-1.34223-0.994141-2.34961-0.994141zm8.30078 0c-0.964412 0-1.73068 0.333549-2.29883 1.00195l-0.03711-0.859375h-1.25195v7.74805h1.32422v-5.65625c0.319879-0.740019 0.914277-1.11133 1.7832-1.11133 1.10287 0 1.6543 0.564667 1.6543 1.69141v5.07617h1.33203v-5.14062c0.05252-0.496529 0.241753-0.890407 0.566406-1.18164 0.324654-0.296007 0.732855-0.445312 1.22461-0.445312 0.596789 0 1.0204 0.139105 1.27344 0.416016 0.253039 0.272136 0.38086 0.68446 0.38086 1.23828v5.11328h1.32422v-5.19141c-0.02865-1.79992-0.89214-2.69922-2.5918-2.69922-0.56337 0-1.05338 0.114583-1.46875 0.34375-0.410592 0.229167-0.744141 0.529947-1.00195 0.902344-0.391494-0.830731-1.12912-1.24609-2.21289-1.24609zm20.5527 0c-0.615887 0-1.1888 0.171874-1.71875 0.515625-0.525175 0.338976-0.936414 0.811631-1.23242 1.41797-0.291233 0.601564-0.435547 1.28602-0.435547 2.05469v0.244141c0 1.15538 0.329426 2.07921 0.988282 2.77148 0.658855 0.687502 1.51215 1.03125 2.5625 1.03125 1.29861 0 2.27257-0.500214 2.92188-1.49805l-0.808594-0.628906c-0.24349 0.315105-0.526909 0.56684-0.851563 0.757813-0.324653 0.190972-0.72157 0.287109-1.18945 0.287109-0.658855 0-1.20312-0.233289-1.63281-0.701172-0.424914-0.472657-0.646919-1.09158-0.666016-1.85547h5.25v-0.550781c0-1.23655-0.279295-2.18793-0.83789-2.85156-0.558596-0.66363-1.34223-0.994141-2.34961-0.994141zm7.87695 0c-0.797311 0-1.41319 0.344833-1.84766 1.03711l-0.02148-0.894531h-1.28906v7.74805h1.32617v-5.5c0.310331-0.740019 0.898653-1.10938 1.76758-1.10938 0.233942 0 0.451823 0.01736 0.652344 0.05078v-1.23242c-0.133681-0.06684-0.330078-0.09961-0.587891-0.09961zm-36.7305 1.08789c0.553821 0 0.993706 0.186197 1.31836 0.558593 0.324653 0.367623 0.504774 0.887369 0.542969 1.56055v0.101563h-3.88086c0.08594-0.701825 0.31098-1.24609 0.673828-1.63281 0.362848-0.391494 0.81098-0.58789 1.3457-0.58789zm28.8535 0c0.553821 0 0.993706 0.186197 1.31836 0.558593 0.324653 0.367623 0.504774 0.887369 0.542968 1.56055v0.101563h-3.88086c0.08594-0.701825 0.31098-1.24609 0.673828-1.63281 0.362848-0.391494 0.81098-0.58789 1.3457-0.58789zm-8.07031 0.03516c0.654081 0 1.15538 0.246527 1.50391 0.738281 0.348525 0.491755 0.521484 1.18945 0.521484 2.0918 0 0.988284-0.175997 1.727-0.529297 2.21875-0.353299 0.491755-0.847437 0.738281-1.48242 0.738281-0.859377 0-1.49262-0.405163-1.89844-1.2168v-3.35156c0.381945-0.811634 1.01107-1.21875 1.88477-1.21875z" fill="#fff"/></svg>
