<svg viewBox="0 0 66.766 46.362" xmlns="http://www.w3.org/2000/svg"><g transform="matrix(.57706 0 0 .57706 -82.533 -69.594)" stroke-width="11.024" fill="#fff"><path transform="translate(0 11.25) scale(.26458)" d="m623.84 413.43-17.42 46.197 17.41 45.65.01-.025 2.38 6.289 6.78 17.777v.14l33.31 88.021h32.265s42.19-.007 74.836-23.523a128.786 128.786 0 0 1-17.086-29.332c-12.383 9.777-27.525 14.433-39.213 16.672-1.863.37-3.737.686-5.619.95a120.258 120.258 0 0 1-7.775.873c-3.202.246-5.143.255-5.143.255v-.076c-.399.017-.798.031-1.197.043a101.162 101.162 0 0 1-8.908-.46zm-32.066 87.039-44.875 117.01h34.748l27.561-71.305z" style="paint-order:markers fill stroke"/><path d="M231.507 120.635c-5.595 0-10.764 1.914-14.962 5.152a34.075 34.075 0 0 1 4.541 7.659c2.886-2.373 6.504-3.787 10.421-3.787 9.413 0 17.001 8.021 17.001 17.97 0 9.872-7.588 17.97-17 17.97-.28 0-.557-.008-.834-.022-.086-.005-.172-.013-.259-.02-.185-.012-.37-.025-.553-.044-.118-.012-.234-.028-.35-.043-.15-.019-.298-.037-.446-.06-.129-.02-.257-.043-.385-.066a15.937 15.937 0 0 1-1.603-.373 16.14 16.14 0 0 1-.77-.242c-.086-.03-.171-.062-.257-.093-.165-.06-.33-.12-.492-.185l-.148-.062a16.701 16.701 0 0 1-3.17-1.726l-.006-.003a17.217 17.217 0 0 1-1.185-.901l-.019-.016a17.54 17.54 0 0 1-.558-.486c-3.564-3.232-5.86-7.985-5.958-13.276h.003c.009-.256.004-.511-.001-.75v-.03c-.317-26.485-29.689-26.49-29.689-26.49h-8.537v6.83l8.537 22.383v-20.266s20.887.003 21.224 17.542h-.003c-.002.143-.005.285-.005.429 0 8.541 3.749 16.142 9.604 21.07.27.228.546.45.825.666l.009.007a25.42 25.42 0 0 0 2.619 1.775l.03.018a24.669 24.669 0 0 0 2.78 1.407c.03.014.062.027.094.04.305.13.613.254.924.371.023.01.047.017.07.026a24.247 24.247 0 0 0 1.93.63l.11.032c.305.084.613.162.922.235l.176.04c.315.07.63.137.95.196l.072.013c.32.058.643.11.967.155l.087.012c.32.044.642.08.966.11l.184.018c.316.028.634.05.953.065l.188.008c.333.013.667.022 1.003.022 14.155 0 25.538-12.031 25.538-26.915 0-.143-.003-.286-.005-.429-.216-14.688-11.514-26.566-25.533-26.566z"/><circle cx="231.55" cy="147.59" r="8.396" style="paint-order:markers fill stroke"/></g><path d="M40.254 35.218v11h1.217l.064-.895c.535.692 1.293 1.039 2.272 1.039.916 0 1.647-.358 2.191-1.074.545-.721.817-1.674.817-2.858v-.115c0-1.236-.271-2.21-.81-2.922-.536-.711-1.273-1.066-2.214-1.066-.94 0-1.678.33-2.213.994v-4.104zm-29.898 3.109c-.965 0-1.731.333-2.3 1.002l-.036-.86H6.768v7.749h1.324V40.56c.32-.74.914-1.111 1.783-1.111 1.103 0 1.655.565 1.655 1.691v5.077h1.332v-5.141c.052-.497.241-.89.566-1.182.325-.296.733-.445 1.225-.445.596 0 1.02.139 1.273.416.253.272.38.684.38 1.238v5.114h1.325v-5.192c-.029-1.8-.892-2.7-2.592-2.7-.563 0-1.053.115-1.468.345-.411.229-.745.53-1.002.902-.392-.83-1.13-1.246-2.213-1.246zm12.324 0c-.616 0-1.189.172-1.719.516a3.441 3.441 0 0 0-1.232 1.417c-.292.602-.436 1.286-.436 2.055v.244c0 1.156.33 2.08.988 2.772.66.687 1.513 1.031 2.563 1.031 1.299 0 2.273-.5 2.922-1.498l-.809-.629a2.98 2.98 0 0 1-.851.758c-.325.19-.722.287-1.19.287-.659 0-1.203-.233-1.633-.701-.424-.473-.646-1.092-.666-1.856h5.25v-.55c0-1.237-.279-2.188-.837-2.852s-1.343-.994-2.35-.994zm8.3 0c-.964 0-1.73.333-2.298 1.002l-.037-.86h-1.252v7.749h1.324V40.56c.32-.74.914-1.111 1.783-1.111 1.103 0 1.655.565 1.655 1.691v5.077h1.332v-5.141c.052-.497.241-.89.566-1.182.325-.296.733-.445 1.225-.445.596 0 1.02.139 1.273.416.253.272.38.684.38 1.238v5.114h1.325v-5.192c-.029-1.8-.892-2.7-2.592-2.7-.563 0-1.053.115-1.468.345-.411.229-.745.53-1.002.902-.392-.83-1.13-1.246-2.213-1.246zm20.553 0c-.616 0-1.188.172-1.718.516a3.441 3.441 0 0 0-1.233 1.417c-.291.602-.435 1.286-.435 2.055v.244c0 1.156.33 2.08.988 2.772.659.687 1.512 1.031 2.562 1.031 1.3 0 2.273-.5 2.922-1.498l-.808-.629a2.98 2.98 0 0 1-.852.758c-.324.19-.721.287-1.19.287-.658 0-1.202-.233-1.632-.701-.425-.473-.647-1.092-.666-1.856h5.25v-.55c0-1.237-.28-2.188-.838-2.852-.559-.664-1.342-.994-2.35-.994zm7.877 0c-.797 0-1.413.345-1.847 1.037l-.022-.895h-1.289v7.749h1.326v-5.5c.31-.74.899-1.11 1.768-1.11.234 0 .452.017.652.05v-1.232c-.133-.066-.33-.1-.588-.1zm-36.73 1.088c.554 0 .994.186 1.318.558.325.368.505.888.543 1.56v.102h-3.88c.085-.701.31-1.246.673-1.632a1.761 1.761 0 0 1 1.346-.588zm28.853 0c.554 0 .994.186 1.319.558.324.368.504.888.543 1.56v.102h-3.881c.086-.701.31-1.246.674-1.632a1.761 1.761 0 0 1 1.345-.588zm-8.07.035c.654 0 1.155.246 1.504.738.348.492.521 1.19.521 2.092 0 .988-.176 1.727-.529 2.219-.353.492-.847.738-1.482.738-.86 0-1.493-.405-1.899-1.217V40.67c.382-.812 1.011-1.22 1.885-1.22z" fill="#fff"/></svg>