<svg class="icon-size" width="30" height="30" viewBox="0 0 30 30" fill="none" xmlns="http://www.w3.org/2000/svg"><g clip-path="url(#clip0_211_11)"><path class="fill" d="m5.185 30 4.339-7.513L13.862 15l4.313-7.513.714-1.19.317 1.19 1.323 4.947L19.048 15l-4.339 7.487L10.397 30h5.185l4.339-7.513 2.248-3.89 1.058 3.89L25.238 30h4.656l-2.01-7.513L25.873 15l-.53-1.931 3.228-5.582h-4.709l-.158-.556-1.64-6.137L21.852 0h-4.524l-.106.159-4.233 7.328L8.651 15l-4.312 7.487L0 30h5.185Z" fill="#000"/></g><defs><clipPath id="clip0_211_11"><path fill="#fff" d="M0 0h29.894v30H0z"/></clipPath></defs></svg>