<svg width="47" height="16" viewBox="0 0 47 16" fill="none" xmlns="http://www.w3.org/2000/svg">
<rect x="30.5" width="16" height="16" rx="8" fill="#25353C"/>
<path d="M41.0783 9.37011L38.3411 12.1525L36.8179 10.6038L39.5552 7.82148L38.3376 6.58423L34.3704 10.6172L38.3268 14.6391L42.2944 10.6062L41.0783 9.37011Z" fill="white"/>
<path d="M43.5208 6.855L38.3511 1.6001L33.1667 6.8699L33.1832 9.33304L38.3287 4.10245L43.5119 9.37147L43.5204 6.85539L43.5208 6.855Z" fill="#38A1DB"/>
<rect x="20.5" width="16" height="16" rx="8" fill="#25353C"/>
<path d="M34.2143 6.85722C34.2143 9.17837 32.3312 11.0477 30.0238 11.0477C27.7164 11.0477 25.8333 9.17837 25.8333 6.85722C25.8333 4.53608 27.7164 2.66675 30.0238 2.66675C32.3312 2.66675 34.2143 4.53608 34.2143 6.85722Z" stroke="#35D07F" stroke-width="3.5"/>
<path d="M31.5476 9.52373C31.5476 11.8449 29.6646 13.7142 27.3571 13.7142C25.0497 13.7142 23.1667 11.8449 23.1667 9.52373C23.1667 7.20259 25.0497 5.33325 27.3571 5.33325C29.6646 5.33325 31.5476 7.20259 31.5476 9.52373Z" stroke="#FBCC5C" stroke-width="3.5"/>
<path d="M34.2143 6.85722C34.2143 9.17837 32.3312 11.0477 30.0238 11.0477C27.7164 11.0477 25.8333 9.17837 25.8333 6.85722C25.8333 4.53608 27.7164 2.66675 30.0238 2.66675C32.3312 2.66675 34.2143 4.53608 34.2143 6.85722Z" stroke="#35D07F" stroke-opacity="0.51" stroke-width="3.5"/>
<rect x="10.5" width="16" height="16" rx="8" fill="#25353C"/>
<path d="M25.2816 10.696C25.2815 11.0318 25.1902 11.3617 25.0169 11.6524C24.8436 11.943 24.5944 12.1842 24.2944 12.3515L19.6709 14.9303C19.3727 15.0967 19.0347 15.1842 18.6908 15.1842C18.3468 15.1842 18.0089 15.0967 17.7106 14.9303L13.0871 12.3515C12.7871 12.1842 12.5379 11.943 12.3646 11.6524C12.1913 11.3617 12.1 11.0318 12.1 10.696V5.55434C12.1001 5.2186 12.1914 4.88881 12.3647 4.59824C12.538 4.30767 12.7872 4.06658 13.0871 3.89929L17.7106 1.32046C18.0089 1.15416 18.3468 1.06665 18.6908 1.06665C19.0347 1.06665 19.3727 1.15416 19.6709 1.32046L24.2944 3.89929C24.5944 4.06662 24.8436 4.30778 25.0169 4.59844C25.1902 4.8891 25.2815 5.21899 25.2816 5.55482V10.6965V10.696Z" fill="#1D86CC"/>
<path d="M18.1208 2.03796L13.5565 4.59655C13.3829 4.69383 13.2387 4.83377 13.1386 5.0023C13.0384 5.17082 12.9857 5.36199 12.9858 5.55655L12.9887 10.6794C12.9888 10.8736 13.0416 11.0643 13.1417 11.2325C13.2418 11.4007 13.3856 11.5403 13.5589 11.6375L18.1286 14.2013C18.302 14.2984 18.4988 14.3496 18.699 14.3496C18.8993 14.3496 19.096 14.2984 19.2694 14.2013L23.8338 11.6436C24.0074 11.5463 24.1515 11.4063 24.2517 11.2378C24.3518 11.0693 24.4045 10.8782 24.4045 10.6836L24.4016 5.56078C24.4014 5.36659 24.3486 5.17584 24.2485 5.00768C24.1485 4.83952 24.0046 4.69985 23.8314 4.60267L19.2617 2.0389C19.0882 1.94176 18.8915 1.89062 18.6913 1.89062C18.491 1.89062 18.2943 1.94176 18.1208 2.0389V2.03796Z" fill="white"/>
<path d="M16.6139 12.4702C16.621 12.4367 16.6365 12.4055 16.659 12.3793L20.756 5.63346C20.7754 5.6024 20.7923 5.5704 20.8088 5.54216C20.7967 5.52193 20.7831 5.52616 20.7715 5.52616C20.1877 5.52804 19.6045 5.53181 19.0202 5.53087C18.9953 5.53045 18.9708 5.53744 18.9501 5.55089C18.9294 5.56435 18.9134 5.58364 18.9043 5.60616C17.5289 7.80959 16.1532 10.0129 14.7773 12.216C14.7691 12.2297 14.7603 12.2429 14.7531 12.2565C14.7366 12.2871 14.7177 12.2923 14.6842 12.273C14.5388 12.1902 14.3923 12.1097 14.2382 12.0236L18.3991 5.5464C18.3904 5.52004 18.372 5.52663 18.3579 5.52616C18.1349 5.51957 17.9119 5.51016 17.6888 5.50828C17.376 5.49925 17.0642 5.54796 16.77 5.65181C16.5019 5.74807 16.274 5.92756 16.1218 6.1624C15.3615 7.31337 14.5984 8.46255 13.8323 9.60993C13.8207 9.62828 13.8081 9.64569 13.7955 9.66357C13.7519 9.66357 13.7582 9.62875 13.7538 9.60428C13.75 9.56722 13.7492 9.52993 13.7514 9.49275C13.7514 8.22404 13.7557 6.95487 13.747 5.68569C13.7402 5.57636 13.7673 5.46754 13.8248 5.37333C13.8824 5.27911 13.9678 5.20383 14.0699 5.15722C15.0755 4.60099 16.0743 4.03299 17.0765 3.4711C17.524 3.22028 17.9725 2.97228 18.4166 2.71581C18.5001 2.66139 18.5984 2.63232 18.699 2.63232C18.7996 2.63232 18.8979 2.66139 18.9814 2.71581C19.7979 3.18075 20.6217 3.63534 21.442 4.09369C22.0612 4.43957 22.6803 4.78499 23.3 5.12946C23.3446 5.1544 23.3873 5.18028 23.4323 5.20475C23.5048 5.24211 23.5648 5.29884 23.605 5.36823C23.6453 5.43762 23.6643 5.51675 23.6597 5.59628C23.6607 6.97652 23.6607 8.35722 23.6597 9.73746C23.6626 9.77141 23.6589 9.80558 23.6486 9.83816C23.5991 9.88428 23.5817 9.83252 23.5637 9.80804C23.49 9.70734 23.4231 9.60099 23.3553 9.49699C22.8061 8.6629 22.2552 7.82996 21.7024 6.99816C21.5167 6.71675 21.3291 6.43675 21.1448 6.1544C21.1022 6.08852 21.0944 6.08757 21.0513 6.15816L20.2202 7.52475C20.2049 7.55002 20.1982 7.57936 20.2012 7.60854C20.2042 7.63772 20.2166 7.66523 20.2367 7.6871C20.4651 8.04475 20.6934 8.4024 20.9203 8.76005L22.0869 10.5916C22.2445 10.8391 22.402 11.0866 22.5601 11.3332C22.5892 11.3662 22.6057 11.4085 22.6066 11.4523C22.5751 11.5135 22.5097 11.5299 22.4544 11.5577C22.3647 11.6208 22.2653 11.6706 22.1611 11.7064C22.1043 11.6928 22.0845 11.6433 22.0578 11.6029C21.6966 11.056 21.3402 10.5064 20.9814 9.95863C20.613 9.39534 20.2454 8.83016 19.8745 8.26734C19.827 8.19534 19.8197 8.19487 19.7751 8.26734C19.4527 8.79346 19.1351 9.3224 18.8117 9.84852C18.7953 9.8731 18.7872 9.90208 18.7886 9.93137C18.79 9.96066 18.8008 9.98879 18.8195 10.0118C19.2549 10.6631 19.6801 11.32 20.1106 11.9742C20.2309 12.1568 20.3516 12.3384 20.4694 12.5219C20.4927 12.5577 20.5242 12.5935 20.5034 12.6419C20.3904 12.7272 20.2685 12.8007 20.1397 12.8612L18.9325 13.5417C18.8679 13.5822 18.7926 13.6038 18.7157 13.6038C18.6388 13.6038 18.5636 13.5822 18.499 13.5417C17.9058 13.2087 17.3117 12.8772 16.7167 12.5473C16.6758 12.5315 16.6398 12.5048 16.6139 12.4702Z" fill="#2D374B"/>
<path d="M23.6307 9.85226C23.6316 9.81791 23.6336 9.78402 23.6336 9.74967C23.6336 8.37273 23.6336 6.99532 23.635 5.61791C23.64 5.53442 23.6197 5.45136 23.5768 5.37888C23.5338 5.30641 23.4699 5.24768 23.3931 5.20991C21.903 4.3807 20.414 3.54964 18.9262 2.71673C18.8591 2.67435 18.7809 2.65172 18.7009 2.65155C18.6209 2.65138 18.5425 2.67369 18.4753 2.71579C16.9833 3.5538 15.4916 4.39223 14.0001 5.23108C13.9292 5.26683 13.8705 5.32168 13.8309 5.38905C13.7914 5.45641 13.7727 5.53343 13.7771 5.61085C13.78 6.93273 13.7819 8.25414 13.7824 9.57555C13.7824 9.6052 13.7703 9.63767 13.797 9.66402C13.6394 9.91814 13.4663 10.1628 13.3005 10.4113C13.2181 10.536 13.1342 10.6607 13.0508 10.7845C13.0372 10.8047 13.0217 10.8231 12.9955 10.8584C12.9936 10.8165 12.9911 10.7939 12.9911 10.7708L12.9921 5.54261C12.9877 5.34908 13.0383 5.1581 13.1383 4.99065C13.2384 4.8232 13.3841 4.68577 13.5594 4.59343C14.1368 4.26073 14.723 3.93979 15.3044 3.61273C15.795 3.33696 16.2838 3.05885 16.7744 2.78261C17.2321 2.5252 17.685 2.25932 18.1499 2.01555C18.3281 1.91929 18.5296 1.87122 18.7334 1.87635C18.9373 1.88148 19.136 1.93963 19.3087 2.04473C19.6825 2.25085 20.0549 2.46026 20.4278 2.66826L21.4794 3.25649C22.1225 3.61616 22.766 3.97507 23.4101 4.3332C23.5507 4.41179 23.6918 4.49038 23.8319 4.57038C23.9864 4.65522 24.1193 4.77276 24.2206 4.91428C24.3219 5.05579 24.3891 5.21763 24.4171 5.38779C24.4239 5.43673 24.4258 5.48661 24.4234 5.53602L24.4239 10.681C24.4248 10.8439 24.3886 11.005 24.3178 11.1527C24.2471 11.3005 24.1436 11.4312 24.0147 11.5356C23.9411 11.5901 23.862 11.6373 23.7785 11.6763C22.7898 12.2339 21.8001 12.7898 20.8093 13.344C20.3186 13.6199 19.8284 13.8968 19.3388 14.1746C19.2171 14.2541 19.0799 14.3087 18.9354 14.336C18.6959 14.3813 18.4477 14.3506 18.2275 14.2485C17.9831 14.1214 17.7451 13.9836 17.5046 13.8494C17.1812 13.6697 16.8583 13.4894 16.5349 13.3083L16.2615 13.1567C16.2275 13.1379 16.2052 13.1191 16.2314 13.0767C16.3521 12.8805 16.4709 12.6828 16.5911 12.4861C16.5955 12.4791 16.6057 12.4758 16.6139 12.4706C16.7259 12.521 16.8345 12.5788 16.9388 12.6438C17.4658 12.9365 17.9928 13.2306 18.5184 13.5261C18.5791 13.5634 18.6496 13.5828 18.7214 13.5821C18.7932 13.5815 18.8633 13.5607 18.9233 13.5224C19.4227 13.2377 19.925 12.9577 20.4258 12.6753C20.4505 12.6617 20.4762 12.649 20.501 12.6358C20.5482 12.5772 20.6113 12.5326 20.6833 12.5068C21.1356 12.2551 21.5851 11.9986 22.0375 11.7478C22.0753 11.7266 22.1092 11.6941 22.1587 11.6998L22.6018 11.4504C22.629 11.3958 22.6867 11.3779 22.7347 11.3506C22.9577 11.2259 23.1788 11.0974 23.4038 10.9765C23.4689 10.9432 23.5228 10.8924 23.5589 10.8301C23.595 10.7678 23.6119 10.6968 23.6074 10.6254C23.6093 10.4066 23.6074 10.1878 23.6084 9.96849C23.6003 9.92819 23.6085 9.88645 23.6312 9.85179L23.6307 9.85226Z" fill="#96BEDC"/>
<path d="M23.6316 9.85216C23.6326 10.1237 23.6389 10.3962 23.6326 10.6677C23.6343 10.7313 23.6178 10.7941 23.5849 10.8492C23.552 10.9043 23.5041 10.9495 23.4464 10.9797C23.1647 11.135 22.8874 11.2987 22.6028 11.4493C22.4898 11.2489 22.3589 11.0583 22.2353 10.8635C21.5926 9.85247 20.9493 8.84196 20.3051 7.83192C20.2663 7.77122 20.2309 7.70863 20.1877 7.65122C20.1737 7.63482 20.166 7.61418 20.166 7.59286C20.166 7.57155 20.1737 7.5509 20.1877 7.53451C20.3414 7.2851 20.4932 7.03428 20.645 6.78345L21.0677 6.08792C21.0751 6.07146 21.0881 6.058 21.1046 6.0498L21.3262 6.38157C22.0719 7.5085 22.8174 8.63556 23.5628 9.76275C23.5792 9.79677 23.6027 9.82718 23.6316 9.85216ZM22.1596 11.6987C21.9759 11.8155 21.7814 11.9152 21.5923 12.0235C21.2496 12.2187 20.9048 12.4107 20.5606 12.6042L20.5024 12.6357C20.4981 12.6048 20.4844 12.5758 20.4631 12.5524L19.5439 11.151C19.2917 10.7675 19.0396 10.3839 18.7865 10.0013C18.7694 9.9815 18.7595 9.95676 18.7582 9.93092C18.757 9.90507 18.7646 9.87955 18.7797 9.85828C19.1183 9.30506 19.4554 8.75102 19.7911 8.19616C19.7989 8.18345 19.8057 8.16792 19.8251 8.16416C19.8527 8.17028 19.859 8.1971 19.8726 8.21686L21.7019 11.0145C21.8319 11.2131 21.9608 11.4117 22.0917 11.6098C22.1083 11.6435 22.1313 11.6734 22.1596 11.6987Z" fill="#28A0F0"/>
<rect x="0.5" width="16" height="16" rx="8" fill="#25353C"/>
<g clip-path="url(#clip0_379_1836)">
<path d="M13.4373 2.73779H3.55167V11.7284H13.4373V2.73779Z" fill="white"/>
<path fill-rule="evenodd" clip-rule="evenodd" d="M16.5 8C16.5 12.4181 12.9181 16 8.5 16C4.08143 16 0.5 12.4181 0.5 8C0.5 3.58185 4.08189 0 8.5 0C12.9186 0 16.5 3.58185 16.5 8ZM6.23285 11.1836H4.68024C4.35407 11.1836 4.19305 11.1836 4.09469 11.1209C4.04279 11.087 3.99959 11.0414 3.96859 10.9877C3.93759 10.9341 3.91967 10.8738 3.91629 10.8119C3.90988 10.6961 3.99039 10.5547 4.15188 10.2718L7.98536 3.5141C8.14822 3.2271 8.23102 3.08382 8.33532 3.03073C8.39075 3.00261 8.45203 2.98797 8.51418 2.98797C8.57633 2.98797 8.63761 3.00261 8.69305 3.03073C8.79689 3.08382 8.87969 3.22756 9.04254 3.5141L9.83074 4.89008L9.83486 4.89695C10.011 5.20455 10.1002 5.3611 10.1395 5.52452C10.1825 5.7035 10.1825 5.89209 10.1395 6.07106C10.1002 6.23585 10.0114 6.39332 9.83303 6.70596L7.81839 10.2658L7.81336 10.275C7.63586 10.5853 7.5462 10.7423 7.42132 10.8609C7.28591 10.9909 7.12306 11.0852 6.94419 11.1383C6.78088 11.1836 6.59835 11.1836 6.23285 11.1836ZM10.1537 11.1836H12.3788C12.7068 11.1836 12.8719 11.1836 12.9703 11.1186C13.0224 11.0847 13.0658 11.0389 13.0968 10.9849C13.1278 10.931 13.1456 10.8704 13.1487 10.8083C13.1546 10.6961 13.0755 10.5602 12.9213 10.2933L12.9053 10.2658L11.7909 8.35933L11.7781 8.33781C11.6217 8.07324 11.5425 7.93958 11.441 7.88785C11.3859 7.8598 11.325 7.84517 11.2633 7.84517C11.2015 7.84517 11.1406 7.8598 11.0855 7.88785C10.9831 7.94095 10.9007 8.0801 10.7379 8.36162L9.62717 10.2677L9.62351 10.2745C9.46066 10.5551 9.37969 10.6952 9.38564 10.8101C9.38903 10.8722 9.40694 10.9327 9.43792 10.9867C9.4689 11.0407 9.5121 11.0866 9.56404 11.1209C9.66011 11.1836 9.82525 11.1836 10.1537 11.1836Z" fill="#E84142"/>
</g>
<defs>
<clipPath id="clip0_379_1836">
<rect width="16" height="16" fill="white" transform="translate(0.5)"/>
</clipPath>
</defs>
</svg>
