<svg class="icon-size" width="43" height="42" viewBox="0 0 43 42" fill="none" xmlns="http://www.w3.org/2000/svg"><mask id="mask0_503_118" style="mask-type:alpha" maskUnits="userSpaceOnUse" x="0" y="0" width="43" height="42"><path d="M42.118 20.95C42.118 9.38 32.689 0 21.058 0 9.429 0 0 9.38 0 20.95 0 32.52 9.428 41.9 21.059 41.9c11.63 0 21.059-9.38 21.059-20.95Z" fill="url(#paint0_radial_503_118)"/></mask><g mask="url(#mask0_503_118)"><path d="M42.118 20.95C42.118 9.38 32.689 0 21.058 0 9.429 0 0 9.38 0 20.95 0 32.52 9.428 41.9 21.059 41.9c11.63 0 21.059-9.38 21.059-20.95Z" fill="url(#paint1_radial_503_118)"/><path d="M35.38 14.41a4.124 4.124 0 0 1-.313 1.05 6 6 0 0 0-.413 1.37c-.053.28-.08.487-.103.669l-.001.01-.002.011c-.037.291-.062.488-.18.837-.097.285-.259.76-.647 1.273-.314.415-.84 1.108-1.54 1.192-.062.004-.189.01-.24-.017-1.99-1.01-3.699-1.756-4.29-1.924-.688-.194-.6-1.686-.522-3.003.035-.588.067-1.145.04-1.621-.097-1.662-.393-3.482-1.848-4.369-.868-.53-1.989-.684-3.06-.687.199-.094.42-.221.661-.36l.008-.005c.63-.363 1.413-.814 2.19-.893.254-.025.504-.055.75-.082 1.568-.176 2.923-.328 4.351.158.648.221 1.976.959 2.319 1.643.241.483.649.86 1.462 1.612.423.391.701.62.905.786l.01.007c.286.235.343.284.428.457.263.534.167 1.101.034 1.887ZM28.143 21.244c.095.032.13.146.075.229-.212.32-.456.76-.747 1.298-.137.253-.267.493-.375.68-.386.658-.417 1.212-.442 1.657-.026.465-.05.679-.33.864-.23.154-.466.205-2.104.453-.286.044-.412.1-.524.148-.03.013-.06.026-.095.039-.095.035-.187-.045-.182-.145.013-.235.022-.528.023-.897v-.071a9.055 9.055 0 0 0-.017-.787c-.021-.416-.024-.591.087-.772.137-.22.244-.286.42-.397.244-.153.58-.363 1.077-1.043.265-.36.323-.555.36-.724.016-.07.021-.096.225-.25.215-.162.87-.655 1.708-.515.233.039.528.125.841.233ZM21.628 28.755a.17.17 0 0 1-.138.07c-.171.008-.291-.034-.371-.13-.17-.204-.146-.615-.107-.855l.693-.184c.054.365.08.896-.077 1.1ZM21.684 26.269c-.012.1-.025.213-.024.332 0 .044.001.088.003.131 0 .113.005.292-.01.373-.217.078-.401.078-.644.074-.004-.07 0-.174.003-.244.002-.054.005-.108.005-.16v-.17c0-.132-.002-.349.03-.413a2.68 2.68 0 0 0 .204-.04c.143-.03.33-.07.449-.052a2.17 2.17 0 0 1-.016.169ZM20.402 28.543c-.033.353-.143.79-.476.856-.15.031-.222-.014-.267-.057-.226-.207-.261-.833-.23-1.281.15.003.346-.031.579-.076.141-.028.283-.059.395-.085.013.166.022.403 0 .643ZM20.245 27.275l-.752.262c.039-.29.09-.698.107-.97.013-.19.066-.249.08-.261.006-.005.015-.014.044-.014h.013l.016.003.474-.026c.02.222.02.71.018 1.006ZM19.031 27.043c-.042.112-.093.43-.124.655l-.94-.028c.052-.29.126-.585.207-.82.081-.234.17-.41.25-.459a.413.413 0 0 1 .43.04c.207.175.264.376.177.612ZM18.68 29.908c-.073.1-.154.15-.255.16-.102.012-.182-.01-.245-.07-.296-.271-.272-1.16-.26-1.588.39-.089.81-.164 1.01-.175.03.358.04 1.282-.25 1.673ZM17.451 27.644c-.045.122-.09.238-.123.34-.11.034-.444.004-.786-.071l.235-1.474c.386-.101.833-.134.942-.02.142.15-.144.904-.268 1.225ZM17.026 30.133c-.183.223-.456.328-.838.324-.264-.005-.359-.104-.406-.179-.212-.334-.005-1.121.203-1.624l1.275.076c.013.088.023.196.028.313.015.358-.03.803-.262 1.09Z" fill="#fff"/><path d="M27.56 19.44c-1.148-.323-1.05-1.992-.954-3.606.034-.57.066-1.11.04-1.552-.088-1.51-.343-3.155-1.564-3.899-1.314-.799-3.462-.617-4.787-.45l-.004.002h-.001c-.486.146-.94.241-1.292.223-.782-.04-1.39-.368-1.927-.655-.418-.226-.783-.42-1.126-.42h-.056c-1.027.067-1.5.316-1.929.697-.108.095-.24.37-.67 1.605-.218.624-.258.966-.298 1.298-.037.303-.074.615-.236 1.08-.112.321-.196.598-.276.865-.213.71-.38 1.268-.885 1.932-.06.079-.133.194-.218.326-.114.18-.256.402-.443.66-.131.182-.434.862-.418 1.07.025.33.133.535.257.774.122.235.262.502.287.87l.005.06c.045.585-.039.879-1.157 1.872a11.905 11.905 0 0 0-1.565 1.699c-.03.04.01.099.06.095a.604.604 0 0 1 .225.002c.27.03.533.145.724.34a.119.119 0 0 0 .128.026c.182-.075.382-.063.573-.045.236.022.475.092.631.244.048.046.115.069.18.054a.996.996 0 0 1 .558.027.9.9 0 0 1 .357.24.213.213 0 0 0 .267.034.77.77 0 0 1 .172-.082c.242-.082.511-.035.747.049.116.041.237.078.342.148.192.127.31.313.384.521.043.118.201.158.298.078.173-.143.31-.167.448-.106.07.032.119.075.152.13.057.094.174.172.281.142.376-.104.846-.05 1.187.132a.805.805 0 0 1 .326.304l.01-.065a.078.078 0 0 1 .053-.062l.08-.024c.185-.059 1.134-.33 1.503.055.015.016.043.018.058.001a.514.514 0 0 1 .118-.1.838.838 0 0 1 .926.08c.055.046.144.03.186-.03a.484.484 0 0 1 .44-.209l.521-.027a7.516 7.516 0 0 0 .697-.067c.054-.009.118-.022.186-.036.252-.055.54-.117.774-.009.227.104.198.36.17.587-.01.091-.021.187-.02.278l.003.129c.003.195.007.375-.032.513v.002l.024.107.004.015c.021.098.127.153.213.1.181-.11.372-.253.43-.335a.083.083 0 0 0 .01-.02.86.86 0 0 0 .039-.16c.032-.192.068-.584.071-1.378l.001-.086a9.02 9.02 0 0 0-.016-.74c-.022-.432-.04-.77.176-1.116.21-.335.412-.462.608-.585.227-.142.483-.303.914-.892.212-.29.238-.406.258-.5.047-.219.12-.35.447-.596.266-.2 1.075-.81 2.167-.627.358.06.938.25 1.51.474h.002a.35.35 0 0 1 .086.036c.512.203 1.01.43 1.329.611.074.042.169.018.221-.05.104-.134.218-.212.341-.286.046-.028.082-.049.116-.078l.034-.028c.095-.077.095-.24-.015-.297a19.728 19.728 0 0 0-3.466-1.369Zm-10.936.352c-.355 1.545-2.761 3.244-3.855 3.244h-.021a.502.502 0 0 1-.124-.02l-.036-.011a1.855 1.855 0 0 1-.681-.418c-.144-.14-.257-.305-.292-.482a15.52 15.52 0 0 0-.02-.094c-.059-.262-.133-.59.1-1.128.033-.072.061-.14.088-.201l.025-.06a14.455 14.455 0 0 0 .15-.37l.024-.066c.067-.186.075-.256.084-.328.008-.056.017-.125.04-.223.068-.29.104-.536.135-.755.056-.393.104-.733.318-1.045a.864.864 0 0 1 .168-.187l.05-.038a1.038 1.038 0 0 1 .361-.16c.196-.048.427-.055.693-.022.29.023.56.078.799.144a5.064 5.064 0 0 1 .771.28l.128.058.035.017a2.6 2.6 0 0 1 .436.247 2.164 2.164 0 0 1 .265.229c.462.484.44 1.044.36 1.389Zm1.116-5.858-.047.28c-.108.632-.356 1.498-1.27 1.72-.879.214-1.087.26-1.713.288-.014.002-.029.001-.044.001-.456 0-1.336-.286-1.491-.999-.1-.458.103-.79.438-1.342.056-.09.117-.188.18-.297.443-.743.618-1.28.758-1.71.137-.421.25-.77.543-1.058a1.61 1.61 0 0 1 .411-.296 1.84 1.84 0 0 1 .262-.105c.203-.065.423-.098.643-.098.426 0 .852.122 1.156.365.136.109.33.326.443.969.058.33-.04.938-.27 2.282Zm6.519 1.797c-.315.537-.487.833-.758 1.055-.54.44-1.168.552-1.686.552-.372 0-.688-.057-.874-.091-.536-.097-1.532-.277-1.863-1.06a.838.838 0 0 1-.066-.377c0-.123 0-.33-.058-.823l-.003-.032a2.364 2.364 0 0 1 .008-.799l.008-.039c.188-.95.238-1.095.28-1.177a.384.384 0 0 1 .516-.164.38.38 0 0 1 .172.498c-.02.054-.072.256-.218.99l-.007.04c-.041.207-.023.364 0 .563l.004.034c.063.534.063.777.063.908v.064c0 .005.003.013.005.019.063.146.203.258.374.343.106.053.217-.047.193-.163-.17-.837-.16-1.814.161-2.417a19.478 19.478 0 0 1 .487-.837l.001-.002.056-.092.046-.076a30.915 30.915 0 0 1 .261-.425l.036-.058.014-.023.006-.009a.352.352 0 0 1 .016-.026l.022-.035v-.002l.004-.005.002-.003a9.42 9.42 0 0 1 .188-.262c.083-.113-.013-.26-.143-.207a2.468 2.468 0 0 0-.569.323.38.38 0 1 1-.475-.596c.197-.154 1.24-.911 2.489-.556.9.255 1.371.939 1.549 1.196.143.21.582.843.568 1.728-.01.675-.293 1.161-.809 2.043Z" fill="#fff"/><path d="M16.147 11.102c-.064.154-.14.344-.223.552-.192.48-.41 1.024-.514 1.22-.18.341-.32.556-.433.73-.129.198-.23.356-.308.575-.136.384-.16.813-.072 1.28-.239-.026-.63-.19-.675-.397-.033-.154.063-.322.346-.785.057-.092.118-.193.184-.305.487-.815.683-1.421.828-1.864.156-.482.23-.685.479-.854a1.01 1.01 0 0 1 .388-.152ZM15.672 28.192a7.178 7.178 0 0 1-.8 1.282c-.171-.458-.467-1.507-.389-2.352a1.17 1.17 0 0 1 .009-.072c.031-.26.1-.5.225-.691.081-.126.308-.203.565-.203.19 0 .396.041.573.136h.002c.095.05.224.153.238.45.02.403-.173.944-.423 1.45Z" fill="#fff"/><path d="M30.197 22.154c.02.017.034.041.022.065-.08.158-.174.27-.286.4-.136.16-.29.342-.434.625-.205.402-.27.769-.305 1.707-.04 1.102.002 1.721.034 2.172.03.436.05.7-.028 1.124-.158.858-.527 1.426-.994 2.145-.584.899-1.189 1.828-2.19 2.125-.093.028-.096.028-.357.029-.227 0-.605 0-1.32.027-1.308.047-1.964.07-2.525.178-.59.113-.896.238-1.194.357-.269.109-.523.211-1.01.31-.29.06-.724.123-2.202.125-1.536.003-2.464.004-3.688-.135-1.68-.19-2.524-.287-3.084-.584-1.321-.701-1.879-1.962-2.802-4.051a1.287 1.287 0 0 1-.005-.011c-.011-.026.02-.051.045-.037a.741.741 0 0 0 .262.098.786.786 0 0 0 .263 0 .21.21 0 0 0 .043-.012l.008-.004a.03.03 0 0 1 .042.015.675.675 0 0 0 .309.387c.156.081.335.087.51.086.18-.003.36-.013.54-.034.094-.01.191.036.228.124.164.395.367.682.672.724.017.002.038.005.066.005.068 0 .175-.02.324-.122.116-.08.296-.033.38.08.075.102.166.177.244.239.315.321 1.079.475 1.72.475.35 0 .664-.046.85-.135.263-.128.263-.324.25-.403a12.369 12.369 0 0 1-.06-.423c-.002-.016.024-.023.03-.007.039.083.086.187.21.207.014.001.03.005.047.005.179 0 .457.057.505.229.024.087.059.169.106.243.107.169.326.37.76.378h.033c.497 0 .881-.162 1.14-.482.017-.02.033-.042.049-.064.093-.13.37-.136.487-.027a.705.705 0 0 0 .58.18.78.78 0 0 0 .56-.34c.093-.131.162-.292.212-.466.015-.051.086-.067.125-.03.096.087.248.18.468.18a.85.85 0 0 0 .173-.019c.432-.086.648-.442.75-.844.003-.014.022-.017.032-.006.109.132.311.285.663.285h.055a.595.595 0 0 0 .456-.236c.137-.179.192-.443.204-.71a.203.203 0 0 1 .127-.176c.37-.154.82-.486.951-.712a.634.634 0 0 0 .014-.025.214.214 0 0 1 .146-.117c.288-.054.413-.108.527-.157a1.25 1.25 0 0 1 .376-.105c1.662-.253 1.986-.308 2.346-.547.538-.356.565-.847.591-1.322.023-.402.049-.858.362-1.393.114-.195.246-.439.386-.697.244-.451.586-1.083.83-1.414a.167.167 0 0 1 .202-.052c.574.243 1.063.486 1.17.57Z" fill="#fff"/><path d="M14.062 27.072a11.04 11.04 0 0 0-.013 2.33c.027.28.063.572.109.867-.079.043-.314.102-.732.096-.6-.012-1.186-.162-1.361-.351l-.028-.025c-.146-.117-.242-.194-.255-.402-.005-.07.026-.14.09-.24.037-.055.084-.119.142-.198.101-.135.227-.303.355-.52a10.862 10.862 0 0 1 .745-1.134c.106-.145.232-.319.42-.605.14-.212.257-.378.353-.508.16-.217.266-.335.333-.4a6.16 6.16 0 0 1-.054.365c-.031.196-.072.436-.104.725ZM13.787 18.188l-.012.015c-.078.108-.167.23-.274.466-.286.634-.292.992-.296 1.28-.003.152-.005.272-.046.412a3.24 3.24 0 0 1-.129.322c-.169.384-.39.889-.29 1.568-.137-.066-.347-.216-.376-.295a3.185 3.185 0 0 0-.023-.11c-.048-.212-.08-.35.056-.66.356-.816.4-1.01.428-1.232.006-.049.011-.087.026-.148.075-.322.114-.598.146-.82.048-.335.08-.558.194-.725.042-.062.16-.094.328-.094.066 0 .141.005.223.016l.02.002.025.003ZM13.318 26.242a2.182 2.182 0 0 0-.126-.576l-.03-.066-.042-.069-.002-.001v-.002l-.024-.025a.487.487 0 0 0-.066-.056l-.045-.024a.166.166 0 0 0-.025-.01v-.001l-.007-.003-.005-.002a.013.013 0 0 0-.005-.002h-.001l-.01-.004c-.114-.042-.23-.088-.352-.106h-.007l-.043-.003H12.45l-.01.002h-.006c-.027.009-.056.016-.083.024-.012.006-.024.012-.036.02l-.03.017-.004.002-.002.002-.039.038a.64.64 0 0 0-.029.034l-.001.001c0 .001 0 .002-.002.002 0 .001 0 .002-.002.002l-.008.014-.14.212c-.11.169-.224.336-.338.502a312.065 312.065 0 0 0-.515.745l.205.04c.154.027.307.054.463.075.322.044.649.064.974.052.016 0 .032 0 .046.003.079-.11.17-.244.288-.42.065-.1.128-.192.186-.277a.323.323 0 0 1-.048-.14ZM12.173 27.564c-.028.246-.305.884-.738 1.492-.362.508-.582.631-.626.636-.175-.025-.347-.455-.484-.882a18.059 18.059 0 0 1-.146-.49c-.094-.325-.111-.76-.095-1.034.366.202 1.007.256 1.908.26h.003c.06.006.118.013.178.018ZM11.532 25.533v.002l-.012.017a135.634 135.634 0 0 1-.708 1.027c-.043.064-.102.133-.153.209-.128-.03-.256-.06-.383-.095a3.287 3.287 0 0 1-.365-.126.255.255 0 0 0-.068-.086v-.004l.111-.223c.07-.136.14-.27.216-.402.138-.237.304-.477.537-.63.012-.01.024-.017.037-.025a.692.692 0 0 1 .291-.11c.013-.001.091 0 .128.003h.015l.016.005c.027.009.055.015.082.024l.027.013c.024.014.048.027.07.045-.035-.027.05.06.05.054.069.095.09.174.109.302ZM10.306 24.891c-.286.235-.495.547-.668.871-.098.18-.186.364-.278.547a.905.905 0 0 1-.03.055 2.858 2.858 0 0 1-.523-.171 3.398 3.398 0 0 1-.118-.059c.086-.161.188-.317.286-.468.138-.213.286-.422.448-.619.061-.074.126-.156.21-.206.088-.05.194-.039.294-.033.106.007.22.01.32.05.02.008.043.022.06.033ZM9.851 28.715a.205.205 0 0 0-.037.04l-.026.007a5.72 5.72 0 0 1-.612.026c-.075-.003-.143-.015-.174-.062-.05-.075-.064-.206-.082-.305a4.92 4.92 0 0 1-.037-1.486c.255.092.518.162.788.206-.058.444.041 1.096.099 1.296l.081.278ZM9.029 24.729c-.226.276-.432.57-.617.875-.075.124-.16.253-.222.385a.968.968 0 0 1-.256-.113 2.506 2.506 0 0 1-.192-.133l-.085-.067-.019-.014c.02-.058.059-.123.08-.167a4.25 4.25 0 0 1 .511-.836c.05-.061.097-.14.174-.163a.686.686 0 0 1 .626.233ZM7.285 25.928c.004-.012.02-.013.026-.003.06.084.142.157.231.226.04.03.08.06.12.088.005.004.007.01.005.016a5.09 5.09 0 0 0-.156 1.2c0 .019-.027.022-.031.005-.115-.47-.27-1.255-.195-1.532ZM8.393 26.769a5.659 5.659 0 0 0-.053 1.012c.008.186.027.37.053.554v.004a.342.342 0 0 0-.125-.004c.009-.002-.013-.001-.023-.001h-.002l-.02-.002c-.046-.012-.05-.017-.088-.04A.462.462 0 0 1 8 28.145c-.09-.157-.11-.347-.118-.524a4.578 4.578 0 0 1 .082-1.037c.056.022.105.043.186.078.08.034.163.069.244.106Z" fill="#fff"/><g opacity=".8" filter="url(#filter0_i_503_118)" stroke-miterlimit="10"><path opacity=".8" d="M17.33 44.364c-1.542 0-3.005-.097-4.232-.192l-.339-.027-.338-.046c-.147-.021-.348-.043-.542-.064-1.181-.127-3.377-.365-5.802-1.498l-.376-.177-.351-.195c-4.66-2.599-6.404-6.509-7.343-8.611l-.2-.446c-.474-.965-.774-1.835-1.028-2.631l-.057-.178-.047-.173c-.676-2.391-.847-4.456-.537-6.498.31-2.05 1.074-3.916 2.4-5.869l.688-1.117a2.25 2.25 0 0 0 .291-.733c.524-2.586 1.714-4.417 2.299-5.292.16-1.058.426-2.099.792-3.106l.055-.152.058-.149c.01-.026.022-.063.044-.13.263-.788.879-2.63 2.455-4.563l.592-.714.604-.542a14.002 14.002 0 0 1 5.402-3.034 15.328 15.328 0 0 1 3.443-.606l.112-.008.17-.008a12.777 12.777 0 0 1 2.772.168c.448.075.909.023 1.329-.151a15.247 15.247 0 0 1 3.888-1.039l.286-.038a33.178 33.178 0 0 1 3.913-.25c2.291 0 4.264.295 6.03.902l.15.052.147.055c3.897 1.465 5.88 3.512 7.307 5.317l.068.086.196.174a13.54 13.54 0 0 1 3.236 3.62l.266.436.224.457c1.906 3.87 1.3 7.444 1.072 8.787l-.012.072c-.164.99-.425 1.963-.78 2.903-.13.907-.345 1.799-.64 2.666a15.429 15.429 0 0 1-2.213 4.303 15.403 15.403 0 0 1-1.864 2.165c-.243.234-.4.542-.447.875-.03.205-.064.408-.102.608-.56 2.982-1.87 5.057-2.405 5.884l-1.618 2.311c-1.948 2.415-4.26 4.007-7.056 4.863l-.678.211-.732.127a14.49 14.49 0 0 1-2.537.218c-.117 0-.235 0-.366-.003h-.038l-.144.009-.155.006h-.004c-.324.01-.645.063-.956.156-1.807.55-3.85.809-6.35.809Z" stroke="url(#paint2_linear_503_118)" stroke-width="1.055"/><path opacity=".8" d="M17.33 42.774c-1.477 0-2.895-.093-4.086-.187l-.283-.022-.282-.038c-.176-.025-.391-.047-.599-.07-1.147-.125-3.064-.332-5.205-1.33l-.314-.148-.293-.163C2.157 38.522.635 35.115-.274 33.079c-.065-.145-.144-.324-.219-.485-.423-.865-.701-1.663-.935-2.398l-.047-.148-.041-.144c-.602-2.127-.757-3.942-.489-5.712.268-1.771.944-3.408 2.123-5.133L1 17.628a2.38 2.38 0 0 0 .316-.827c.438-2.431 1.593-4.155 2.118-4.94l.066-.1.025-.039.03-.071.095-.3c.138-.997.381-1.977.727-2.924l.047-.127.05-.128c.016-.04.031-.085.076-.217.25-.749.77-2.304 2.13-3.973l.494-.595.501-.45A12.142 12.142 0 0 1 12.36.305c.988-.292 2.006-.47 3.034-.53l.094-.008.142-.007c.171-.008.343-.011.51-.011.738-.002 1.474-.213 2.196-.066a2.748 2.748 0 0 0 1.659-.175c.973-.427 2.284-.598 3.784-.784l.272-.036c.197-.024.513-.062.895-.097.663-.064 1.684-.14 2.783-.14 2.078 0 3.85.26 5.415.8l.125.042.122.047c3.454 1.299 5.162 3.037 6.492 4.722.073.094.15.19.177.223l.032.028.252.223.034.035a11.624 11.624 0 0 1 2.876 3.187l.221.363.188.38c1.64 3.33 1.126 6.359.907 7.653l-.012.069c-.156.94-.41 1.86-.76 2.747-.11.863-.307 1.713-.589 2.537a13.645 13.645 0 0 1-1.956 3.808 13.31 13.31 0 0 1-1.981 2.224 1.855 1.855 0 0 0-.61 1.189c-.036.337-.084.665-.145.986-.493 2.632-1.645 4.453-2.172 5.268l-1.31 1.895c-1.742 2.226-3.805 3.682-6.305 4.448l-.565.176-.612.106c-.73.128-1.47.192-2.212.19-.107 0-.218 0-.336-.003H24.9s-.023 0-.071.004l-.13.008-.13.004-.26.01a3.795 3.795 0 0 0-1.013.175c-1.665.529-3.588.778-5.966.778Z" stroke="url(#paint3_linear_503_118)" stroke-width="1.055"/><path opacity=".8" d="M17.33 40.902c-1.411 0-2.785-.09-3.94-.18l-.226-.018-.225-.03c-.204-.029-.433-.053-.655-.078-1.096-.118-2.752-.298-4.608-1.164l-.252-.117-.235-.131c-3.566-1.989-4.875-4.922-5.742-6.863a236.04 236.04 0 0 0-.235-.528c-.377-.761-.628-1.488-.842-2.161l-.038-.118-.033-.116c-.527-1.862-.666-3.427-.44-4.925.231-1.519.83-2.934 1.887-4.456l.126-.181.135-.174c.086-.108.168-.216.25-.32l.53-.967c.173-.316.29-.66.346-1.016.337-2.17 1.388-3.737 1.873-4.46l.002-.003.082-.123.103-.164c.041-.088.095-.205.142-.328.047-.147.103-.328.164-.515.115-.924.335-1.832.656-2.707l.037-.102.04-.103c.034-.086.059-.16.108-.307.232-.693.662-1.98 1.806-3.385l.396-.476.4-.359A10.274 10.274 0 0 1 12.906 2.1a11.596 11.596 0 0 1 2.626-.456l.075-.006.115-.005a9.154 9.154 0 0 1 2.692.277c.641.162 1.32.09 1.913-.2.949-.459 2.219-.945 3.707-1.127.102-.015.188-.026.258-.035a28.202 28.202 0 0 1 3.441-.224c1.867 0 3.436.228 4.801.698l.1.034.098.037c3.173 1.193 4.594 2.756 5.676 4.126.238.302.274.349.438.494l.202.178.079.08c.522.403 1.59 1.231 2.524 2.763l.177.29.15.304c1.373 2.789.946 5.307.74 6.517l-.01.067a11.73 11.73 0 0 1-.742 2.587l-.009.076a11.153 11.153 0 0 1-.527 2.336 11.836 11.836 0 0 1-1.701 3.313 11.178 11.178 0 0 1-2.206 2.34 1.79 1.79 0 0 0-.678 1.315c-.023.5-.081.999-.174 1.491-.426 2.282-1.427 3.865-1.939 4.655l-1.015 1.493c-1.532 2.033-3.347 3.35-5.54 4.018l-.451.14-.488.085c-.624.11-1.257.164-1.89.163-.1 0-.2 0-.308-.002h-.133c-.018 0-.074 0-.188.007l-.104.006-.1.004-.523.02c-.367.011-.73.076-1.078.192-1.524.511-3.323.751-5.584.751Z" stroke="url(#paint4_linear_503_118)" stroke-width=".989"/><path opacity=".8" d="M17.33 39.03c-1.35 0-2.676-.09-3.795-.176l-.17-.013-.168-.023a23.96 23.96 0 0 0-.71-.084c-1.03-.112-2.44-.264-4.012-.998l-.188-.088-.176-.098c-3.02-1.686-4.13-4.172-4.942-5.99l-.258-.573c-.345-.69-.565-1.353-.748-1.92l-.028-.088-.024-.087c-.883-3.121-.551-5.311 1.183-7.81l.095-.136.102-.13c.115-.146.223-.287.33-.421.16-.21.321-.422.498-.64.11-.136.197-.288.262-.45l.199-.506c.084-.216.137-.441.157-.671.173-2.003 1.152-3.463 1.637-4.187l.002-.003c.036-.054.09-.133.107-.162l.114-.18.034-.047c.06-.121.179-.377.283-.646.056-.183.144-.465.23-.721 0-.01 0-.02.005-.032.092-.84.287-1.664.579-2.457l.027-.077.03-.077c.053-.133.09-.245.142-.399.207-.619.553-1.655 1.481-2.794l.297-.357.298-.268c2.193-1.98 4.646-2.15 5.466-2.205l.056-.004.087-.004a7.374 7.374 0 0 1 3.165.569 1.169 1.169 0 0 0 .994-.047h.004c.834-.481 2.36-1.353 4.307-1.586a27.89 27.89 0 0 1 1.025-.118 26.36 26.36 0 0 1 2.425-.122c1.654 0 3.022.195 4.185.595l.075.026.074.027c2.719 1.022 3.891 2.305 4.859 3.53.26.328.376.48.668.736l.151.135.122.124.094.074c.46.355 1.318 1.015 2.078 2.26l.134.218.112.228c1.106 2.247.76 4.286.574 5.381l-.01.065a9.92 9.92 0 0 1-.68 2.316l-.026.064-.013.063a3.33 3.33 0 0 0-.032.212l-.012.086a9.285 9.285 0 0 1-.443 1.973c-.329 1.01-.817 1.96-1.445 2.818-.621.877-1.318 1.592-2.1 2.158a2.734 2.734 0 0 0-1.125 2.164 9.207 9.207 0 0 1-.154 1.571c-.36 1.934-1.19 3.243-1.706 4.04l-.739 1.101c-1.321 1.837-2.88 3.01-4.757 3.582l-.1.03c-.159.05-.321.09-.485.118l-.12.02a8.903 8.903 0 0 1-1.568.136c-.089 0-.18 0-.277-.002H24.903c-.037 0-.134 0-.309.01l-.077.005-.076.003c-.252.009-.565.02-.844.032-.383.016-.76.09-1.12.219-1.352.48-3.005.707-5.147.707Z" stroke="url(#paint5_linear_503_118)" stroke-width=".923"/><path opacity=".8" d="M17.33 37.156c-1.285 0-2.566-.085-3.65-.17l-.112-.008-.113-.016c-.259-.035-.518-.063-.767-.09-.947-.102-2.125-.23-3.414-.831l-.126-.06-.117-.064c-2.473-1.38-3.398-3.452-4.141-5.117-.092-.205-.189-.416-.283-.622-.291-.579-.488-1.17-.65-1.678l-.019-.058-.017-.058c-.728-2.575-.488-4.21.921-6.239l.063-.09.068-.087c.123-.156.235-.302.343-.443.367-.48.72-.941 1.25-1.503a.728.728 0 0 0 .195-.45l.04-.607-.015-.198.007-.206c.055-1.662.894-2.912 1.343-3.584.052-.077.106-.157.138-.208l.076-.12.07-.094c.084-.136.304-.6.47-1.046.058-.188.17-.545.267-.828.029-.09.032-.113.055-.307.077-.7.24-1.39.484-2.052l.018-.052.02-.052c.07-.177.118-.321.174-.49.178-.53.445-1.33 1.158-2.204l.198-.24.197-.176c1.536-1.388 3.209-1.65 4.338-1.726l.038-.003h.059c.082-.004.163-.006.243-.006.964 0 2.118.46 2.724.739a1.22 1.22 0 0 0 .928.033 9 9 0 0 0 1.1-.481c.77-.445 2.048-1.18 3.636-1.364.087-.013.166-.023.23-.031a24.434 24.434 0 0 1 2.97-.192c1.44 0 2.608.16 3.57.491l.05.018.047.018c2.27.854 3.175 1.835 4.044 2.935.282.355.482.61.896.978l.101.09.094.093c.085.084.176.16.273.23.39.3 1.043.802 1.622 1.751l.089.146.075.152c.84 1.705.57 3.295.408 4.245l-.01.064a8.07 8.07 0 0 1-.56 1.906v.005a1.846 1.846 0 0 0-.15.497c-.023.12-.037.216-.05.323l-.012.087a7.535 7.535 0 0 1-.359 1.61 8.121 8.121 0 0 1-1.19 2.322c-.767 1.09-1.654 1.855-2.722 2.342a1.543 1.543 0 0 0-.904 1.333 3.006 3.006 0 0 0-.004.265c.053.82.112 1.747-.071 2.703-.294 1.582-.967 2.645-1.473 3.425 0 0-2.322 3.214-4.434 3.855l-.227.071-.244.043a7.025 7.025 0 0 1-1.246.107c-.079 0-.16 0-.247-.002H24.9c-.083 0-.218 0-.428.014l-.051.003h-.05c-.81.03-1.573.057-1.785.098a1.31 1.31 0 0 0-.33.096c-1.195.521-2.763.765-4.926.765Z" stroke="url(#paint6_linear_503_118)" stroke-width=".858"/><path opacity=".8" d="M17.33 35.284c-1.22 0-2.456-.083-3.504-.164l-.056-.004-.056-.008a28.56 28.56 0 0 0-.822-.097c-.892-.097-1.814-.197-2.818-.665l-.063-.03-.059-.033c-1.93-1.077-2.646-2.685-3.342-4.242-.098-.221-.2-.45-.306-.677-.235-.463-.402-.959-.552-1.429l-.01-.029-.008-.03c-.579-2.05-.431-3.096.66-4.666l.03-.047.035-.043c.128-.163.244-.314.356-.461.524-.684.978-1.276 1.993-2.208l.003-.003a.529.529 0 0 0 .134-.562l-.183-.52a3.748 3.748 0 0 1-.077-.496v-.006l-.011-.14.003-.103c.038-1.128.634-2.017 1.028-2.606.062-.094.121-.18.167-.252l.037-.06.043-.057c.21-.28.55-1.059.728-1.54.047-.149.168-.547.268-.836.071-.217.118-.442.138-.67.06-.563.19-1.118.387-1.65l.01-.025.01-.026c.087-.223.148-.405.207-.582.158-.472.336-1.007.833-1.616l.1-.12.097-.087c1.091-.986 2.287-1.185 3.21-1.246h.049c.052 0 .103-.003.155-.003.897 0 1.587.366 2.044.609l.106.056.016.008c.126.068.236.127.338.177.283.141.61.175.916.094.625-.168 1.6-.536 2.256-.894l.014-.008c.69-.398 1.73-.998 2.947-1.13a18.5 18.5 0 0 1 .883-.103c.502-.047 1.266-.104 2.068-.104 1.227 0 2.194.127 2.954.388l.025.009.026.01c1.822.684 2.486 1.401 3.226 2.34.302.382.587.743 1.127 1.22l.05.048.047.046c.146.147.303.282.47.404.324.25.768.591 1.167 1.244l.044.072.038.077c.572 1.163.382 2.288.243 3.108l-.011.065a6.169 6.169 0 0 1-.444 1.504c-.123.276-.211.567-.26.866a6.983 6.983 0 0 0-.07.434l-.01.089a5.743 5.743 0 0 1-.276 1.246 6.253 6.253 0 0 1-.934 1.826c-.692.989-1.46 1.598-2.479 1.92-.488.154-.908.47-1.189.896l-.08.124-.09.102c-.26.293-.186 1.429-.141 2.107.047.744.097 1.513-.043 2.238-.23 1.238-.763 2.074-1.24 2.809 0 0-1.773 2.544-3.372 3.027l-.116.037-.123.02a5.109 5.109 0 0 1-.922.08h-.441c-.108 0-.282 0-.546.019H24.31c-1.073.038-1.72.061-2.078.13-.24.043-.476.113-.7.209-.958.422-2.296.62-4.203.62Z" stroke="url(#paint7_linear_503_118)" stroke-width=".858"/></g></g><defs><linearGradient id="paint2_linear_503_118" x1="-4.011" y1="-3.706" x2="43.989" y2="46.935" gradientUnits="userSpaceOnUse"><stop offset=".206" stop-color="#89D0FF"/><stop offset=".398" stop-color="#EBBF9A"/><stop offset=".602" stop-color="#EB8280"/><stop offset=".841" stop-color="#A281FF"/></linearGradient><linearGradient id="paint3_linear_503_118" x1="-2.132" y1="-1.549" x2="42.118" y2="45.326" gradientUnits="userSpaceOnUse"><stop offset=".206" stop-color="#89D0FF"/><stop offset=".398" stop-color="#EBBF9A"/><stop offset=".602" stop-color="#EB80DA"/><stop offset=".841" stop-color="#A281FF"/></linearGradient><linearGradient id="paint4_linear_503_118" x1="-.245" y1=".324" x2="40.254" y2="43.433" gradientUnits="userSpaceOnUse"><stop offset=".206" stop-color="#89D0FF"/><stop offset=".398" stop-color="#EBBF9A"/><stop offset=".602" stop-color="#EB8280"/><stop offset=".841" stop-color="#A281FF"/></linearGradient><linearGradient id="paint5_linear_503_118" x1="1.638" y1="2.204" x2="38.377" y2="41.535" gradientUnits="userSpaceOnUse"><stop offset=".206" stop-color="#89D0FF"/><stop offset=".398" stop-color="#EBBF9A"/><stop offset=".602" stop-color="#EB80E7"/><stop offset=".841" stop-color="#A281FF"/></linearGradient><linearGradient id="paint6_linear_503_118" x1="3.521" y1="4.077" x2="36.508" y2="39.626" gradientUnits="userSpaceOnUse"><stop offset=".206" stop-color="#89D0FF"/><stop offset=".398" stop-color="#EBBF9A"/><stop offset=".602" stop-color="#EB80D3"/><stop offset=".841" stop-color="#A281FF"/></linearGradient><linearGradient id="paint7_linear_503_118" x1="5.401" y1="5.949" x2="34.633" y2="37.732" gradientUnits="userSpaceOnUse"><stop offset=".206" stop-color="#89D0FF"/><stop offset=".398" stop-color="#EBBF9A"/><stop offset=".602" stop-color="#A280EB"/><stop offset=".841" stop-color="#A281FF"/></linearGradient><radialGradient id="paint0_radial_503_118" cx="0" cy="0" r="1" gradientUnits="userSpaceOnUse" gradientTransform="matrix(0 23.5369 -23.659 0 21.059 23.146)"><stop offset=".167" stop-color="#073183"/><stop offset="1" stop-color="#0054F9"/></radialGradient><radialGradient id="paint1_radial_503_118" cx="0" cy="0" r="1" gradientUnits="userSpaceOnUse" gradientTransform="matrix(0 23.5369 -23.659 0 21.059 23.146)"><stop offset=".167" stop-color="#073183"/><stop offset="1" stop-color="#0054F9"/></radialGradient><filter id="filter0_i_503_118" x="-4.539" y="-4.233" width="52.032" height="49.52" filterUnits="userSpaceOnUse" color-interpolation-filters="sRGB"><feFlood flood-opacity="0" result="BackgroundImageFix"/><feBlend in="SourceGraphic" in2="BackgroundImageFix" result="shape"/><feColorMatrix in="SourceAlpha" values="0 0 0 0 0 0 0 0 0 0 0 0 0 0 0 0 0 0 127 0" result="hardAlpha"/><feOffset dx=".264" dy=".396"/><feGaussianBlur stdDeviation=".33"/><feComposite in2="hardAlpha" operator="arithmetic" k2="-1" k3="1"/><feColorMatrix values="0 0 0 0 0 0 0 0 0 0 0 0 0 0 0 0 0 0 0.12 0"/><feBlend in2="shape" result="effect1_innerShadow_503_118"/></filter></defs></svg>