<svg class="icon-size" width="32" height="32" viewBox="0 0 32 32" fill="none" xmlns="http://www.w3.org/2000/svg"><g id="atom"><path class="fill" d="M16.033 2.041c-1.727 0-3.128 6.265-3.128 13.992 0 7.727 1.4 13.992 3.128 13.992 1.727 0 3.127-6.264 3.127-13.992 0-7.727-1.4-13.992-3.127-13.992Zm.216 27.194c-.198.264-.395.066-.395.066-.795-.922-1.193-2.634-1.193-2.634-1.391-4.477-1.06-14.09-1.06-14.09.653-7.632 1.843-9.435 2.248-9.835a.247.247 0 0 1 .316-.026c.588.416 1.08 2.157 1.08 2.157 1.455 5.399 1.323 10.469 1.323 10.469.132 4.411-.729 9.35-.729 9.35-.662 3.752-1.59 4.543-1.59 4.543Z" fill="#6F7390"/><path class="fill" d="M28.17 9.07c-.86-1.499-6.99.404-13.697 4.25-6.706 3.845-11.436 8.177-10.577 9.675.86 1.498 6.99-.404 13.696-4.25C24.298 14.9 29.03 10.569 28.17 9.07ZM4.69 22.79c-.33-.042-.255-.312-.255-.312.403-1.149 1.689-2.346 1.689-2.346 3.192-3.435 11.696-7.931 11.696-7.931 6.945-3.231 9.102-3.095 9.649-2.944a.247.247 0 0 1 .179.263c-.066.717-1.333 2.01-1.333 2.01-3.957 3.95-8.42 6.359-8.42 6.359-3.762 2.31-8.473 4.02-8.473 4.02-3.585 1.292-4.732.88-4.732.88Z" fill="#6F7390"/><path class="fill" d="M28.139 23.045c.866-1.494-3.852-5.847-10.534-9.721-6.683-3.874-12.812-5.8-13.678-4.303-.866 1.497 3.852 5.846 10.538 9.72 6.686 3.875 12.808 5.802 13.674 4.304ZM4.5 9.598c-.128-.303.142-.377.142-.377 1.197-.225 2.877.29 2.877.29 4.572 1.04 12.723 6.147 12.723 6.147 6.276 4.391 7.239 6.326 7.383 6.875a.246.246 0 0 1-.137.287c-.654.3-2.407-.147-2.407-.147-5.402-1.448-9.723-4.102-9.723-4.102-3.882-2.094-7.721-5.316-7.721-5.316-2.917-2.456-3.136-3.654-3.136-3.654v-.003Z" fill="#6F7390"/><path class="fill" d="M16 17.646a1.646 1.646 0 1 0 0-3.292 1.646 1.646 0 0 0 0 3.292Z" fill="#B7B9C8"/><path class="fill" d="M22.749 10.667c.527 0 .955-.443.955-.988 0-.545-.428-.988-.955-.988-.527 0-.955.443-.955.988 0 .545.428.988.955.988Z" fill="#B7B9C8"/><path class="fill" d="M7.078 14.025c.527 0 .955-.443.955-.988 0-.545-.428-.988-.955-.988-.527 0-.955.443-.955.988 0 .545.428.988.955.988Z" fill="#B7B9C8"/><path class="fill" d="M14.058 26.14c.527 0 .954-.442.954-.988 0-.545-.427-.987-.954-.987-.528 0-.955.442-.955.987 0 .546.427.988.955.988Z" fill="#B7B9C8"/></g></svg>