<svg class="icon-size" width="35" height="35" viewBox="0 0 35 35" fill="none" xmlns="http://www.w3.org/2000/svg"><path d="M28.293 6.004H6.683v19.641h21.61V6.004Z" fill="#fff"/><path fill-rule="evenodd" clip-rule="evenodd" d="M34.988 17.5c0 9.652-7.83 17.477-17.488 17.477C7.841 34.977.012 27.152.012 17.5.012 7.848 7.842.023 17.5.023c9.659 0 17.488 7.825 17.488 17.477Zm-22.444 6.955H9.15c-.713 0-1.065 0-1.28-.137a.862.862 0 0 1-.39-.675c-.014-.253.162-.562.515-1.18L16.375 7.7c.356-.627.537-.94.765-1.056a.865.865 0 0 1 .782 0c.227.116.408.43.764 1.056l1.723 3.006.009.015c.385.672.58 1.014.666 1.371.094.391.094.803 0 1.194-.086.36-.28.704-.67 1.387L16.01 22.45l-.011.02c-.388.678-.584 1.021-.857 1.28-.296.284-.652.49-1.043.606-.357.099-.757.099-1.556.099Zm8.571 0h4.864c.717 0 1.078 0 1.293-.142a.859.859 0 0 0 .39-.678c.013-.245-.16-.542-.497-1.125l-.035-.06-2.436-4.165-.028-.047c-.342-.578-.515-.87-.737-.983a.856.856 0 0 0-.777 0c-.224.116-.404.42-.76 1.035l-2.428 4.164-.008.015c-.356.613-.533.919-.52 1.17a.87.87 0 0 0 .39.679c.21.137.572.137 1.29.137Z" fill="#E84142"/></svg>