<svg class="icon-size" width="30" height="30" viewBox="0 0 30 30" fill="none" xmlns="http://www.w3.org/2000/svg"><path d="M15 30c8.284 0 15-6.716 15-15 0-8.284-6.716-15-15-15C6.716 0 0 6.716 0 15c0 8.284 6.716 15 15 15Z" fill="#0AC18E"/><path d="M19.679 9.963c-.754-1.71-2.486-2.075-4.607-1.72L14.391 5.6l-1.607.415.67 2.635c-.422.106-.856.198-1.287.32l-.67-2.62-1.606.415.681 2.642c-.346.1-3.243.842-3.243.842l.441 1.72s1.18-.33 1.17-.304c.654-.171.962.156 1.107.464l1.873 7.242c.023.209-.015.567-.464.689.026.015-1.17.3-1.17.3l.176 2.007s2.87-.735 3.247-.83l.69 2.672 1.606-.415-.689-2.691c.442-.103.872-.21 1.29-.32l.686 2.676 1.606-.415-.689-2.668c2.475-.602 4.223-2.163 3.865-4.55-.229-1.439-1.801-2.62-3.107-2.752.803-.712 1.21-1.752.712-3.11Zm-.773 6.301c.32 2.364-2.966 2.654-4.05 2.939l-.945-3.537c1.089-.285 4.455-1.485 4.995.598Zm-1.98-4.816c.34 2.101-2.47 2.345-3.376 2.577l-.86-3.209c.909-.225 3.547-1.313 4.236.632Z" fill="#fff"/></svg>