<svg width="100" height="59" viewBox="0 0 100 59" fill="none" xmlns="http://www.w3.org/2000/svg">
<path d="M5.3718 31.7224C4.9854 31.7224 4.6718 31.4326 4.6718 31.0476V31C4.6718 28.5542 5.0484 26.1448 5.7918 23.839C5.9108 23.4708 6.3056 23.272 6.6724 23.3868C7.0406 23.5058 7.2422 23.9006 7.1246 24.2674C6.426 26.4346 6.0718 28.6998 6.0718 31C6.0718 31.385 5.7596 31.7224 5.3718 31.7224ZM34.7956 51.8544C32.6144 52.5628 30.3366 52.9254 28.0252 52.9282C27.6388 52.9282 27.3252 53.2446 27.3252 53.6282C27.3252 54.0118 27.6388 54.3282 28.0252 54.3282C30.4836 54.3254 32.9098 53.9418 35.2296 53.1872C35.5978 53.0696 35.7966 52.6734 35.6762 52.3052C35.5572 51.9384 35.161 51.7354 34.7956 51.8544ZM7.1512 37.8152C7.0322 37.447 6.6416 37.2468 6.2692 37.3672C5.9024 37.4862 5.7008 37.8824 5.8212 38.2492C6.58 40.5732 7.6986 42.7586 9.1476 44.7438C9.2848 44.9328 9.4976 45.0308 9.7132 45.0308C9.856 45.0308 10.0016 44.9888 10.1248 44.895C10.437 44.6668 10.5056 44.2286 10.2774 43.9178C8.918 42.053 7.8652 39.9992 7.1512 37.8152ZM34.7116 10.1176C36.8998 10.8204 38.9578 11.862 40.8296 13.2144C40.9542 13.304 41.097 13.3474 41.2384 13.3474C41.4554 13.3474 41.6696 13.2466 41.8054 13.0576C42.0322 12.744 41.9608 12.3058 41.65 12.0804C39.6592 10.6412 37.4696 9.5324 35.14 8.7848C34.7718 8.6686 34.3798 8.8702 34.2594 9.237C34.1418 9.6052 34.3434 10 34.7116 10.1176ZM9.66 18.442C9.877 18.442 10.0912 18.3412 10.227 18.1522C11.578 16.286 13.2048 14.6508 15.0654 13.29C15.3776 13.0618 15.4448 12.6236 15.2166 12.3114C14.9898 11.9992 14.5516 11.932 14.238 12.1602C12.2598 13.6064 10.5294 15.3466 9.093 17.3304C8.8662 17.644 8.9362 18.0808 9.2498 18.3076C9.3744 18.4 9.5186 18.442 9.66 18.442ZM20.9468 10.1932C21.0182 10.1932 21.0924 10.182 21.1652 10.1582C23.3436 9.4442 25.6214 9.0788 27.9342 9.0732C28.3192 9.0718 28.6342 8.7582 28.6328 8.3718C28.6314 7.9868 28.3164 7.6732 27.9328 7.6732H27.9314C25.4716 7.6802 23.0482 8.0694 20.7298 8.8282C20.363 8.9486 20.1628 9.3434 20.2832 9.7116C20.3784 10.0056 20.6514 10.1932 20.9468 10.1932ZM21.2464 51.8684C19.0596 51.16 17.003 50.1156 15.134 48.759C14.8218 48.5294 14.3822 48.6022 14.1568 48.9116C13.93 49.228 14 49.6648 14.3122 49.8916C16.3002 51.3322 18.4884 52.4452 20.8152 53.197C20.8866 53.2222 20.9594 53.2292 21.0308 53.2292C21.3262 53.2292 21.6006 53.0402 21.6972 52.7448C21.8162 52.3822 21.6146 51.9874 21.2464 51.8684ZM45.7464 43.8828C44.3912 45.7448 42.7602 47.3772 40.8982 48.7338C40.586 48.962 40.5188 49.4002 40.7456 49.7124C40.8842 49.9 41.0956 50.0008 41.3112 50.0008C41.454 50.0008 41.5982 49.9574 41.7228 49.8664C43.7038 48.423 45.437 46.687 46.879 44.7032C47.1086 44.3882 47.0372 43.9528 46.7278 43.726C46.41 43.4992 45.9732 43.5706 45.7464 43.8828ZM50.6282 30.2552C50.2418 30.2552 49.9282 30.6122 49.9282 31C49.9282 33.3128 49.5698 35.5934 48.86 37.7746C48.7424 38.1428 48.944 38.5362 49.3108 38.6566C49.3822 38.6818 49.455 38.6902 49.5236 38.6902C49.819 38.6902 50.0934 38.5026 50.1914 38.2044C50.946 35.886 51.3282 33.4584 51.3282 31V30.9104C51.3282 30.524 51.0146 30.2552 50.6282 30.2552ZM48.8348 24.1442C48.9314 24.4382 49.2058 24.6258 49.5012 24.6258C49.5754 24.6258 49.6468 24.6146 49.7196 24.5908C50.0864 24.4704 50.2852 24.0742 50.1648 23.7074C49.4004 21.3834 48.2748 19.2008 46.823 17.2212C46.5934 16.909 46.1538 16.8418 45.8458 17.0714C45.535 17.301 45.4664 17.7378 45.6974 18.05C47.061 19.9092 48.1166 21.9602 48.8348 24.1442ZM56 31C56 46.4378 43.4378 59 28 59C12.5608 59 0 46.4378 0 31C0 15.5608 12.5608 3 28 3C43.4378 3 56 15.5608 56 31ZM53.2 31C53.2 17.105 41.895 5.8 28 5.8C14.105 5.8 2.8 17.105 2.8 31C2.8 44.895 14.105 56.2 28 56.2C41.895 56.2 53.2 44.895 53.2 31ZM30.3604 32.1452C29.8928 31.9674 29.1788 31.8778 28.2212 31.8778H26.033V35.5374C26.0414 36.0554 26.061 36.3578 26.0932 36.446C26.1338 36.5566 26.1996 36.6378 26.2934 36.6812C26.3858 36.7232 26.6378 36.7498 27.048 36.7498H28.28C28.9968 36.7498 29.5918 36.6812 30.0608 36.5454C30.534 36.4138 30.9358 36.1366 31.2634 35.7152C31.591 35.2938 31.759 34.7912 31.759 34.2004C31.759 33.7006 31.6414 33.2764 31.409 32.9264C31.178 32.5862 30.828 32.323 30.3604 32.1452ZM48.2104 31C48.2104 42.1622 39.1622 51.2104 28 51.2104C16.8392 51.2104 7.791 42.1622 7.791 31C7.791 19.8392 16.8392 10.791 28 10.791C39.1622 10.791 48.2104 19.8392 48.2104 31ZM36.1508 34.6526C36.1508 33.9022 35.973 33.2232 35.6174 32.6128C35.2618 31.9996 34.7774 31.5278 34.1768 31.1848C33.7554 30.9412 33.152 30.7186 32.3582 30.5184C33.096 30.2678 33.6896 29.9514 34.1376 29.5664C34.587 29.1828 34.9314 28.7404 35.1708 28.2406C35.4088 27.7394 35.5278 27.2102 35.5278 26.653C35.5278 25.8858 35.3024 25.1802 34.8544 24.5376C34.4008 23.8964 33.7554 23.4022 32.9154 23.0606C32.5878 22.9276 32.1986 22.8268 31.78 22.7456V19.7622H28.917V22.544H27.0774V19.7622H24.2144V22.544H19.8478V24.882H20.5156C20.9594 24.882 21.2604 24.924 21.4186 25.0038C21.5768 25.0836 21.6874 25.1942 21.7518 25.33C21.8176 25.4672 21.8498 25.7878 21.8498 26.2876V35.7152C21.8498 36.2108 21.819 36.5258 21.7518 36.6672C21.6874 36.81 21.5768 36.9192 21.4186 36.9934C21.2604 37.0704 20.9608 37.1096 20.5156 37.1096H19.8478V39.4476H24.2144V42.228H27.0774V39.4476H28.7056C28.7812 39.4476 28.8498 39.4462 28.9184 39.4462V42.228H31.7814V39.2068C32.2616 39.1144 32.6858 38.9982 33.0428 38.8512C34.0298 38.4578 34.7928 37.8838 35.3374 37.1278C35.8792 36.3774 36.1508 35.55 36.1508 34.6526ZM30.0356 29.1506C30.5018 28.9896 30.849 28.7446 31.0842 28.4212C31.318 28.095 31.4342 27.7156 31.4342 27.2872C31.4342 26.8434 31.3236 26.464 31.1024 26.149C30.8798 25.834 30.5564 25.61 30.1392 25.477C29.7178 25.3426 28.966 25.2754 27.8866 25.2754H26.033V29.3956H27.8866C28.8554 29.3942 29.5708 29.313 30.0356 29.1506Z" fill="#FFB800"/>
<circle cx="70.5" cy="29.5" r="29.5" fill="#E1E1E1"/>
<path d="M91.3358 8.66424C85.7486 3.07699 78.349 0 70.5 0C62.651 0 55.2514 3.07699 49.6642 8.66424C44.077 14.2514 41 21.651 41 29.5C41 37.349 44.077 44.7486 49.6642 50.3358C55.2514 55.923 62.651 59 70.5 59C78.349 59 85.7486 55.923 91.3358 50.3358C96.923 44.7486 100 37.349 100 29.5C100 21.651 96.923 14.2514 91.3358 8.66424ZM70.5 55.543C56.1398 55.543 44.457 43.8602 44.457 29.5C44.457 15.1398 56.1398 3.45703 70.5 3.45703C84.8602 3.45703 96.543 15.1398 96.543 29.5C96.543 43.8602 84.8602 55.543 70.5 55.543Z" fill="#2D2C39"/>
<path d="M70.5 7.0293C58.1097 7.0293 48.0293 17.1097 48.0293 29.5C48.0293 41.8903 58.1097 51.9707 70.5 51.9707C82.8903 51.9707 92.9707 41.8903 92.9707 29.5C92.9707 17.1097 82.8903 7.0293 70.5 7.0293ZM70.5 48.5137C60.0159 48.5137 51.4863 39.9841 51.4863 29.5C51.4863 19.0159 60.0159 10.4863 70.5 10.4863C80.9841 10.4863 89.5137 19.0159 89.5137 29.5C89.5137 39.9841 80.9841 48.5137 70.5 48.5137Z" fill="#2D2C39"/>
<path d="M75.6855 24.297C75.6855 25.2516 76.4595 26.0255 77.4141 26.0255C78.3687 26.0255 79.1426 25.2516 79.1426 24.297C79.1426 22.3827 78.1525 20.5422 76.426 19.2474C75.2468 18.363 73.7959 17.7722 72.2285 17.5209V15.6543C72.2285 14.6997 71.4546 13.9258 70.5 13.9258C69.5454 13.9258 68.7715 14.6997 68.7715 15.6543V17.5209C67.204 17.7722 65.753 18.363 64.574 19.2474C62.8475 20.5422 61.8574 22.3827 61.8574 24.297C61.8574 26.2113 62.8475 28.0517 64.574 29.3466C65.7532 30.231 67.2041 30.8218 68.7715 31.0731V37.9191C66.7802 37.4324 65.3145 36.1402 65.3145 34.6681C65.3145 33.7135 64.5405 32.9396 63.5859 32.9396C62.6313 32.9396 61.8574 33.7135 61.8574 34.6681C61.8574 36.5824 62.8475 38.4228 64.574 39.7177C65.7532 40.6021 67.2041 41.1929 68.7715 41.4442V43.3282C68.7715 44.2828 69.5454 45.0567 70.5 45.0567C71.4546 45.0567 72.2285 44.2828 72.2285 43.3282V41.4442C73.796 41.1929 75.247 40.6021 76.426 39.7177C78.1525 38.4229 79.1426 36.5824 79.1426 34.6681C79.1426 32.7538 78.1525 30.9133 76.426 29.6185C75.2468 28.7341 73.7959 28.1433 72.2285 27.892V21.046C74.2198 21.5327 75.6855 22.8249 75.6855 24.297ZM65.3145 24.297C65.3145 22.8249 66.7802 21.5326 68.7715 21.046V27.5479C66.7802 27.0613 65.3145 25.7691 65.3145 24.297ZM75.6855 34.6681C75.6855 36.1402 74.2198 37.4324 72.2285 37.9191V31.4172C74.2198 31.9038 75.6855 33.196 75.6855 34.6681Z" fill="#2D2C39"/>
</svg>
