<svg class="icon-size" xmlns="http://www.w3.org/2000/svg" fill="none" viewBox="0 0 30 30"><g clip-path="url(#bnb)"><path fill="#F0B90B" fill-rule="evenodd" d="M15 0c8.285 0 15 6.715 15 15s-6.715 15-15 15S0 23.285 0 15 6.715 0 15 0Z" clip-rule="evenodd"/><path fill="#fff" d="m8.244 15 .01 3.966 3.371 1.983v2.323l-5.343-3.134V13.84L8.244 15Zm0-3.966v2.311l-1.963-1.161V9.873l1.963-1.161 1.972 1.16-1.972 1.162Zm4.789-1.161 1.962-1.161 1.973 1.16-1.973 1.162-1.962-1.161Z"/><path fill="#fff" d="M9.662 18.144v-2.322l1.963 1.161v2.311l-1.963-1.15Zm3.37 3.637 1.963 1.161 1.973-1.16v2.31l-1.973 1.162-1.963-1.162v-2.31Zm6.75-11.908 1.963-1.161 1.973 1.16v2.312l-1.973 1.161v-2.311l-1.963-1.161Zm1.963 9.093L21.756 15l1.963-1.161v6.298l-5.343 3.133v-2.322l3.37-1.982Z"/><path fill="#fff" d="m20.338 18.144-1.963 1.15v-2.31l1.963-1.162v2.322Z"/><path fill="#fff" d="m20.338 11.856.01 2.322-3.38 1.983v3.976l-1.962 1.15-1.963-1.15v-3.976l-3.38-1.983v-2.322l1.972-1.161 3.359 1.992 3.38-1.992 1.972 1.16h-.008ZM9.662 7.89l5.333-3.145 5.343 3.145-1.963 1.16-3.38-1.992-3.37 1.993L9.662 7.89Z"/></g><defs><clipPath id="bnb"><path fill="#fff" d="M0 0h30v30H0z"/></clipPath></defs></svg>