<svg class="icon-size" xmlns="http://www.w3.org/2000/svg" width="100" height="111" viewBox="0 0 100 111" fill="none"><path fill="#AEDB01" d="M50.296 73.47H0V0h50.296C67.56 0 81.55 13.99 81.55 31.245v10.97c0 17.265-13.99 31.254-31.255 31.254Z"/><path fill="#B0B1AC" d="M63.255 110.188H0V73.453C0 53.168 16.449 36.72 36.745 36.72h26.51C83.551 36.719 100 53.168 100 73.453c0 20.286-16.449 36.735-36.745 36.735Z"/><path fill="#5D6D3C" d="M81.551 41.596v.613c0 17.265-13.99 31.244-31.265 31.244H0c0-10.142 4.122-19.326 10.755-25.98a36.627 36.627 0 0 1 26-10.754h26.5a36.757 36.757 0 0 1 18.296 4.877Z"/></svg>