<svg class="icon-size" viewBox="0 0 24 39" fill="none" xmlns="http://www.w3.org/2000/svg">
  <path d="M5.546 27a1.464 1.464 0 0 1-1.432-1.233L.022 1.71A1.445 1.445 0 0 1 .272.614a1.464 1.464 0 0 1 2.637.617l4.069 24.057c.068.388-.023.776-.25 1.096-.227.32-.568.525-.955.593a.763.763 0 0 1-.227.023Z" fill="#CF0"/>
  <path d="M12.523 16c-2.323 0-4.51.706-6.33 1.89l.5 2.915a8.831 8.831 0 0 1 5.83-2.186c4.896 0 8.881 3.985 8.881 8.881 0 4.896-3.985 8.881-8.881 8.881-4.896 0-8.881-3.985-8.881-8.881 0-.66.068-1.298.205-1.913l-.797-4.623C1.774 22.832 1 25.064 1 27.5 1 33.853 6.17 39 12.5 39S24 33.83 24 27.5 18.876 16 12.523 16Z" fill="#CF0"/>
  <path d="M11.5 34a1.5 1.5 0 1 0 0-3 1.5 1.5 0 0 0 0 3Zm5-2a1.5 1.5 0 1 0 0-3 1.5 1.5 0 0 0 0 3Zm-4-3a1.5 1.5 0 1 0 0-3 1.5 1.5 0 0 0 0 3Zm-5 2a1.5 1.5 0 1 0 0-3 1.5 1.5 0 0 0 0 3Zm10-4a1.5 1.5 0 1 0 0-3 1.5 1.5 0 0 0 0 3Zm-4-3a1.5 1.5 0 1 0 0-3 1.5 1.5 0 0 0 0 3Zm-5 2a1.5 1.5 0 1 0 0-3 1.5 1.5 0 0 0 0 3Z" fill="#1CD8D2"/>
</svg>
