<svg class="size" viewBox="0 0 24 39" fill="none" xmlns="http://www.w3.org/2000/svg">
<path d="M5.54579 27C4.84112 27 4.22739 26.475 4.11373 25.7674L0.0221482 1.71004C-0.0460449 1.32202 0.0448792 0.933995 0.272189 0.614445C0.499499 0.294897 0.840465 0.0894724 1.22689 0.0209981C2.02248 -0.115951 2.7726 0.431846 2.90899 1.23072L6.97785 25.2881C7.04605 25.6761 6.9551 26.0642 6.72778 26.3837C6.50051 26.7032 6.1595 26.9087 5.7731 26.9772C5.7049 27 5.61398 27 5.54579 27Z" fill="#CCFF00"/>
<path d="M12.5228 16C10.2 16 8.01384 16.7059 6.19206 17.8901L6.69306 20.805C8.26437 19.4386 10.2911 18.6188 12.5228 18.6188C17.4188 18.6188 21.404 22.6039 21.404 27.5C21.404 32.396 17.4188 36.3812 12.5228 36.3812C7.62674 36.3812 3.64159 32.396 3.64159 27.5C3.64159 26.8396 3.7099 26.202 3.84654 25.5872L3.04951 20.9644C1.77426 22.8317 1 25.0634 1 27.5C1 33.8534 6.16933 39 12.5 39C18.8307 39 24 33.8307 24 27.5C24 21.1693 18.8762 16 12.5228 16Z" fill="#CCFF00"/>
<path d="M11.5 34C12.3284 34 13 33.3284 13 32.5C13 31.6716 12.3284 31 11.5 31C10.6716 31 10 31.6716 10 32.5C10 33.3284 10.6716 34 11.5 34Z" fill="#1CD8D2"/>
<path d="M16.5 32C17.3284 32 18 31.3284 18 30.5C18 29.6716 17.3284 29 16.5 29C15.6716 29 15 29.6716 15 30.5C15 31.3284 15.6716 32 16.5 32Z" fill="#1CD8D2"/>
<path d="M12.5 29C13.3285 29 14 28.3284 14 27.5C14 26.6716 13.3285 26 12.5 26C11.6716 26 11 26.6716 11 27.5C11 28.3284 11.6716 29 12.5 29Z" fill="#1CD8D2"/>
<path d="M7.49997 31C8.32841 31 9 30.3284 9 29.5C9 28.6716 8.32841 28 7.49997 28C6.67153 28 6 28.6716 6 29.5C6 30.3284 6.67153 31 7.49997 31Z" fill="#1CD8D2"/>
<path d="M17.5 27C18.3284 27 19 26.3284 19 25.5C19 24.6716 18.3284 24 17.5 24C16.6715 24 16 24.6716 16 25.5C16 26.3284 16.6715 27 17.5 27Z" fill="#1CD8D2"/>
<path d="M13.5 24C14.3284 24 15 23.3284 15 22.5C15 21.6716 14.3284 21 13.5 21C12.6716 21 12 21.6716 12 22.5C12 23.3284 12.6716 24 13.5 24Z" fill="#1CD8D2"/>
<path d="M8.50003 26C9.32847 26 10 25.3284 10 24.5C10 23.6716 9.32847 23 8.50003 23C7.67159 23 7 23.6716 7 24.5C7 25.3284 7.67159 26 8.50003 26Z" fill="#1CD8D2"/>
</svg>
