<svg class="icon-size" width="37" height="36" viewBox="0 0 37 36" fill="none" xmlns="http://www.w3.org/2000/svg"><path fill-rule="evenodd" clip-rule="evenodd" d="M12.487.975C14.414.375 16.42 0 18.577 0c10.252 0 18.5 8.025 18.422 18 0 9.9-8.324 18-18.5 18C8.326 36 0 27.975 0 18c0-4.748 1.892-9.006 4.933-12.217v12.892c.154 7.275 6.167 13.05 13.644 13.05 7.554 0 13.643-5.925 13.643-13.275 0-7.35-6.09-13.275-13.643-13.275h-3.084v2.1h3.315c6.32.075 11.331 5.1 11.331 11.175 0 6.15-5.164 11.175-11.485 11.175-6.32 0-11.485-5.025-11.485-11.175V3.825c1.002-.75 2.08-1.425 3.237-1.95v16.65c.077 4.425 3.7 7.95 8.248 7.95 4.548 0 8.248-3.6 8.248-8.025 0-4.425-3.7-8.025-8.248-8.025H15.57v2.1h3.237c3.315.075 6.012 2.775 6.012 6 0 3.3-2.774 6-6.166 6-3.392 0-6.167-2.7-6.167-6V.975ZM4.933 5.783c.322-.34.656-.668 1.002-.983-.26.203-.485.44-.699.664a11.26 11.26 0 0 1-.303.311v.008ZM18.577 15.3h-3.084v3.075c0 1.575 1.388 2.925 3.084 2.925 1.696 0 3.083-1.35 3.083-3s-1.387-3-3.083-3Z" fill="#007CEB"/></svg>