<svg class="icon-size" viewBox="0 0 30 30" fill="none" xmlns="http://www.w3.org/2000/svg"><path d="M2.878 15.387a.364.364 0 0 1-.375-.362V15c0-1.31.201-2.601.6-3.836a.376.376 0 0 1 .714.23A11.738 11.738 0 0 0 3.253 15a.386.386 0 0 1-.375.387ZM18.64 26.172a11.77 11.77 0 0 1-3.627.575.376.376 0 0 0-.374.375c0 .206.168.375.375.375a12.51 12.51 0 0 0 3.859-.611.375.375 0 0 0-.233-.714ZM3.832 18.651a.375.375 0 1 0-.712.233A12.445 12.445 0 0 0 4.9 22.363a.372.372 0 0 0 .524.08.374.374 0 0 0 .082-.523 11.733 11.733 0 0 1-1.675-3.269ZM18.596 3.813c1.172.376 2.274.934 3.277 1.659a.374.374 0 0 0 .523-.084.376.376 0 0 0-.084-.524A12.424 12.424 0 0 0 18.825 3.1a.375.375 0 0 0-.23.714ZM5.175 8.273a.373.373 0 0 0 .304-.156c.723-1 1.595-1.876 2.592-2.605a.375.375 0 1 0-.443-.605 12.524 12.524 0 0 0-2.757 2.77.375.375 0 0 0 .304.596Zm6.047-4.42a.377.377 0 0 0 .117-.018 11.716 11.716 0 0 1 3.626-.582.376.376 0 0 0-.001-.75 12.498 12.498 0 0 0-3.859.62.375.375 0 0 0 .117.73Zm.16 22.326a11.708 11.708 0 0 1-3.274-1.665.375.375 0 1 0-.44.607 12.458 12.458 0 0 0 3.483 1.77.376.376 0 0 0 .473-.242.373.373 0 0 0-.242-.47Zm13.125-4.277c-.726.997-1.6 1.871-2.597 2.598a.376.376 0 0 0 .442.607 12.533 12.533 0 0 0 2.762-2.766.375.375 0 1 0-.607-.44Zm2.615-7.301c-.207 0-.375.191-.375.399 0 1.239-.192 2.46-.572 3.63a.377.377 0 0 0 .355.49c.159 0 .306-.1.358-.26a12.46 12.46 0 0 0 .61-3.86v-.048c0-.207-.169-.351-.376-.351Zm-.96-3.274a.376.376 0 0 0 .474.24.375.375 0 0 0 .238-.474 12.441 12.441 0 0 0-1.79-3.474.374.374 0 1 0-.603.444c.73.995 1.296 2.094 1.68 3.264ZM30 15c0 8.27-6.73 15-15 15-8.271 0-15-6.73-15-15C0 6.729 6.729 0 15 0c8.27 0 15 6.729 15 15Zm-1.5 0c0-7.444-6.056-13.5-13.5-13.5S1.5 7.556 1.5 15 7.556 28.5 15 28.5 28.5 22.444 28.5 15Zm-12.235.614c-.251-.096-.633-.144-1.147-.144h-1.172v1.96c.005.278.015.44.033.488a.21.21 0 0 0 .107.126c.05.022.184.036.404.036h.66c.384 0 .703-.036.954-.11.254-.07.469-.218.644-.444.176-.226.266-.495.266-.811 0-.268-.063-.495-.188-.683a1.149 1.149 0 0 0-.561-.418ZM25.827 15c0 5.98-4.847 10.827-10.827 10.827C9.021 25.827 4.174 20.98 4.174 15 4.174 9.021 9.02 4.174 15 4.174c5.98 0 10.827 4.847 10.827 10.826Zm-6.46 1.957a2.13 2.13 0 0 0-.286-1.093 2.053 2.053 0 0 0-.772-.765c-.226-.13-.549-.25-.974-.357.395-.134.713-.304.953-.51.24-.205.425-.442.553-.71.128-.269.192-.552.192-.85 0-.412-.121-.79-.361-1.134-.243-.344-.589-.608-1.039-.791a3.34 3.34 0 0 0-.608-.169V8.98h-1.534v1.49h-.985V8.98h-1.534v1.49h-2.34v1.252h.359c.237 0 .399.023.483.066a.377.377 0 0 1 .179.175c.035.073.052.245.052.513v5.05c0 .265-.016.434-.052.51a.35.35 0 0 1-.179.175c-.085.041-.245.062-.483.062h-.358v1.253h2.339v1.489h1.534v-1.49h.986v1.49h1.534v-1.619c.257-.049.484-.111.675-.19.53-.21.938-.518 1.23-.923.29-.402.435-.846.435-1.326Zm-3.277-2.948c.25-.086.436-.217.562-.39.125-.175.188-.378.188-.608 0-.238-.06-.441-.178-.61a.97.97 0 0 0-.516-.36c-.226-.072-.629-.108-1.207-.108h-.993v2.207h.993c.52 0 .902-.044 1.151-.13Z" fill="#FFB800"/></svg>