<svg width="100" height="56" viewBox="0 0 100 56" fill="none" xmlns="http://www.w3.org/2000/svg">
<mask id="mask0" mask-type="alpha" maskUnits="userSpaceOnUse" x="0" y="0" width="50" height="56">
<path d="M50 45.5898C46.4307 50.1493 41.0491 53.2446 35.5233 54.8751C29.9976 56.5057 24.1061 56.3605 18.6658 54.4596C13.2254 52.5588 8.50582 48.9965 5.16126 44.2666C1.81671 39.5367 0.0129482 33.8737 6.94483e-05 28.0626C-0.0128094 22.2516 1.76583 16.5804 5.08939 11.8355C8.41294 7.09062 13.1167 3.50702 18.5486 1.58162C23.9804 -0.343783 29.8712 -0.515599 35.4041 1.09C40.9371 2.69559 46.4106 6.04656 50 10.5898C50 10.5898 44.0558 18.0898 44.0863 28C44.1167 37.9102 50 45.5898 50 45.5898Z" fill="#C4C4C4"/>
</mask>
<g mask="url(#mask0)">
<path d="M5.3718 28.7224C4.9854 28.7224 4.6718 28.4326 4.6718 28.0476V28C4.6718 25.5542 5.0484 23.1448 5.7918 20.839C5.9108 20.4708 6.3056 20.272 6.6724 20.3868C7.0406 20.5058 7.2422 20.9006 7.1246 21.2674C6.426 23.4346 6.0718 25.6998 6.0718 28C6.0718 28.385 5.7596 28.7224 5.3718 28.7224ZM34.7956 48.8544C32.6144 49.5628 30.3366 49.9254 28.0252 49.9282C27.6388 49.9282 27.3252 50.2446 27.3252 50.6282C27.3252 51.0118 27.6388 51.3282 28.0252 51.3282C30.4836 51.3254 32.9098 50.9418 35.2296 50.1872C35.5978 50.0696 35.7966 49.6734 35.6762 49.3052C35.5572 48.9384 35.161 48.7354 34.7956 48.8544ZM7.1512 34.8152C7.0322 34.447 6.6416 34.2468 6.2692 34.3672C5.9024 34.4862 5.7008 34.8824 5.8212 35.2492C6.58 37.5732 7.6986 39.7586 9.1476 41.7438C9.2848 41.9328 9.4976 42.0308 9.7132 42.0308C9.856 42.0308 10.0016 41.9888 10.1248 41.895C10.437 41.6668 10.5056 41.2286 10.2774 40.9178C8.918 39.053 7.8652 36.9992 7.1512 34.8152ZM34.7116 7.1176C36.8998 7.8204 38.9578 8.862 40.8296 10.2144C40.9542 10.304 41.097 10.3474 41.2384 10.3474C41.4554 10.3474 41.6696 10.2466 41.8054 10.0576C42.0322 9.744 41.9608 9.3058 41.65 9.0804C39.6592 7.6412 37.4696 6.5324 35.14 5.7848C34.7718 5.6686 34.3798 5.8702 34.2594 6.237C34.1418 6.6052 34.3434 7 34.7116 7.1176ZM9.66 15.442C9.877 15.442 10.0912 15.3412 10.227 15.1522C11.578 13.286 13.2048 11.6508 15.0654 10.29C15.3776 10.0618 15.4448 9.6236 15.2166 9.3114C14.9898 8.9992 14.5516 8.932 14.238 9.1602C12.2598 10.6064 10.5294 12.3466 9.093 14.3304C8.8662 14.644 8.9362 15.0808 9.2498 15.3076C9.3744 15.4 9.5186 15.442 9.66 15.442ZM20.9468 7.1932C21.0182 7.1932 21.0924 7.182 21.1652 7.1582C23.3436 6.4442 25.6214 6.0788 27.9342 6.0732C28.3192 6.0718 28.6342 5.7582 28.6328 5.3718C28.6314 4.9868 28.3164 4.6732 27.9328 4.6732H27.9314C25.4716 4.6802 23.0482 5.0694 20.7298 5.8282C20.363 5.9486 20.1628 6.3434 20.2832 6.7116C20.3784 7.0056 20.6514 7.1932 20.9468 7.1932ZM21.2464 48.8684C19.0596 48.16 17.003 47.1156 15.134 45.759C14.8218 45.5294 14.3822 45.6022 14.1568 45.9116C13.93 46.228 14 46.6648 14.3122 46.8916C16.3002 48.3322 18.4884 49.4452 20.8152 50.197C20.8866 50.2222 20.9594 50.2292 21.0308 50.2292C21.3262 50.2292 21.6006 50.0402 21.6972 49.7448C21.8162 49.3822 21.6146 48.9874 21.2464 48.8684ZM45.7464 40.8828C44.3912 42.7448 42.7602 44.3772 40.8982 45.7338C40.586 45.962 40.5188 46.4002 40.7456 46.7124C40.8842 46.9 41.0956 47.0008 41.3112 47.0008C41.454 47.0008 41.5982 46.9574 41.7228 46.8664C43.7038 45.423 45.437 43.687 46.879 41.7032C47.1086 41.3882 47.0372 40.9528 46.7278 40.726C46.41 40.4992 45.9732 40.5706 45.7464 40.8828ZM50.6282 27.2552C50.2418 27.2552 49.9282 27.6122 49.9282 28C49.9282 30.3128 49.5698 32.5934 48.86 34.7746C48.7424 35.1428 48.944 35.5362 49.3108 35.6566C49.3822 35.6818 49.455 35.6902 49.5236 35.6902C49.819 35.6902 50.0934 35.5026 50.1914 35.2044C50.946 32.886 51.3282 30.4584 51.3282 28V27.9104C51.3282 27.524 51.0146 27.2552 50.6282 27.2552ZM48.8348 21.1442C48.9314 21.4382 49.2058 21.6258 49.5012 21.6258C49.5754 21.6258 49.6468 21.6146 49.7196 21.5908C50.0864 21.4704 50.2852 21.0742 50.1648 20.7074C49.4004 18.3834 48.2748 16.2008 46.823 14.2212C46.5934 13.909 46.1538 13.8418 45.8458 14.0714C45.535 14.301 45.4664 14.7378 45.6974 15.05C47.061 16.9092 48.1166 18.9602 48.8348 21.1442ZM56 28C56 43.4378 43.4378 56 28 56C12.5608 56 0 43.4378 0 28C0 12.5608 12.5608 0 28 0C43.4378 0 56 12.5608 56 28ZM53.2 28C53.2 14.105 41.895 2.8 28 2.8C14.105 2.8 2.8 14.105 2.8 28C2.8 41.895 14.105 53.2 28 53.2C41.895 53.2 53.2 41.895 53.2 28ZM30.3604 29.1452C29.8928 28.9674 29.1788 28.8778 28.2212 28.8778H26.033V32.5374C26.0414 33.0554 26.061 33.3578 26.0932 33.446C26.1338 33.5566 26.1996 33.6378 26.2934 33.6812C26.3858 33.7232 26.6378 33.7498 27.048 33.7498H28.28C28.9968 33.7498 29.5918 33.6812 30.0608 33.5454C30.534 33.4138 30.9358 33.1366 31.2634 32.7152C31.591 32.2938 31.759 31.7912 31.759 31.2004C31.759 30.7006 31.6414 30.2764 31.409 29.9264C31.178 29.5862 30.828 29.323 30.3604 29.1452ZM48.2104 28C48.2104 39.1622 39.1622 48.2104 28 48.2104C16.8392 48.2104 7.791 39.1622 7.791 28C7.791 16.8392 16.8392 7.791 28 7.791C39.1622 7.791 48.2104 16.8392 48.2104 28ZM36.1508 31.6526C36.1508 30.9022 35.973 30.2232 35.6174 29.6128C35.2618 28.9996 34.7774 28.5278 34.1768 28.1848C33.7554 27.9412 33.152 27.7186 32.3582 27.5184C33.096 27.2678 33.6896 26.9514 34.1376 26.5664C34.587 26.1828 34.9314 25.7404 35.1708 25.2406C35.4088 24.7394 35.5278 24.2102 35.5278 23.653C35.5278 22.8858 35.3024 22.1802 34.8544 21.5376C34.4008 20.8964 33.7554 20.4022 32.9154 20.0606C32.5878 19.9276 32.1986 19.8268 31.78 19.7456V16.7622H28.917V19.544H27.0774V16.7622H24.2144V19.544H19.8478V21.882H20.5156C20.9594 21.882 21.2604 21.924 21.4186 22.0038C21.5768 22.0836 21.6874 22.1942 21.7518 22.33C21.8176 22.4672 21.8498 22.7878 21.8498 23.2876V32.7152C21.8498 33.2108 21.819 33.5258 21.7518 33.6672C21.6874 33.81 21.5768 33.9192 21.4186 33.9934C21.2604 34.0704 20.9608 34.1096 20.5156 34.1096H19.8478V36.4476H24.2144V39.228H27.0774V36.4476H28.7056C28.7812 36.4476 28.8498 36.4462 28.9184 36.4462V39.228H31.7814V36.2068C32.2616 36.1144 32.6858 35.9982 33.0428 35.8512C34.0298 35.4578 34.7928 34.8838 35.3374 34.1278C35.8792 33.3774 36.1508 32.55 36.1508 31.6526ZM30.0356 26.1506C30.5018 25.9896 30.849 25.7446 31.0842 25.4212C31.318 25.095 31.4342 24.7156 31.4342 24.2872C31.4342 23.8434 31.3236 23.464 31.1024 23.149C30.8798 22.834 30.5564 22.61 30.1392 22.477C29.7178 22.3426 28.966 22.2754 27.8866 22.2754H26.033V26.3956H27.8866C28.8554 26.3942 29.5708 26.313 30.0356 26.1506Z" fill="#FFB800"/>
</g>
<path class="dollar" d="M91.7763 8.22369C86.4733 2.92053 79.4499 0 72 0C64.5501 0 57.5267 2.92053 52.2237 8.22369C46.9205 13.5267 44 20.5501 44 28C44 35.4499 46.9205 42.4733 52.2237 47.7763C57.5267 53.0795 64.5501 56 72 56C79.4499 56 86.4733 53.0795 91.7763 47.7763C97.0795 42.4733 100 35.4499 100 28C100 20.5501 97.0795 13.5267 91.7763 8.22369V8.22369ZM72 52.7188C58.37 52.7188 47.2812 41.63 47.2812 28C47.2812 14.37 58.37 3.28125 72 3.28125C85.63 3.28125 96.7188 14.37 96.7188 28C96.7188 41.63 85.63 52.7188 72 52.7188Z" />
<path class="dollar" d="M72 6.67188C60.2397 6.67188 50.6719 16.2397 50.6719 28C50.6719 39.7603 60.2397 49.3281 72 49.3281C83.7603 49.3281 93.3281 39.7603 93.3281 28C93.3281 16.2397 83.7603 6.67188 72 6.67188ZM72 46.0469C62.049 46.0469 53.9531 37.951 53.9531 28C53.9531 18.049 62.049 9.95312 72 9.95312C81.951 9.95312 90.0469 18.049 90.0469 28C90.0469 37.951 81.951 46.0469 72 46.0469Z" />
<path class="dollar" d="M76.9219 23.0616C76.9219 23.9677 77.6564 24.7023 78.5625 24.7023C79.4686 24.7023 80.2031 23.9677 80.2031 23.0616C80.2031 21.2447 79.2634 19.4978 77.6247 18.2688C76.5055 17.4294 75.1283 16.8686 73.6406 16.6301V14.8584C73.6406 13.9523 72.9061 13.2178 72 13.2178C71.0939 13.2178 70.3594 13.9523 70.3594 14.8584V16.6301C68.8715 16.8686 67.4944 17.4294 66.3753 18.2688C64.7366 19.4978 63.7969 21.2447 63.7969 23.0616C63.7969 24.8786 64.7366 26.6254 66.3753 27.8544C67.4945 28.6939 68.8717 29.2547 70.3594 29.4932V35.9911C68.4694 35.5292 67.0781 34.3026 67.0781 32.9054C67.0781 31.9993 66.3436 31.2648 65.4375 31.2648C64.5314 31.2648 63.7969 31.9993 63.7969 32.9054C63.7969 34.7223 64.7366 36.4691 66.3753 37.6982C67.4945 38.5377 68.8717 39.0984 70.3594 39.337V41.1251C70.3594 42.0312 71.0939 42.7658 72 42.7658C72.9061 42.7658 73.6406 42.0312 73.6406 41.1251V39.337C75.1285 39.0984 76.5056 38.5377 77.6247 37.6982C79.2634 36.4693 80.2031 34.7223 80.2031 32.9054C80.2031 31.0884 79.2634 29.3415 77.6247 28.1126C76.5055 27.2731 75.1283 26.7124 73.6406 26.4738V19.9759C75.5306 20.4379 76.9219 21.6644 76.9219 23.0616ZM67.0781 23.0616C67.0781 21.6644 68.4694 20.4378 70.3594 19.9759V26.1472C68.4694 25.6854 67.0781 24.4589 67.0781 23.0616ZM76.9219 32.9054C76.9219 34.3026 75.5306 35.5292 73.6406 35.9911V29.8198C75.5306 30.2817 76.9219 31.5081 76.9219 32.9054Z" />
</svg>
