<svg width="100" height="56" viewBox="0 0 100 56" fill="none" xmlns="http://www.w3.org/2000/svg">
<g clip-path="url(#clip0)">
<mask id="mask0" mask-type="alpha" maskUnits="userSpaceOnUse" x="0" y="0" width="50" height="56">
<path d="M50 45.5898C46.4307 50.1493 41.0491 53.2446 35.5233 54.8751C29.9976 56.5057 24.1061 56.3605 18.6658 54.4596C13.2254 52.5588 8.50582 48.9965 5.16126 44.2666C1.81671 39.5367 0.0129482 33.8737 6.9449e-05 28.0626C-0.0128094 22.2516 1.76583 16.5804 5.08939 11.8355C8.41294 7.09062 13.1167 3.50702 18.5486 1.58162C23.9804 -0.343784 29.8712 -0.5156 35.4041 1.09C40.9371 2.69559 46.4106 6.04656 50 10.5898C50 10.5898 44.0558 18.0898 44.0863 28C44.1167 37.9102 50 45.5898 50 45.5898Z" fill="#C4C4C4"/>
</mask>
<g mask="url(#mask0)">
<path class="fill" d="M36.9636 30.5219L25.9051 41.5802L19.7507 35.4257L30.8091 24.3673L25.8911 19.4492L9.86084 35.4789L25.8468 51.4644L41.8766 35.4347L36.9636 30.5219Z" fill="#1A1A1A"/>
<path d="M46.8314 20.526L25.9452 -0.36084L5 20.5843L5.06678 30.3742L25.8563 9.58528L46.7965 30.5263L46.8314 20.526Z" fill="#38A1DB"/>
</g>
<path class="fill" d="M91.7763 8.22369C86.4733 2.92053 79.4499 0 72 0C64.5501 0 57.5267 2.92053 52.2237 8.22369C46.9205 13.5267 44 20.5501 44 28C44 35.4499 46.9205 42.4733 52.2237 47.7763C57.5267 53.0795 64.5501 56 72 56C79.4499 56 86.4733 53.0795 91.7763 47.7763C97.0795 42.4733 100 35.4499 100 28C100 20.5501 97.0795 13.5267 91.7763 8.22369ZM72 52.7188C58.37 52.7188 47.2812 41.63 47.2812 28C47.2812 14.37 58.37 3.28125 72 3.28125C85.63 3.28125 96.7188 14.37 96.7188 28C96.7188 41.63 85.63 52.7188 72 52.7188Z" fill="#1F1F24"/>
<path class="fill" d="M78.2 21.6601C78.2 22.7334 79.0507 23.6035 80.1 23.6035C81.1494 23.6035 82 22.7334 82 21.6601C82 19.508 80.9117 17.4387 79.014 15.983C77.7178 14.9887 76.1229 14.3244 74.4 14.0419V11.9433C74.4 10.87 73.5494 10 72.5 10C71.4506 10 70.6 10.87 70.6 11.9433V14.0419C68.8769 14.3244 67.2821 14.9887 65.986 15.983C64.0883 17.4387 63 19.508 63 21.6601C63 23.8124 64.0883 25.8815 65.986 27.3372C67.2822 28.3316 68.8771 28.9959 70.6 29.2784V36.9753C68.4112 36.4282 66.8 34.9752 66.8 33.3202C66.8 32.2469 65.9493 31.3769 64.9 31.3769C63.8506 31.3769 63 32.2469 63 33.3202C63 35.4724 64.0883 37.5415 65.986 38.9974C67.2822 39.9918 68.8771 40.6559 70.6 40.9385V43.0566C70.6 44.1299 71.4506 45 72.5 45C73.5494 45 74.4 44.1299 74.4 43.0566V40.9385C76.1231 40.6559 77.7179 39.9918 79.014 38.9974C80.9117 37.5417 82 35.4724 82 33.3202C82 31.168 80.9117 29.0987 79.014 27.6431C77.7178 26.6487 76.1229 25.9845 74.4 25.7019V18.0051C76.5888 18.5523 78.2 20.0051 78.2 21.6601ZM66.8 21.6601C66.8 20.0051 68.4112 18.5522 70.6 18.0051V25.315C68.4112 24.768 66.8 23.3152 66.8 21.6601ZM78.2 33.3202C78.2 34.9752 76.5888 36.4282 74.4 36.9753V29.6653C76.5888 30.2124 78.2 31.6651 78.2 33.3202Z" fill="#1F1F24"/>
</g>
<defs>
<clipPath id="clip0">
<rect width="100" height="56" fill="white"/>
</clipPath>
</defs>
</svg>
