<svg width="100" height="56" viewBox="0 0 100 56" fill="none" xmlns="http://www.w3.org/2000/svg">
<g clip-path="url(#clip0)">
<mask id="mask0" mask-type="alpha" maskUnits="userSpaceOnUse" x="0" y="0" width="50" height="56">
<path d="M50 45.5898C46.4307 50.1493 41.0491 53.2446 35.5233 54.8751C29.9976 56.5057 24.1061 56.3605 18.6658 54.4596C13.2254 52.5588 8.50582 48.9965 5.16126 44.2666C1.81671 39.5367 0.0129482 33.8737 6.9449e-05 28.0626C-0.0128094 22.2516 1.76583 16.5804 5.08939 11.8355C8.41294 7.09062 13.1167 3.50702 18.5486 1.58162C23.9804 -0.343784 29.8712 -0.5156 35.4041 1.09C40.9371 2.69559 46.4106 6.04656 50 10.5898C50 10.5898 44.0558 18.0898 44.0863 28C44.1167 37.9102 50 45.5898 50 45.5898Z" fill="#C4C4C4"/>
</mask>
<g mask="url(#mask0)">
<path class="fill" d="M36.9636 30.5219L25.9051 41.5802L19.7507 35.4257L30.8091 24.3673L25.8911 19.4492L9.86084 35.4789L25.8468 51.4644L41.8766 35.4347L36.9636 30.5219Z" fill="#1A1A1A"/>
<path d="M46.8314 20.526L25.9452 -0.36084L5 20.5843L5.06678 30.3742L25.8563 9.58528L46.7965 30.5263L46.8314 20.526Z" fill="#38A1DB"/>
</g>
<path d="M72 0C87.4633 0 100 12.5367 100 28C100 43.4633 87.4627 56 72 56C56.5373 56 44 43.4666 44 28C44 12.5334 56.535 0 72 0Z" fill="#53AE94"/>
<path d="M75.6591 25.4097V21.2848H85.7478V15H58.2759V21.2848H68.3658V25.4064C60.1657 25.7585 54 27.2769 54 29.0959C54 30.9148 60.1686 32.4332 68.3658 32.7876V46H75.6614V32.7865C83.8468 32.4332 90 30.9159 90 29.0986C90 27.2813 83.8468 25.764 75.6614 25.4108L75.6591 25.4097ZM75.6614 31.6674V31.664C75.4556 31.6762 74.3981 31.7356 72.0433 31.7356C70.1607 31.7356 68.8362 31.6857 68.3694 31.6629V31.6685C61.1248 31.3684 55.7171 30.1889 55.7171 28.7775C55.7171 27.3662 61.1254 26.1883 68.3694 25.8877V30.4933C68.8439 30.5238 70.201 30.5987 72.0741 30.5987C74.3239 30.5987 75.455 30.5111 75.6626 30.4933V25.8877C82.893 26.1888 88.2882 27.3695 88.2882 28.7759C88.2882 30.1822 82.8906 31.3635 75.6626 31.6646" fill="white"/>
</g>
<defs>
<clipPath id="clip0">
<rect width="100" height="56" fill="white"/>
</clipPath>
</defs>
</svg>
