<svg class="icon-size" width="36" height="28" viewBox="0 0 36 28" fill="none" xmlns="http://www.w3.org/2000/svg"><path d="M8.5 4h-5L6 0h5L8.5 4ZM8.5 5h-5L6 9h4.5l-2-4ZM19.5 24h-5l2.5 4h4.5l-2-4ZM29 8l-5 8.5 2.5 4 5-9L29 8ZM12 4l2-4h10l-2 4H12ZM14 9l-2.5-4H22l.5 2-1 2H14ZM25.5 4l2-4h5L30 4h-4.5ZM31 4.5l2-4 2.5 4L33 8l-2-3.5ZM12.5 12h-5l5 9h5l-5-9ZM28 7h-4.5L20 13.5l1.5 2.5H23l5-9ZM18 20.5l-5-9 1-1.5h3l3.5 6.5-2.5 4ZM22 19.5l-2 4 2.5 4 2.177-4-2.677-4ZM12.5 11h-5l.5-1h4l1-1.5.5 1-1 1.5Z" fill="#63D8D8"/><path d="M19.5 23H14l1-1h4l1.5-3h1l-2 4ZM9 4.5l2.5-4L12 2l-1.5 2.5 1.5 3-1 1-2-4ZM21.5 17l-.5 1h1.5l1.5 3h1.5L23 17h-1.5ZM30 5h-4.5v1h4L31 9h1.5L30 5ZM25.5 1.5l-.5-1-2 4 .5 1.5h1L24 4.5l1.5-3Z" fill="#63D8D8"/></svg>