<svg class="icon-size" viewBox="0 0 35 35" fill="none" xmlns="http://www.w3.org/2000/svg"><path d="M17.5 0C27.166 0 35 7.836 35 17.5 35 27.166 27.166 35 17.5 35 7.836 35 0 27.165 0 17.5 0 7.836 7.836 0 17.5 0Z" fill="#F5AC37"/><path class="reverse-fill" d="M18.145 18.736h6.65c.141 0 .208 0 .219-.186.054-.677.054-1.357 0-2.034 0-.132-.066-.186-.208-.186H11.572c-.164 0-.208.054-.208.208v1.946c0 .252 0 .252.262.252h6.519Zm6.126-4.681a.213.213 0 0 0 0-.153 4.328 4.328 0 0 0-.395-.69c-.23-.37-.501-.71-.81-1.017a2.687 2.687 0 0 0-.503-.492 7.862 7.862 0 0 0-3.282-1.662 8.158 8.158 0 0 0-1.859-.197h-5.873c-.164 0-.186.065-.186.208v3.882c0 .164 0 .208.208.208h12.621s.11-.022.132-.087h-.054.001Zm0 6.956a2.55 2.55 0 0 0-.56 0H11.584c-.164 0-.22 0-.22.219v3.795c0 .175 0 .22.22.22h5.6c.267.02.535 0 .797-.055a8.337 8.337 0 0 0 2.375-.525c.277-.096.545-.222.797-.372h.077a7.105 7.105 0 0 0 3.051-3.072s.077-.165-.009-.209v-.001ZM9.166 27.212v-6.047c0-.143 0-.165-.175-.165H6.617c-.131 0-.185 0-.185-.174v-2.079h2.537c.142 0 .197 0 .197-.185v-2.057c0-.131 0-.163-.175-.163H6.617c-.131 0-.185 0-.185-.175v-1.925c0-.12 0-.153.174-.153h2.352c.164 0 .208 0 .208-.208V7.986c0-.175 0-.219.219-.219h8.202c.596.024 1.187.09 1.772.197a10.69 10.69 0 0 1 3.424 1.269 9.65 9.65 0 0 1 1.924 1.487c.433.45.824.937 1.17 1.455.345.525.63 1.087.855 1.673a.285.285 0 0 0 .327.23h1.957c.252 0 .252 0 .263.241v1.794c0 .175-.066.22-.241.22h-1.51c-.153 0-.197 0-.186.196.06.666.06 1.335 0 2.001 0 .186 0 .208.209.208h1.727c.076.098 0 .197 0 .296.011.127.011.255 0 .382v1.324c0 .186-.054.24-.219.24h-2.067a.274.274 0 0 0-.318.209 8.746 8.746 0 0 1-2.297 3.347c-.371.334-.762.65-1.17.94-.438.252-.864.514-1.313.722-.826.372-1.692.646-2.581.82-.844.151-1.7.22-2.56.208h-7.59v-.011l.003-.003Z" fill="#FEFEFD"/></svg>