<svg class="icon-size" width="33" height="33" viewBox="0 0 33 33" fill="none" xmlns="http://www.w3.org/2000/svg"><path d="M16.5 33C25.613 33 33 25.613 33 16.5S25.613 0 16.5 0 0 7.387 0 16.5 7.387 33 16.5 33Z" fill="#988430"/><path d="M16.5 32.471c8.82 0 15.971-7.15 15.971-15.971C32.471 7.68 25.321.529 16.5.529 7.68.529.529 7.679.529 16.5c0 8.82 7.15 15.971 15.971 15.971Z" fill="#7A6A2A"/><path d="M16.5 32.135c8.635 0 15.635-7 15.635-15.635S25.135.865 16.5.865.865 7.865.865 16.5s7 15.635 15.635 15.635Z" fill="#BA9F33"/><path fill-rule="evenodd" clip-rule="evenodd" d="M7.214 14.738c-.093-.085-.192-.171-.283-.256a26.66 26.66 0 0 0-.277-.257l-.278-.264c-.046-.045-.094-.085-.14-.13l-.143-.126c-.369-.35-.74-.7-1.103-1.05.377.345.745.687 1.122 1.037l.13.13c.046.046.094.086.14.131l.277.257c.093.085.184.17.278.263.093.094.184.18.277.264Zm-4.891-.053s1.34.139 1.994.232c.606.086 2.502.377 2.502.377l-4.496-.609Zm0 0c.376.032.753.072 1.13.112.191.019.376.04.56.059l.283.032.278.04 1.121.179.56.093c.185.032.37.067.561.1a13.428 13.428 0 0 1-.56-.073l-.561-.08-1.121-.165c-.094-.014-.185-.033-.278-.046l-.283-.033c-.184-.018-.377-.045-.56-.066a32.601 32.601 0 0 1-1.13-.152Zm4.363.958s-1.431.363-1.915.502c-.475.13-1.914.569-1.914.569l3.828-1.07v-.001Z" fill="#CFB66C"/><path fill-rule="evenodd" clip-rule="evenodd" d="M6.685 15.643c-.317.093-.633.184-.956.27l-.955.256c-.318.093-.634.184-.95.278l-.476.13c-.157.046-.318.086-.48.131.157-.052.317-.106.475-.152l.475-.152c.318-.099.634-.192.95-.291.323-.08.641-.166.964-.243.307-.077.63-.155.953-.227Zm-3.628 1.952c.157-.06 1.973-.905 2.395-1.103.211-.099.825-.317.825-.317l-3.22 1.42Z" fill="#CFB66C"/><path fill-rule="evenodd" clip-rule="evenodd" d="M3.057 17.595c.139-.053.27-.118.403-.18l.395-.183.793-.382c.264-.126.521-.264.793-.382.14-.059.278-.107.417-.152l.21-.067c.073-.018.14-.04.212-.059-.264.126-.542.233-.806.355-.264.131-.534.238-.807.356l-.806.355c-.27.11-.535.227-.804.339Zm.176.739s1.645-.964 2.21-1.274c.297-.165 1.256-.64 1.256-.64l-3.466 1.914Z" fill="#CFB66C"/><path fill-rule="evenodd" clip-rule="evenodd" d="M3.233 18.334c.278-.17.56-.344.844-.52l.422-.257c.144-.085.283-.165.43-.25.144-.086.283-.171.43-.252.07-.043.143-.08.219-.112l.224-.112c.297-.144.593-.29.905-.416-.283.179-.574.33-.865.488-.144.08-.29.152-.435.233-.144.08-.283.165-.43.243-.144.085-.283.165-.43.242l-.435.238-.878.475Zm3.452-1.703s-1.022.785-1.353 1.036c-.331.25-1.306.956-1.306.956l2.66-1.992Z" fill="#CFB66C"/><path fill-rule="evenodd" clip-rule="evenodd" d="m12.554 22.961-.523-.99.304-1.24 2.17-.838-.923-1.895.456-1.914.857-1.715 2.649-.416 1.946-1.856 4.203.318.825 4.494-1.589 5.657-.905 2.929-3.668.139-1.704-1.18-1.994-.833-2.104-.66Z" fill="#E2CC85"/><path fill-rule="evenodd" clip-rule="evenodd" d="M18.988 22.93s-.507.231-1.372.178c-.25-.336-2.005-.494-2.005-.494s-.219-.067-.606.093c-.39.159-.758.14-1.103.225-.344.085-.686-.363-.95-.457-.264-.099-.614-.336-.614-.336l-.74-.072-1.484-.628-2.358-2.35-.64 1.004-.198 1.241.713 1.472 1.92 1.748 3.742.95 2.22-.653 2.778-1.175.697-.747Z" fill="#F1D789"/><path fill-rule="evenodd" clip-rule="evenodd" d="m5.69 14.626.475-1.44.566-.928 1.823-.153-.547 1.597-1.524 2.713.632 2.421-1.121.56-.345-.528-.277-1.212-.019-1.362.337-1.668Z" fill="#F4ECB4"/><path fill-rule="evenodd" clip-rule="evenodd" d="m7.735 22.83-.35-.488s-.093-.232-.04-.435c.053-.206.045-.22.019-.297-.027-.077-.251-.344-.238-.574.013-.232-.019-.31.152-.494.179-.179.126-.488.126-.488l.232.144.053-.08s.085.066.085.17c.019-.144-.059-.811.117-.963.177-.152.49.713.49.713l-.193-1.255-.494-1.287-.879-1.175-.052-1.295v-.112s-.404.62-.516 1.109c-.08.336.112.745.072 1.228-.032.48-.072.443.046.634.117.19.403.582.29.865-.098.243-.434.072-.434.072s-.067.197-.158.27a.598.598 0 0 0-.13-.265c-.006.046-.02.107-.02.107s-.058-.184-.117-.416c-.08-.31-.165-.718-.243-.937-.032.125-.112.507-.112.507l.045.587.22.807.21.528.206.646.179.434.144.33.125.746.606.64.324.145.234-.12Z" fill="#F3E19D"/><path fill-rule="evenodd" clip-rule="evenodd" d="M6.007 13.451s-.435.74-.56 1.484c-.126.745-.238 1.533-.159 2.547.08 1.023.233 1.65.355 2.1.212.744.759 1.78.759 1.78l.018-.04a2.816 2.816 0 0 1-.219-.547c-.072-.284-.099-.62-.165-.772-.059-.152-.158-.283-.206-.47-.045-.179-.053-.462-.192-.673-.059-.085-.131-.31-.152-.534-.027-.336.013-.713-.019-1.022-.059-.515-.099-.865-.045-1.135.053-.27.33-1.036.502-1.645.112-.39.045-.718.25-1.057.206-.336.332-.633.377-.838.053-.187-.544.822-.544.822Z" fill="#F2E8B0"/><path fill-rule="evenodd" clip-rule="evenodd" d="M8.071 13.155s-.224.067-.33.184c-.108.112-.153.205-.297.395-.144.19-.152.344-.27.582-.117.232-.377.582-.409.707-.032.126-.085.713-.152.991-.058.278.067.62.067.62l.152-.033s0 .198.152.332c.152.13.18-.444.18-.444l.568-1.92.857-.581.093-.47-.611-.363Z" fill="#F5EEC0"/><path fill-rule="evenodd" clip-rule="evenodd" d="M8.488 14.025s-.404.027-.601.171c-.08.059-.112.107-.198.179-.157.13-.317.25-.395.422-.085.17-.179.43-.243.919-.027.205-.027.395-.045.56-.027.224-.067.403-.046.528.027.257.292.39.317.681l.548-.277.515-2.032 1.095-.687-.62-.694-.328.229v.001Z" fill="#E6DB9D"/><path fill-rule="evenodd" clip-rule="evenodd" d="m5.6 27.707.007-.06c.08-.687.093-1.207.152-1.533.085-.462.144-.633.13-.806-.018-.278-.04-.48-.013-.694.04-.283.318-.62.31-.852-.005-.184-.099-.304-.179-.416-.08-.112-.144-.206-.144-.206s.547-.376.542-1.893a.143.143 0 0 1 .032.013l.27.767.184.224.708 1.319.91.884 1.346.905.843.918.086 2.448-1.103 1.431-.18.327A15.682 15.682 0 0 1 5.6 27.707Z" fill="#E5CB7A"/><path fill-rule="evenodd" clip-rule="evenodd" d="M8.968 30.05s.019-.305.27-.502c.04.067.067.13.059.179.045-.08.363-.593 1.081-.727.718-.13.892-.654.892-.654l1.524-1.385 1.744-1.605 2.12-.745.99-.243s.019.072-.018.232c.184-.013.592-.106 1.017-.256.17-.067.33-.093.416-.005.126.117.144.395.152.56.206-.045.444-.242.634-.224.304.032.574.39.884.39.408 0 .592-.25.878-.449.171-.117.417-.264.555-.363C22.498 24.01 26 22.94 26 22.94l1.229.08.197 1.319-.105 3.448-.04.038-5.584 2.916-7.74 1.187a15.525 15.525 0 0 1-4.949-1.703l-.04-.176Z" fill="#D8C173"/><path fill-rule="evenodd" clip-rule="evenodd" d="M6.07 28.146c.11-.23.208-.422.226-.491.013.139.039.443.09.766a16.7 16.7 0 0 1-.317-.275Z" fill="#F1D789"/><path fill-rule="evenodd" clip-rule="evenodd" d="m11.724 31.39 1-.278.086.027s.046.027.046.117c.125-.071.232-.058.31-.106.04.085.08.368.256.403.184.04.381-.08.582-.232.197-.158.422-.355.592-.436.063.115.118.234.166.355.224-.178.614-.904 1.17-.891.16-.38.428-.704.77-.932.516-.35.839-.377 1.242-.344a2.12 2.12 0 0 1 .582-.521c.067.027.25.139.48.032.233-.107.494-.52.839-.574a.81.81 0 0 1 .534.112s1.003-.996 1.695-1.327c-.027-.08-.08-.382.732-1.05.045.04.013.153.045.16.013 0 .211-.086.462-.279.31-.232.68-.475.905-.541.422-.126.87.13.87.13a.4.4 0 0 1 .126-.058c.107-.02.184-.032.243-.053-.006.139.072.376 0 .582.083.047.172.084.264.112-.045.099-.144.35-.31.47.139.066.158.144.355.211-.08.112-.211.305-.27.422-.058.126-.27.646-.363.844-.098.198-.232.56-.296.634-.064.072-.296.381-.475.533.158-.058.806-.256 1.081-.33-.082.12-.497.735-.895 1.327a15.666 15.666 0 0 1-12.825 1.485v-.003Z" fill="#E0CD81"/><path fill-rule="evenodd" clip-rule="evenodd" d="M8.554 13.953s-.233 0-.278.032c-.045.032.232.099.318.13.085.033.27.18.317.297.046.112 1.67.766 1.67.766l1.147-.058.396-.547-.753-.66.528-1.556-.7.112-1.681 1.003-.844.323-.12.158Z" fill="#DFC57C"/><path fill-rule="evenodd" clip-rule="evenodd" d="M11.075 14.468a.18.18 0 0 0 .158.086c.238 0 .457.058.547.178.153.193.575.807.575.807l1.009.363.065-1.188-1.103-.767-1.255.462v.06h.003Z" fill="#E5CC7C"/><path fill-rule="evenodd" clip-rule="evenodd" d="M10.877 14.909s.184.013.416-.072c.232-.086.614-.27.78-.198.232.099.184.409.435.687.152.17.43.165.587.35.158.184.7.098.7.098L14 16.883l-.825 1.057-.27 1.314H11.79l-1.019-.404-.502-1.215.251-1.228.357-1.498Z" fill="#D2C281"/><path fill-rule="evenodd" clip-rule="evenodd" d="M13.035 14.962a.305.305 0 0 0 .085.014c-.032.026-.099.085-.072.237.027.152.112.345.04.462.057.063.1.137.125.219.046.13.06.25.355.27a.623.623 0 0 0-.117.093s.206.179.31.344c.106-.004.39-.092.39-.092l.058.04.126-.053s-.118-.045-.032-.33c.08-.252.152-.239.158-.257a2.63 2.63 0 0 0 .059-.39c.04-.139.072-.56.072-.56l-.085-.932-.481-.291-.39-.378-.37.694-.242.242-.019.601.03.067Z" fill="#E2C270"/><path fill-rule="evenodd" clip-rule="evenodd" d="M14.19 14.183s.086.242.118.43a.414.414 0 0 0 .019-.113s.066.369.08.521c.026-.005.053-.013.059.013.005.027.066.323.052.489.111-.184.265-.337.449-.449.106-.066.232-.139.363-.144.206-.005.355.131.6.131.593 0 1.13-.435 1.525-.569.291-.099.542-.17.718-.33.086-.073.238-.233.377-.47.184-.318.376-.593.569-.628a1.198 1.198 0 0 1-.264.019s.058-.06.158-.14c.1-.08.219-.178.39-.178.304 0 .456.045.627.045.171-.005.27-.045.27-.045s.179.125.582.125c.403.006.673.04.884.06.21.018.918-.06 1.12-.054a.982.982 0 0 1 .383.094l-.654-1.9-2.35-2.055-1.4.99-2.151 2.153-2.083.771-.435.489v.745h-.005Z" fill="#CCB360"/><path fill-rule="evenodd" clip-rule="evenodd" d="M18.863 13.093s.059-.058.157-.139c.099-.08.22-.179.39-.179.304 0 .457.046.628.046.17-.005.27-.046.27-.046s.178.126.581.126c.404.005.673.04.884.058.211.02.919-.058 1.121-.052a.977.977 0 0 1 .382.093l-.296-.857-.345-.654-.982-1.076s-1.18-.694-1.188-.7a16.212 16.212 0 0 0-.409-.112l-1.068.646-.969 2.508-.018.527.627.297c.157-.264.331-.475.494-.502-.147.016-.26.016-.26.016Z" fill="#D5B457"/><path fill-rule="evenodd" clip-rule="evenodd" d="M18.85 13.272c-.094.005-.171-.013-.193-.08-.08-.224-.144-.256-.21-.256-.068 0-.158.144-.212.157-.054.013-.117-.165-.117-.165l-.06-.027s-.344.224-.587.489c-.242.264-.64.712-.82.792-.178.08-.792.107-1.002.153-.21.045-.443.197-.475.232-.033.035.093.072.112.107.018.032-.206.018-.225.052-.013.027.053.18.086.257a.435.435 0 0 1 .184-.046c.206-.005.355.131.6.131.593 0 1.13-.435 1.525-.569.291-.098.542-.17.718-.33.086-.073.238-.233.377-.47.101-.163.2-.316.3-.428l-.001.001Z" fill="#D2B257"/><path fill-rule="evenodd" clip-rule="evenodd" d="M10.349 26.485s-.053-.197-.542-.707c-.14-.144-.225-.264-.318-.35-.232-.219-.369-.277-.534-.403-.363-.27-.758-.27-1.062-.6-.305-.332-.66-.964-.906-1.61-.243-.647-.31-.852-.31-.871 0-.019.067-.144.153-.125.085.018.085.184.106.224.043.065.091.127.145.184.125.144.304.317.395.574a2.593 2.593 0 0 0-.094-.462s.47.297.87.606c.404.31.57.417.687.614.118.198.395.718.528.87.133.153 1.954.727 1.954.727l.866.646.43.942-.337.528-.646.139-1.05-.47-.335-.456Z" fill="#D2B159"/><path fill-rule="evenodd" clip-rule="evenodd" d="M8.018 23.239s.219.35.753.68c.48.292 1.241.556 1.92.714.39.093.779.165 1.129.17.942.014 1.59-.256 2.395-.344.435-.045.969-.08 1.524-.211.713-.171 1.135-.363 1.709-.634.416-.192.798-.336 1.108-.52.435-.257.753-.542 1.121-.628-.045.126-.093.35-.456.582.192-.005.456-.018.456-.018s-.256.152-.707.494c-.278.21-.646.568-1.023.806-.243.152-.507.264-.68.355-.423.232-.593.35-.871.634a.376.376 0 0 1 .107 0s-.35.045-.6.178c-.054 0-.145-.018-.305.027-.126.04-.291.131-.462.179-.243.072-.323.04-.323.04l.04.08s-.317-.005-.423.005c.02.006.014.014.014.014a.161.161 0 0 0-.053.019.55.55 0 0 1-.165.072c-.033.005-.06.005-.1.013.014.032.118.211.166.317-.04.026-.64.48-.64.48.018.03.033.061.045.094.019.058.027.144.045.184.045.08.072.093.072.093s-.072.014-.197.046c-.107.026-.238.072-.423.099a1.655 1.655 0 0 1-.17.013c.026.059.144.283-.073.542-.216.259-.283.296-.35.462a.71.71 0 0 0-.106-.067c-.072-.032-.171-.08-.206-.144-.02.085-.047.17-.08.25-.067.18-.165.356-.184.49-.072-.08-.206-.238-.39-.206-.184.032-.331.283-.363.355 0-.046-.032-.08-.04-.027-.005.059-.107.673-.673 1.17-.005-.126-.005-.404-.018-.494-.053.052-.118.13-.502.296-.377.165-.317.331-.317.331s-.032-.264.17-.542c.206-.277.332-.409.332-.43a.118.118 0 0 0-.027-.058c-.027-.027-.08-.06-.08-.08.032-.014.35-.166.33-.481a.852.852 0 0 0-.223-.534c-.014-.014.125-.112.107-.144-.014-.019-.185-.145-.206-.211a.62.62 0 0 1 .027-.118c.018-.059.032-.099.027-.139a1.11 1.11 0 0 0-.107-.27c.018.006.152 0 .152 0s-.107-.17-.126-.25c-.019-.08-.059-.291-.08-.331.045.005.158.013.158 0 .005-.04-.1-.107-.053-.159.032.005.093.032.152.107-.032-.085-.085-.25-.198-.318a.484.484 0 0 1 .39.027.524.524 0 0 1 .211.224l.238.18c.165.13.376.316.713.448.072.04.256.04.39.013a.596.596 0 0 0 .165-.067.305.305 0 0 1 .059-.026 1.281 1.281 0 0 0-.099-.166c.046 0 .099.005.099.005s.032-.072-.112-.21c.032-.033.072-.054.072-.108-.045-.005-.125-.072-.144-.098.026-.019.067-.08.112-.1-.04-.031-.139-.165-.184-.178a.843.843 0 0 0 .125-.059s-.224-.058-.296-.107c-.072-.052-.179-.144-.243-.17-.067-.027-.184-.04-.232-.094.045.013.117 0 .17 0 .04 0 .06.005.073.005-.006-.018-.006-.058.098-.072a.487.487 0 0 0 .144-.045s-.098-.005-.21-.112c-.113-.107-.206-.192-.27-.206-.067-.013-.193.046-.27.04-.107-.013-.152-.066-.152-.066s-.355.032-1.143-.449c-.68-.416-.977-.785-.977-.785a1.177 1.177 0 0 1-.184-.085c-.256-.134-.612-.412-.6-.775l-.002.003Z" fill="#C2A44D"/><path fill-rule="evenodd" clip-rule="evenodd" d="M17.84 7.214c.062.02.117.057.159.107.125.144.205.416-.08.707.112.04.158.053.256.04-.099.118-.323.369-.337.588-.013.179.1.232.1.232s-.172.198-.18.528c.081-.09.17-.175.264-.25.198-.158.47-.337.655-.45a.375.375 0 0 0 .018.14s.345-.284.634-.158c.13.059.072.243.072.243s.179-.067.304.059c.126.125.303.449.394.574.04.06.144.171.251.345.146.243.267.5.363.766.006-.139.04-.355.435-.219.396.139.844.43 1.22 1.003.377.573.47 1.22.66 1.467.192.238.39.633.403.798.014.166-.059.7.336 2.144.113-.448.283-1.444.283-1.444l.094-.879.107-2.718-2.838-2.357-2.22-1.61-1.444.138.091.206Z" fill="#CAA13E"/><path fill-rule="evenodd" clip-rule="evenodd" d="M23.113 11.259s-.04-.264-.707-.713c-.668-.443-1.188-.443-1.669-.82-.368-.296-.753-.977-1.003-1.201-.243-.222-.283-.862-.283-.862l.82-.687 1.219-1.762 1.03-1.135.494.687.686.806.382 1.618.139 2.368-1.109 1.701h.001Z" fill="#B59544"/><path fill-rule="evenodd" clip-rule="evenodd" d="M23.939 14.098a3.01 3.01 0 0 0-.131-1.063c-.177-.547-.561-1.52-.74-1.883-.072-.403-.018-.435.06-.48.077-.046.368-.212.527-.794.16-.581.654-.6.654-.6l.305-.225.462 1.156.403 1.044.125.799.094.68-.22 1.44-1.08.977-.46-1.051Z" fill="#C89D3A"/><path fill-rule="evenodd" clip-rule="evenodd" d="M8.85 30.138v-.03a.228.228 0 0 0 .06-.052c.018-.027.032-.06.045-.067a.502.502 0 0 1 .219-.04c.067.012.243.085.336.08.193-.005.417-.152.772-.085.534.098.66.461.97.667.21.144.429.08.461.08h.072c.013 0 .112-.112.166-.107.106.006.117.094.184.1.157.018.462-.08.614-.04a.293.293 0 0 1 .12.488c-.165.152-.323.296-.355.422.04.031.08.064.117.1a15.538 15.538 0 0 1-3.78-1.514v-.002Z" fill="#CEB052"/><path fill-rule="evenodd" clip-rule="evenodd" d="M23.068 24.803s.416-.555.56-.83c.145-.283-.456-3.874-.456-3.874l1.207-3.954-.032-1.287s.059-1.188.197-1.703c.166.296.681.654.793.844.053-.364.233-1.13.206-1.947.099.152.336 1.682.336 1.682l.238 1.03.31 1.095.344 1.156.206.799.117.192.1.336.093.364.27.851.158.7.125 1.268c.027.097.047.196.059.296.005.14-.019.22-.019.243 0 .024.046.305.027.516-.027.21-.027.376-.192.528-.166.151-.27 1.057-.27 1.057l-.296-.197s.058-.27-.08-.516a.52.52 0 0 0-.561-.256c-.152.032-.457.08-.555.165-.094.086-.323.35-.534.47-.265.159-.695.171-.924.224-.233.053-.489.212-.759.396a4.226 4.226 0 0 1-.667.352h-.001Z" fill="#CCA847"/><path fill-rule="evenodd" clip-rule="evenodd" d="M23.068 30.637s.018.012.052.03a15.682 15.682 0 0 0 4.998-3.705 25.608 25.608 0 0 0-.057-1.299c-.045-.435-.013-.878-.027-1.135-.013-.256-.157-1.3-.224-1.57-.072-.27-.211-.403-.232-.403-.019.006-.131.508-.131.634s-.027.43-.027.507c-.019-.005-.027-.053-.027-.072-.026.067-.058.184-.072.198-.013.013.019-.112 0-.14-.018-.026-.052-.012-.045-.08a.765.765 0 0 1 .019-.117s-.08.118-.14.417c-.058.296-.058.304-.08.33-.018.033-.125.14-.13.18-.005.072.099.144.107.184.005.067-.094.377-.126.528-.032.152-.018.448-.052.6-.027.14-.053.22-.145.278.067.014.131.032.131.032s.093.395-.144.732c-.085.117-.107.17-.198.278-.178.197-.317.422-.33.568a.963.963 0 0 1-.02-.13s-.277.323-.395.507c-.152.237-.363.224-.422.283-.06.059-.072.165-.053.25-.052.014-.152.033-.219.238a.5.5 0 0 1-.237.283c-.126.072-.278.094-.355.113.066.018.093.018.125.04-.04.066-.224.17-.43.304a.899.899 0 0 0-.355.43c-.053.112-.13.184-.256.197.053.032.13.107.17.131-.058.014-.158.014-.336.166-.187.155-.25.2-.336.213h-.001Z" fill="#C39D3C"/><path fill-rule="evenodd" clip-rule="evenodd" d="M19.353 31.875a1.51 1.51 0 0 1 .33-.175c.416-.166.857-.198 1.03-.251.166-.053.296-.126.502-.166l-.015.133c-.606.19-1.223.343-1.848.459Z" fill="#D2BA6B"/><path fill-rule="evenodd" clip-rule="evenodd" d="M27.034 20.922s-.086.461-.238.752-.317.695-.317.695a1.27 1.27 0 0 1 .032-.27c-.192.112-.66.382-.792.502-.125.112-.336.31-.39.403.126-.369.257-.7.278-.852-.192.14-1.09.879-1.556 1.367l-1.456 1.178a5.04 5.04 0 0 1-.518.242c-.25.107-.547.198-.766.283.06-.157.152-.296.283-.43.14-.13.556-.582.62-.792.058-.219.072-.35-.006-.534-.072.019-.237.027-.35.059a.685.685 0 0 0-.232.152s.086-.488.27-.95a3.928 3.928 0 0 0-.377.045s.332-.555.898-.942a2.92 2.92 0 0 0-.507.157c-.331.139-.694.344-.964.457.152-.212 1.22-1.736 1.856-3.156.633-1.418.87-1.781 1.009-2.542.072-.376.053-.933.072-1.431.018-.494.08-.937.04-1.234.165.206.785.785.806 2.08.019 1.295-.592 3.044-1.241 3.986.158.046.569.1.99-.633.422-.733.417-.937.57-1.242.018.153.012.206.012.206s.614-.745.905-1.682c.06.403.233.758-.04 1.498-.243.667-.56.83-.56.83s.157-.027.39-.165c.04.098.032.21.098.25.067.04.158.107.171.171.072-.106.184-.243.22-.344-.028.211-.046 1.135.052 1.605.206-.02.417-.032.56-.404-.098.364-.098.582-.031.892a1.05 1.05 0 0 0 .208-.208Z" fill="#C0993A"/><path fill-rule="evenodd" clip-rule="evenodd" d="M20.096 6.205s-.205.085-.555.085c-.304 0-.219-.117-.694-.117-.732 0-3.287.422-3.735.416-.291-.005.982.126.982.126l3.255.045.654-.053.243-.494-.15-.008Z" fill="#A88F33"/><path fill-rule="evenodd" clip-rule="evenodd" d="M11.657 12.567s-.417.318-.593.561c-.176.243-.27.403-.47.6a.409.409 0 0 0 .139-.018s0 .053-.032.067a.188.188 0 0 1 .152.053c-.059.032-.219.192-.093.381.093.145.29.158.29.158s-.045.13.145.117c.408-.018.865-.197 1.076-.152.21.053.33.072.48.331.159.257.297.297.297.297s.093-.238.072-.593c.077-.191.119-.395.125-.6l-.138-1.023-.606-.767-.785.436-.06.152Z" fill="#E3C571"/><path fill-rule="evenodd" clip-rule="evenodd" d="M12.402 12.415s.059.139.304.152c-.027.059-.027.067-.018.112l.013.112a.25.25 0 0 0 .072-.053c.013.06-.014.153 0 .22.008.04.021.08.04.117a.236.236 0 0 1 .013-.027c.005-.013.053.144.184.264 0-.018.005-.036.014-.053a.184.184 0 0 0 .032.094.097.097 0 0 1-.027-.019s.013.423.085.641a.3.3 0 0 0 .032-.045c0-.014-.005.117-.018.21-.019.094-.005.225-.005.225a.698.698 0 0 1 .157-.093c.08-.033.211-.131.291-.35.046-.124.082-.252.107-.382.026.05.043.103.053.158.005.067.13.032.13.032l.027-.29.159-.66.144-.409.694-1.08 1.254-.967 1.095.251.924-1.255-1.592-.955-1.505.157-1.367 1.893-1.095 1.717-.197.283Z" fill="#D8B65B"/><path fill-rule="evenodd" clip-rule="evenodd" d="M20.288 9.676s-.093.018-.363.158-.456.184-.56.39a1.01 1.01 0 0 0-.112.368s.184-.08.29-.106c.113-.027.238-.02.225.026a.308.308 0 0 1-.053.086s.211-.006.206.099a.55.55 0 0 1-.08.27c-.04.052-.206.13-.224.192-.046.125.018.13-.006.232-.018.099-.107.29-.395.627a3.367 3.367 0 0 0-.422.574s-.145-.27-.22-.502c-.052.027-.336.184-.336.184l-.657-2.288.014-.152s.059-.072.072-.205c-.099-.032-.112-.06-.243-.184-.131-.126-.238-.278-.457-.382-.032-.06-.072-.14-.232-.171-.16-.033-.256-.059-.256-.059s.085-.032.125-.099c-.099.014-.178.046-.395.04-.219-.005-.243-.013-.363.006-.12.018-.264.072-.318-.113-.058-.045-.184-.005-.29.153-.107.157-.145.283-.35.344a.715.715 0 0 1-.094.256c-.059.1-.152.198-.277.345-.198.232-.166.614-.481.905-.318.29.053-.807.053-.807l.507-1.214 1.444-1.412 2.243-.152.219 1.161 1.095.377.691 1.054v-.001Z" fill="#D3AE4D"/><path fill-rule="evenodd" clip-rule="evenodd" d="M20.644 9.932 19.7 8.573l-.66-.507s-.47-.865-.501-.892c-.027-.019-.47-.067-.753-.085l.053.13c.061.02.116.058.158.107.126.145.206.417-.08.708.112.04.158.053.256.04-.098.117-.323.368-.336.587-.013.18.099.232.099.232s-.171.198-.18.528c.082-.09.17-.175.265-.25a6.84 6.84 0 0 1 .654-.45.378.378 0 0 0 .019.14s.344-.283.633-.158c.131.059.072.243.072.243s.18-.066.305.059c.125.126.304.448.395.574.04.059.144.171.25.344.146.243.268.5.364.767.005-.107.027-.256.211-.256l-.28-.502h-.001Z" fill="#CAA13E"/><path fill-rule="evenodd" clip-rule="evenodd" d="M6.515 13.793s-.067-.166 0-.489c.066-.323.17-.475.205-.95.035-.475.345-1.068.345-1.068l.857-.39.606.166.179.811-.767.423s-.04.179-.256.323c-.216.144-.515.256-.587.403-.043.09-.075.185-.094.283 0 0-.219-.046-.35.099-.138.147-.133.277-.138.39v-.001Z" fill="#F4EFC8"/><path fill-rule="evenodd" clip-rule="evenodd" d="M8.245 13.576s-.072.046-.126.159c-.053-.085-.179-.593-.184-1.05-.005-.456-.033-.57.073-.726.106-.158.52-.324.461-.607-.059-.27-.305-.382-.606-.304-.211.053-.369.502-.588.726-.165.17-.363.144-.416.238-.072.125-.005.25-.027.33-.005.027-.072.171-.192.345-.243.35-.654.844-.708 1.287.02-.251.006-.256.073-.534l-.04-.067.263-.865.171-.713.382-1.193.673-1.22.654-.732.68.045.081 1.023.39 1.92.82 1.009-1.314.884-.52.045Z" fill="#EBCC73"/><path fill-rule="evenodd" clip-rule="evenodd" d="M8.653 13.94s-.112.026-.152.005c-.04-.022-.08-.046-.067-.072.014-.027.086-.072.086-.094a.075.075 0 0 0-.067-.08c-.061-.008-.08.032-.08.032s-.059-.045-.107-.053a.738.738 0 0 1 .086-.005.833.833 0 0 0-.233-.067c.067-.04.198-.158.283-.158.086 0 .14-.013.126-.058-.014-.046-.08-.112-.152-.139.026-.032.045-.08-.019-.211-.067-.13-.04-.22-.019-.251.019-.04.086-.112.118-.157.032-.046.059-.107.112-.14.027-.018.112-.052.198-.085.093-.032.17-.072.224-.032.059.04.032.094.032.094s.184-.067.35.018c.165.08.568.131.568.131l.145.291-.956.82-.395.198-.08.013Z" fill="#E5C66B"/><path fill-rule="evenodd" clip-rule="evenodd" d="M9.98 12.6s-.296.197-.363.269c.04.005.107.032.08.072-.032.04-.224.179-.331.31a2.04 2.04 0 0 0-.256.376c-.04.072-.345.283-.449.31.22 0 .66-.27.825-.27-.005.08.045.171.139.18.093.007.363.058.726-.166.363-.22.243-.382.395-.489.291-.192.409-.363.569-.47.16-.106.243-.13.243-.13s.005-.08.053-.073a.072.072 0 0 1 .058.046s.278-.198.634-.251a.037.037 0 0 1-.019-.019s.027-.013.032-.027c0 0 .02-.027.032-.013.014.013.032.112.06.152.058-.027.17-.278.17-.278l.27-.771v-.705l-.211.04-1.584.673-.962.996-.112.237h.001Z" fill="#E6BD62"/><path fill-rule="evenodd" clip-rule="evenodd" d="M14.54 9.142a.895.895 0 0 0 .244-.1c-.032.086-.032.18-.17.383-.14.203-.145.232-.257.443-.112.219-.126.534-.232.673a.49.49 0 0 1 .152-.046s-.107.094-.152.193c-.046.098-.126.304-.323.43-.198.125-.45.205-.719.502-.27.29-.547.659-.686.792.072-.126.17-.377.198-.542.026-.166-.006-.364.04-.582.045-.22.045-.377.264-.759.218-.382.592-1.709.592-1.709l.806-.256.244.577Z" fill="#B6933F"/><path fill-rule="evenodd" clip-rule="evenodd" d="M13.958 8.653s-.243.35-.31.66c-.066.31-.005.283-.045.435a.567.567 0 0 0 0 .283c.084-.136.2-.25.336-.331.23-.139.417-.238.528-.355.112-.126.206-.331.449-.489-.1-.013-.238-.059-.264-.053.099-.112.395-.283.694-.488.296-.211.277-.297.758-.507-.157.026-.232-.014-.363 0 .053-.113.238-.166.422-.35.185-.184-.117-.457-.117-.457l-1.408.852-.68.8Z" fill="#C49937"/><path fill-rule="evenodd" clip-rule="evenodd" d="m10.138 8.018.032-.257.403-.646.422-1.134V4.429l-.032-.897.066-.587.051-.187.054-.072.344.179.475.646L12 4.758l-.462 1.967-1.32 1.44-.08-.147Z" fill="#DFC068"/><path fill-rule="evenodd" clip-rule="evenodd" d="M11.187 2.614s-.211.005-.256.884c-.045.878-.067 1.34-.1 1.775-.031.435-.106.7-.143.956-.038.256-.06.606-.18.82-.052.098-.165.408-.43.64a2.65 2.65 0 0 1-.805.45c-.118.026-.713.084-.956.218-.086.045-.233.099-.395.251-.324.29-.753.812-1.063 1.439-.475.937-.95 3.583-.95 3.583l.106-.179s.014-.237.251-.654c.233-.417.166-.884.489-1.682.125-.304.283-.7.475-1.036.305-.547.673-1.017 1.044-1.274.606-.416 1.274-.507 1.274-.507l.718-.475s.125-.243.291-.52c.232-.39.528-.825.593-1.458.098-.937-.14-1.551-.126-2.107.014-.555.019-.964.131-1.062.112-.1.032-.062.032-.062Z" fill="#A88F33"/><path fill-rule="evenodd" clip-rule="evenodd" d="M11.187 6.806s.317-.78.462-1.472c.027-.138.08-.277.093-.39.067-.653.086-.923 0-1.28-.067-.265-.323-.503-.456-.687-.131-.193-.192-.264-.166-.305a.296.296 0 0 1 .232-.099.795.795 0 0 1 .57.264c.205.238.368 1.044.368 1.044l.17 1.065.436 1.34-1.709.52Z" fill="#C99E3D"/><path fill-rule="evenodd" clip-rule="evenodd" d="M14.164 5.994s-.059.027-.166 0a.24.24 0 0 1-.106.224c-.113-.045-1.162.046-1.162.046s-.489-.086-.64-.732c-.108-.43.08-1.023.018-1.412-.094-.574-.225-.687-.238-.865-.013-.179-.027-.225-.027-.337-.058-.013-.093-.032-.152-.032-.013-.053.013-.099-.045-.192.032.013.25.04.507.283.211.198.211.27.243.31.04.04.363.316.502.592.139.276.409 1.156.47 1.3.019.06.059.118.159.251.154.193.381.51.638.564h-.001Z" fill="#B58634"/><path fill-rule="evenodd" clip-rule="evenodd" d="M12.434 3.3c.162.261.307.532.435.812.158.355.25.646.449.883-.107-.31-.297-.918-.409-1.134-.125-.23-.382-.475-.475-.56V3.3Z" fill="#A88F33"/><path fill-rule="evenodd" clip-rule="evenodd" d="M10.618 7.69s-.27.066-.771.33a8.356 8.356 0 0 1-.476.225c-.395.179-.82.344-1.156.435.027.032.04.045.04.045s0 .131.072.206c-.04.04-.574.403-.416 1.618.107-.04.232-.094.25-.094.033.006.04.094.08.094s.172-.053.31-.233c-.005.073-.085.799.345 1.287a6.57 6.57 0 0 0 .283-.403l.005-.099s.019-.344.131-.66c.113-.314.331-.546.331-.546l1.143-1.632-.171-.574Z" fill="#E6C367"/><path fill-rule="evenodd" clip-rule="evenodd" d="M9.55 10.085a.632.632 0 0 1-.17.085.66.66 0 0 1 .111-.52c.185-.27.588-.62.7-.898.072-.179.04-.627.68-1.202.642-.574.893-.771.893-.771l1.035-.52 1.274.501-.633 2.48-.491 1.162-1.954-.369-1.445.052Z" fill="#DCBA5A"/><path fill-rule="evenodd" clip-rule="evenodd" d="m10.296 9.411.243-.304v-.216s.27-.072.56-.369c.292-.296.695-.865 1.05-.83.355.04.39.771.403.977.014.206.059.673.13.924.081.251-.864 1.201-.864 1.201l-.642.489-.88-1.872Z" fill="#E9CE77"/><path fill-rule="evenodd" clip-rule="evenodd" d="M11.048 11.945s.198-.31.053-.376c.085-.193.243-.396.243-.396s.112-.277.475-.619c.363-.342.587-.569.646-.798a2.11 2.11 0 0 0 .059-.457.86.86 0 0 0 .126.086c.058.026.336.256.296.718-.04.462-.211.654-.211.654s-.166.166-.283.251c-.126.086-.171.184-.382.192a.25.25 0 0 1 .072-.04s-.219-.026-.336.08c-.118.107-.368.435-.493.534-.126.08-.264.171-.264.171h-.001Z" fill="#CDAE50"/><path fill-rule="evenodd" clip-rule="evenodd" d="M19.925 6.752a3.215 3.215 0 0 0-.982-.192c-.56-.019-1.38.013-2.184.019-.865.005-1.65-.297-2.74-.35-.178-.107-.633-.574-2.052.416.085-.005 1.03-.219 1.358.193.332.408.238 1.102.193 1.268-.086.368-.363.905-.475 1.281-.112.377-.086.575-.166.839-.08.264-.256.395-.152.699.139-.085.211-.085.443-.606.232-.52.184-.892.569-1.332.376-.443 1.003-1.05 1.241-1.202.239-.152 2.13-1.134 4.112-.197.478-.051.836-.836.836-.836Z" fill="#D2A83E"/><path fill-rule="evenodd" clip-rule="evenodd" d="M12.765 6.389a.237.237 0 0 0-.014-.059.428.428 0 0 0-.072-.107s-.47-.085-.707-.059c-.417.046-.793.561-.97.825-.176.265-.395.673-.632.884a.088.088 0 0 0-.013-.059s.013.02-.014.046c-.026.027-.026.04-.013.053l.04.04c.013 0 .382-.166.884-.634.534-.489.942-.74 1.156-.825.114-.049.233-.084.355-.105Z" fill="#C29637"/><path fill-rule="evenodd" clip-rule="evenodd" d="M21.88 4.381s-.085.107-.192.225c-.238.25-.548.533-.812.824-.25.278-.534.495-.852.858-.318.363-.686.766-.78.883a.87.87 0 0 0-.151.409l-.1-.067c.023.042.05.081.08.118.068.093.172.21.225.283a.864.864 0 0 1 .139.304c.032.005.237.045.494-.377.256-.421.592-.883.592-.883l.534-.793.337-.673.422-.753.065-.358h-.001Z" fill="#AC8132"/><path fill-rule="evenodd" clip-rule="evenodd" d="M22.427 3.842s-.323.264-.448.422c-.126.159-.423.575-.423.575l.107-.014.542-.48.211-.377.011-.125Z" fill="#A88F33"/><path fill-rule="evenodd" clip-rule="evenodd" d="M22.328 25.06s-.005-.22.118-.35c.125-.13.443-.323.753-1.044.31-.72.344-.884.344-.884s-.555.476-.897.588c.08-.166.125-.283.165-.369-.045-.04-.237-.085-.256-.107.107-.106.165-.368.382-.542.277-.21.785-.574 1.179-.897.394-.324 1.17-1.076 1.268-1.295a.483.483 0 0 1 .072.139s-.39.507-.593.83c-.178.278-.165.435-.165.435l.369-.158s.106.395-.377.996c.211-.08.296-.032.416-.1-.197.127-.47.297-.726.767-.25.47-.592 1.018-1.17 1.36-.56.36-.883.63-.883.63h.001Z" fill="#A67A2E"/><path fill-rule="evenodd" clip-rule="evenodd" d="M20.881 7.03s-.219.456-.25.811c-.006.086-.027.153-.027.251-.006.318.018.673-.053.839-.027-.067-.04-.112-.067-.139-.04.112-.112.462-.17.593a2.782 2.782 0 0 1-.08-.732c.005-.35.012-.416.012-.488-.013.106-.085.25-.112.336-.04-.072-.085-.165-.139-.243-.032.053-.072.13-.106.171a2.467 2.467 0 0 1-.027-.238c-.005-.138-.013-.317-.005-.355.013-.072.125-.355.363-.614.283-.31.574-.905.66-1.09.085-.183.448-.95.448-.95h.277l-.403.919s-.243.502-.368.686c-.126.185-.39.713-.508.919.086-.112.158-.171.244-.278.082-.075.312-.398.312-.398Z" fill="#8C6228"/><path fill-rule="evenodd" clip-rule="evenodd" d="M22.433 3.807c-.046.14-.117.27-.212.382-.165.198-.52.462-.694.673-.158.205-.475.766-.33 1.43.052-.143.151-.429.416-.752.264-.323.547-.694.686-.982.139-.292.157-.521.157-.521l.053-.067-.032-.152-.045-.01Z" fill="#CBA94C"/><path fill-rule="evenodd" clip-rule="evenodd" d="M27.84 21.517s-.108-.291-.14-.556c-.032-.264.053-.316-.045-.619-.059-.184-.166-.158-.192-.184-.027-.026-.046-.305-.04-.457a1.712 1.712 0 0 0-.032-.435c-.04-.032-.067-.059-.126-.256-.067-.198-.099-.297-.13-.355-.033-.059-.126-.112-.126-.171 0-.118.107-.179.107-.211-.006-.067-.086-.014-.107-.032-.027-.032.067-.225.032-.251-.014-.013-.107.099-.131.067-.027-.033-.059-.35-.107-.561-.045-.206-.093-.355-.099-.417-.005-.058-.368-1.094-.456-1.345a6.363 6.363 0 0 1-.179-.646c-.027-.126-.045-.382-.059-.356-.013.027-.005.158-.027.153-.018-.006-.085-.462-.106-.534-.019-.073-.131-.317-.159-.494-.026-.18-.085-.646-.125-.964-.04-.318-.059-.449-.059-.528a3.285 3.285 0 0 0-.032-.582 5.422 5.422 0 0 0-.25-.983c-.18-.448-.655-1.596-.74-1.882 0-.072.093-.032.093-.032s.232.582.403 1.03c.166.45.323.844.364.884.032.04.283.48.395 1.202.112.72.152 1.385.219 1.829.032.21.058.435.125.66.072.242.184.493.331.877.126.324.22.593.27.826.059.296.059.52.093.667.033.126.08.376.193.74.112.362.277.83.39 1.12a6.21 6.21 0 0 1 .35 1.328c.029.267.127 1.19.1 1.468h.001Z" fill="#A88F33"/><path fill-rule="evenodd" clip-rule="evenodd" d="m22.446 3.775-.013.032s.04.014.032.067c0 .073-.004.146-.014.22-.013.093-.04.164-.045.223 0 .126.019.27-.158.628-.053.098-.086.184-.113.243a.72.72 0 0 1-.138.232c.093-.053.43-.264.6-.232a1.252 1.252 0 0 0-.408.368.918.918 0 0 0 .317 0c.296-.045.627-.152.918-.13.318.018.192-.383.192-.383l-.366-.806-.695-.488-.109.026Z" fill="#BE9C44"/><path fill-rule="evenodd" clip-rule="evenodd" d="M24.256 9.815s-.31-.31-.435-1.373c-.126-1.068-.099-2.64-.099-2.64l-.25-.614s-.054-.409-.185-.56c-.132-.153-.39-.41-.507-.535-.118-.125-.251-.296-.331-.323.04-.067.219-.443.905-.448.686-.006.897.376.969.515.072.139.395.74.515 1.883.112 1.143.118 1.228.099 1.623a9.187 9.187 0 0 1-.211 1.268c-.115.46-.24.973-.47 1.205v-.001Z" fill="#A17C34"/><path fill-rule="evenodd" clip-rule="evenodd" d="M23.285 10.725a.524.524 0 0 0 .296-.067c.099-.005.457.04.732-.31.018.08.067.297-.06.49.068-.068.166-.094.18-.113.005.099.099.403-.296 1.143.106-.118.232-.112.344-.126.005.14.08.606-.118.857-.13.171-.344.118-.344.118a.677.677 0 0 0 0-.112c-.005-.073-.032-.145-.013-.193a.958.958 0 0 1-.278-.192c-.232-.219-.534-.593-.555-.87-.027-.31.25-.377.25-.377a.296.296 0 0 1-.058-.072c-.013-.045-.027-.117-.08-.176Z" fill="#8C6228"/><path fill-rule="evenodd" clip-rule="evenodd" d="M21.226 7.366s-.014-.018-.086.067c.014-.085.027-.166.032-.243a.841.841 0 0 1 .131-.198c-.04.08-.067.153-.067.153s.1-.185.243-.297c.1-.08.225-.117.278-.192.059-.08.045-.093.059-.107 0 0 .13-.085.331-.336.027-.032.067-.067.093-.1.046-.018.152-.066.278-.13.13-.072.278-.17.369-.211.178-.08.368-.072.456-.198.067-.019.139-.219.126-.39.098.04.605.355.78 1.044.125.489-.1 1.242-.193 1.605-.094.363-.107.633-.238.798-.165.22-.7.528-.83.681-.112.126-.448.443-.435.673.013.17.224.264.27.296.045.033.045.072.13.053.086-.02.118-.059.152-.059.04.005.04.014.06.014a.193.193 0 0 0 .04-.006s-.014.243-.583.317c-.04.005-.08.019-.13.027.066-.032.106-.032.178-.131-.08-.013-.31-.027-.368-.046a.712.712 0 0 1 .13-.157c.046-.04-.005-.053-.045-.032a2.141 2.141 0 0 0-.197.152c-.067.059-.126.139-.233.211a.52.52 0 0 1 .1-.456c-.033.005-.095.098-.153.08a.849.849 0 0 1 .019-.291c.032-.12.205-.331.205-.331l.838-1.498.18-1.135-1.92.373Z" fill="#92723A"/><path fill-rule="evenodd" clip-rule="evenodd" d="M21.18 7.43s-.045.032.046.094c-.014.018-.046.085-.086.13-.045.053-.093.086-.112.132-.04.093-.072.157-.072.197 0 .04-.013.297-.125.462-.04.059-.086.158-.118.224-.067.118-.125.211-.139.264-.026.094-.045.35-.045.35l.08-.099c-.032.067-.067.139-.118.192.032-.026.126-.093.284-.232.219-.184.56-.494.977-.74-.126.046-.232.046-.318.06.067-.067.668-.772.983-.839a.126.126 0 0 0 .026-.085l-.27-.027-.547.118-.08-.423-.366.222Z" fill="#B18E3E"/><path fill-rule="evenodd" clip-rule="evenodd" d="M22.05 9.833s-.071.072-.138.251a.843.843 0 0 1-.13-.179c-.1-.165-.252-.376-.607-.256-.005-.112-.013-.17 0-.25.059-.014.238-.158.416-.37.126-.143.244-.31.324-.52.053-.04.144-.107.264-.184.17-.118.376-.278.408-.457-.08.032-.25.112-.507.1.099-.046.25-.094.232-.292.04-.027.072-.045.072-.045a.264.264 0 0 0-.093-.014c-.006-.018-.014-.045-.059-.032-.045.013-.053.014-.059.032-.018.006-.08 0-.125.032-.046.033-.171.14-.22.158.02-.032.046-.08.046-.08s-.13.013-.224.053c-.171.059-.369.165-.569.27.019-.033.027-.053.04-.06.013-.005.046-.013.046-.018 0-.006-.014-.053-.006-.072.06-.127.13-.248.211-.363.094-.126.113-.305.113-.305l.408-.205 1.148-.264.745.045-.093.516-.44.9-.377.819-.43.502-.395.288Z" fill="#543E26"/><path fill-rule="evenodd" clip-rule="evenodd" d="M23.912 7.603s-.449.555-.574.641c.08-.17.574-1.188.752-1.471-.04-.032-.093-.032.033-.528-.107.25-.145.382-.233.448-.088.067-.099.046-.158.046a.11.11 0 0 0 .013-.067s-.376-.045-.633-.045-.766.138-1.05.25c-.224.094-.35.094-.43.153-.08.066-.125.138-.165.157-.032.019-.184.067-.219.118-.032.052-.085.112-.085.125 0 .013-.014.032.026.019.014-.006.113-.06.225-.126.152-.085.336-.184.47-.243.381-.152.501-.125.672-.157.179-.032.435-.107.606-.107.171-.005.494 0 .569.013-.032.027-.059.06-.045.171 0 .032-.027.067-.053.144-.08.22-.232.582-.317.767-.117.25-.25.462-.317.592-.066.131-.211.475-.355.66-.144.184-.219.296-.264.336-.045.04-.368.278-.344.363.058-.018.43-.158.7-.461.269-.304.322-.49.533-.655.211-.165.377-.443.475-.672.083-.214.064-.28.168-.47Z" fill="#806031"/><path fill-rule="evenodd" clip-rule="evenodd" d="M14.244 11.748s-.059.243-.192.363c-.131.117-.363.219-.39.416-.032.198.232.297.232.297s-.144.237-.144.416c0 .184-.005.22.013.395a.177.177 0 0 0-.052.053s.013.17.144.278c.13.106.243.17.31.144.01.022.018.044.026.067 0 0 .099-.251.166-.47.066-.225.125-.193.152-.494.026-.302.316-.82.316-.82l.199-.443-.323-.25-.457.048Z" fill="#B6903C"/><path fill-rule="evenodd" clip-rule="evenodd" d="M14.845 12.183a1.942 1.942 0 0 0-.184.219c-.086.117-.152.224-.278.27-.125.045-.205.045-.197.17.008.126.125.18.192.243.072.067.13.18.099.305.04-.019.112-.04.178-.184.067-.145.534-1.023.534-1.023h-.344Z" fill="#685026"/><path fill-rule="evenodd" clip-rule="evenodd" d="M16.685 10.156s.04-.106 0-.184c-.04-.08-.283-.107-.403-.197-.126-.094-.278-.159-.404-.118.019-.045.094-.144.032-.165-.058-.02-.277.08-.336.125s-.192.099-.219.13c-.027.033-.072.094-.099.068-.027-.019-.04-.067-.085-.04-.046.026-.264.205-.304.31-.04.103-.131.336-.404.6-.272.264-.39.435-.31.534.08.099.118.027.131.112a.718.718 0 0 1-.013.251c-.032.139-.085.27-.013.296.184.06.363-.052.403-.018.08.072-.045.33.144.382.193.052.382-.046.382-.046l.7-.376.672-.355.345-.681-.185-.569-.035-.059Z" fill="#D4B968"/><path fill-rule="evenodd" clip-rule="evenodd" d="M16.025 11.782s-.118-.178.027-.336c.144-.158.35-.224.43-.323a.123.123 0 0 0-.06-.04.531.531 0 0 1 .233-.22.222.222 0 0 0-.152-.071c-.131 0-.211.08-.331.08-.118 0-.131-.059-.131-.059s.197-.019.179-.107c-.019-.093-.053-.093-.053-.093s.382-.159.448-.243c.067-.085.06-.184.073-.224.045 0 .309-.14.416-.08.107.058.032.219.032.219s.323-.244.488-.482c.144.014.211-.099.317-.099.13 0 .336.18.376.561.027.219.067.345.027.732-.019.219-.013.686.053.918.045.184.152.166.152.166a.299.299 0 0 1-.094.144c-.072.066-.08.243-.072.31.01.048.024.096.04.144 0 0-.085.098-.106.165-.02.067-.107.112-.171.112-.065 0-.032-.005-.118 0-.085.006-.112.02-.165 0-.054-.018-.094-.04-.072-.21.018-.172-.66-.57-.66-.57l-1.109-.395.003.001Z" fill="#CCA849"/><path fill-rule="evenodd" clip-rule="evenodd" d="M14.751 13.47s.243.323 1.242.323c.475 0 .64-.046.739-.072.107-.027.507-.184.91-.66.364-.43.283-.606.283-.606l-.21-.032-.687.094-2.031.865-.247.088h.001Z" fill="#585136"/><path fill-rule="evenodd" clip-rule="evenodd" d="M15.496 13.55s-.865.192-.865-.355c0-.534.534-1.095.668-1.194.139-.099.47-.21.47-.21h.798l.152.402-.067.87-1.156.486Z" fill="#252211"/><path fill-rule="evenodd" clip-rule="evenodd" d="M16.294 11.953s-.165-.152-.542.053c-.376.205-.68.634-.7 1.023-.018.344.284.6.754.614.35.013.56-.027.667-.053l-.165-.206-.013-1.43Z" fill="#C3B378"/><path fill-rule="evenodd" clip-rule="evenodd" d="M16.132 12.038s-.04-.032-.159.032c-.099.053-.243.193-.355.291-.072.06-.117.086-.158.131-.166.198-.305.521-.224.681.08.16.344.345 1.017.22l-.123-1.354h.002Z" fill="#E6D89C"/><path fill-rule="evenodd" clip-rule="evenodd" d="M15.913 12.37s-.107.165-.107.43c0 .27.152.699.713.731.43.027.718-.62 1.03-.87.238-.192.382-.198.382-.198s-.243-.264-.892-.606c-.64-.344-1.359-.39-1.749.139.185-.013.78-.166.78-.166l.291.094-.448.446Z" fill="#252211"/><path fill-rule="evenodd" clip-rule="evenodd" d="M16.751 12.72c-.019-.04-.032-.094.045-.107.078-.013.113-.006.14.053.026.058.052.106.012.13-.04.022-.144 0-.197-.077Zm-.126-.377s-.026.018-.013-.019c.005-.045.04-.125.126-.106.085.018.067.112.052.138-.014.027-.085.072-.138.053a.045.045 0 0 1-.034-.047c0-.007.003-.014.007-.02Z" fill="#6F674D"/><path fill-rule="evenodd" clip-rule="evenodd" d="M9.398 12.514s.212.158.457.152c.243-.006.555-.256.7-.417.085-.093.158-.192.237-.27.067-.066.112-.098.144-.143.046-.053.094-.153.118-.185-.06.046-.145.126-.233.18-.085.052-.27.151-.344.178-.072.027-.82.422-.82.422l-.259.083Z" fill="#AC924C"/><path fill-rule="evenodd" clip-rule="evenodd" d="M9.721 10.54s.118-.08.345-.13c.219-.053.66-.094.66-.094l.362.159.144.547-.264.569-.336.211-.382-.614-.528-.646v-.001Z" fill="#9F8E57"/><path fill-rule="evenodd" clip-rule="evenodd" d="m9.246 11.03-.126.093s.033-.059.06-.237c.026-.18.165-.614.368-.865.203-.251.197-.238.197-.238a.134.134 0 0 0-.107.027c.027-.06.198-.27.369-.376.17-.106.238-.14.416-.053.18.086.225.13.356.125.13-.005.242-.144.242-.144s.027.085-.072.283c-.098.198-.488.6-.488.6l-.812.556-.403.229Z" fill="#EAC970"/><path fill-rule="evenodd" clip-rule="evenodd" d="M9.846 10.474s.588.08.767-.085c.005.018.027.018.027.032a.046.046 0 0 1-.014.026.43.43 0 0 1 .059-.005.347.347 0 0 0 .072.014.43.43 0 0 0 .059-.006.1.1 0 0 1-.04.067c.027 0 .053.005.053.027 0 .02.005.085-.027.098a.121.121 0 0 1-.08-.005c.002.05.016.1.04.144.053.099.165.211.317.179 0 0 .08.192-.257.62-.045.058-.093.138-.152.205a.784.784 0 0 0-.053.158s.57-.22.732-.719c.166-.502.198-.996.166-1.457a.752.752 0 0 0-.06-.292c-.08-.165-.304-.138-.394-.045-.131.131-.35.457-.655.68-.31.225-.322.265-.56.364Z" fill="#D7BC6B"/><path fill-rule="evenodd" clip-rule="evenodd" d="M9.142 11.195s-.112.067-.171.317c-.059.256.053.569.117.667.065.099.212.369.516.382.075 0 .15-.016.219-.045.106-.049.205-.11.296-.185.13-.098.238-.184.224-.192a36.526 36.526 0 0 1-.806-.654l-.291-.325-.104.035Z" fill="#585136"/><path fill-rule="evenodd" clip-rule="evenodd" d="M9.874 12.258s.157-.014.25-.072c.094-.06-.547-.695-.547-.695l.046.687.25.08Z" fill="#453A25"/><path fill-rule="evenodd" clip-rule="evenodd" d="M9.192 11.147s-.08.152-.08.192c-.013.13.027.542.06.673.031.139.205.35.43.35.138 0 .33-.086.33-.107 0-.027-.197-.053-.25-.152-.033-.053-.046-.184-.054-.317-.005-.085-.005-.179.027-.211.072-.08.086-.31.086-.31l.256-.476H9.66l-.403.25-.065.108Z" fill="#84754B"/><path fill-rule="evenodd" clip-rule="evenodd" d="M9.094 11.294s.264-.35.502-.43c.238-.08.344-.032.344-.032l-.139.355-.197.219.013.112s-.032.296.165.502c.198.206.345.198.43.198.086 0 .332-.073.457-.369.112-.277.205-.634-.019-.99-.219-.356-.606-.37-.68-.37-.075 0-.663.03-.876.804Z" fill="#252211"/><path fill-rule="evenodd" clip-rule="evenodd" d="M15.873 12.482c-.1-.046-.006-.323.093-.409a.697.697 0 0 1 .443-.197c.08-.006.158.045.145.099-.02.098-.158.237-.284.336-.173.136-.285.221-.397.17Z" fill="#F7F7E7"/><path fill-rule="evenodd" clip-rule="evenodd" d="M10.533 10.968c.072-.005.165.053.184.13.019.086-.045.257-.184.257-.112 0-.171-.139-.171-.179a.205.205 0 0 1 .027-.093c.005-.008.018-.102.144-.115Z" fill="#F8F6DE"/><path fill-rule="evenodd" clip-rule="evenodd" d="M9.492 11.03s-.185.085-.27.263a.7.7 0 0 0-.053.423c.013.067.08.232.126.29.045.06.106.1.152.094.045-.005.139-.125.139-.197 0-.072.005-.377.093-.542.077-.166-.187-.331-.187-.331Z" fill="#D4C38B"/><path fill-rule="evenodd" clip-rule="evenodd" d="M9.518 11.016c-.032.019-.085.045-.072.08.013.032.126.053.166.131a.28.28 0 0 1 .032.206.325.325 0 0 0 .093-.067c.059-.067.131-.158.192-.158.04 0 .08.019.118.019.059 0 .117-.019.125-.08.014-.08-.112-.152-.184-.139.014-.053.032-.13-.027-.184-.058-.054-.242.04-.283.067-.04.027-.16.125-.16.125Z" fill="#E2D59D"/><path fill-rule="evenodd" clip-rule="evenodd" d="m13.76 16.625.396-.116.112.08s.08.17.205.192c-.04.085-.144.159-.138.219.005.06.058.107.058.107s-.355.587.345 1.179a11.21 11.21 0 0 0-.489.211c.08.019.251.053.323.118.072.065.072.085.14.125.066.04.106.094.093.118-.046-.027-.198-.107-.225-.032-.026.074-.66.045-.66.045l-1.067.206s.04-.107-.072-.206c-.131-.117-.291.005-.462-.125-.224-.171-.232-.369-.304-.444.072-.045.219-.112.568-.158-.013-.027-.059-.107-.032-.179.032-.093.166-.152.126-.264.059-.013.085-.013.232-.197.139-.185.224-.225.331-.238.107-.013.171 0 .369-.184.138-.131.093-.243.093-.243s.09-.03.059-.214Z" fill="#CBAC5A"/><path fill-rule="evenodd" clip-rule="evenodd" d="M12.594 16.685c.005-.027.027-.04.171-.027.144.013 1.057-.085 1.305-.099.252-.018 1.135-.005 1.565.086.43.09.865.197 1.076.25.211.06.278.08.27.107-.006.027-.053.053-.08.046-.027-.006-.727-.22-.943-.264-.216-.045-.964-.166-1.373-.159-.381.006-.534-.005-.856.032-.324.04-.858.094-1.018.073-.158-.02-.125-.02-.117-.046Z" fill="#D6BC6F"/><path fill-rule="evenodd" clip-rule="evenodd" d="M14.743 18.777s.547.297.745.66c.144.27-.085.403-.085.403s.31 0 .27.171c-.02.107-.534.395-.879.547-.35.152-.336.145-.507.171-.166.027-.62-.053-.713.08-.094.133-.053.27-.027.291.027.019.243.046.243.046s-.045.125-.494.139c-.448.013-.56.045-.587.093-.027.045.085.019.29.053.207.032.495.053.495.053s-.094.08-.337.144c-.277.072-.713.139-.843.219.066.045.165.112.21.117-.111.027-.269.086-.295.107.04.027.093.059.093.059s-.224.27-.355.336c-.131.067-.884.417-1.143.35-.646-.171-.726-.878-.884-.932-.237-.08-.35.08-.56-.032.093-.067.144-.107.243-.152-.107-.053-.66-.403-.66-.403a4.098 4.098 0 0 0-.192-.369c-.107-.184-.264-.43-.382-.646-.256-.475-.27-.694-.502-.964.04-.053.179-.045.179-.045l1.946.64 3.452.1.898-1.28.381.045Z" fill="#DFC677"/><path fill-rule="evenodd" clip-rule="evenodd" d="M9.63 20.732a.3.3 0 0 0 .072.059c.067.045.166.098.233.178.026-.04.093-.112.21 0 .119.112.265.033.356.06.093.031.099.044.099.044s.052-.045.17-.093c.073-.027.158-.045.252-.072.085-.019.178-.045.242-.045.06.04.27.264 1.117-.067.798-.31.982-.344 1.116-.297.013-.032.026-.093.232-.085 0-.085-.171-.376-.171-.376l-.942-.323H12.1l-1.546.283-.856.488-.067.247v-.001Z" fill="#C4A859"/><path fill-rule="evenodd" clip-rule="evenodd" d="M9.115 20.19s.019.144.232.296c.212.152.278.243.278.243s.04-.053.072-.107c.032-.058.059-.125.112-.144.107-.045.35.04.403.027.046-.013.032-.107.08-.107.113-.005.185.072.225.072.04 0 .138-.005.152-.026.013-.022.018-.243.17-.35a.457.457 0 0 1 .423-.04c0 .04.005.139.112.144.107.005.118-.013.211.019.094.032.206-.006.257.152.045-.014.152-.027.125-.18.053-.04.099-.066.211-.223.027-.04.072-.086.107-.145.094 0 .206-.018.355.113-.045.032-.072.052-.085.085a.96.96 0 0 1 .107.125c.04.053.066.118.117.131.112.032.296-.013.502 0 .198.014.363.086.435.131.027-.013.027-.018.094-.005.066.013.117.018.045-.067.04.019.085.059.126.019.04-.04.072-.099.184-.112.112-.014.152.005.197-.112.06-.145-.144-.145-.144-.145s.094-.085.198-.197c.125-.118.27-.27.304-.457.059-.344-.277-.39-.277-.39l-1.632.502-1.994-.098-1.7.846h-.002Z" fill="#927D49"/><path fill-rule="evenodd" clip-rule="evenodd" d="M7.65 15.477s-.054.067-.086.225c-.033.157-.019.139-.045.25-.027.113-.356 1.229-.233 1.605.124.377.337.516.47.82.027.067.053.107.067.166.045.197.005.35.059.547a.606.606 0 0 0 .139.224c.158.166.416.323.528.435.157.166.381.502.667.534.152.019.369-.045.547-.152.159-.099.257-.238.423-.317.117-.058.243-.08.355-.107.232-.045.443-.052.569-.026.192.04.646.179.897.179.197-.003.392-.03.582-.08.382-.113.844-.305 1.148-.39.18-.053.323-.067.47-.099.251-.059.462-.139.582-.291-.08-.094-.179-.238-.713-.232-.606.013-1.305.35-1.65.403-.344.053-.494.099-.878-.04-.377-.14-.39-.233-.39-.233s-.395-.277-.561-.983c-.166-.706 0-1.22.43-1.709.112-.125.085-.237.085-.237s.283-.382.206-.74c-.085-.355-.633-.283-.633-.283l-3.036.531Z" fill="#6E6342"/><path fill-rule="evenodd" clip-rule="evenodd" d="M8.106 16.666a.277.277 0 0 0-.032.144c.005.072.027.165.243.376.184.184.144.39.144.39s.093.018.344-.1c.198-.093.264.073.264.073.058-.03.12-.05.185-.059a.404.404 0 0 0 .165-.053s.232.238.435.35c.185.099.291.166.382.099.085-.059.085-.179.08-.232a.697.697 0 0 0-.08-.14c-.059-.084-.152-.183-.158-.263-.014-.184.139-.403.106-.457-.032-.053-.152-.066-.448.04-.307.102-1.631-.168-1.631-.168Z" fill="#39331F"/><path fill-rule="evenodd" clip-rule="evenodd" d="M8.805 17.86s-.152-.145-.098-.845c.064 0 .129.006.192.019 0 0 .083.542-.094.825Z" fill="#292311"/><path fill-rule="evenodd" clip-rule="evenodd" d="M7.721 14.944a.418.418 0 0 0 .06-.053c-.054.098-.297.493-.1 1.116.198.619.695 1.08 1.306 1.102.611.022.933-.277 1.3-.726.144-.179.31-.403.457-.555.219-.238.39-.305.39-.534 0-.47-.481-.681-1.189-.892-.707-.21-1.345-.185-1.676-.04-.323.157-.462.323-.548.582Z" fill="#252211"/><path fill-rule="evenodd" clip-rule="evenodd" d="m9.993 18.07.053-.027s.013-.211.099-.205c.085.013.126.125.117.165-.005.04-.026.107-.112.099-.112.003-.157-.032-.157-.032Z" fill="#3F3824"/><path fill-rule="evenodd" clip-rule="evenodd" d="M9.756 17.173s.053-.019.117.045c.053 0 .283-.026.355.019a.27.27 0 0 1 .094.085s-.27.06-.417 0c-.15-.05-.15-.15-.15-.15Z" fill="#2D2815"/><path fill-rule="evenodd" clip-rule="evenodd" d="M10.944 17.213c0-.014-.144-.112-.296-.145-.027-.005-.032.014-.053.014-.014-.005-.019-.046-.019-.046l-.086.046s-.014.019.032.053c.04.032.107.059.125.112.019.053.019.072.027.08.005.005.099 0 .144-.027.046-.027.131-.07.126-.088Z" fill="#82764F"/><path fill-rule="evenodd" clip-rule="evenodd" d="M9.596 17.755s.026-.184.205-.192c.184-.014.22.165.22.165l-.108.107c0-.003-.08-.115-.316-.08h-.001Z" fill="#2D2816"/><path fill-rule="evenodd" clip-rule="evenodd" d="M10.757 16.962s-.099.107-.318.139c-.018-.027-.058-.08 0-.166.06-.085.126-.112.193-.085a.157.157 0 0 1 .125.112Z" fill="#574F35"/><path fill-rule="evenodd" clip-rule="evenodd" d="M11.16 17.093c.006-.027-.013-.032 0-.046.013-.013.086-.04.1-.026.004.005 0 .026 0 .052s0 .053-.014.072c-.019.027-.072.04-.099.033-.027-.008-.032-.046-.032-.053.013-.006.045-.019.045-.032Zm.456-.288c0-.014.045-.04.072-.04.04 0 .04.031.046.04.013.005.013-.006.026.018.014.024.032.067.019.094-.014.026-.067.045-.08.04a.71.71 0 0 1-.083-.152Z" fill="#82764F"/><path fill-rule="evenodd" clip-rule="evenodd" d="M10.698 17.154s.06.013.14.08c-.027.019-.068.04-.068.04s-.005-.061-.072-.12Z" fill="#6E6342"/><path fill-rule="evenodd" clip-rule="evenodd" d="M10.568 16.567c-.014-.014.04-.046.072-.04.032.005.045.026.08.032.034.005.04-.014.052-.027.013-.013.06-.005.067 0 .005.006.01.012.013.019a.073.073 0 0 1 .062-.068.085.085 0 0 1 .037.002c.005.018.032.085.027.098-.005.014-.085.033-.099.019.013.032.072.099.08.112.008.013-.059.045-.085.04a1.09 1.09 0 0 1-.307-.187Zm.35-.444a.062.062 0 0 0-.027-.032c-.02-.005-.08 0-.08.032 0 .033.052.212.111.305.067.093.113.17.158.192a.062.062 0 0 0 .08-.027c.005-.013.019-.112.014-.344-.006-.232-.014-.456-.027-.47-.014-.013-.067-.013-.086.014a2.485 2.485 0 0 0-.144.33Z" fill="#585136"/><path fill-rule="evenodd" clip-rule="evenodd" d="M10.68 17.49s-.094-.058-.185-.018c-.085.04-.08.197-.08.197a.126.126 0 0 0 .118-.013c.059-.04.133-.107.147-.165Z" fill="#574F35"/><path fill-rule="evenodd" clip-rule="evenodd" d="M10.856 17.702c-.005-.053-.053-.053-.053-.08a.06.06 0 0 1 .059-.046c.026 0 .052.032.085.053.032.018.08.053.086.093.005.041-.053.152-.118.152-.064 0-.045-.12-.059-.173Zm.515-.073s-.107.032-.099 0c.008-.032.033-.04.067-.04a.106.106 0 0 1 .067-.032c.014 0 .029.004.04.014 0 0 .072-.032.093-.014.021.019.006.019.019.04a.188.188 0 0 1 .032.08c0 .022-.08.067-.144.06-.075-.017-.062-.094-.075-.108Zm.622-.12s.032.019.006.04a.434.434 0 0 1-.193.06c-.08 0-.152.012-.152-.014 0-.027.067-.08.107-.094a.084.084 0 0 1 .067-.032c.032 0 .157-.013.192-.018.032-.006.059.013.04.04-.008.018-.067.018-.067.018Zm.184-.824s-.04.085-.085.085c-.045-.005-.045-.018-.045-.032 0-.018.045-.067.04-.08-.014 0-.046 0-.04-.032 0-.027.045-.059.085-.053a.176.176 0 0 1 .107-.04c.045 0 .085.014.085.04 0 .027-.053.086-.072.1-.021.02-.048.034-.075.012Zm-.608 1.578s-.053.005-.053.032c0 .013.013.013.032.005.01 0 .021-.002.032-.005.005.005.005.032.045.032a.253.253 0 0 0 .094-.032c.032-.014.059-.027.059-.053-.014-.046-.04-.067-.08-.067a.106.106 0 0 0-.06.013s-.013-.026-.058 0c-.046.027-.04.027-.027.04.024.022.016.036.016.036v-.001Zm-.302.277c0-.013.067-.04.085-.032.019.006.072.107.072.118 0 .013-.066.045-.093.045-.027 0-.072-.045-.072-.053 0-.005.032-.013.032-.018.008-.014-.024-.046-.024-.06Zm-.211-.39c.013-.005.013-.018.032-.031a.045.045 0 0 1 .04-.006.066.066 0 0 1 .045-.032c.032-.005.06 0 .053.013 0 .04.027.067.027.1 0 .031-.019.071-.085.098a.471.471 0 0 1-.171.013c-.014-.005-.027-.058-.014-.085a.221.221 0 0 1 .072-.07Z" fill="#82764F"/><path fill-rule="evenodd" clip-rule="evenodd" d="M11.14 18.169s-.045.026-.045.04a.12.12 0 0 0-.005.04c0 .008.059-.005.067-.014.002-.005-.016-.052-.016-.066Z" fill="#6E6342"/><path fill-rule="evenodd" clip-rule="evenodd" d="M10.744 18.043c.026.006.072 0 .106.014.027.013.046.04.02.072-.028.032-.054.08-.113.072-.067-.006-.13-.04-.13-.067a.129.129 0 0 1 .031-.093c.027-.022.04-.008.086.002Z" fill="#585136"/><path fill-rule="evenodd" clip-rule="evenodd" d="M10.712 18.07s-.086.067-.107.099c-.027.032-.158.197-.198.232a.502.502 0 0 1 .046-.067.273.273 0 0 0-.112.144c-.032.1.179.153.317.193.139.04.193.053.193.053a1.497 1.497 0 0 1-.131-.243c-.053-.126-.08-.14-.046-.198.027-.059.067-.099.067-.144a.82.82 0 0 0-.03-.07Z" fill="#574F35"/><path fill-rule="evenodd" clip-rule="evenodd" d="M7.668 18.28c.02.005.04.005.059 0 .04-.005.456-.158.892-.13.325.02.648.073.963.158.548.145 1.228.43 1.669.593.117.045.232.126.317.157.336.131.35.131.547.166.232.032.47-.045.718-.099.305-.067.825-.099 1.282-.165.147-.02.293-.054.435-.099 0 0-.363.363-1.234.494-.351.053-.709.058-1.062.013a3.242 3.242 0 0 1-.6-.107c-.158-.045-.481-.165-.88-.264-.277-.072-.587-.125-.942-.192-.875-.16-1.826-.344-2.164-.523v-.001Z" fill="#252211"/><path fill-rule="evenodd" clip-rule="evenodd" d="M6.685 16.63c-.21.18-.435.35-.654.516l-.66.507c-.223.165-.442.336-.667.502-.224.165-.448.323-.686.475.211-.179.435-.345.66-.507.224-.163.456-.323.672-.488l.66-.507c.227-.166.446-.337.675-.497ZM5.52 18.5s.237-.198.534-.475c.368-.345.82-.785.963-.865L5.518 18.5Z" fill="#CFB66C"/><path fill-rule="evenodd" clip-rule="evenodd" d="M5.519 18.5a9.28 9.28 0 0 1 .368-.345l.192-.165c.06-.053.126-.112.185-.171.117-.117.232-.243.35-.363.058-.06.12-.118.184-.171a.496.496 0 0 1 .106-.072c.033-.019.067-.053.112-.059-.026.04-.058.059-.085.093-.032.027-.059.06-.085.086-.06.059-.126.112-.185.165-.125.107-.256.212-.381.323-.126.112-.243.233-.369.345-.136.115-.261.227-.392.334Zm1.596-1.068s-.87.852-1.049.99l1.05-.99Z" fill="#CFB66C"/><path fill-rule="evenodd" clip-rule="evenodd" d="M7.115 17.432c-.078.09-.162.176-.251.256l-.264.251c-.085.085-.166.17-.256.256-.094.08-.18.159-.278.233l.256-.251c.086-.086.18-.158.27-.243l.256-.251c.088-.088.174-.174.267-.251Zm.04.462c-.08.224-.174.442-.283.654-.224.448-.56 1.009-.707 1.295l.99-1.95Z" fill="#CFB66C"/><path fill-rule="evenodd" clip-rule="evenodd" d="M7.155 17.894a.75.75 0 0 1-.058.27c-.032.085-.067.169-.107.25a4.32 4.32 0 0 1-.131.243c-.045.078-.099.158-.139.238l-.27.475c-.093.159-.184.318-.283.47.067-.17.158-.33.243-.488.094-.159.18-.317.264-.481a2.72 2.72 0 0 0 .113-.25c.04-.086.08-.166.112-.244.04-.085.072-.166.112-.243.045-.083.083-.163.144-.24Z" fill="#CFB66C"/><path fill-rule="evenodd" clip-rule="evenodd" d="M8.106 20.083s-.264.35-.238.793c.072-.232.163-.587.238-.793Zm.25.35s-.093.951-.17 1.418c.11-.54.13-.494.17-1.417Zm1.75 1.474s-.396 1.162-.404 1.485c.086-.332.251-1.01.404-1.485Z" fill="#DEC270"/><path fill-rule="evenodd" clip-rule="evenodd" d="M11.03 20.011s.64 1.057 1.12 1.96c-.13-.454-.428-1.287-1.12-1.96Z" fill="#CBAF59"/><path fill-rule="evenodd" clip-rule="evenodd" d="M12.752 21.568c.351.621.669 1.262.95 1.92-.053-.455-.198-1.232-.95-1.92Z" fill="#E3C677"/><path fill-rule="evenodd" clip-rule="evenodd" d="M17.814 23.126c.106-.066.317-.43.502-.52.184-.094.323-.112.488-.297.166-.192.211-.31.574-.461.508-.22.159-.502.159-.502a1.64 1.64 0 0 1 .178-.153c.131-.098.283-.219.27-.43-.018-.355-.085-.87-.376-1.169.283-.059.825-.099 1.161-.184.39-.099.569-.238.569-.238s-.224-.381.139-.766c.363-.384.66-.614.878-1.044-.25-.032-.633-.165-1.61.206.053.024.104.053.152.085 0 0-.6.166-.82.35-.381.323-.43.587-.843.785-.414.197-.83.144-1.175.304-.344.16-.395.297-.52.355.026.032-.006.086.045.131-.032.046-.219.35-.409.35.02.072.18.125.18.125s-.118.086-.417.107c.152.159.296.331.694.582-.032.067-.165.166-.112.291.059.126.211.297.82.435-.31.014-.673.086-1.162.02-.489-.06-.569-.094-.87-.02.032.032.117.032.192.118-.08.005-.582-.059-.753.166-.179.232-.256.614-.243.87-.093.045-.184.125-.139.29.046.166.283.22.435.324.152.112.166.152.31.125.152-.032.377-.184.507-.184.131 0 .225.099.225.099s.355-.17.39-.139c.032.032.005.238.04.27.035.024.435-.214.541-.28Z" fill="#ECD592"/><path fill-rule="evenodd" clip-rule="evenodd" d="M25.575 12.442c-1.669-4.31-5.794-5.108-5.794-5.108H8.012l.046 4.39h2.344v9.8h-2.39v4.382h11.444c2.758 0 4.968-2.771 4.968-2.771 3.54-5.025 1.15-10.693 1.15-10.693h.001Zm-6.058 7.74s-.898 1.295-1.874 1.295h-1.954l-.046-9.743h2.507s1.162.243 1.973 2.542c0 0 1.076 3.291-.606 5.906Z" fill="#fff" fill-opacity=".8"/></svg>