<?xml version="1.0" encoding="UTF-8"?>
<svg xmlns="http://www.w3.org/2000/svg" version="1.1" xmlns:xlink="http://www.w3.org/1999/xlink" viewBox="0 0 41.16 41.16">
  <defs>
    <style>
      .cls-1 {
        opacity: .45;
      }

      .cls-1, .cls-2 {
        fill: #c2edef;
      }

      .cls-1, .cls-2, .cls-3, .cls-4, .cls-5, .cls-6, .cls-7 {
        stroke-width: 0px;
      }

      .cls-3 {
        fill: #f1fbfc;
      }

      .cls-8 {
        isolation: isolate;
      }

      .cls-4 {
        fill: none;
      }

      .cls-9 {
        clip-path: url(#clippath);
      }

      .cls-5 {
        fill: #232323;
      }

      .cls-6 {
        fill: #00e2ed;
      }

      .cls-7 {
        fill: #05dbdb;
        mix-blend-mode: multiply;
      }
    </style>
    <clipPath id="clippath">
      <path class="cls-4" d="M25.49,9.14s-.55.37-.9,1.87c0,0,1.38.07,2.72,1.18.06.05.16.01.15-.07-.08-.58-.43-2.16-1.96-2.98Z"/>
    </clipPath>
  </defs>
  <g class="cls-8">
    <g id="Icono">
      <g>
        <circle class="cls-5" cx="20.58" cy="21.05" r="19.4"/>
        <g>
          <g>
            <circle class="cls-3" cx="20.58" cy="22.51" r="10.62"/>
            <path class="cls-1" d="M29.72,17.11c.46,6.07-3.23,12.51-11.07,12.51-3.45,0-6.09-1.26-7.93-3.17,1.57,3.91,5.39,6.68,9.86,6.68,5.87,0,10.62-4.76,10.62-10.62,0-1.97-.55-3.81-1.48-5.4Z"/>
            <g>
              <path class="cls-2" d="M17.86,17.37c-.08,0-.16.01-.24.03-.47.11-.81.53-.81,1.03s.35.92.81,1.03c.08.02.16.03.24.03.58,0,1.06-.47,1.06-1.06s-.47-1.06-1.06-1.06Z"/>
              <path class="cls-2" d="M17.74,29.77c-.06,0-.11,0-.16.02-.31.07-.54.35-.54.69s.23.61.54.69c.05.01.11.02.16.02.39,0,.71-.32.71-.71s-.32-.71-.71-.71Z"/>
              <path class="cls-2" d="M17.47,27.27c0-.82-.66-1.48-1.48-1.48-.12,0-.23.02-.34.04-.66.15-1.14.74-1.14,1.44s.49,1.29,1.14,1.44c.11.03.22.04.34.04.82,0,1.48-.66,1.48-1.48Z"/>
              <path class="cls-2" d="M16.11,20.15c0-1.25-1.01-2.26-2.26-2.26-.18,0-.35.02-.52.06-1,.23-1.74,1.13-1.74,2.2s.74,1.96,1.74,2.2c.17.04.34.06.52.06,1.25,0,2.26-1.01,2.26-2.26Z"/>
              <path class="cls-2" d="M24.52,24.88c-.22,0-.44.03-.64.08-1.23.29-2.16,1.4-2.16,2.72s.92,2.43,2.16,2.72c.21.05.42.08.64.08,1.54,0,2.8-1.25,2.8-2.8s-1.25-2.8-2.8-2.8Z"/>
              <path class="cls-2" d="M25.64,20.24c-.14,0-.27.02-.4.05-.78.18-1.36.88-1.36,1.71s.58,1.53,1.36,1.71c.13.03.26.05.4.05.97,0,1.76-.79,1.76-1.76s-.79-1.76-1.76-1.76Z"/>
              <path class="cls-2" d="M28.85,23.1c-.09,0-.18.01-.26.03-.5.12-.87.56-.87,1.1s.37.98.87,1.1c.08.02.17.03.26.03.62,0,1.13-.5,1.13-1.13s-.5-1.13-1.13-1.13Z"/>
              <path class="cls-2" d="M28.38,20.55c.6,0,1.08-.48,1.08-1.08s-.48-1.08-1.08-1.08c-.09,0-.17.01-.25.03-.48.11-.83.54-.83,1.05s.36.94.83,1.05c.08.02.16.03.25.03Z"/>
              <path class="cls-2" d="M16.55,16.64c.1.02.2.04.31.04.75,0,1.36-.61,1.36-1.36s-.61-1.36-1.36-1.36c-.11,0-.21.01-.31.04-.6.14-1.05.68-1.05,1.32s.45,1.18,1.05,1.32Z"/>
            </g>
            <circle class="cls-4" cx="20.58" cy="22.51" r="10.62"/>
            <g>
              <g>
                <path class="cls-6" d="M25.49,9.14s-.55.37-.9,1.87c0,0,1.38.07,2.72,1.18.06.05.16.01.15-.07-.08-.58-.43-2.16-1.96-2.98Z"/>
                <path class="cls-7" d="M25.49,9.14s-.55.37-.9,1.87c0,0,1.38.07,2.72,1.18.06.05.16.01.15-.07-.08-.58-.43-2.16-1.96-2.98Z"/>
                <g class="cls-9">
                  <path class="cls-7" d="M28.11,12.54l-1.72-.44-1.79-1.03.39-.1s2.23-.55,3.44.63-.31.94-.31.94Z"/>
                </g>
              </g>
              <path class="cls-6" d="M22.84,15.11s-.04,0-.06,0c-.13-.03-.22-.17-.19-.3.03-.15.86-3.67,3-6,.1-.1.25-.11.35-.02.1.09.11.25.02.35-2.05,2.24-2.88,5.74-2.88,5.78-.03.12-.13.19-.24.19Z"/>
            </g>
          </g>
          <g>
            <g>
              <circle class="cls-6" cx="35.58" cy="21.33" r=".59"/>
              <circle class="cls-6" cx="6.84" cy="16.09" r=".57"/>
              <circle class="cls-6" cx="18.37" cy="7.92" r=".44"/>
            </g>
            <path class="cls-3" d="M33.13,13.54c-.15,0-.26.29-.33.57-.08.33-.33.59-.66.66-.29.07-.57.17-.57.33,0,.15.29.26.57.33.33.08.59.33.66.66.07.29.17.57.33.57s.26-.29.33-.57c.08-.33.33-.59.66-.66.29-.07.57-.17.57-.33s-.29-.26-.57-.33c-.33-.08-.59-.33-.66-.66-.07-.29-.17-.57-.33-.57Z"/>
            <path class="cls-3" d="M6.27,22.48c-.13,0-.21.24-.27.47-.06.27-.27.48-.54.54-.23.06-.47.14-.47.27s.24.21.47.27c.27.06.48.27.54.54.06.23.14.47.27.47s.21-.24.27-.47c.06-.27.27-.48.54-.54.23-.06.47-.14.47-.27s-.24-.21-.47-.27c-.27-.06-.48-.27-.54-.54-.06-.23-.14-.47-.27-.47Z"/>
            <path class="cls-3" d="M34.26,25.75c-.11,0-.19.21-.24.41-.06.24-.24.42-.48.48-.21.05-.41.13-.41.24,0,.11.21.19.41.24.24.06.42.24.48.48.05.21.13.41.24.41s.19-.21.24-.41c.06-.24.24-.42.48-.48.21-.05.41-.13.41-.24,0-.11-.21-.19-.41-.24-.24-.06-.42-.24-.48-.48-.05-.21-.13-.41-.24-.41Z"/>
            <path class="cls-3" d="M11.39,9.45c-.12,0-.2.22-.25.45-.06.26-.26.46-.52.52-.22.05-.45.13-.45.25s.22.2.45.25c.26.06.46.26.52.52.05.22.13.45.25.45s.2-.22.25-.45c.06-.26.26-.46.52-.52.22-.05.45-.13.45-.25s-.22-.2-.45-.25c-.26-.06-.46-.26-.52-.52-.05-.22-.13-.45-.25-.45Z"/>
          </g>
        </g>
      </g>
    </g>
  </g>
</svg>