<svg width="100" height="56" viewBox="0 0 100 56" fill="none" xmlns="http://www.w3.org/2000/svg">
<g clip-path="url(#clip0)">
<mask id="mask0" mask-type="alpha" maskUnits="userSpaceOnUse" x="0" y="0" width="50" height="56">
<path d="M50 45.5898C46.4307 50.1493 41.0491 53.2446 35.5233 54.8751C29.9976 56.5057 24.1061 56.3605 18.6658 54.4596C13.2254 52.5588 8.50582 48.9965 5.16126 44.2666C1.81671 39.5367 0.0129482 33.8737 6.9449e-05 28.0626C-0.0128094 22.2516 1.76583 16.5804 5.08939 11.8355C8.41294 7.09062 13.1167 3.50702 18.5486 1.58162C23.9804 -0.343784 29.8712 -0.5156 35.4041 1.09C40.9371 2.69559 46.4106 6.04656 50 10.5898C50 10.5898 44.0558 18.0898 44.0863 28C44.1167 37.9102 50 45.5898 50 45.5898Z" fill="#C4C4C4"/>
</mask>
<g mask="url(#mask0)">
<circle cx="28" cy="28" r="26.5" fill="#3E70AB" stroke="#3E70AB" stroke-width="3"/>
<g opacity="0.8">
<path opacity="0.8" d="M27.1685 37.7718V47.573L39.1551 30.6929L27.1685 37.7718Z" fill="#010101"/>
</g>
<g opacity="0.6">
<path opacity="0.6" d="M27.1684 22.9734L15.1865 28.4227L27.1684 35.5016L39.1456 28.4227L27.1684 22.9734Z" fill="#010101"/>
</g>
<g opacity="0.45">
<path opacity="0.45" d="M15.1865 28.4228L27.1684 35.5017V8.54248L15.1865 28.4228Z" fill="#010101"/>
</g>
<g opacity="0.8">
<path opacity="0.8" d="M27.1685 8.54248V35.5017L39.1456 28.4228L27.1685 8.54248Z" fill="#010101"/>
</g>
<g opacity="0.45">
<path opacity="0.45" d="M15.1865 30.6929L27.1684 47.573V37.7718L15.1865 30.6929Z" fill="#010101"/>
</g>
</g>
</g>
<path class="dollar" d="M91.7763 8.22369C86.4733 2.92053 79.4499 0 72 0C64.5501 0 57.5267 2.92053 52.2237 8.22369C46.9205 13.5267 44 20.5501 44 28C44 35.4499 46.9205 42.4733 52.2237 47.7763C57.5267 53.0795 64.5501 56 72 56C79.4499 56 86.4733 53.0795 91.7763 47.7763C97.0795 42.4733 100 35.4499 100 28C100 20.5501 97.0795 13.5267 91.7763 8.22369V8.22369ZM72 52.7188C58.37 52.7188 47.2812 41.63 47.2812 28C47.2812 14.37 58.37 3.28125 72 3.28125C85.63 3.28125 96.7188 14.37 96.7188 28C96.7188 41.63 85.63 52.7188 72 52.7188Z" />
<path class="dollar" d="M72 6.67188C60.2397 6.67188 50.6719 16.2397 50.6719 28C50.6719 39.7603 60.2397 49.3281 72 49.3281C83.7603 49.3281 93.3281 39.7603 93.3281 28C93.3281 16.2397 83.7603 6.67188 72 6.67188ZM72 46.0469C62.049 46.0469 53.9531 37.951 53.9531 28C53.9531 18.049 62.049 9.95312 72 9.95312C81.951 9.95312 90.0469 18.049 90.0469 28C90.0469 37.951 81.951 46.0469 72 46.0469Z" />
<path class="dollar" d="M76.9219 23.0616C76.9219 23.9677 77.6564 24.7023 78.5625 24.7023C79.4686 24.7023 80.2031 23.9677 80.2031 23.0616C80.2031 21.2447 79.2634 19.4978 77.6247 18.2688C76.5055 17.4294 75.1283 16.8686 73.6406 16.6301V14.8584C73.6406 13.9523 72.9061 13.2178 72 13.2178C71.0939 13.2178 70.3594 13.9523 70.3594 14.8584V16.6301C68.8715 16.8686 67.4944 17.4294 66.3753 18.2688C64.7366 19.4978 63.7969 21.2447 63.7969 23.0616C63.7969 24.8786 64.7366 26.6254 66.3753 27.8544C67.4945 28.6939 68.8717 29.2547 70.3594 29.4932V35.9911C68.4694 35.5292 67.0781 34.3026 67.0781 32.9054C67.0781 31.9993 66.3436 31.2648 65.4375 31.2648C64.5314 31.2648 63.7969 31.9993 63.7969 32.9054C63.7969 34.7223 64.7366 36.4691 66.3753 37.6982C67.4945 38.5377 68.8717 39.0984 70.3594 39.337V41.1251C70.3594 42.0312 71.0939 42.7658 72 42.7658C72.9061 42.7658 73.6406 42.0312 73.6406 41.1251V39.337C75.1285 39.0984 76.5056 38.5377 77.6247 37.6982C79.2634 36.4693 80.2031 34.7223 80.2031 32.9054C80.2031 31.0884 79.2634 29.3415 77.6247 28.1126C76.5055 27.2731 75.1283 26.7124 73.6406 26.4738V19.9759C75.5306 20.4379 76.9219 21.6644 76.9219 23.0616ZM67.0781 23.0616C67.0781 21.6644 68.4694 20.4378 70.3594 19.9759V26.1472C68.4694 25.6854 67.0781 24.4589 67.0781 23.0616ZM76.9219 32.9054C76.9219 34.3026 75.5306 35.5292 73.6406 35.9911V29.8198C75.5306 30.2817 76.9219 31.5081 76.9219 32.9054Z" />
</svg>
