<svg class="icon-size" viewBox="0 0 31 31" fill="none" xmlns="http://www.w3.org/2000/svg"><path d="M15.483 1c7.999 0 14.483 6.484 14.483 14.483 0 7.999-6.484 14.483-14.483 14.483C7.484 29.966 1 23.482 1 15.483 1 7.484 7.484 1 15.483 1Z" fill="#000" stroke="#000" stroke-width="1.237" stroke-miterlimit="11.339"/><path d="M7.493 23.539a83.167 83.167 0 0 1-1.12-1.19c-.004-.016.545-.556 1.222-1.197.677-.646 1.267-1.211 1.308-1.247l.076-.07-.137-.23A7.813 7.813 0 0 1 8.145 13c.142-.418.387-.952.595-1.303.102-.173.148-.285.138-.305-.01-.02-.626-.672-1.37-1.45-.742-.774-1.348-1.42-1.358-1.43-.005-.016 2.076-2.026 2.275-2.189l.076-.066 1.176 1.226c.646.677 1.252 1.313 1.343 1.41l.173.173.163-.102c.83-.53 1.802-.895 2.875-1.089.54-.097 1.568-.122 2.143-.05a7.845 7.845 0 0 1 3.109 1.042l.234.143.25-.244c.544-.53 2.58-2.463 2.6-2.474.02-.01 2.254 2.326 2.25 2.357-.006.015-1.538 1.486-2.474 2.366l-.31.295.142.234a7.827 7.827 0 0 1 .672 6.626 10.65 10.65 0 0 1-.652 1.394l-.096.168 1.308 1.37c.717.747 1.302 1.373 1.297 1.389-.02.05-2.31 2.213-2.34 2.213-.021 0-.596-.585-1.283-1.308a70.073 70.073 0 0 0-1.272-1.313c-.01-.005-.077.026-.138.072a7.885 7.885 0 0 1-3.094 1.135c-.417.06-1.669.07-2.056.015-.926-.133-1.684-.361-2.458-.748a8.485 8.485 0 0 1-.585-.31l-.183-.113-.209.204c-.112.112-.62.59-1.124 1.074-.504.478-1.018.967-1.14 1.089l-.224.218-1.105-1.18Zm8.545-3.318a4.714 4.714 0 0 0 2.198-.84c.341-.239.85-.748 1.09-1.089a4.695 4.695 0 0 0-.611-6.142 4.676 4.676 0 0 0-5.349-.764 4.724 4.724 0 0 0-2.478 3.298c-.092.458-.092 1.313 0 1.766.086.448.203.768.422 1.216a4.67 4.67 0 0 0 4.728 2.555Z" fill="#fff"/></svg>