<svg class="icon-size" xmlns="http://www.w3.org/2000/svg" fill="none" viewBox="0 0 25 29"><path class="fill" fill="#010101" d="M7.218 2.834 11.925.06a.428.428 0 0 1 .434 0l12.406 7.312a.448.448 0 0 1 .218.383l.017 5.03c0 .158-.082.306-.218.385l-4.7 2.77a.435.435 0 0 1-.653-.382l-.015-4.513a.445.445 0 0 0-.218-.383L7.218 3.603a.448.448 0 0 1 0-.769ZM4.509 23.944l-4.31-2.532a.404.404 0 0 1-.199-.35V7.715c0-.144.076-.277.198-.35l3.9-2.31a.39.39 0 0 1 .399 0L8.8 7.584a.41.41 0 0 1 .001.701l-3.498 2.072a.405.405 0 0 0-.198.35v12.887a.397.397 0 0 1-.597.35ZM25 16.422v5.245c0 .15-.08.288-.211.363l-12.016 6.914a.42.42 0 0 1-.42 0l-4.14-2.364A.42.42 0 0 1 8 26.216v-5.24c0-.322.35-.523.63-.364l3.716 2.121c.13.075.29.074.42 0l11.601-6.676a.42.42 0 0 1 .632.363l.001.002Z"/></svg>