<svg class="icon-size" viewBox="0 0 31 31" fill="none" xmlns="http://www.w3.org/2000/svg"><path class="fill" d="M15.465 29.93c7.99 0 14.466-6.476 14.466-14.465S23.454 1 15.465 1C7.476 1 1 7.476 1 15.465c0 7.99 6.476 14.466 14.465 14.466Z" fill="#000" stroke="#000" stroke-width=".437"/><path class="reverse-fill" d="m9.054 7.222-.97.97 1.228 1.227 1.23 1.227-.103.3a3.397 3.397 0 0 0-.184 1.16c0 1.422.744 2.633 2.062 3.354.53.29 1.442.616 2.452.876 1.972.506 2.274.595 2.663.777.53.252.793.525.903.938.048.18.045.58-.003.774-.123.469-.523.94-1.018 1.197-.67.351-1.835.448-2.714.223a3.111 3.111 0 0 1-1.023-.499c-.475-.39-.844-1.066-1.008-1.845l-.05-.233c-.009-.011-2.752.257-2.765.273-.011.008-.003.12.016.249.085.619.302 1.355.552 1.867l.144.298-1.192 1.192-1.19 1.192.973.972.97.97 1.23-1.23 1.226-1.227.212.089c1.12.472 2.8.619 4.429.383.39-.056.956-.19 1.253-.3l.177-.064 1.176 1.176 1.174 1.173.97-.97.972-.972-1.09-1.09-1.088-1.088.137-.279c.284-.57.401-1.055.426-1.722.042-1.273-.287-2.232-1.037-3.022-.782-.823-1.664-1.214-4.153-1.84-1.755-.44-2.51-.743-2.81-1.123a1.092 1.092 0 0 1-.064-1.284c.15-.222.52-.46.921-.594.453-.153 1.214-.223 1.78-.164 1.191.126 1.791.635 2.054 1.75.032.136.062.251.064.257.006.008 1.945-.062 2.527-.091l.332-.016-.019-.233a4.589 4.589 0 0 0-.303-1.34l-.093-.25 1.208-1.21 1.208-1.208-.97-.973-.972-.97-1.222 1.222-1.224 1.224-.298-.112c-.731-.273-1.438-.394-2.48-.423-1.139-.03-2.138.117-2.905.428l-.284.115-1.232-1.227-1.232-1.227-.973.973Z" fill="#fff"/></svg>