<svg width="524" height="733" viewBox="0 0 524 733" fill="none" xmlns="http://www.w3.org/2000/svg">
<path d="M516.616 366.803L70.9346 724.056L9.44598 667.036L149.283 545.945L48.9326 454.681L98.8275 414.37L30.6557 364.715L93.9182 309.67L48.6661 264.114L164.989 176.279L12.5538 56.1657L82.3514 3.09124L516.616 366.803Z" stroke="#41BEA5" stroke-width="2"/>
<path d="M75.2663 290.509L350.224 296.438L349.988 331.334" stroke="#41BEA5" stroke-width="1.5"/>
<path d="M73.4411 327.07L394.953 332.159L395.027 400.854L76.336 397.387" stroke="#41BEA5" stroke-width="1.5"/>
<path d="M350.53 399.819L350.352 437.793L74.845 433.432" stroke="#41BEA5" stroke-width="1.5"/>
<path d="M230.127 398.889L229.594 435.87" stroke="#41BEA5" stroke-width="1.5"/>
<path d="M201.722 329.249L200.627 398.422" stroke="#41BEA5" stroke-width="1.5"/>
<path d="M264.159 329.616L263.112 399.094" stroke="#41BEA5" stroke-width="1.5"/>
<path d="M360.497 331.377L359.027 400.926" stroke="#41BEA5" stroke-width="1.5"/>
<path d="M233.024 294.572L232.056 329.093" stroke="#41BEA5" stroke-width="1.5"/>
<path d="M436.255 363.197L75.3371 60.2393L127.894 40.5947" stroke="#41BEA5"/>
<path d="M437.236 373.438L68.1319 661.203L122.341 683.858" stroke="#41BEA5"/>
<path d="M500.268 365.776L112.001 679.072" stroke="#41BEA5"/>
<path d="M485.979 365.964L108.652 670.448L84.4232 660.817L241.974 535.827L234.205 531.575" stroke="#41BEA5"/>
<path d="M168.926 622.339L137.581 607.22" stroke="#41BEA5"/>
<path d="M229.766 572.672L202.141 557.634" stroke="#41BEA5"/>
<path d="M290.675 521.884L263.304 509.066" stroke="#41BEA5"/>
<path d="M341.491 481.9L316.491 465.982" stroke="#41BEA5"/>
<path d="M353.28 472.186L328.843 457.433" stroke="#41BEA5"/>
<path d="M419.42 419.234L397.299 404.847" stroke="#41BEA5"/>
<path d="M457.592 387.061L436.109 373.107L436.266 363.145L462.516 347.048" stroke="#41BEA5"/>
<path d="M500.398 367.403L116.925 44.6413" stroke="#41BEA5"/>
<path d="M486.114 367.266L118.398 53.6497L93.8667 63.1695L246.246 191.744L238.096 196.495" stroke="#41BEA5"/>
<path d="M178.27 104.193L144.053 118.804" stroke="#41BEA5"/>
<path d="M237.212 154.691L205.94 169.97" stroke="#41BEA5"/>
<path d="M294.971 204.52L267.847 221.147" stroke="#41BEA5"/>
<path d="M347.462 249.064L321.07 266.097" stroke="#41BEA5"/>
<path d="M355.877 255.641L328.257 271.969" stroke="#41BEA5"/>
<path d="M468.418 352.918L444.325 367.93L466.27 381.335" stroke="#41BEA5"/>
<path d="M192.472 158.741L165.627 176.077" stroke="#41BEA5"/>
<path d="M175.251 170.232L34.7859 54.9571L96.8799 14.6501" stroke="#41BEA5"/>
<path d="M184.801 164.177L53.9393 56.6022L108.292 23.5972" stroke="#41BEA5"/>
<path d="M118.966 33.886L55.3499 57.1144" stroke="#41BEA5"/>
<path d="M111.154 117.14L99.8573 124.039" stroke="#41BEA5"/>
<path d="M188.171 568.349L148.962 544.905" stroke="#41BEA5"/>
<path d="M164.077 554.52L29.74 666.536L84.7413 712.322" stroke="#41BEA5"/>
<path d="M178.854 562.882L46.8868 666.973L95.3644 703.243" stroke="#41BEA5"/>
<path d="M110.052 692.223L47.8871 667.112" stroke="#41BEA5"/>
<path d="M164.666 175.946L190.827 196.854L71.0789 285.781" stroke="#41BEA5"/>
<path d="M141.103 233.68L116.363 212.999" stroke="#41BEA5"/>
<path d="M178.009 186.295L60.3422 275.347" stroke="#41BEA5"/>
<path d="M233.038 191.984L103.02 291.04" stroke="#41BEA5"/>
<path d="M170.732 212.839L244.956 272.966L327.976 272.299" stroke="#41BEA5"/>
<path d="M210.572 246.011L146.574 291.732" stroke="#41BEA5"/>
<path d="M244.54 272.706L216.766 293.66" stroke="#41BEA5"/>
<path d="M248.665 205.649L221.261 231.637L255.081 258.759L313.104 260.338" stroke="#41BEA5"/>
<path d="M321.109 266.41L237.598 266.245" stroke="#41BEA5"/>
<path d="M235.553 243.096L220.147 252.869" stroke="#41BEA5"/>
<path d="M311.256 472.082L247.674 469.846L217.057 497.104L248.03 520.713" stroke="#41BEA5"/>
<path d="M229.251 532.971L97.6268 433.53" stroke="#41BEA5"/>
<path d="M71.0258 436.981L179.638 523.18L149.413 545.672" stroke="#41BEA5"/>
<path d="M166.29 532.89L61.8331 445.711" stroke="#41BEA5"/>
<path d="M139.007 490.844L111.168 509.302" stroke="#41BEA5"/>
<path d="M165.734 512.163L242.123 453.923L216.29 435.679" stroke="#41BEA5"/>
<path d="M203.319 484.354L146.048 435.23" stroke="#41BEA5"/>
<path d="M240.934 454.566L329.231 457.284" stroke="#41BEA5"/>
<path d="M317.315 466.711L229.767 463.309" stroke="#41BEA5"/>
<path d="M87.3604 327.291L83.9206 397.914" stroke="#41BEA5" stroke-width="1.5"/>
<path d="M86.957 336.358L49.0802 363.831L84.1209 387.174" stroke="#41BEA5"/>
<path d="M103.719 291.521L121.337 308.678L96.3793 326.778" stroke="#41BEA5"/>
<path d="M99.3403 397.499L120.831 415.013L97.0343 433.131" stroke="#41BEA5"/>
<path d="M162.848 399.154C198.903 412.426 187.69 423.604 162.294 434.154" stroke="#41BEA5"/>
<path d="M163.398 292.17C188.264 303.536 202.318 315.317 162.813 329.15" stroke="#41BEA5"/>
<path d="M147.127 292.888C180.724 305.833 172.7 317.152 145.399 328.694" stroke="#41BEA5"/>
<path d="M145.465 397.874C172.712 409.921 176.245 420.851 146.315 434.182" stroke="#41BEA5"/>
</svg>
