<svg class="icon-size" width="50" height="50" viewBox="0 0 50 50" fill="none" xmlns="http://www.w3.org/2000/svg"><circle cx="25" cy="25" r="25" fill="url(#paint0_linear_304_41)"/><path d="M33.333 20.672c2.652-1.438 4.573-1.977 7.637-1.16 3.063.816 3.311 6.62 4.596 9.11-1.825-2.252-2.87-6.552-6.065-6.748-3.194-.195-6.426.921-8.494 2.934l1.46 1.178c-4.114 2.383-9.678 2.918-14.436 1.389 1.71-.18 3.335-.806 4.602-1.77-1.923-2.818-6.416-3.667-10.153-3.095-3.739.572-3.885 5.174-7.48 6.18 3.095-3.523 4.697-7.963 9.338-9.285 1.782-.508 2.726-.599 4.463.078 2.097.817 5.019 3.745 7.285 4.065 2.017.286 5.552-1.956 7.247-2.875Z" fill="#000"/><defs><linearGradient id="paint0_linear_304_41" x1="25" y1="0" x2="25" y2="50" gradientUnits="userSpaceOnUse"><stop stop-color="#0CF"/><stop offset="1" stop-color="#90C"/></linearGradient></defs></svg>