<svg xmlns="http://www.w3.org/2000/svg" class="icon-size" viewBox="0 0 50 50" width="50" height="50" fill="none"><g clip-path="url(#clip0_1421_2)"><path class="fill" fill="#000" fill-rule="evenodd" d="M25 5.815c10.595 0 19.184 8.59 19.184 19.185 0 10.595-8.589 19.185-19.184 19.185S5.816 35.595 5.816 25C5.816 14.405 14.405 5.815 25 5.815ZM25 0a24.924 24.924 0 0 1 17.677 7.323A24.923 24.923 0 0 1 50 25a24.921 24.921 0 0 1-7.323 17.678A24.921 24.921 0 0 1 25 50a24.924 24.924 0 0 1-17.678-7.322A24.924 24.924 0 0 1 0 25 24.924 24.924 0 0 1 7.322 7.323 24.924 24.924 0 0 1 25 0Zm15.945 9.055A22.48 22.48 0 0 0 25 2.451 22.48 22.48 0 0 0 9.055 9.055 22.48 22.48 0 0 0 2.45 25a22.48 22.48 0 0 0 6.605 15.945A22.48 22.48 0 0 0 25 47.55a22.479 22.479 0 0 0 15.945-6.605A22.478 22.478 0 0 0 47.549 25a22.48 22.48 0 0 0-6.604-15.945ZM31.66 29.393l-.112-.007c-.248-.014-.492-.039-.733-.07-.24-.032-.47-.067-.692-.107a7.4 7.4 0 0 1-.638-.142v-1.82a33.668 33.668 0 0 0 1.815.095c.32.007.616.011.892.011.26 0 .477-.02.651-.06a.787.787 0 0 0 .39-.188.48.48 0 0 0 .13-.355v-.142c0-.173-.062-.303-.183-.39a.725.725 0 0 0-.431-.13h-.628c-.914 0-1.608-.201-2.08-.603-.473-.402-.71-1.076-.71-2.022v-.39c0-.867.26-1.515.78-1.945.39-.32.906-.522 1.55-.603v-.928h1.277v.902c.16.01.316.022.466.038a13.272 13.272 0 0 1 1.697.29v1.82c-.363-.03-.77-.057-1.224-.077-.453-.02-.865-.03-1.235-.03-.221 0-.418.017-.592.048a.735.735 0 0 0-.401.19c-.094.094-.142.233-.142.413v.119c0 .196.063.346.189.449.125.102.32.153.579.153h.78c.552 0 1.011.105 1.378.314.366.208.642.492.827.851.185.359.279.766.279 1.223v.39c0 .75-.13 1.321-.39 1.715-.261.394-.632.661-1.112.798-.323.093-.69.155-1.1.185v1.015h-1.276v-1.01Zm-17.843-.054v-8.784h2.294v3.38h2.6v-3.38h2.294v8.784h-2.293v-3.346H16.11v3.346h-2.294Zm7.985 0v-8.784h2.294v3.416h.91l1.407-3.416h2.436l-2.022 4.422 2.127 4.362H26.52l-1.513-3.31h-.91v3.31h-2.294Z" clip-rule="evenodd"/></g><defs><clipPath id="clip0_1421_2"><path fill="#fff" d="M0 0h50v50H0z"/></clipPath></defs></svg>