<svg class="icon-size" fill="none" xmlns="http://www.w3.org/2000/svg" viewBox="0 0 30 18"><path fill-rule="evenodd" clip-rule="evenodd" d="M21.173 0c-3.251 0-6.084 1.836-7.568 4.55-.025.059-.062.127-.109.207-.109.211-.21.427-.303.648-.188.52-.335 1.167-.449 1.791-.114.632-.193 1.24-.241 1.672v.018H12.5v.002l-.006.053c-.029 2.14-1.73 3.867-3.825 3.867-2.112 0-3.825-1.755-3.825-3.92 0-2.167 1.713-3.921 3.825-3.921a3.77 3.77 0 0 1 2.768 1.215 10.372 10.372 0 0 1 2.206-4.176c.071-.081.145-.159.217-.237A8.493 8.493 0 0 0 8.67 0C3.882 0 0 3.98 0 8.887c0 4.909 3.882 8.883 8.67 8.887h.008c4.2 0 7.689-3.038 8.492-7.14.056-.289.1-.581.128-.879h.002v-.027a8.83 8.83 0 0 0 .03-.421c.01-.123.025-.267.044-.42.056-.476.153-1.053.317-1.49a4.571 4.571 0 0 1 .247-.474c.687-1.145 1.883-1.957 3.235-1.957 2.112 0 3.825 1.755 3.825 3.921s-1.713 3.921-3.825 3.921a3.772 3.772 0 0 1-2.768-1.214 10.388 10.388 0 0 1-2.425 4.412 8.5 8.5 0 0 0 5.193 1.768c4.788 0 8.669-3.979 8.669-8.887S25.961 0 21.172 0Z" fill="url(#paint0_linear_508_32)"/><defs><linearGradient id="paint0_linear_508_32" x1="0" y1="8.887" x2="29.843" y2="8.887" gradientUnits="userSpaceOnUse"><stop stop-color="#00BFAA"/><stop offset="1" stop-color="#00DBB1"/></linearGradient></defs></svg>