<svg class="icon-size" xmlns="http://www.w3.org/2000/svg" fill="none" viewBox="0 0 30 30"><circle cx="15" cy="15" r="15" fill="#282E5B"/><path fill="#fff" d="M17.866 9.682c0-3.383-1.602-6.298-2.83-7.252 0 0-.085-.052-.085.086-.103 6.541-3.36 8.328-5.167 10.705-4.143 5.517-.29 11.555 3.632 12.666 2.2.624-.511-1.11-.852-4.754-.41-4.425 5.302-7.79 5.302-11.451Z"/><path fill="#fff" d="M20.015 11.92c-.017-.017-.052-.017-.086 0l-.017.017c-.068.816-.954 2.585-2.063 4.199-3.768 5.482-1.62 8.12-.409 9.542.7.833 0 0 1.756-.85.137-.07 3.41-1.839 3.768-5.847.358-3.903-2.08-6.35-2.95-7.061Z"/></svg>