<svg class="icon-size" width="29" height="21" viewBox="0 0 29 21" fill="none" xmlns="http://www.w3.org/2000/svg"><g id="krw"><path class="fill" d="M29 11.354h-4.368L22.604 21h-5.232l-2.263-9.646h-1.09L11.817 21H6.584l-2.032-9.646H0V8.412h3.903l-.351-1.676H0V3.794h2.936L2.143 0h4.996l.708 3.794h3.764L12.435 0h4.26l.852 3.794h3.792L22.017 0h5.027l-.798 3.794H29v2.942h-3.396l-.356 1.676H29v2.941Zm-9.039 0h-.739l.411 1.822.328-1.822Zm-10.025 0h-.708l.32 1.822.388-1.822ZM8.67 8.412h1.907l.387-1.676h-2.59l.296 1.676Zm9.905 0h1.911l.326-1.676h-2.62l.383 1.676Z" fill="#000"/></g></svg>