<svg class="icon-size" width="40" height="31" viewBox="0 0 40 31" fill="none" xmlns="http://www.w3.org/2000/svg"><g id="ksw" fill="#FAFAFA"><path class="fill" d="M23.169 17.752c1.3 3.419 1.916 10.258 2.078 12.347a.726.726 0 0 0 .674.67c10.583.739 13.017-4.212 13.524-5.8a.729.729 0 0 0-.217-.774c-4.208-3.61-9.563-6.652-11.303-7.602a.707.707 0 0 0-.854.126c-.408.432-1.37 1.024-3.578.959h-.363l.039.074Z"/><path class="fill" d="M25.937 11.237c-.385-.496-1.757-1.954-5.233-3.01a.314.314 0 0 1-.204-.191L17.66.426a.314.314 0 0 1 .357-.419c2.074.443 9.59 2.432 16.11 9.073a.317.317 0 0 1-.169.532c-1.37.24-4.883.895-7.686 1.735a.315.315 0 0 1-.335-.11Z"/><path class="fill" d="M15.24 9.777a7.055 7.055 0 0 0 .87 3.937.612.612 0 0 1-.329.879c-2.175.758-8.565 3.024-11.2 4.423a.603.603 0 0 1-.783-.189c-1.347-1.937-6.26-9.721-2.261-14.93a.607.607 0 0 1 .685-.206c1.678.6 8.246 3.022 12.69 5.706a.665.665 0 0 1 .12.094l.157.158.051.128Z"/><path class="fill" d="M24.939 14.993c.736-1.074-.188-3.003-2.064-4.307-1.875-1.304-3.992-1.49-4.729-.416-.736 1.075.188 3.004 2.063 4.308 1.876 1.304 3.993 1.49 4.73.415Z"/></g></svg>