<svg xmlns="http://www.w3.org/2000/svg" class="icon-size" fill="none" viewBox="0 0 30 31"><g class="fill" fill="#fff" clip-path="url(#a)"><path d="m14.996 30.51.002-5.144a9.642 9.642 0 0 1-1.534-.123l-.79 5.082c.766.123 1.547.185 2.323.185h-.001Zm2.32-.183a14.677 14.677 0 0 0 2.267-.551l-1.556-4.894c-.486.16-.99.282-1.495.363l.784 5.082Zm-6.908-.554 1.56-4.893a9.635 9.635 0 0 1-1.419-.598l-2.297 4.582c.691.36 1.416.665 2.156.909Zm11.329-.903c.691-.358 1.36-.776 1.989-1.24l-2.974-4.16a9.578 9.578 0 0 1-1.308.816l2.293 4.584ZM6.265 27.622l2.976-4.158a10.022 10.022 0 0 1-1.168-1.018L4.497 26.08l.003.003a15.002 15.002 0 0 0 1.765 1.538Zm19.204-1.506.031-.033a15.267 15.267 0 0 0 1.508-1.792l-4.083-3.031c-.3.417-.635.817-.998 1.187l-.05.052 1.718 1.652 1.875 1.965ZM2.985 24.28l4.085-3.028a9.93 9.93 0 0 1-.802-1.332l-4.503 2.335c.352.703.762 1.384 1.22 2.024Zm25.245-2.015a15.31 15.31 0 0 0 .894-2.193l-4.807-1.59c-.157.496-.356.981-.587 1.444l4.5 2.34ZM.874 20.061l4.808-1.584a10.188 10.188 0 0 1-.358-1.522l-4.992.8c.12.781.303 1.557.542 2.307Zm28.793-2.294c.121-.78.182-1.574.183-2.363l-5.053-.003c0 .522-.04 1.047-.121 1.563l4.991.803ZM5.204 15.393c0-.521.041-1.048.12-1.562L.332 13.03c-.12.779-.181 1.573-.182 2.362h5.053l.001.001Zm19.474-1.554 4.992-.798c-.12-.78-.302-1.556-.54-2.307l-4.809 1.582c.158.495.277 1.006.357 1.522Zm-18.996-1.53c.157-.495.356-.98.587-1.444L1.766 8.53a15.302 15.302 0 0 0-.892 2.194l4.807 1.587h.001Zm18.053-1.437L28.24 8.54a15.112 15.112 0 0 0-1.219-2.024l-4.087 3.026c.3.42.57.868.801 1.331ZM7.072 9.534c.3-.42.637-.821 1.002-1.191l.01-.01L4.51 4.694l-.01.01a15.287 15.287 0 0 0-1.513 1.8l4.084 3.029ZM21.945 8.36l1.079-1.121 2.484-2.528-.008-.008a15.082 15.082 0 0 0-1.758-1.532l-2.978 4.156c.41.304.801.645 1.163 1.015l.018.018ZM9.253 7.317a9.68 9.68 0 0 1 1.308-.815l-2.29-4.586a14.75 14.75 0 0 0-1.989 1.24l2.971 4.16Zm10.204-.807 2.3-4.58c-.691-.36-1.415-.666-2.155-.91L18.04 5.911a9.64 9.64 0 0 1 1.418.599l-.001-.001Zm-7.477-.604c.487-.16.99-.282 1.495-.363L12.694.461c-.766.122-1.53.306-2.267.55l1.553 4.895Zm4.564-.36.791-5.081a14.659 14.659 0 0 0-2.32-.187l-.006 5.144c.513 0 1.029.043 1.535.124Z"/><path d="M14.998 25.593v-5.17c-.426 0-.852-.057-1.264-.167l-1.319 4.995a9.92 9.92 0 0 0 2.584.342Zm2.584-.342a9.886 9.886 0 0 0 2.413-1.01l-2.557-4.477c-.368.215-.763.38-1.174.49l1.318 4.997Zm-7.58-1.011 2.557-4.476a4.953 4.953 0 0 1-1.01-.787l-.048-.046-1.614 1.72-1.981 1.953.029.028a10.06 10.06 0 0 0 2.067 1.608Zm12.06-1.606h.001a10.193 10.193 0 0 0 1.588-2.09l-4.424-2.59a4.961 4.961 0 0 1-.777 1.023l3.612 3.657ZM6.341 20.533l4.427-2.583a4.903 4.903 0 0 1-.484-1.189l-4.94 1.33c.225.854.56 1.676.997 2.442Zm18.31-2.43a10.3 10.3 0 0 0 .34-2.613l-5.111-.002c0 .433-.056.864-.167 1.28l4.938 1.336Zm-14.532-2.62c0-.434.056-.865.168-1.281L5.35 12.864c-.225.851-.34 1.73-.34 2.613l5.11.005Zm9.595-1.275 4.939-1.331a10.164 10.164 0 0 0-.997-2.442l-4.427 2.586c.213.372.376.771.485 1.187Zm-8.941-1.194c.21-.365.468-.705.766-1.01l.013-.012-1.827-1.85L7.967 8.31l-.032.031a10.103 10.103 0 0 0-1.584 2.083l4.422 2.591Zm7.68-1.016 1.81-1.831 1.846-1.78-.046-.048a10.052 10.052 0 0 0-2.062-1.605l-2.56 4.475c.361.212.698.473.999.776l.013.013Zm-5.89-.792c.366-.215.761-.38 1.173-.49L12.42 5.718a9.89 9.89 0 0 0-2.414 1.01l2.555 4.477Zm3.704-.489 1.322-4.995a9.922 9.922 0 0 0-2.583-.344l-.004 5.17c.428 0 .854.057 1.266.168v.001Z"/></g><defs><clipPath id="a"><path class="fill"  fill="#fff" d="M0 0h30v30.714H0z"/></clipPath></defs></svg>