<svg class="icon-size" width="35" height="34" viewBox="0 0 35 34" fill="none" xmlns="http://www.w3.org/2000/svg"><path fill-rule="evenodd" clip-rule="evenodd" d="M22.737 33.975C29.844 31.765 35 25.172 35 17.384 35 7.783 27.165 0 17.5 0S0 7.783 0 17.384c0 7.354 4.598 13.643 11.095 16.182.775-1.835 3.33-7.929 3.33-8.47 0-.266.802-.427 1.712-.61 1.282-.259 2.78-.56 2.558-1.258-.26-.817-2.085.023-3.265.567-.544.25-.95.438-1.004.37-.17-.213.75-2.095 1.087-2.52.128-.162.765-.17 1.521-.18 1.248-.015 2.821-.035 2.972-.75.155-.74-1.683-.32-3.02-.014-.745.17-1.334.306-1.334.184 0-.341 1.299-2.18 1.848-2.479.177-.096.76-.172 1.465-.265 1.49-.196 3.523-.463 3.408-1.134-.106-.614-1.734-.084-2.948.311-.737.24-1.322.43-1.322.286 0-.384 1.764-2.053 2.271-2.18.132-.034.491-.035.95-.036 1.307-.004 3.427-.01 3.458-.767.029-.688-1.748-.318-2.951-.068-.585.122-1.035.216-1.076.146-.04-.066.521-.35 1.296-.742 1.713-.866 4.47-2.261 4.084-3-.382-.73-2.87 1.185-4.488 2.431-.762.587-1.332 1.025-1.4.97-.067-.054.197-.412.56-.901.767-1.034 1.97-2.66 1.397-3.267-.846-.894-2.76 4.85-2.76 4.85s-1.383 1.967-1.636 1.967c-.09 0-.01-.507.092-1.162.188-1.196.454-2.885-.092-2.885-.62 0-.678 2.265-.715 3.708-.014.524-.024.94-.058 1.099-.127.596-1.31 2.393-1.522 2.436-.065.013-.053-.329-.036-.813.04-1.09.103-2.904-.628-3.022-.825-.133-.337 2.995-.103 4.5.066.424.112.72.103.776-.043.256-.393 1.193-.562 1.193-.048 0-.177-.236-.354-.562-.438-.806-1.175-2.162-1.747-1.86-.623.331.448 1.454 1.198 2.24.218.229.409.429.523.573.507.639-.622 3.759-.918 3.792-.296.033-2.114-1.023-2.114-1.023s-1.014-.468-1.437-.81c-.26-.209-.488-.966-.684-1.618-.123-.407-.233-.774-.33-.938-.108-.18-.32-.223-.54-.267-.3-.06-.613-.124-.686-.542-.06-.342-.016-.665.024-.965.046-.335.087-.64-.024-.91-.08-.192-.416-.318-.804-.463-.646-.243-1.437-.539-1.437-1.284l-.338-1.278s-.253-1.15.338-1.278c.298-.064.2-.388.077-.791-.121-.398-.266-.873-.077-1.254.38-.767 2.41-3.409 3.467-3.58.74-.119.807-.301.875-.488.028-.079.057-.16.139-.235l.035-.033c.51-.48 4.988-4.69 6.179-4.484l.183.032c1.313.23 4.032.705 5.523.48 1.564-.237 3.636.255 4.523 1.193.653.689.94 1.585 1.147 2.232.075.233.139.433.206.58.089.194.309.426.56.69.463.489 1.034 1.09 1.088 1.78.043.537-.067 1.06-.16 1.502-.092.436-.168.793-.063 1.005.088.176.584.576 1.141 1.025.794.639 1.709 1.376 1.734 1.702.024.311-.43.542-.832.746-.313.16-.594.302-.594.454 0 .196.12.534.225.831.083.232.156.44.156.533 0 .097-.053.15-.123.22a.886.886 0 0 0-.258.419c-.072.242.06.332.188.42.098.067.193.133.193.262 0 .258-.128.485-.3.792l-.08.145c-.08.144-.112.474-.147.844-.06.615-.129 1.34-.445 1.5-.2.1-.845.134-1.608.175-1.186.064-2.655.143-3.169.506-.845.596-3.393 6.213-3.224 7.065.074.375.33.66.589.947.29.323.585.65.632 1.116Z" fill="#00DACC"/></svg>