<svg class="icon-size" width="37" height="37" viewBox="0 0 37 37" fill="none" xmlns="http://www.w3.org/2000/svg"><path d="M18.8 35.6c9.278 0 16.8-7.522 16.8-16.8S28.078 2 18.8 2 2 9.522 2 18.8s7.522 16.8 16.8 16.8Z" stroke="url(#paint0_linear_306_17)" stroke-width="2.4"/><path d="M27.49 26.493a.18.18 0 0 1-.18-.178V11.517a1.405 1.405 0 0 0-.623-1.173 1.418 1.418 0 0 0-1.326-.136 24.548 24.548 0 0 0-5.438 3.095c-3.4 2.563-4.793 5.775-4.793 8.838 0 3.063 2.038 4.295 3.692 4.295 1.654 0 3.725-1.443 3.725-4.295s-.743-4.019-1.711-5.685c.899-.477 1.864-.82 2.864-1.014a.484.484 0 0 1 .53.264c.03.064.046.134.046.205v10.582a1.204 1.204 0 0 0 1.21 1.206h3.022v-1.206h-1.019Zm-8.666-.699c-.716 0-1.88-.945-1.88-3.427 0-2.48 1.513-4.141 1.896-4.4.326.23 1.896 1.89 1.896 4.399 0 2.51-1.196 3.428-1.912 3.428Zm-3.021-9.835a7.876 7.876 0 0 0-1.858-.553.478.478 0 0 0-.548.474v10.613a1.204 1.204 0 0 1-1.21 1.206H9.092v-1.206h1.1a.18.18 0 0 0 .178-.178v-14.78a1.406 1.406 0 0 1 .628-1.171 1.42 1.42 0 0 1 1.327-.133c2.017.812 3.91 1.9 5.626 3.234a12.402 12.402 0 0 0-2.148 2.494Z" fill="url(#paint1_linear_306_17)"/><defs><linearGradient id="paint0_linear_306_17" x1="32.879" y1="4.186" x2="5.612" y2="34.84" gradientUnits="userSpaceOnUse"><stop stop-color="#16D6A1"/><stop offset="1" stop-color="#0BC6DA"/></linearGradient><linearGradient id="paint1_linear_306_17" x1="9.092" y1="28.71" x2="29.251" y2="10.033" gradientUnits="userSpaceOnUse"><stop stop-color="#0AC4DD"/><stop offset="1" stop-color="#18D995"/></linearGradient></defs></svg>