<svg class="icon-size" width="25" height="31" viewBox="0 0 25 31" fill="none" xmlns="http://www.w3.org/2000/svg"><path d="M12.039 0a11.72 11.72 0 0 0-8.245 3.382A11.488 11.488 0 0 0 .585 13.719l1.507-1.02c2.648-1.799 6.943-1.799 9.591 0l1.581 1.072.859.583c2.387 1.62 6.253 1.62 8.638 0l.703-.476a11.443 11.443 0 0 0-.1-5.075 11.51 11.51 0 0 0-2.287-4.543 11.651 11.651 0 0 0-4.032-3.134 11.765 11.765 0 0 0-5-1.12L12.038 0Z" fill="#F2B705"/><path d="M18.592 18.481a8.46 8.46 0 0 1-4.702-1.33L11.455 15.5a8.49 8.49 0 0 0-4.405-1.231 8.49 8.49 0 0 0-4.405 1.23L1.07 16.567a.686.686 0 0 1-1.058-.683.673.673 0 0 1 .286-.435l1.574-1.067a9.87 9.87 0 0 1 5.178-1.466 9.87 9.87 0 0 1 5.178 1.466l2.435 1.653a7.582 7.582 0 0 0 7.856 0l.925-.626a.687.687 0 0 1 1.056.419.67.67 0 0 1-.283.698l-.924.627a8.456 8.456 0 0 1-4.701 1.33Z" fill="#53CBC8"/><path d="M7 23.33v-6.523c-.006-.137 0-.275.017-.411a.732.732 0 0 1 .243-.466.746.746 0 0 1 .495-.186.722.722 0 0 1 .474.194c.129.12.208.283.222.458.028.226.036.455.024.682v13.008a.758.758 0 0 1-.458.725.779.779 0 0 1-.297.066.762.762 0 0 1-.534-.263.745.745 0 0 1-.175-.565v-4.336l-.012-2.383ZM5.614 20.046v3.242c0 .552-.3.922-.723.909a.844.844 0 0 1-.565-.304.827.827 0 0 1-.181-.611V16.8c0-.567.333-.95.768-.928.434.022.694.365.696.932.007 1.081.005 2.162.005 3.242ZM9.868 20.042v-2.279c0-.528.282-.87.704-.87a.798.798 0 0 1 .559.267.779.779 0 0 1 .193.584c.016 1.55.016 3.101 0 4.65a.739.739 0 0 1-.437.776.76.76 0 0 1-.31.066c-.433-.004-.71-.329-.714-.87V20.04l.005.002ZM1.29 20.518v-2.28c0-.527.283-.869.705-.869a.797.797 0 0 1 .558.267.782.782 0 0 1 .193.583c.015 1.552.015 3.102 0 4.651a.74.74 0 0 1-.436.775.76.76 0 0 1-.31.067c-.43-.005-.71-.329-.715-.87v-2.326l.005.002ZM13.441 18.576c.192 0 .375.076.51.21a.712.712 0 0 1 .213.506v1.24c0 .189-.077.371-.212.505a.727.727 0 0 1-1.022 0 .712.712 0 0 1-.212-.506v-1.239c0-.19.076-.372.212-.506a.727.727 0 0 1 .511-.21ZM16.304 19.662c.192 0 .376.075.511.21a.712.712 0 0 1 .212.505v6.951c0 .19-.076.372-.212.506a.728.728 0 0 1-1.179-.232.71.71 0 0 1-.054-.274v-6.95a.71.71 0 0 1 .446-.662.729.729 0 0 1 .276-.054ZM19.15 19.931c.192 0 .375.075.51.21a.712.712 0 0 1 .213.506v5.908a.709.709 0 0 1-.447.66.73.73 0 0 1-.944-.386.71.71 0 0 1-.055-.274v-5.909c0-.19.076-.371.212-.505a.726.726 0 0 1 .51-.21ZM22.031 19.257c.192 0 .376.076.511.21a.712.712 0 0 1 .212.506v2.548c0 .19-.076.371-.212.505a.726.726 0 0 1-1.022 0 .712.712 0 0 1-.211-.505v-2.548c0-.19.076-.372.211-.506a.726.726 0 0 1 .511-.21Z" fill="#53CBC8"/></svg>