<svg class="icon-size" width="37" height="42" viewBox="0 0 37 42" fill="none" xmlns="http://www.w3.org/2000/svg"><path d="m1.92 32.298-.251.433.251-.433a2.867 2.867 0 0 1-1.42-2.48V12.182c0-1.024.543-1.969 1.42-2.48L1.67 9.27l.251.432L17.082.883a2.817 2.817 0 0 1 2.835 0L35.08 9.7l.251-.432-.251.432a2.867 2.867 0 0 1 1.42 2.48V29.82c0 1.024-.542 1.969-1.42 2.48l-15.162 8.818c-.878.51-1.958.51-2.835 0L1.92 32.298Z" fill="url(#paint0_linear_704_19)" stroke="#fff"/><mask id="mask0_704_19" style="mask-type:alpha" maskUnits="userSpaceOnUse" x="10" y="12" width="18" height="18"><path d="M27.398 20.764c0 4.84-3.894 8.763-8.699 8.763-4.804 0-8.699-3.923-8.699-8.763S13.895 12 18.7 12c4.804 0 8.698 3.924 8.698 8.764Z" fill="#fff"/></mask><g mask="url(#mask0_704_19)"><path d="M27.398 20.764c0 4.84-3.894 8.763-8.699 8.763-4.804 0-8.699-3.923-8.699-8.763S13.895 12 18.7 12c4.804 0 8.698 3.924 8.698 8.764Z" fill="#fff"/><path d="M17.312 38.926c5.57 0 10.086-4.55 10.086-10.16 0-5.612-4.515-10.161-10.086-10.161-5.57 0-10.086 4.549-10.086 10.16 0 5.612 4.516 10.161 10.086 10.161Z" fill="url(#paint1_linear_704_19)"/><path d="M23.742 36.894c5.57 0 10.086-4.55 10.086-10.16 0-5.613-4.515-10.162-10.086-10.162-5.57 0-10.086 4.55-10.086 10.161 0 5.612 4.516 10.16 10.086 10.16Z" fill="url(#paint2_linear_704_19)"/><path d="M18.7 42.482c5.57 0 10.085-4.549 10.085-10.16 0-5.612-4.515-10.161-10.086-10.161-5.57 0-10.086 4.549-10.086 10.16 0 5.612 4.516 10.161 10.086 10.161Z" fill="url(#paint3_linear_704_19)"/><path d="M28.155 38.926c5.57 0 10.086-4.55 10.086-10.16 0-5.612-4.516-10.161-10.086-10.161s-10.086 4.549-10.086 10.16c0 5.612 4.515 10.161 10.086 10.161Z" fill="url(#paint4_linear_704_19)"/></g><defs><linearGradient id="paint0_linear_704_19" x1="18.5" y1="-.655" x2="18.5" y2="42.655" gradientUnits="userSpaceOnUse"><stop/><stop offset="1" stop-color="#2D3749"/></linearGradient><linearGradient id="paint1_linear_704_19" x1="8.109" y1="22.605" x2="17.468" y2="26.51" gradientUnits="userSpaceOnUse"><stop stop-color="#30FFB4"/><stop offset="1" stop-color="#00B68A"/></linearGradient><linearGradient id="paint2_linear_704_19" x1="14.287" y1="22.16" x2="24.402" y2="27.118" gradientUnits="userSpaceOnUse"><stop stop-color="#FFE353"/><stop offset="1" stop-color="#01E887"/></linearGradient><linearGradient id="paint3_linear_704_19" x1="13.026" y1="27.305" x2="19.496" y2="29.166" gradientUnits="userSpaceOnUse"><stop stop-color="#30FFB4"/><stop offset="1" stop-color="#00B68A"/></linearGradient><linearGradient id="paint4_linear_704_19" x1="20.275" y1="26.733" x2="28.159" y2="28.298" gradientUnits="userSpaceOnUse"><stop stop-color="#FFE353"/><stop offset="1" stop-color="#01E887"/></linearGradient></defs></svg>