<svg class="icon-size" viewBox="0 0 31 31" fill="none" xmlns="http://www.w3.org/2000/svg"><g clip-path="url(#clip0_26_107)"><path d="M6.687 0a6.675 6.675 0 0 1 4.724 1.955 6.712 6.712 0 0 1 1.966 4.73v7.412c.688.046 1.393.076 2.123.076.73 0 1.431.03 2.123.07V6.686a6.716 6.716 0 0 1 1.997-4.673 6.68 6.68 0 0 1 9.384 0A6.716 6.716 0 0 1 31 6.685V24.4a6.717 6.717 0 0 1-1.996 4.673 6.68 6.68 0 0 1-9.384 0 6.717 6.717 0 0 1-1.997-4.673v-7.412a31.261 31.261 0 0 0-2.123-.076c-.73 0-1.431-.03-2.123-.071V24.4a6.717 6.717 0 0 1-1.997 4.673 6.68 6.68 0 0 1-9.384 0A6.716 6.716 0 0 1 0 24.4V6.685a6.711 6.711 0 0 1 1.965-4.73A6.675 6.675 0 0 1 6.687 0Zm17.626 2.739a3.94 3.94 0 0 0-2.788 1.154 3.962 3.962 0 0 0-1.16 2.792v7.849c1.957.284 3.868.826 5.684 1.611.786.346 1.527.79 2.204 1.32V6.684a3.962 3.962 0 0 0-1.157-2.79 3.94 3.94 0 0 0-2.783-1.156Zm-3.948 21.66c0 1.05.416 2.057 1.156 2.8a3.942 3.942 0 0 0 5.583 0 3.963 3.963 0 0 0 1.156-2.8v-1.776c0-1.57-1.24-3.057-3.319-3.983a19.42 19.42 0 0 0-4.576-1.341v7.1ZM6.687 28.347a3.94 3.94 0 0 0 2.788-1.155 3.962 3.962 0 0 0 1.16-2.791v-7.85a22.449 22.449 0 0 1-5.684-1.61 10.327 10.327 0 0 1-2.204-1.32V24.4a3.962 3.962 0 0 0 1.157 2.789 3.94 3.94 0 0 0 2.783 1.157ZM6.06 12.434a19.426 19.426 0 0 0 4.576 1.342V6.685c0-1.05-.416-2.057-1.156-2.799a3.942 3.942 0 0 0-5.583 0A3.964 3.964 0 0 0 2.74 6.685v1.777c0 1.563 1.24 3.05 3.319 3.972Z" fill="url(#paint0_linear_26_107)"/></g><defs><linearGradient id="paint0_linear_26_107" x1="29.037" y1="28.69" x2="2.067" y2="1.72" gradientUnits="userSpaceOnUse"><stop stop-color="#00AEE9"/><stop offset="1" stop-color="#69FABD"/></linearGradient><clipPath id="clip0_26_107"><path fill="#fff" transform="matrix(-1 0 0 1 31 0)" d="M0 0h31v31H0z"/></clipPath></defs></svg>