<svg class="icon-size" width="30" height="30" viewBox="0 0 30 30" fill="none" xmlns="http://www.w3.org/2000/svg"><path d="M15 30c8.284 0 15-6.716 15-15 0-8.284-6.716-15-15-15C6.716 0 0 6.716 0 15c0 8.284 6.716 15 15 15Z" fill="#FF0420"/><path d="M10.623 18.978a3.604 3.604 0 0 1-2.194-.63 2.155 2.155 0 0 1-.844-1.823c.003-.204.022-.407.056-.608.098-.54.236-1.19.416-1.947.51-2.063 1.827-3.094 3.95-3.094.532-.009 1.06.09 1.553.292.437.172.813.47 1.08.856.27.398.407.87.394 1.35-.004.2-.023.4-.057.596a25.6 25.6 0 0 1-.405 1.947c-.262 1.028-.716 1.797-1.361 2.307-.645.503-1.508.754-2.588.754Zm.158-1.62c.39.01.77-.122 1.069-.372.33-.3.556-.698.641-1.136.173-.705.304-1.32.394-1.846.03-.16.045-.322.045-.484 0-.683-.357-1.024-1.07-1.024a1.643 1.643 0 0 0-1.08.371c-.324.304-.544.701-.63 1.137-.135.503-.27 1.118-.405 1.846-.03.155-.045.314-.045.472 0 .69.36 1.035 1.08 1.035ZM15.552 18.866a.237.237 0 0 1-.191-.08.27.27 0 0 1-.034-.202l1.553-7.314a.322.322 0 0 1 .123-.203.344.344 0 0 1 .214-.079h2.993a3.479 3.479 0 0 1 2.003.518 1.698 1.698 0 0 1 .765 1.497 2.699 2.699 0 0 1-.067.585 3.047 3.047 0 0 1-1.137 1.913c-.562.413-1.335.62-2.318.62h-1.519l-.517 2.463a.322.322 0 0 1-.123.203.344.344 0 0 1-.214.079h-1.531Zm3.984-4.3a1.34 1.34 0 0 0 .821-.258c.245-.18.414-.445.473-.743.02-.111.032-.224.034-.337a.624.624 0 0 0-.192-.495.944.944 0 0 0-.652-.18h-1.35l-.428 2.014h1.294Z" fill="#fff"/></svg>