<svg class="partner-size" width="44" height="39" viewBox="0 0 44 39" fill="none" xmlns="http://www.w3.org/2000/svg"><g clip-path="url(#clip0_211_71)"><path d="M37.886 22.712c0 .77-.207 1.524-.598 2.19a4.408 4.408 0 0 1-1.632 1.6l-10.442 5.903a4.501 4.501 0 0 1-4.428 0l-10.442-5.903a4.408 4.408 0 0 1-1.632-1.6 4.316 4.316 0 0 1-.598-2.19V10.943c0-.768.206-1.523.598-2.189a4.408 4.408 0 0 1 1.632-1.6L20.786 1.25a4.5 4.5 0 0 1 4.427 0l10.443 5.903c.677.383 1.24.935 1.632 1.6.391.665.598 1.42.598 2.19v11.768Z" fill="#1D86CC"/><path d="m21.713 2.895-10.31 5.857a2.557 2.557 0 0 0-.943.928 2.503 2.503 0 0 0-.345 1.268l.007 11.727c0 .444.119.88.345 1.266.226.385.55.704.942.927l10.32 5.869a2.61 2.61 0 0 0 2.578 0l10.309-5.855c.392-.223.717-.543.944-.929.226-.385.345-.823.345-1.268l-.007-11.727c0-.444-.12-.88-.345-1.266a2.557 2.557 0 0 0-.942-.927L24.29 2.896a2.61 2.61 0 0 0-2.577 0v-.001Z" fill="#fff"/><path d="M18.31 26.773a.471.471 0 0 1 .101-.208l9.253-15.44c.043-.072.083-.146.12-.21-.028-.046-.059-.036-.085-.036-1.318.004-2.636.012-3.955.01a.279.279 0 0 0-.261.174c-.995 1.617-1.99 3.234-2.987 4.85l-6.335 10.28c-.018.03-.038.06-.054.091-.038.07-.08.082-.156.039-.328-.19-.659-.375-1.007-.572l9.398-14.826c-.02-.06-.062-.046-.094-.047-.504-.015-1.007-.036-1.51-.04a5.667 5.667 0 0 0-2.077.329c-.605.22-1.12.631-1.463 1.168-1.717 2.635-3.44 5.265-5.17 7.892l-.085.123c-.099 0-.084-.08-.093-.137a1.616 1.616 0 0 1-.006-.254c0-2.905.01-5.81-.01-8.715-.015-.25.046-.5.176-.715.13-.216.323-.388.553-.495 2.271-1.273 4.528-2.573 6.791-3.86 1.01-.573 2.024-1.142 3.027-1.728a1.158 1.158 0 0 1 1.275 0C25.5 5.51 27.361 6.55 29.214 7.6c1.399.792 2.797 1.582 4.197 2.371.1.056.197.116.298.172a.963.963 0 0 1 .39.374c.091.159.134.34.124.522.002 3.16.002 6.32 0 9.48a.604.604 0 0 1-.026.23c-.11.105-.15-.013-.191-.07-.167-.23-.316-.473-.471-.711a1588.07 1588.07 0 0 0-3.733-5.72c-.42-.644-.844-1.285-1.26-1.931-.096-.151-.114-.153-.21.008-.627 1.043-1.253 2.085-1.878 3.128a.313.313 0 0 0 .038.372c.516.818 1.03 1.637 1.544 2.457l2.635 4.192 1.068 1.698a.426.426 0 0 1 .105.271c-.071.14-.22.179-.343.242a2.613 2.613 0 0 1-.663.34c-.128-.03-.173-.144-.233-.236-.816-1.252-1.621-2.51-2.431-3.764-.834-1.29-1.663-2.584-2.5-3.872-.107-.165-.124-.166-.225 0-.728 1.205-1.446 2.416-2.176 3.619a.318.318 0 0 0 .018.375c.983 1.49 1.943 2.994 2.916 4.492.271.417.545.833.811 1.253.052.082.123.164.076.274-.255.196-.53.364-.822.503-.909.52-1.818 1.04-2.727 1.558a.913.913 0 0 1-.978 0 852.027 852.027 0 0 0-4.026-2.277.524.524 0 0 1-.23-.177Z" fill="#2D374B"/><path d="M34.158 20.78c.002-.078.006-.155.006-.233 0-3.153 0-6.305.003-9.458a.97.97 0 0 0-.132-.547.992.992 0 0 0-.414-.387c-3.366-1.898-6.729-3.8-10.09-5.707a.948.948 0 0 0-1.017-.003 18271.433 18271.433 0 0 0-10.11 5.758.931.931 0 0 0-.382.362.91.91 0 0 0-.122.508c.008 3.025.012 6.05.013 9.075 0 .067-.027.142.032.202-.355.582-.746 1.141-1.12 1.711l-.565.855c-.03.045-.065.087-.125.168-.004-.095-.009-.148-.009-.2 0-3.99 0-7.979.002-11.968a2.38 2.38 0 0 1 .33-1.263c.226-.383.555-.698.95-.909 1.306-.762 2.628-1.496 3.942-2.245 1.109-.631 2.213-1.267 3.32-1.9 1.034-.59 2.057-1.198 3.107-1.756a2.606 2.606 0 0 1 2.618.067c.844.471 1.685.951 2.527 1.427l2.375 1.346a2120.426 2120.426 0 0 0 4.361 2.465c.318.18.636.36.952.543.35.194.65.463.878.787.23.324.381.694.444 1.084.015.112.02.226.014.34 0 3.925 0 7.85.002 11.776.002.373-.08.742-.24 1.08-.16.338-.394.637-.685.876a3.092 3.092 0 0 1-.533.322 2190.236 2190.236 0 0 1-6.707 3.817 941.357 941.357 0 0 0-3.32 1.902 2.49 2.49 0 0 1-.911.37 2.607 2.607 0 0 1-1.6-.2c-.551-.292-1.089-.607-1.632-.914l-2.19-1.238c-.205-.117-.412-.233-.618-.348-.076-.042-.128-.085-.068-.183.273-.45.541-.901.813-1.352.01-.016.034-.024.051-.036.253.116.498.249.733.397 1.192.67 2.381 1.344 3.569 2.02a.852.852 0 0 0 .915-.01c1.128-.65 2.261-1.292 3.393-1.937.056-.032.113-.06.17-.091a.933.933 0 0 1 .411-.295c1.022-.576 2.037-1.164 3.059-1.739.085-.047.162-.121.273-.109l1-.57c.062-.126.192-.167.302-.229.503-.286 1.002-.58 1.51-.857a.858.858 0 0 0 .35-.334.838.838 0 0 0 .11-.469c.005-.5 0-1.002.003-1.504a.364.364 0 0 1 .052-.266Z" fill="#96BEDC"/><g><path class="fill" d="M39.169 37.522v-1.105c0-.057-.002-.114 0-.17.015-.295.095-.383.388-.397.194-.01.389 0 .583.003a.4.4 0 0 1 .382.262l.387.876c.175.395.349.792.523 1.188.017.039.033.079.052.117.022.046.05.086.11.083.062-.004.086-.044.106-.092.022-.053.047-.103.07-.155l.824-1.87c.025-.06.053-.117.08-.176a.368.368 0 0 1 .333-.232c.23-.021.461-.02.69.004.193.024.26.096.286.287.01.084.016.17.015.254v2.339c0 .035-.002.07 0 .106.002.096-.04.144-.142.14-.137-.003-.274 0-.411 0a.105.105 0 0 1-.114-.07.1.1 0 0 1-.004-.047v-.15c0-.68 0-1.36-.002-2.04 0-.056.038-.141-.051-.16-.086-.019-.097.067-.122.122l-.854 1.858a4.897 4.897 0 0 1-.084.172.581.581 0 0 1-.536.323.744.744 0 0 1-.515-.102.724.724 0 0 1-.314-.413c-.246-.589-.528-1.163-.795-1.743-.015-.033-.028-.066-.044-.097-.027-.054-.038-.14-.124-.118-.086.022-.048.107-.049.163-.002.673-.001 1.347-.002 2.02v.17c0 .08-.045.114-.123.113h-.324c-.218-.001-.22-.002-.22-.21V37.523ZM32.965 36.985v-.914c0-.212.013-.223.236-.226.101 0 .202-.004.303 0 .139.007.157.028.165.166.002.05 0 .1 0 .149 0 .532-.006 1.063.001 1.594.007.469.136.588.612.59.418.002.835 0 1.253 0 .058.002.116 0 .173-.005a.401.401 0 0 0 .294-.117.388.388 0 0 0 .113-.292c.01-.113.01-.226.01-.34v-1.488c0-.252.004-.256.269-.257h.216c.208.004.222.016.222.217.002.539 0 1.077.002 1.616 0 .156-.01.312-.03.466a.83.83 0 0 1-.227.54.857.857 0 0 1-.532.261 1.665 1.665 0 0 1-.32.037h-1.643a1.775 1.775 0 0 1-.364-.044.852.852 0 0 1-.49-.25.827.827 0 0 1-.23-.495 2.64 2.64 0 0 1-.037-.465c.006-.247.004-.495.004-.743ZM23.06 35.845h1.665c.225 0 .23.008.232.226 0 .085.002.17 0 .255-.005.15-.023.17-.178.172-.367.004-.735.001-1.102.001-.05 0-.101.002-.151 0-.075-.002-.103.036-.101.105v2.104l-.001.15c-.002.084-.04.13-.133.128a11.997 11.997 0 0 0-.433 0c-.104.002-.141-.05-.14-.144.002-.05 0-.1 0-.15v-2.018c0-.171-.001-.173-.175-.173-.375-.002-.75 0-1.124 0-.222 0-.225-.005-.227-.231v-.191c.002-.23.002-.233.247-.233.541-.002 1.082-.002 1.622 0ZM18.995 37.428v1.358c0 .196-.004.198-.207.2-.115.001-.23-.002-.345 0-.098.003-.15-.034-.146-.135.002-.05 0-.1 0-.149v-2.565c0-.05.002-.1 0-.149-.004-.085.034-.138.122-.14.151-.003.302-.004.453 0 .121.003.125.09.124.18-.002.467 0 .934 0 1.4Z" fill="#2D364D"/><path class="fill" d="M34.159 20.78c.002.623.016 1.246.002 1.868a.779.779 0 0 1-.42.714c-.637.355-1.262.73-1.905 1.076-.256-.46-.551-.896-.83-1.342a5469.161 5469.161 0 0 0-4.36-6.94c-.087-.138-.167-.281-.265-.412a.207.207 0 0 1 0-.268c.348-.571.69-1.146 1.033-1.72l.954-1.591a.18.18 0 0 1 .084-.087l.5.759a30179.91 30179.91 0 0 1 5.051 7.74.64.64 0 0 0 .156.203ZM30.834 25.008c-.414.267-.853.495-1.28.743-.775.448-1.554.887-2.33 1.33l-.132.072a.359.359 0 0 0-.09-.19l-2.075-3.209a889.004 889.004 0 0 0-1.71-2.63.269.269 0 0 1-.016-.329 892.168 892.168 0 0 0 2.284-3.805c.018-.029.032-.063.077-.072.062.013.077.075.107.12l4.132 6.404c.293.454.585.91.88 1.363.037.077.09.146.153.203Z" fill="#28A0F0"/><path class="fill" d="M15.707 37.373a.754.754 0 0 0 .276-.728c-.004-.057-.002-.114-.006-.17a.586.586 0 0 0-.164-.417.606.606 0 0 0-.414-.184 3.235 3.235 0 0 0-.409-.028c-.77-.003-1.54-.002-2.312 0-.057 0-.115 0-.172.004a.14.14 0 0 0-.107.044.134.134 0 0 0-.035.108V38.83c0 .1.044.16.155.157h2.634c.08.001.159-.002.238-.009a.625.625 0 0 0 .403-.16c.11-.1.18-.235.197-.381.017-.134.023-.268.019-.403a.676.676 0 0 0-.303-.661Zm-2.642-.774c-.002-.087.025-.127.122-.127.61.004 1.222-.002 1.831.004.22.002.294.095.296.328.002.245-.07.337-.303.344-.301.009-.603.002-.905.002-.301 0-.603-.003-.905.002-.1.002-.143-.025-.137-.131a5.55 5.55 0 0 0 .001-.424v.002Zm2.224 1.63a.194.194 0 0 1-.146.114c-.085.015-.17.024-.256.027-.54.002-1.078.002-1.616 0-.203 0-.204-.003-.205-.197 0-.127.006-.255-.002-.381-.006-.107.026-.15.143-.147.294.008.588.003.883.003.287 0 .575-.006.861.001a.383.383 0 0 1 .351.187.367.367 0 0 1-.014.392v.001ZM10.013 38.725c-.209-.261-.422-.518-.64-.784.055-.02.093-.038.133-.05a.694.694 0 0 0 .341-.214.676.676 0 0 0 .161-.365c.048-.266.048-.538.002-.803a.698.698 0 0 0-.211-.434.72.72 0 0 0-.444-.198 3.106 3.106 0 0 0-.41-.03c-.726-.003-1.453-.001-2.18-.001h-.087c-.171.009-.202.038-.21.2-.002.027 0 .056 0 .084v2.72c0 .098.05.14.148.137.123-.003.245.001.367 0 .176-.003.186-.01.188-.178.004-.218.005-.44 0-.658-.002-.103.023-.154.143-.15.403.006.806.005 1.21 0a.217.217 0 0 1 .195.101c.126.172.256.342.39.508.099.122.164.286.303.354.152.042.313.049.468.02.086 0 .207.054.253-.048.038-.087-.069-.147-.12-.211Zm-.681-1.675c-.014.29-.12.393-.413.398-.267.005-.534 0-.8 0-.267 0-.534-.005-.8.003-.114.003-.152-.034-.149-.144.007-.234.005-.468 0-.701-.001-.099.032-.138.138-.137.547.004 1.094-.002 1.64.003a.333.333 0 0 1 .273.082.322.322 0 0 1 .104.261c.007.078.009.156.005.233l.002.002ZM30.753 38.802l-.569-.695a.406.406 0 0 1-.118-.177c.028-.009.055-.019.082-.026a.706.706 0 0 0 .373-.224.685.685 0 0 0 .167-.397c.045-.273.04-.552-.015-.823a.687.687 0 0 0-.213-.398.707.707 0 0 0-.417-.184 2.694 2.694 0 0 0-.387-.031c-.749-.003-1.497-.003-2.246 0-.246 0-.257.012-.257.252v2.762c-.003.09.04.128.13.127.13-.002.26.002.39 0 .161-.004.173-.014.176-.168.003-.213 0-.425 0-.638 0-.187-.008-.179.17-.178.382 0 .763.005 1.145-.003a.272.272 0 0 1 .248.127c.186.252.383.496.57.747a.251.251 0 0 0 .236.115c.15-.007.302 0 .454-.002.047 0 .107.018.136-.036.035-.067-.021-.108-.055-.15Zm-.75-1.66a.312.312 0 0 1-.095.21.322.322 0 0 1-.214.09 1.232 1.232 0 0 1-.172.007h-1.507c-.163 0-.164-.003-.165-.162a39.595 39.595 0 0 1 0-.636c.001-.178.003-.179.195-.18h.775c.258 0 .517-.002.775 0 .292.004.405.113.415.396.005.092.003.183-.007.275ZM4.268 38.861l-.082-.149-1.178-2.1c-.087-.155-.175-.308-.26-.464a.581.581 0 0 0-.508-.306.737.737 0 0 0-.477.08.72.72 0 0 0-.32.355C1.006 37.106.54 37.92.085 38.74c-.02.037-.044.073-.061.112-.046.103-.033.13.077.133.173.004.346-.002.518.002a.184.184 0 0 0 .183-.119c.064-.126.143-.246.2-.375a.226.226 0 0 1 .097-.118.233.233 0 0 1 .152-.03c.526.008 1.05.003 1.576.004a.93.93 0 0 1 .362.016c.112.051.14.206.205.314.218.362.09.3.481.306h.322c.093 0 .112-.049.071-.123Zm-1.377-1.04H1.418c-.03-.05.006-.084.025-.12l.58-1.066a.69.69 0 0 1 .067-.108.068.068 0 0 1 .055-.03.068.068 0 0 1 .056.027.22.22 0 0 1 .033.054c.22.398.438.796.656 1.194.005.01 0 .026 0 .05Z" fill="#2D364D"/></g></g><defs><clipPath id="clip0_211_71"><path fill="#fff" d="M0 0h44v39H0z"/></clipPath></defs></svg>