<svg class="partner-size" width="100" height="40" viewBox="0 0 100 40" fill="none" xmlns="http://www.w3.org/2000/svg"><g clip-path="url(#clip0_205_7)"><path d="M37.782 38.986c-6.383 0-11.576-5.176-11.576-11.537 0-6.36 5.193-11.536 11.576-11.536 6.382 0 11.576 5.175 11.576 11.536s-5.194 11.537-11.576 11.537Zm0-20.449c-4.93 0-8.94 3.997-8.94 8.91s4.01 8.91 8.94 8.91 8.94-3.997 8.94-8.91-4.01-8.91-8.94-8.91ZM5.584 27.018a1.468 1.468 0 0 1-1.453-1.225L.02 1.715A1.474 1.474 0 0 1 1.23.02a1.48 1.48 0 0 1 1.703 1.204L7.039 25.3a1.475 1.475 0 0 1-1.455 1.718Z" fill="#CF0"/><path d="M12.47 15.91c-2.349 0-4.533.702-6.36 1.905l.498 2.915a8.916 8.916 0 0 1 5.863-2.193c4.93 0 8.94 3.997 8.94 8.91s-4.01 8.91-8.94 8.91-8.94-3.997-8.94-8.91c0-.655.073-1.293.208-1.907L2.946 20.9a11.444 11.444 0 0 0-2.051 6.548c0 6.361 5.193 11.537 11.576 11.537 6.382 0 11.576-5.176 11.576-11.537 0-6.36-5.191-11.539-11.576-11.539Z" fill="#CF0"/><path d="M11.838 34.182c.87 0 1.577-.703 1.577-1.57 0-.869-.706-1.572-1.577-1.572-.87 0-1.577.703-1.577 1.571s.706 1.572 1.577 1.572ZM16.763 32.353c.871 0 1.577-.704 1.577-1.571 0-.868-.706-1.572-1.577-1.572-.87 0-1.577.704-1.577 1.572 0 .867.706 1.571 1.577 1.571ZM12.89 28.984c.87 0 1.577-.703 1.577-1.571s-.706-1.572-1.577-1.572c-.87 0-1.577.704-1.577 1.572 0 .868.706 1.571 1.577 1.571ZM7.997 30.59c.87 0 1.577-.704 1.577-1.572 0-.867-.706-1.571-1.577-1.571-.87 0-1.577.704-1.577 1.571 0 .868.706 1.572 1.577 1.572ZM17.772 27.374c.87 0 1.576-.704 1.576-1.572 0-.867-.706-1.57-1.576-1.57-.871 0-1.577.703-1.577 1.57 0 .868.706 1.572 1.577 1.572ZM13.944 23.786c.871 0 1.577-.704 1.577-1.572 0-.867-.706-1.571-1.577-1.571-.87 0-1.577.703-1.577 1.571s.706 1.572 1.577 1.572ZM9.003 25.61c.87 0 1.577-.703 1.577-1.57 0-.869-.706-1.572-1.577-1.572-.87 0-1.577.703-1.577 1.571s.706 1.572 1.577 1.572Z" fill="#1CD8D2"/><g><path d="M56.226 27.018a1.468 1.468 0 0 1-1.453-1.225l-4.11-24.078A1.474 1.474 0 0 1 51.872.02a1.48 1.48 0 0 1 1.704 1.204l4.109 24.078a1.474 1.474 0 0 1-1.458 1.715Z" fill="#CF0"/><path d="M63.113 15.91c-2.35 0-4.533.702-6.36 1.905l.498 2.915a8.916 8.916 0 0 1 5.862-2.193c4.93 0 8.94 3.997 8.94 8.91s-4.01 8.91-8.94 8.91-8.94-3.997-8.94-8.91c0-.655.073-1.293.208-1.907l-.793-4.639a11.443 11.443 0 0 0-2.051 6.548c0 6.361 5.193 11.537 11.576 11.537 6.383 0 11.576-5.176 11.576-11.537 0-6.36-5.19-11.539-11.576-11.539Z" fill="#CF0"/><path d="M62.48 34.182c.871 0 1.577-.703 1.577-1.57 0-.869-.706-1.572-1.577-1.572-.87 0-1.576.703-1.576 1.571s.706 1.572 1.576 1.572ZM67.406 32.353c.87 0 1.576-.704 1.576-1.571 0-.868-.706-1.572-1.576-1.572-.871 0-1.577.704-1.577 1.572 0 .867.706 1.571 1.577 1.571ZM63.535 28.984c.87 0 1.577-.703 1.577-1.571s-.706-1.572-1.577-1.572-1.577.704-1.577 1.572c0 .868.706 1.571 1.577 1.571ZM58.64 30.59c.87 0 1.576-.704 1.576-1.572 0-.867-.706-1.571-1.577-1.571-.87 0-1.576.704-1.576 1.571 0 .868.706 1.572 1.576 1.572ZM68.414 27.374c.87 0 1.577-.704 1.577-1.572 0-.867-.706-1.57-1.577-1.57-.87 0-1.577.703-1.577 1.57 0 .868.706 1.572 1.577 1.572ZM64.587 23.786c.87 0 1.576-.704 1.576-1.572 0-.867-.705-1.571-1.576-1.571-.871 0-1.577.703-1.577 1.571s.706 1.572 1.577 1.572ZM59.645 25.61c.871 0 1.577-.703 1.577-1.57 0-.869-.706-1.572-1.577-1.572-.87 0-1.576.703-1.576 1.571s.706 1.572 1.576 1.572Z" fill="#1CD8D2"/></g><g><path d="M95.31 27.856c.723 0 1.332.514 1.454 1.224l1.471 8.654a1.475 1.475 0 0 1-1.208 1.695 1.48 1.48 0 0 1-1.702-1.204l-1.472-8.654a1.474 1.474 0 0 1 1.458-1.715Z" fill="#CF0"/><path d="M88.424 38.96c2.35 0 4.533-.7 6.36-1.904l-.498-2.915a8.915 8.915 0 0 1-5.862 2.193c-4.93 0-8.94-3.997-8.94-8.91s4.01-8.91 8.94-8.91 8.94 3.997 8.94 8.91c0 .656-.073 1.293-.208 1.907l.793 4.64A11.443 11.443 0 0 0 100 27.42c0-6.36-5.193-11.536-11.576-11.536-6.383 0-11.576 5.176-11.576 11.537 0 6.36 5.191 11.539 11.576 11.539Z" fill="#CF0"/></g></g><defs><clipPath id="clip0_205_7"><path fill="#fff" d="M0 0h100v39.45H0z"/></clipPath></defs></svg>