<svg class="partner-size" width="135" height="38" viewBox="0 0 135 38" fill="none" xmlns="http://www.w3.org/2000/svg"><g class="fill" clip-path="url(#clip0_212_2)" fill="#333"><path d="M16.225 0 0 9.45v18.892l16.225 9.443 16.213-9.443V9.449L16.225 0Zm11.41 25.542-11.41 6.644L4.81 25.542v-13.3L16.225 5.6l11.41 6.643v13.3Z"/><path d="m23.791 23.307-7.572 4.408-7.579-4.408v-8.823l7.579-4.414 7.572 4.414-3.152 1.837-4.42-2.578-4.42 2.578v5.143l4.42 2.577 4.42-2.577 3.152 1.843ZM44.443 20.324v-.05a7.573 7.573 0 0 1 .552-2.922c.374-.927.929-1.77 1.63-2.477a7.45 7.45 0 0 1 2.457-1.646 7.396 7.396 0 0 1 2.896-.556 7.248 7.248 0 0 1 3.17.608 7.307 7.307 0 0 1 2.6 1.925l-2.078 2.236c-1.01-1.051-2.078-1.824-3.717-1.824-2.405 0-4.182 2.097-4.182 4.636v.057c0 2.59 1.777 4.655 4.314 4.655a5.056 5.056 0 0 0 2.074-.49 5.098 5.098 0 0 0 1.693-1.302l1.997 1.989a7.56 7.56 0 0 1-3.814 2.465c-1.49.41-3.07.35-4.526-.174a7.574 7.574 0 0 1-3.617-2.75 7.677 7.677 0 0 1-1.411-4.342l-.038-.038ZM60.82 12.964h3.333v3.281c.904-2.179 2.568-3.667 5.111-3.56v3.535h-.188c-2.9 0-4.923 1.9-4.923 5.757v5.541H60.82V12.964ZM70.853 20.324v-.05a7.795 7.795 0 0 1 2.31-5.357A7.664 7.664 0 0 1 78.52 12.7a7.662 7.662 0 0 1 5.374 2.177 7.794 7.794 0 0 1 2.349 5.34v.056c0 1.016-.2 2.02-.592 2.956a7.607 7.607 0 0 1-1.685 2.491 7.53 7.53 0 0 1-2.513 1.634 7.479 7.479 0 0 1-2.946.52 7.408 7.408 0 0 1-2.919-.52 7.46 7.46 0 0 1-2.489-1.625 7.545 7.545 0 0 1-1.666-2.473 7.588 7.588 0 0 1-.58-2.932Zm12.081 0v-.05a4.516 4.516 0 0 0-1.226-3.294 4.458 4.458 0 0 0-3.2-1.4c-2.657 0-4.352 2.097-4.352 4.636v.057a4.492 4.492 0 0 0 1.223 3.264 4.44 4.44 0 0 0 3.172 1.391c2.688 0 4.383-2.096 4.383-4.604ZM89.577 12.964H92.9V15.2a5.249 5.249 0 0 1 1.926-1.868 5.195 5.195 0 0 1 2.588-.665c3.253 0 5.137 2.204 5.137 5.567v9.29h-3.31v-8.277c0-2.26-1.117-3.553-3.089-3.553-1.971 0-3.252 1.355-3.252 3.61v8.234h-3.334l.012-14.574ZM105.765 20.324v-.05a7.79 7.79 0 0 1 2.31-5.357 7.661 7.661 0 0 1 5.357-2.217 7.664 7.664 0 0 1 5.374 2.177 7.796 7.796 0 0 1 2.349 5.34v.056a7.62 7.62 0 0 1-2.278 5.447 7.522 7.522 0 0 1-2.513 1.634 7.478 7.478 0 0 1-2.945.52 7.404 7.404 0 0 1-2.919-.52 7.455 7.455 0 0 1-2.489-1.625 7.531 7.531 0 0 1-1.666-2.473 7.58 7.58 0 0 1-.58-2.932Zm12.081 0v-.05a4.518 4.518 0 0 0-1.227-3.294 4.452 4.452 0 0 0-3.2-1.4c-2.656 0-4.352 2.097-4.352 4.636v.057a4.503 4.503 0 0 0 1.224 3.264 4.414 4.414 0 0 0 3.172 1.391c2.668 0 4.383-2.096 4.383-4.604ZM123.34 25.619l1.475-2.261a8.124 8.124 0 0 0 4.729 1.792c1.425 0 2.241-.633 2.241-1.57v-.058c0-1.127-1.526-1.513-3.221-2.04-2.135-.633-4.515-1.488-4.515-4.242v-.057c0-2.787 2.273-4.466 5.143-4.466a9.93 9.93 0 0 1 5.299 1.653l-1.312 2.37a8.308 8.308 0 0 0-4.069-1.375c-1.256 0-2.022.633-2.022 1.431v.057c0 1.077 1.558 1.514 3.253 2.065 2.103.665 4.483 1.628 4.483 4.25v.05c0 3.066-2.354 4.58-5.362 4.58a9.904 9.904 0 0 1-6.122-2.18Z"/></g><defs><clipPath id="clip0_212_2"><path fill="#fff" d="M0 0h135v38H0z"/></clipPath></defs></svg>