<svg class="partner-size" width="153" height="43" viewBox="0 0 153 43" fill="none" xmlns="http://www.w3.org/2000/svg"><g fill="#fff" clip-path="url(#clip0_212_2)"><path d="M18.389 0 0 10.693V32.07l18.389 10.685 18.374-10.685V10.693L18.389 0Zm12.93 28.903-12.93 7.518L5.45 28.903v-15.05L18.39 6.335l12.93 7.518v15.05Z"/><path d="m26.964 26.373-8.583 4.988-8.589-4.988V16.39l8.59-4.995 8.582 4.995-3.573 2.078-5.01-2.916-5.01 2.916v5.82l5.01 2.917 5.01-2.917 3.573 2.085ZM50.369 22.998v-.057a8.558 8.558 0 0 1 .625-3.306 8.511 8.511 0 0 1 1.849-2.803 8.44 8.44 0 0 1 2.783-1.862 8.396 8.396 0 0 1 3.282-.63 8.225 8.225 0 0 1 3.593.688 8.28 8.28 0 0 1 2.947 2.18l-2.355 2.53c-1.146-1.19-2.356-2.065-4.213-2.065-2.726 0-4.74 2.372-4.74 5.246v.065c0 2.93 2.014 5.267 4.89 5.267a5.737 5.737 0 0 0 2.35-.554 5.777 5.777 0 0 0 1.92-1.474l2.262 2.25a8.569 8.569 0 0 1-4.322 2.79 8.517 8.517 0 0 1-5.13-.196 8.581 8.581 0 0 1-4.1-3.113 8.676 8.676 0 0 1-1.598-4.913l-.043-.043ZM68.928 14.67h3.779v3.713c1.025-2.466 2.91-4.15 5.793-4.028v3.999h-.214c-3.287 0-5.579 2.15-5.579 6.515v6.27h-3.779V14.67ZM80.3 22.998v-.057a8.814 8.814 0 0 1 2.618-6.061c1.623-1.6 3.801-2.5 6.072-2.509a8.69 8.69 0 0 1 6.09 2.464 8.814 8.814 0 0 1 2.662 6.041v.065a8.646 8.646 0 0 1-.671 3.345 8.607 8.607 0 0 1-1.91 2.818 8.535 8.535 0 0 1-2.848 1.85 8.487 8.487 0 0 1-3.338.587 8.405 8.405 0 0 1-3.308-.588 8.455 8.455 0 0 1-2.821-1.838 8.537 8.537 0 0 1-2.546-6.117Zm13.692 0v-.057a5.106 5.106 0 0 0-1.39-3.727 5.052 5.052 0 0 0-3.627-1.584c-3.01 0-4.932 2.372-4.932 5.246v.065a5.08 5.08 0 0 0 1.386 3.693 5.032 5.032 0 0 0 3.596 1.574c3.045 0 4.967-2.372 4.967-5.21ZM101.521 14.67h3.764v2.53a5.952 5.952 0 0 1 2.183-2.114 5.896 5.896 0 0 1 2.934-.752c3.686 0 5.821 2.494 5.821 6.299v10.514h-3.75V21.78c0-2.559-1.267-4.02-3.501-4.02-2.235 0-3.687 1.533-3.687 4.084v9.317h-3.778l.014-16.49ZM119.867 22.998v-.057a8.81 8.81 0 0 1 2.618-6.061 8.691 8.691 0 0 1 6.071-2.509 8.688 8.688 0 0 1 6.09 2.464 8.815 8.815 0 0 1 2.663 6.041v.065a8.633 8.633 0 0 1-2.581 6.164 8.492 8.492 0 0 1-6.187 2.436 8.408 8.408 0 0 1-3.308-.588 8.456 8.456 0 0 1-2.821-1.838 8.548 8.548 0 0 1-2.545-6.117Zm13.691 0v-.057a5.117 5.117 0 0 0-1.389-3.728 5.031 5.031 0 0 0-3.628-1.583c-3.01 0-4.931 2.372-4.931 5.246v.065a5.085 5.085 0 0 0 1.386 3.693 5.041 5.041 0 0 0 1.64 1.154c.617.27 1.282.413 1.955.42 3.025 0 4.967-2.372 4.967-5.21ZM139.785 28.99l1.672-2.56a9.216 9.216 0 0 0 5.359 2.029c1.615 0 2.54-.717 2.54-1.777v-.065c0-1.276-1.729-1.713-3.65-2.308-2.42-.716-5.117-1.684-5.117-4.801v-.065c0-3.153 2.576-5.052 5.828-5.052 2.137.04 4.22.688 6.007 1.87l-1.488 2.68a9.427 9.427 0 0 0-4.611-1.554c-1.423 0-2.292.716-2.292 1.62v.064c0 1.218 1.765 1.712 3.687 2.336 2.384.753 5.081 1.842 5.081 4.809v.057c0 3.469-2.669 5.182-6.078 5.182a11.238 11.238 0 0 1-6.938-2.466Z"/></g><defs><clipPath id="clip0_212_2"><path fill="#fff" d="M0 0h153v43H0z"/></clipPath></defs></svg>