<svg class="partner-size" width="160" height="48" viewBox="0 0 160 48" fill="none" xmlns="http://www.w3.org/2000/svg"><g clip-path="url(#clip0_515_25)" fill-rule="evenodd" clip-rule="evenodd"><path d="M50.35 21c.113.953.17 1.91.17 2.87a23.9 23.9 0 0 1-45.58 10L8.76 32a19.62 19.62 0 0 0 37.48-8.1v-.61L50.35 21ZM26.62 0a23.9 23.9 0 0 1 22.2 15l-4.09 1.31A19.62 19.62 0 0 0 7 23.9v.4l-4 3.27a23.49 23.49 0 0 1-.28-3.67A23.9 23.9 0 0 1 26.62 0Z" fill="#0287D0"/><path d="m0 33.45 23.37-19.11-.97 7.94 13.64-7.73-.69 7.55 17.89-5.69-24.26 13.36 1.81-7.6-14.02 8.21.93-5.83L0 33.45Z" fill="#0287D0"/><path class="fill" d="M145.51 24.16H154a2.159 2.159 0 0 0 1.59-.48c.342-.418.511-.951.47-1.49v-.92a2.101 2.101 0 0 0-.47-1.49 2.158 2.158 0 0 0-1.59-.48h-8.2c-.19 0-.29.08-.29.26v4.6Zm9.17-7.9a4.943 4.943 0 0 1 3.65 1.15 4.737 4.737 0 0 1 1.1 3.41v1.26a5.123 5.123 0 0 1-.77 3 3.73 3.73 0 0 1-2.52 1.42l3.78 4.69a.376.376 0 0 1 .07.34c0 .14-.15.22-.36.22h-2.85a.889.889 0 0 1-.4-.07.753.753 0 0 1-.22-.22l-3.5-4.6h-7.15v4.4a.425.425 0 0 1-.49.49h-2.39a.439.439 0 0 1-.51-.49V16.93a.595.595 0 0 1 .166-.503.6.6 0 0 1 .504-.167h11.89Zm-15.61 0a.44.44 0 0 1 .51.49v2.1c0 .33-.17.49-.51.49h-9.67c-.48-.008-.96.039-1.43.14a2 2 0 0 0-.91.49c-.245.257-.409.58-.47.93a6.48 6.48 0 0 0-.14 1.45v.22H139a.43.43 0 0 1 .49.49v1.75a.428.428 0 0 1-.294.464.43.43 0 0 1-.196.016h-12.55v.38a6.48 6.48 0 0 0 .14 1.45c.061.35.225.674.47.93.255.24.569.41.91.49.47.101.95.148 1.43.14h9.67c.34 0 .51.16.51.49v2.1a.438.438 0 0 1-.307.477.439.439 0 0 1-.203.013h-9.74c-.962.014-1.923-.09-2.86-.31a4.42 4.42 0 0 1-1.91-1 4.005 4.005 0 0 1-1.08-1.81 9.328 9.328 0 0 1-.35-2.72v-3.8a9.06 9.06 0 0 1 .35-2.7 4.07 4.07 0 0 1 1.08-1.81 4.539 4.539 0 0 1 1.91-1 11.233 11.233 0 0 1 2.86-.32l9.74-.03Zm-17.8 0a.44.44 0 0 1 .51.49v2.17a.452.452 0 0 1-.304.492.448.448 0 0 1-.206.018h-7v11.84a.434.434 0 0 1-.118.364.438.438 0 0 1-.362.126h-2.42a.43.43 0 0 1-.48-.49V19.43h-7a.454.454 0 0 1-.383-.127.455.455 0 0 1-.127-.383v-2.17a.44.44 0 0 1 .51-.49h17.38Zm-19.9 0a.44.44 0 0 1 .51.49v2.1c0 .33-.17.49-.51.49H91.7c-.48-.008-.96.04-1.43.14a1.91 1.91 0 0 0-.9.49 1.88 1.88 0 0 0-.48.93c-.097.477-.14.963-.13 1.45v.22h12.5a.43.43 0 0 1 .49.49v1.75a.428.428 0 0 1-.294.464.43.43 0 0 1-.196.016h-12.5v.38c-.01.487.033.973.13 1.45.069.35.235.672.48.93.25.242.56.412.9.49.47.1.95.148 1.43.14h9.67c.34 0 .51.16.51.49v2.1a.438.438 0 0 1-.307.477.439.439 0 0 1-.203.013h-9.74a11.59 11.59 0 0 1-2.85-.31 4.519 4.519 0 0 1-1.92-1 4.1 4.1 0 0 1-1.08-1.81 9.338 9.338 0 0 1-.34-2.72v-3.8a9.109 9.109 0 0 1 .34-2.7 4.16 4.16 0 0 1 1.08-1.81 4.64 4.64 0 0 1 1.92-1 11.09 11.09 0 0 1 2.85-.32l9.74-.03Zm-37.8 0c.282-.005.563.018.84.07.222.04.433.125.62.25.186.14.345.313.47.51.169.271.316.555.44.85l4.6 10.63a.32.32 0 0 0 .31.2h.27a.33.33 0 0 0 .31-.2L76 17.94c.12-.294.264-.579.43-.85a2 2 0 0 1 .48-.51 1.51 1.51 0 0 1 .61-.25 3.89 3.89 0 0 1 .83-.07h2.36a1.881 1.881 0 0 1 1.55.52 3 3 0 0 1 .4 1.78v12.71a.44.44 0 0 1-.51.49h-2.22a.43.43 0 0 1-.49-.49V19.72c0-.15-.06-.23-.18-.23h-.2a.28.28 0 0 0-.29.18l-4.47 9.92a6.08 6.08 0 0 1-.54 1 2.86 2.86 0 0 1-.6.68 1.89 1.89 0 0 1-.73.38c-.327.08-.663.117-1 .11h-1.02a3.998 3.998 0 0 1-1-.11 2 2 0 0 1-.73-.38 3.07 3.07 0 0 1-.59-.68 6.054 6.054 0 0 1-.55-1l-4.44-9.92a.27.27 0 0 0-.29-.18h-.19c-.12 0-.18.08-.18.23v11.55a.43.43 0 0 1-.49.49h-2.26a.44.44 0 0 1-.51-.49V18.56a3.05 3.05 0 0 1 .4-1.78 1.93 1.93 0 0 1 1.57-.52h2.42Z" fill="#333"/></g><defs><clipPath id="clip0_515_25"><path fill="#fff" d="M0 0h160v47.79H0z"/></clipPath></defs></svg>