<svg class="partner-size" width="109" height="27" viewBox="0 0 109 27" fill="none" xmlns="http://www.w3.org/2000/svg"><g clip-path="url(#clip0_211_89)"><path d="M37.092 7.845a5.396 5.396 0 0 1 2.61.598c.718.382 1.308.97 1.695 1.689.409.777.614 1.646.595 2.525a7.823 7.823 0 0 1-.127 1.323 6.722 6.722 0 0 1-1.133 2.795 6.078 6.078 0 0 1-2.18 1.904 6.191 6.191 0 0 1-2.903.686 5.479 5.479 0 0 1-2.633-.598 4.087 4.087 0 0 1-1.696-1.682 5.206 5.206 0 0 1-.587-2.516 7.98 7.98 0 0 1 .126-1.354 6.723 6.723 0 0 1 1.134-2.796 5.988 5.988 0 0 1 2.189-1.897 6.298 6.298 0 0 1 2.91-.677Zm-.174 2.072a3.59 3.59 0 0 0-2.506.972 4.53 4.53 0 0 0-1.364 2.613 6.147 6.147 0 0 0-.08.892c0 .892.254 1.596.762 2.111.508.516 1.205.773 2.093.773a3.635 3.635 0 0 0 1.76-.438c.548-.3 1.016-.73 1.364-1.25.38-.57.63-1.218.73-1.897.055-.3.082-.603.079-.907 0-.893-.254-1.593-.761-2.103-.508-.51-1.2-.765-2.077-.766Zm12.703.398c.973 0 1.748.302 2.324.907.576.605.864 1.444.864 2.518a6.718 6.718 0 0 1-.095 1.1 6.395 6.395 0 0 1-.936 2.414 4.74 4.74 0 0 1-1.666 1.57c-.64.357-1.36.543-2.092.54a2.86 2.86 0 0 1-1.8-.533 2.297 2.297 0 0 1-.866-1.425l-1.062 6.055h-2.236l2.285-13.035h2.235l-.333 1.833c.323-.59.8-1.08 1.38-1.418a3.848 3.848 0 0 1 1.998-.526Zm-1.95 7.075a2.61 2.61 0 0 0 1.792-.677c.53-.494.877-1.154.983-1.873.03-.2.046-.402.048-.605a1.953 1.953 0 0 0-.516-1.45 1.933 1.933 0 0 0-1.42-.51 2.612 2.612 0 0 0-1.791.694 3.143 3.143 0 0 0-.984 1.872c-.03.19-.046.382-.047.574a1.95 1.95 0 0 0 .531 1.449 1.912 1.912 0 0 0 1.404.526Zm8.913-1.212a1.837 1.837 0 0 0-.032.382.706.706 0 0 0 .222.598c.22.13.475.188.73.167h.872l-.349 1.93h-1.175c-.835 0-1.474-.17-1.918-.51-.445-.34-.667-.897-.667-1.673.003-.31.035-.62.096-.924l.666-3.825h-1.22l.332-1.896h1.222l.38-2.183h2.252l-.38 2.183h1.934l-.332 1.896h-1.951l-.682 3.855Zm4.948-8.063a1.34 1.34 0 0 1 .46-1.036c.32-.28.733-.429 1.158-.414.307-.018.61.082.848.279a.93.93 0 0 1 .309.725 1.325 1.325 0 0 1-.452 1.028c-.319.277-.73.422-1.15.406a1.269 1.269 0 0 1-.865-.27.903.903 0 0 1-.308-.717Zm2.062 2.31-1.555 8.83h-2.235l1.554-8.829h2.236Zm13.227-.127c.909 0 1.615.247 2.117.741s.753 1.203.753 2.127c.002.32-.025.64-.079.956l-.904 5.132h-2.236l.872-4.876c.03-.179.047-.36.048-.542a1.541 1.541 0 0 0-.428-1.17 1.659 1.659 0 0 0-1.19-.407 2.302 2.302 0 0 0-1.578.566 2.832 2.832 0 0 0-.849 1.665l-.84 4.764H70.27l.872-4.876c.03-.179.046-.36.048-.542a1.541 1.541 0 0 0-.429-1.17 1.658 1.658 0 0 0-1.19-.407 2.304 2.304 0 0 0-1.593.59 2.86 2.86 0 0 0-.849 1.72v-.08l-.824 4.765h-2.252l1.554-8.828h2.236l-.286 1.658a3.504 3.504 0 0 1 1.324-1.315 3.661 3.661 0 0 1 1.832-.47 2.905 2.905 0 0 1 1.76.509c.477.357.805.88.92 1.466a4.267 4.267 0 0 1 1.491-1.442 3.796 3.796 0 0 1 1.936-.533Zm5.567-2.183a1.34 1.34 0 0 1 .46-1.036c.319-.28.733-.429 1.157-.414.308-.018.61.082.849.279a.93.93 0 0 1 .308.725 1.325 1.325 0 0 1-.452 1.028c-.318.277-.73.422-1.15.406a1.269 1.269 0 0 1-.864-.27.904.904 0 0 1-.308-.717Zm2.061 2.31-1.554 8.83h-2.236l1.554-8.829h2.236Zm4.648-.11c1.184 0 2.086.268 2.704.805a2.97 2.97 0 0 1 1.007 2.175H90.62a1.32 1.32 0 0 0-.46-1.028 1.888 1.888 0 0 0-1.252-.375 1.621 1.621 0 0 0-.976.271.856.856 0 0 0-.372.733.759.759 0 0 0 .452.701c.45.213.92.379 1.403.494.509.145 1.009.318 1.498.518.383.163.725.41 1 .725.291.352.441.801.42 1.26 0 .203-.022.405-.064.605a2.394 2.394 0 0 1-1.094 1.568c-.603.399-1.407.598-2.41.598-1.153 0-2.076-.263-2.77-.788a2.67 2.67 0 0 1-1.07-2.191h2.189a1.108 1.108 0 0 0 .452 1.02c.408.277.896.411 1.388.382.346.024.69-.078.967-.288a.922.922 0 0 0 .333-.733.765.765 0 0 0-.246-.581 1.786 1.786 0 0 0-.61-.367c-.244-.09-.593-.199-1.047-.326a13.362 13.362 0 0 1-1.46-.487 2.509 2.509 0 0 1-.95-.693 1.795 1.795 0 0 1-.397-1.211c0-.193.016-.384.047-.574a2.387 2.387 0 0 1 1.087-1.6c.608-.409 1.415-.613 2.42-.613Zm17.033-.016c.91 0 1.615.247 2.118.74.502.495.753 1.204.753 2.128.002.32-.025.64-.079.956l-.905 5.131h-2.237l.873-4.876c.03-.179.046-.36.047-.542a1.525 1.525 0 0 0-.428-1.17 1.657 1.657 0 0 0-1.189-.407 2.302 2.302 0 0 0-1.578.566 2.833 2.833 0 0 0-.849 1.665l-.84 4.764h-2.237l.873-4.876c.03-.179.046-.36.047-.542a1.525 1.525 0 0 0-.428-1.17 1.659 1.659 0 0 0-1.19-.407 2.305 2.305 0 0 0-1.593.59 2.862 2.862 0 0 0-.849 1.72v-.08l-.825 4.765h-2.252l1.554-8.828h2.236l-.286 1.658a3.504 3.504 0 0 1 1.324-1.315 3.661 3.661 0 0 1 1.832-.47 2.904 2.904 0 0 1 1.76.509c.477.357.804.88.92 1.466a4.26 4.26 0 0 1 1.491-1.442 3.794 3.794 0 0 1 1.936-.533h.001Z" fill="#000" class="fill"/><path d="M13.437 27c7.42 0 13.436-6.044 13.436-13.5S20.858 0 13.437 0 0 6.044 0 13.5 6.016 27 13.437 27Z" fill="#FF0420"/><path d="M9.516 17.08c-.7.03-1.389-.169-1.966-.567a1.937 1.937 0 0 1-.756-1.64c.003-.184.02-.367.05-.547.088-.487.212-1.071.374-1.753.457-1.856 1.636-2.785 3.538-2.785.476-.008.95.082 1.39.264.392.154.73.422.968.77.242.357.365.783.353 1.215-.004.18-.02.359-.05.536-.101.601-.222 1.185-.363 1.752-.235.926-.642 1.618-1.22 2.077-.578.452-1.35.678-2.318.678Zm.141-1.458c.35.01.69-.11.958-.334.296-.27.498-.63.574-1.023.155-.635.272-1.188.353-1.661.027-.144.04-.29.04-.436 0-.614-.319-.921-.957-.921a1.468 1.468 0 0 0-.968.334 1.9 1.9 0 0 0-.565 1.023 22.056 22.056 0 0 0-.362 1.66c-.028.14-.041.283-.04.426 0 .621.322.932.967.932ZM13.931 16.979a.212.212 0 0 1-.171-.07.245.245 0 0 1-.03-.183l1.39-6.583a.29.29 0 0 1 .11-.183.307.307 0 0 1 .192-.07h2.682a3.105 3.105 0 0 1 1.794.465 1.524 1.524 0 0 1 .686 1.348 2.437 2.437 0 0 1-.06.526 2.745 2.745 0 0 1-1.019 1.722c-.504.371-1.196.557-2.076.557h-1.361l-.464 2.218a.29.29 0 0 1-.11.182.307.307 0 0 1-.191.071H13.93ZM17.5 13.11c.264.006.522-.076.735-.233.22-.162.37-.4.424-.668.019-.1.029-.202.03-.304a.566.566 0 0 0-.171-.446.842.842 0 0 0-.585-.162h-1.21l-.383 1.813h1.16Z" fill="#fff"/></g><defs><clipPath id="clip0_211_89"><path fill="#fff" d="M0 0h109v27H0z"/></clipPath></defs></svg>