<svg class="partner-size" width="136" height="40" viewBox="0 0 136 40" fill="none" xmlns="http://www.w3.org/2000/svg"><path d="M41.912 19.183a16.559 16.559 0 0 0-9.377-14.23 9.087 9.087 0 0 1-.825 11.886 9.077 9.077 0 0 1-12.844 0c-3.202-3.203-3.516-8.205-.924-11.77-5.233 2.624-8.882 7.923-9.146 14.114a4.11 4.11 0 0 0-1.519 3.186h36.154a4.084 4.084 0 0 0-1.519-3.186Z" fill="url(#paint0_linear_517_67)"/><path d="M28.639 1.965V.66a.662.662 0 0 0-.66-.66h-5.25a.662.662 0 0 0-.66.66v1.255a9.025 9.025 0 0 1 6.57.05Z" fill="url(#paint1_linear_517_67)"/><path d="M49.918 22.352c-2.674-.016-5.662.512-8.733 1.305v-1.288H9.54v1.32c-3.12-.825-6.175-1.37-8.882-1.353a.667.667 0 0 0-.644.792c1.503 6.62 6.587 10.55 12.15 11.325C14.822 37.986 19.361 40 25.354 40c5.993 0 10.55-2.014 13.207-5.563 5.498-.842 10.5-4.755 11.986-11.309.099-.38-.215-.776-.628-.776Z" fill="url(#paint2_linear_517_67)"/><path d="M16.126 31.944a3.962 3.962 0 1 0 0-7.924 3.962 3.962 0 0 0 0 7.924Z" fill="#fff"/><path d="M16.29 30.458a2.806 2.806 0 1 0 0-5.613 2.806 2.806 0 0 0 0 5.613Z" fill="#1A1A1A"/><path d="M34.614 31.944a3.962 3.962 0 1 0 0-7.924 3.962 3.962 0 0 0 0 7.924Z" fill="#fff"/><path d="M34.449 30.458a2.806 2.806 0 1 0 0-5.613 2.806 2.806 0 0 0 0 5.613Z" fill="#1A1A1A"/><path d="M20.848 29.83c-.248 0-.396.248-.297.48a5.297 5.297 0 0 0 4.82 3.103 5.297 5.297 0 0 0 4.82-3.103c.1-.215-.049-.48-.297-.48h-9.046Z" fill="#3D661C"/><path d="M23.652 27.107h3.286a.35.35 0 0 1 .247.594 2.66 2.66 0 0 1-3.764 0 .343.343 0 0 1 .232-.594Z" fill="#9DD96C"/><path d="M28.639 1.965V.66a.662.662 0 0 0-.66-.66h-5.25a.662.662 0 0 0-.66.66v1.255a9.025 9.025 0 0 1 6.57.05Z" fill="url(#paint3_linear_517_67)"/><path d="M31.709 3.979a9.077 9.077 0 0 0-12.844 0 9.077 9.077 0 0 0 0 12.843 9.077 9.077 0 0 0 12.844 0 9.077 9.077 0 0 0 0-12.843Z" fill="#fff"/><path d="M30.538 5.15c-2.906-2.905-7.61-2.905-10.5 0-2.905 2.906-2.905 7.611 0 10.5 2.906 2.905 7.61 2.905 10.5 0a7.413 7.413 0 0 0 0-10.5Zm-2.906 7.578a3.308 3.308 0 0 1-4.672 0 3.308 3.308 0 0 1 0-4.672 3.308 3.308 0 0 1 4.672 0 3.308 3.308 0 0 1 0 4.672Z" fill="url(#paint4_radial_517_67)"/><path class="fill" d="M102.977 23.343c0 1.552.94 2.674 2.641 2.674.875 0 1.453-.165 1.964-.495.496-.33 1.156-.247 1.585.165a1.274 1.274 0 0 1-.198 1.981c-.891.578-1.898.892-3.384.892-2.84 0-5.564-1.288-5.564-6.174 0-3.93 2.13-6.142 5.25-6.142 3.351 0 5.25 2.444 5.25 5.762 0 .743-.594 1.337-1.337 1.337h-6.207Zm4.308-3.351c-.33-.71-.99-1.255-2.014-1.255-1.023 0-1.684.528-2.014 1.255-.181.445-.247.76-.28 1.287h4.572c-.016-.528-.082-.841-.264-1.287ZM132.032 27.305c-.826.925-1.717 1.271-2.988 1.271-1.172 0-2.295-.413-2.955-1.09-1.205-1.204-1.222-3.285-1.222-5.084 0-1.8.017-3.863 1.222-5.068.677-.677 1.75-1.09 2.938-1.09 1.222 0 2.146.33 2.939 1.205v-3.978c0-.825.677-1.502 1.502-1.502.826 0 1.502.677 1.502 1.502v13.817a1.14 1.14 0 0 1-1.139 1.14h-.677c-.61 0-1.122-.496-1.122-1.123Zm-2.13-8.353c-1.799 0-2.03 1.485-2.03 3.45 0 1.964.231 3.467 2.03 3.467 1.8 0 2.064-1.503 2.064-3.467 0-1.965-.248-3.45-2.064-3.45ZM66.79 11.837c-2.674 0-5.019 1.75-5.019 4.903v6.933c0 3.137 2.328 4.903 5.02 4.903 2.673 0 4.985-1.75 4.985-4.903V16.74c.016-3.153-2.295-4.903-4.986-4.903Zm-2.014 4.952c0-1.387.826-2.245 2.014-2.245 1.172 0 1.981.858 1.981 2.245v6.868c0 1.386-.809 2.212-1.98 2.212-1.173 0-2.015-.826-2.015-2.212v-6.868ZM122.639 21.23v5.86c0 .826-.677 1.503-1.502 1.503a1.508 1.508 0 0 1-1.503-1.503v-5.926a1.993 1.993 0 0 0-1.997-1.998 1.994 1.994 0 0 0-1.998 1.998v5.926c0 .826-.677 1.503-1.502 1.503a1.508 1.508 0 0 1-1.502-1.503v-5.86a5.01 5.01 0 0 1 5.002-5.002 5.01 5.01 0 0 1 5.002 5.002ZM81.928 22.419l3.037-3.038a1.515 1.515 0 0 0 0-2.146 1.515 1.515 0 0 0-2.146 0l-3.037 3.037-3.038-3.037a1.515 1.515 0 0 0-2.146 0 1.515 1.515 0 0 0 0 2.146l3.038 3.038-3.038 3.037a1.515 1.515 0 0 0 0 2.146 1.515 1.515 0 0 0 2.146 0l3.038-3.037 3.037 3.037a1.515 1.515 0 0 0 2.146 0 1.515 1.515 0 0 0 0-2.146l-3.037-3.037ZM88.135 26.76V13.586c0-.891.726-1.6 1.601-1.6.891 0 1.601.725 1.601 1.6v11.986h6.026a1.437 1.437 0 0 1 0 2.872h-7.577a1.684 1.684 0 0 1-1.651-1.684Z" fill="#1A1A1A"/><defs><linearGradient id="paint0_linear_517_67" x1="12.315" y1="10.633" x2="42.796" y2="22.738" gradientUnits="userSpaceOnUse"><stop stop-color="#FFC619"/><stop offset="1" stop-color="#FFBF00"/></linearGradient><linearGradient id="paint1_linear_517_67" x1="17.376" y1="-2.113" x2="47.857" y2="9.992" gradientUnits="userSpaceOnUse"><stop stop-color="#FFC619"/><stop offset="1" stop-color="#FFBF00"/></linearGradient><linearGradient id="paint2_linear_517_67" x1="5.686" y1="18.595" x2="35.729" y2="31.283" gradientUnits="userSpaceOnUse"><stop stop-color="#85B85B"/><stop offset="1" stop-color="#70AB3F"/></linearGradient><linearGradient id="paint3_linear_517_67" x1="22.082" y1=".981" x2="28.645" y2=".981" gradientUnits="userSpaceOnUse"><stop stop-color="#FC3"/><stop offset="1" stop-color="#FFBF00"/></linearGradient><radialGradient id="paint4_radial_517_67" cx="0" cy="0" r="1" gradientUnits="userSpaceOnUse" gradientTransform="translate(25.291 10.4) scale(7.4288)"><stop stop-color="#FFBF00"/><stop offset="1" stop-color="#FFBF00" stop-opacity=".6"/></radialGradient></defs></svg>