<svg class="partner-size" width="100" height="15" viewBox="0 0 100 15" fill="none" xmlns="http://www.w3.org/2000/svg"><g clip-path="url(#clip0_205_145)"><path class="fill" d="M75.94 11a4.11 4.11 0 0 0 1.615-.928l.428-.394.34.188c.188.103.358.188.379.188.02 0 .03-.456.022-1.014l-.016-1.015-2.003-1.09c-1.101-.6-2.022-1.09-2.047-1.09-.024-.001-.044.446-.043.992v.993l.921.498.92.497-.14.115c-.078.063-.313.199-.524.303-.352.173-.43.188-.972.188-.54 0-.622-.015-.986-.189-1.492-.712-1.847-2.597-.717-3.812.167-.18.43-.375.665-.491.366-.182.424-.193 1.038-.193.616 0 .67.01 1.044.195.271.135.492.305.711.549l.318.354H78.686l-.041-.134a4.517 4.517 0 0 0-.204-.46c-.974-1.957-3.352-2.799-5.31-1.88-.765.359-1.42.96-1.857 1.703-.368.625-.575 1.667-.485 2.446.114.991.454 1.692 1.173 2.42.673.682 1.388 1.051 2.328 1.203.363.06 1.243-.017 1.65-.143Zm23.942-.62v-.8h-1.95c-1.798 0-1.947-.008-1.912-.1.02-.054.371-.713.779-1.463l.741-1.365-.151-.3c-.084-.166-.313-.601-.51-.968l-.36-.667H100v-1.66h-6.364l.097.192c.054.106.465.877.914 1.713.45.837.831 1.56.85 1.608.018.048-.052.231-.155.407-.23.393-2.233 4.137-2.233 4.176 0 .015 1.524.028 3.386.028h3.387v-.8Zm-76.04-2.313V5.073h2.536l-.016-.994-.016-.993-3.284-.015-3.284-.016v2.018h2.474V11.062h1.59V8.067Zm7.893 1.6V8.27l.593.017.593.017.74 1.378.738 1.38h1.992l-.097-.194a136.68 136.68 0 0 0-.742-1.392c-.354-.66-.628-1.228-.608-1.26.02-.034.084-.06.14-.06.172 0 .687-.288.915-.51.117-.115.28-.341.36-.501.283-.56.335-.925.366-2.563l.03-1.527H30.144v8.006h1.59V9.666Zm-.059-3.968v-.982h3.4l.037.273c.055.4-.02 1.06-.144 1.263-.227.376-.287.39-1.862.41l-1.431.018V5.7Zm13.066 2.812c.75-1.404 1.364-2.578 1.364-2.61 0-.035-.36-.057-.913-.057-.502 0-.912-.017-.912-.037 0-.02.318-.631.706-1.357.39-.726.707-1.337.707-1.357 0-.02-.444-.037-.987-.037h-.987l-1.148 2.146c-.631 1.18-1.157 2.182-1.167 2.224-.015.062.172.078.904.078.855 0 .921.008.885.104-.021.057-.435.845-.92 1.75-.483.906-.88 1.66-.88 1.676 0 .015.447.028.992.028h.991l1.365-2.551Zm12.512 2.24c-.095-.171-1.056-1.96-2.134-3.973-1.08-2.014-1.978-3.662-1.998-3.661-.037.001-4.247 7.84-4.247 7.907 0 .021 1.924.038 4.276.038h4.275l-.172-.311Zm-5.42-1.542c.08-.139.39-.712.689-1.275.299-.562.564-1.035.59-1.05.036-.023 1.416 2.463 1.416 2.552 0 .014-.639.025-1.419.025h-1.42l.145-.252Zm10.72-.106.015-1.96 2.35 1.932a316.773 316.773 0 0 0 2.4 1.963c.028.017.05-1.74.05-3.975V3.056h-1.706l-.016 1.987-.015 1.986-2.38-1.957c-1.309-1.076-2.402-1.956-2.43-1.956-.027 0-.05 1.788-.05 3.973v3.973h1.766l.016-1.959Zm26.785 1.159V9.46h-1.92c-1.766 0-1.918-.008-1.883-.098.02-.055.434-.842.919-1.75.485-.907.882-1.677.882-1.71 0-.037-.34-.06-.913-.06-.503 0-.913-.014-.913-.031 0-.018.318-.629.706-1.357.39-.729.707-1.341.707-1.362 0-.02-.444-.037-.987-.037h-.987l-1.148 2.146c-.631 1.18-1.157 2.182-1.167 2.224-.015.062.175.078.922.078h.942l-.938 1.75a76.442 76.442 0 0 0-.937 1.78c0 .015 1.511.028 3.358.028h3.357v-.8Z" fill="#000"/><path d="M7.028 0v14.224L0 9.532 7.028 0Z" fill="url(#paint0_linear_205_145)"/><path d="M7.028 0 14.2 9.596 7.002 7.022 7.028 0Z" fill="url(#paint1_linear_205_145)"/></g><defs><linearGradient id="paint0_linear_205_145" x1="7.028" y1="14.224" x2="7.028" y2="0" gradientUnits="userSpaceOnUse"><stop stop-color="#FEB802"/><stop offset="1" stop-color="#FFFD89"/></linearGradient><linearGradient id="paint1_linear_205_145" x1="7.028" y1="0" x2="14.262" y2="9.548" gradientUnits="userSpaceOnUse"><stop stop-color="#FE7979"/><stop offset="1" stop-color="#FBD259"/></linearGradient><clipPath id="clip0_205_145"><path fill="#fff" d="M0 0h100v14.224H0z"/></clipPath></defs></svg>