<svg class="partner-size" width="59" height="59" viewBox="0 0 59 59" fill="none" xmlns="http://www.w3.org/2000/svg">
<path d="M29.5 59C45.7924 59 59 45.7924 59 29.5C59 13.2076 45.7924 0 29.5 0C13.2076 0 0 13.2076 0 29.5C0 45.7924 13.2076 59 29.5 59Z" fill="url(#paint0_radial_533_74)"/>
<path d="M29.7497 24.1562C29.1236 23.5764 27.8822 22.7769 25.7287 22.7872C23.5751 22.7978 23.9268 23.9279 23.9268 23.9279C23.9268 23.9279 23.883 24.8498 25.2896 24.8786C26.6962 24.9073 28.2042 24.964 29.4277 25.4303C30.6511 25.8965 30.3763 24.735 29.7497 24.1562Z" fill="#1F1C1C"/>
<path d="M24.6597 26.2623C24.5302 26.3417 24.4972 26.5653 24.6473 26.5934C25.4978 26.7512 26.8432 27.0381 28.3442 26.7916C28.4861 26.7683 28.465 26.5707 28.362 26.4687C27.8298 25.9385 26.3997 25.1952 24.6597 26.2623Z" fill="#1F1C1C"/>
<path d="M42.3543 41.091C42.3347 41.0627 42.3077 41.0404 42.2765 41.0267C42.2452 41.0131 42.2109 41.0085 42.1773 41.0135C42.1435 41.0184 42.1119 41.0328 42.0858 41.0549C42.0596 41.0771 42.04 41.1063 42.0292 41.139C41.1537 43.7874 40.4371 43.1386 40.1059 42.5691C39.9908 42.3681 39.905 42.1509 39.8511 41.9248C39.0159 38.5414 39.7806 35.4249 39.7806 35.4249C40.2354 36.8651 41.428 37.2922 42.0389 37.4168C42.0737 37.424 42.1097 37.4212 42.1427 37.4082C42.1759 37.3953 42.2047 37.3732 42.2259 37.3441C42.247 37.3153 42.2597 37.2807 42.2623 37.2448C42.2648 37.2088 42.2574 37.1727 42.2404 37.141C39.8999 32.4718 41.2837 30.4933 41.2837 30.4933C41.6865 30.949 42.3505 30.9898 42.7691 30.9662C42.8041 30.9642 42.8381 30.9519 42.867 30.9312C42.8957 30.9103 42.918 30.8817 42.9315 30.8486C42.9449 30.8152 42.9489 30.7789 42.943 30.7435C42.9371 30.7081 42.9215 30.6751 42.8981 30.6483C41.2019 28.7426 41.0729 28.096 41.0067 24.868C40.9705 23.0792 40.3531 22.1386 39.779 21.6485C39.1221 21.0885 38.5979 20.3751 38.3111 19.5518C36.0225 13.0046 31.7408 12.1395 27.7676 12.3844C22.8349 12.689 20.2086 16.5315 18.9618 18.4461C17.643 20.4705 16.6153 23.4638 16.6847 24.3798C16.754 25.2957 17.5845 25.1522 17.5845 26.211C17.5845 27.27 15.9767 28.1505 16.6088 31.1273C16.8878 32.4388 18.0181 33.4221 17.5097 36.4182C16.6006 41.8028 20.6557 48.3456 21.6662 49.3216C21.7887 49.4391 22.0039 49.3443 21.9816 49.1743C21.8239 47.9726 22.0548 46.3051 22.0548 46.3051C24.0865 50.7375 29.7704 49.9153 31.5506 49.5351C31.5882 49.5273 31.6227 49.5077 31.649 49.479C31.6755 49.4505 31.6924 49.4143 31.6978 49.3755C31.7032 49.3366 31.6967 49.2971 31.6791 49.2621C31.6616 49.2272 31.634 49.1987 31.5999 49.1803C29.8025 48.2087 29.3915 46.2345 29.3915 46.2345C31.1803 47.0964 32.3262 46.9519 32.8786 46.7671C32.9122 46.7556 32.9419 46.7347 32.9644 46.7068C32.9867 46.6789 33.0009 46.6451 33.005 46.6094C33.0093 46.5735 33.0036 46.5373 32.9883 46.5048C32.9731 46.4722 32.9492 46.4446 32.9192 46.4255C32.3804 46.0811 31.5592 44.6598 30.9381 43.2689C30.683 42.6948 30.5926 42.0592 30.6771 41.4352C30.7618 40.8111 31.0179 40.2241 31.4162 39.7419C32.143 38.8592 33.0966 37.627 34.1806 36.3177C34.4072 36.0418 34.7227 36.3112 34.842 36.6101C36.4258 40.6462 38.4861 43.6887 39.9064 44.5275C40.9362 45.1746 42.0642 45.291 42.5712 44.8839C43.9685 43.7621 42.8606 41.827 42.3543 41.091ZM25.2079 37.3346C23.5091 37.4389 23.8962 35.1916 22.6483 35.2468C21.3117 35.3074 21.7123 37.0212 20.8156 37.1255C19.9192 37.2298 20.0238 34.6089 20.653 34.3048C21.6445 33.8271 22.8055 33.7123 23.7352 33.7455C24.8366 33.784 25.8888 33.7404 26.3825 34.8186C26.9674 36.0903 26.9062 37.2332 25.2079 37.3346ZM35.9511 21.2749C33.6923 22.6412 33.5595 23.3165 33.2358 25.7189C33.1643 26.2469 33.0916 26.8649 33.3291 27.2142C33.8652 28.0027 34.8847 28.5865 34.6051 29.9178C33.9384 33.0866 32.1805 36.8017 29.8225 37.9625C29.5384 38.102 29.2132 37.8196 29.1471 37.5061C28.8841 36.2504 28.2587 33.9673 28.0895 33.2218C27.2498 28.9516 23.2483 28.8926 23.1362 29.7092C23.1031 29.9521 23.9466 30.2721 24.4821 30.4497C24.9739 30.6153 24.9906 31.3292 24.5011 31.498C24.3727 31.5395 24.2391 31.5615 24.1043 31.5631C23.115 31.4942 21.8603 31.5725 21.2943 31.6144C21.1049 31.6289 20.9171 31.5711 20.7673 31.4521C20.6174 31.3331 20.5167 31.1617 20.4844 30.9712C20.2633 29.6639 20.6541 29.1956 21.1267 27.954C21.3621 27.3361 21.664 26.0903 21.7686 25.4513C21.8228 25.1087 21.7995 24.6971 21.7643 24.3885C21.7215 24.024 21.7046 23.6566 21.7139 23.2895C21.7475 22.1049 21.863 21.1376 22.7492 21.1376C24.3456 21.1376 27.7236 21.1426 28.2587 20.3437C28.8197 19.5072 25.6887 20.3182 22.3243 20.2078C22.2584 20.2056 22.1956 20.1791 22.1476 20.1332C22.0998 20.0873 22.0698 20.0252 22.0634 19.9584C22.0634 19.9375 22.0597 19.9171 22.0575 19.8961C22.0524 19.8363 22.0596 19.7762 22.0784 19.7192C22.0972 19.6625 22.1274 19.61 22.1669 19.5657C22.2064 19.5212 22.2546 19.4855 22.3083 19.4608C22.3621 19.436 22.4203 19.423 22.4793 19.4222C24.2762 19.3995 25.6433 19.2726 26.0025 18.7397C26.368 18.1945 24.5521 18.4389 22.4939 18.4582C22.2304 18.4582 22.0125 18.4544 22.0261 18.1868V18.1779C22.0317 18.0717 22.0754 17.9714 22.1489 17.8958C22.2224 17.8204 22.3208 17.7751 22.4251 17.7686C23.636 17.6874 24.152 17.5936 24.203 17.1996C24.2539 16.8058 24.0783 16.8455 22.7394 16.9238C22.4483 16.9403 22.5317 16.7158 22.6971 16.4703C23.115 15.844 24.9836 14.0375 29.1179 14.1694C36.2003 14.3989 35.9764 19.5049 36.1933 20.7454C36.2108 20.8482 36.1969 20.9541 36.1537 21.0488C36.1104 21.1435 36.0397 21.2225 35.9511 21.2749Z" fill="#1F1C1C"/>
<defs>
<radialGradient id="paint0_radial_533_74" cx="0" cy="0" r="1" gradientUnits="userSpaceOnUse" gradientTransform="translate(29.5 29.5) rotate(90) scale(34.9884)">
<stop stop-color="#F0C0BF"/>
<stop offset="1" stop-color="#EC6F6F"/>
</radialGradient>
</defs>
</svg>
