<svg class="partner-size" width="100" height="20" viewBox="0 0 100 20" fill="none" xmlns="http://www.w3.org/2000/svg"><g clip-path="url(#clip0_205_79)"><path d="M15.43 0c-2.317 0-4.208 1.886-4.269 4.198v4.684c-.427 0-.854.061-1.342.061-.487 0-.914 0-1.341.06V4.199C8.478 1.886 6.526 0 4.148.06 1.89.06.06 1.947 0 4.198v11.194c.061 2.312 1.952 4.198 4.33 4.137 2.318-.061 4.148-1.886 4.148-4.137v-4.685c.427 0 .854-.06 1.341-.06.488 0 .915 0 1.342-.061v4.745c.061 2.312 1.952 4.198 4.33 4.137 2.318-.061 4.148-1.886 4.148-4.137V4.198C19.639 1.886 17.749 0 15.43 0ZM4.27 1.703a2.47 2.47 0 0 1 2.5 2.495v4.928c-1.22.182-2.44.547-3.598 1.034-.488.243-.976.486-1.403.852V4.198a2.509 2.509 0 0 1 2.5-2.495Zm2.5 13.689a2.47 2.47 0 0 1-2.5 2.494 2.47 2.47 0 0 1-2.501-2.494v-1.095c0-.974.793-1.947 2.134-2.495.915-.425 1.891-.669 2.928-.851l-.061 4.44Zm8.66 2.494a2.47 2.47 0 0 1-2.5-2.494v-4.928c1.22-.183 2.44-.548 3.598-1.034.488-.244.976-.487 1.403-.852v6.814c0 1.399-1.159 2.494-2.5 2.494Zm.367-10.038c-.915.426-1.891.67-2.928.852V4.198a2.47 2.47 0 0 1 2.5-2.495 2.47 2.47 0 0 1 2.501 2.495v1.095c.061 1.034-.732 1.947-2.074 2.555Z" fill="url(#paint0_linear_205_79)"/><path class="fill" d="M76.36 6.753c-2.623 0-4.818 2.129-4.757 4.806 0 2.616 2.135 4.806 4.818 4.745 2.622 0 4.757-2.13 4.757-4.806 0-2.555-2.135-4.745-4.818-4.745Zm3.232 4.806c0 1.764-1.463 3.224-3.232 3.224-1.769 0-3.233-1.46-3.233-3.224 0-1.765 1.464-3.225 3.233-3.225a3.21 3.21 0 0 1 3.232 3.225ZM47.572 6.814a.806.806 0 0 0-.793.79v.427c-1.952-1.765-5.002-1.643-6.77.304-1.769 1.947-1.647 4.989.305 6.753a4.728 4.728 0 0 0 6.465 0v.426c0 .426.304.79.731.79s.793-.304.793-.73v-7.97c.061-.425-.305-.79-.731-.79Zm-.793 4.745c0 1.765-1.464 3.225-3.233 3.225-1.769 0-3.232-1.46-3.232-3.225 0-1.764 1.463-3.224 3.232-3.224a3.21 3.21 0 0 1 3.233 3.224ZM55.93 7.543c0 .426-.367.791-.794.791h-.122c-1.768 0-3.232 1.46-3.232 3.225-.061.182 0 2.616 0 4.076-.061.426-.427.73-.854.669a.843.843 0 0 1-.67-.79v-7.91c0-.426.365-.79.792-.79h.061c.427.06.732.364.732.79v.426a4.791 4.791 0 0 1 3.232-1.277h.122c.366 0 .732.365.732.79ZM90.388 10.768v4.745c0 .426-.366.791-.794.791a.806.806 0 0 1-.792-.79v-4.746a2.444 2.444 0 0 0-2.44-2.434h-.183c-1.28.061-2.257 1.217-2.257 2.495v4.623c0 .426-.366.791-.792.791a.806.806 0 0 1-.793-.79V7.603c0-.425.366-.79.793-.79.426 0 .792.365.792.79v.061c.61-.486 1.403-.79 2.257-.851 2.195-.122 4.087 1.581 4.147 3.771.061.061.062.122.062.183ZM37.265 4.015v11.56c0 .425-.366.79-.793.79a.806.806 0 0 1-.793-.79v-5.233h-7.928v5.232c0 .426-.366.791-.793.791-.427 0-.732-.365-.732-.79V4.014c0-.426.366-.79.793-.79.427 0 .793.364.793.79v5.05h7.99v-5.05c0-.426.365-.79.792-.79.305.06.671.364.671.79ZM70.444 11.133v4.38c0 .426-.366.791-.792.791a.806.806 0 0 1-.793-.79v-4.989c0-1.217-.916-2.19-2.135-2.19-1.22 0-2.196.912-2.196 2.129V15.635c0 .426-.305.79-.732.79s-.793-.303-.793-.73V10.526c0-1.217-.914-2.19-2.134-2.19-1.22 0-2.196.912-2.196 2.129V15.635c0 .426-.305.79-.732.79s-.793-.303-.793-.73V7.727c0-.426.366-.79.793-.79.366 0 .732.303.793.668 1.647-1.155 3.904-.851 5.123.73 1.22-1.642 3.599-1.946 5.185-.669.914.73 1.463 1.825 1.463 2.981l-.061.487ZM99.902 7.909l-5.245 11.316c-.244.365-.732.486-1.098.243-.305-.183-.488-.548-.366-.913l1.403-3.041-3.477-7.605c-.243-.365-.122-.852.244-1.095.366-.244.854-.122 1.098.243 0 .061.061.122.061.122l2.989 6.388 2.988-6.388c.122-.426.61-.609.976-.487.427.122.61.609.488.974 0 .182-.06.243-.06.243Z" fill="#333"/></g><defs><linearGradient id="paint0_linear_205_79" x1="9.819" y1="0" x2="-3.687" y2="13.54" gradientUnits="userSpaceOnUse"><stop stop-color="#00E8A2"/><stop offset="1" stop-color="#00ADE8"/></linearGradient><clipPath id="clip0_205_79"><path fill="#fff" d="M0 0h100v19.595H0z"/></clipPath></defs></svg>