<svg width="100" height="25" fill="none" viewBox="0 0 100 25" xmlns="http://www.w3.org/2000/svg"><g clip-path="url(#clip0_205_63)"><path class="fill" fill-rule="evenodd" clip-rule="evenodd" d="m17.328 17.064-2.309-2.342-5.195 5.272L6.93 17.06l5.196-5.271-2.31-2.345-7.533 7.641 7.512 7.62 7.532-7.64Z" fill="#191919"/><path fill-rule="evenodd" clip-rule="evenodd" d="M19.657 9.957 9.842 0 0 9.985l.031 4.667 9.77-9.911 9.838 9.984.018-4.768Z" fill="#38A1DB"/><path class="fill" fill-rule="evenodd" clip-rule="evenodd" d="m32.586 6.302-1.19-.309-1.045-.192-1.17-.105-.63-.014-.537.017-.987.142-.871.294-.743.506-.61.734-.472 1.01-.32 1.304-.158 1.665-.02.972.02 1.005.059.909.236 1.524.384 1.16.524.86 1.049.814.87.276.997.134.544.016.65-.008 1.17-.062 1.008-.131 1.242-.313v-2.02l-.274.035-.316.031-1.203.081-1.076.027-.625.004-.503-.021-1.14-.316-.668-.85-.234-.947-.114-1.356-.014-.833.008-.651.07-1.108.254-1.205.625-.93 1.035-.368.68-.045.549.007 1.03.054.933.091.983.15V6.302ZM44.54 12.38l-.022-1.005-.063-.904-.249-1.51-.31-.923-.685-1.115-.747-.598-.511-.242v6.297l-.009.641-.07 1.1-.244 1.196-.63.943-1.065.368-.707.04-.385-.01-.944-.15-.838-.637-.373-.902-.173-1.367-.03-1.222.008-.666.07-1.125.258-1.221.651-.935 1.048-.355.708-.04.369.01.924.15.838.62.374.904.185 1.395.035 1.263V6.083l-.921-.251-1.16-.134-.644-.016-.643.016-1.162.134-.99.276-.83.488-.67.72-.507 1.018-.34 1.331-.166 1.71-.02 1.005.02 1.004.062.905.25 1.51.428 1.16.584.86.747.585.913.372 1.08.186 1.244.062.635-.016 1.153-.123 1.003-.268.838-.48.665-.71.498-1.01.332-1.324.166-1.709.021-1.004ZM56.614 5.806H54.03v8.647l-5.415-8.647h-2.08v13.111h2.603v-8.645l5.398 8.645h2.08V5.806ZM67.29 6.037l-1-.09-1.56-.077-.997-.035-.922-.018-1.11-.011-.342.016-1.022.25-.894.601-.582 1.087-.113 1.04v10.117h2.586v-5.032l5.118-.141V11.67l-5.118-.142v-2.25l.417-.876.665-.17h4.874V6.038ZM76.76 16.544h-4.088l-.242-.016-.833-.583-.079-.553V5.806h-2.585v10.01l.047.781.386 1.197.767.724 1.144.355.714.044h4.77v-2.373ZM87.95 5.806h-2.604v8.876l-.04.501-.606 1.023-1.255.416-.544.028-.553-.028-.908-.221-.84-.796-.162-.923V5.806h-2.586V14.7l.022.627.184 1.08.371.85.855.916 1.166.542.914.19 1.005.09.532.011.523-.011.997-.09.92-.19 1.159-.542.854-.917.379-.848.193-1.08.023-.628V5.806ZM100 5.806h-2.847l-2.516 4.483-2.76-4.483H89.01l4.018 6.539-3.965 6.572h2.865l2.464-4.376 2.69 4.376h2.865l-3.965-6.43L100 5.805Z" fill="#191919"/></g><defs><clipPath id="clip0_205_63"><path fill="#fff" d="M0 0h100v24.706H0z"/></clipPath></defs></svg>