<svg class="partner-size" width="100" height="33" viewBox="0 0 100 33" fill="none" xmlns="http://www.w3.org/2000/svg"><g fill="#41E6AF" clip-path="url(#clip0_205_89)"><path d="m35.275 18.929-1 1.657-5.475 9.1h-.025l-.175.322h-2L18.825 16.48l7.9-13.453h2l.05.075L35.3 14.156h-4.025L27.8 8.048l-4.95 8.457 4.85 8.458 3.525-6.01 4.05-.024ZM4.85 21.13l3.65 6.157-1.225 1.954-.85 1.385L.175 19.72 0 19.423l1-1.73h15.725L24.65 31.12 23.55 33l-11-.025h-.175l-1.75.025.925-1.731.925-1.731 7.2.024-4.95-8.432H4.85Z"/><path d="M12.625 28.252c-.275 0-.575-.05-.875-.148a4.629 4.629 0 0 1-.95-.421c-.85-.52-1.45-1.261-1.55-1.954-.05-.321.025-.593.2-.791.025-.05.075-.074.1-.124.025-.024.05-.024.075-.05l.05-.049c.05-.024.075-.049.125-.074.525-.247 1.35-.198 2.15.173l.025.025c.075.025.15.074.225.099.075.025.125.074.2.124l.225.148c.075.05.125.099.2.148l.05.025c.05.05.1.074.15.124l.05.05c.05.024.075.074.1.098.025.025.05.05.075.1.025.049.075.073.1.123l.05.05c.025.049.075.073.1.123l.05.05c.025.049.05.073.075.123v.025l.025.05c.05.049.075.123.1.172.025.05.05.124.075.173l.025.025c0 .025.025.05.025.05 0 .024 0 .024.025.049 0 .05.025.074.025.124s.025.05.025.074v.494c0 .05-.025.075-.05.124-.025.05-.05.074-.075.124-.175.37-.65.544-1.2.544Z"/><path d="M14.45 26.447c0-.05-.025-.075-.05-.124 0-.025 0-.025-.025-.05a.736.736 0 0 0-.1-.197c-.275-.52-.725-1.014-1.275-1.41l-.225-.148a1.014 1.014 0 0 0-.225-.124h-.025c-.025-.025-.05-.025-.075-.05-.05-.024-.075-.049-.125-.074H12.3c-.025 0-.05-.024-.075-.024a.358.358 0 0 0-.15-.05l-.05-.025H12c-.025 0-.05-.024-.075-.024-.05-.025-.1-.025-.15-.05l-.05-.024H11.7c-.05-.025-.1-.025-.15-.05-.025 0-.05-.025-.1-.025h-.025c-.05 0-.1-.024-.125-.024-.025 0-.075 0-.1-.025h-.025c-.025 0-.05 0-.075-.025h-.075c-.075 0-.175-.025-.25-.025h-.325c-.05 0-.1 0-.15.025-.025 0-.05 0-.075.025-.05 0-.1.025-.15.025-.025 0-.05.024-.075.024l1.375-2.2 2.95.024 1.525 2.67-1.375 2.227c0-.025 0-.05-.025-.075v-.049c0-.025-.025-.05-.025-.099.025-.025.025-.05.025-.05ZM30.125 18.41c.15-.223.25-.495.325-.817.075-.321.125-.667.125-1.014 0-.989-.325-1.88-.875-2.324-.25-.198-.525-.297-.8-.248-.05 0-.1.025-.15.025-.025 0-.05.025-.075.025-.025 0-.05.025-.075.025-.05.024-.1.05-.125.074-.5.321-.875 1.038-.975 1.904v.025c0 .074-.025.148-.025.247v.495c0 .074 0 .148.025.222v.05c0 .05.025.123.025.173v.074c0 .05.025.099.025.148 0 .05.025.075.025.124.025.05.025.099.05.148 0 .025.025.05.025.075.025.05.025.098.05.148l.025.074c.025.05.05.074.05.124v.024l.025.05c.025.074.075.124.1.173.025.05.075.099.1.148l.025.025.05.05c.025.024.025.024.025.05a52.191 52.191 0 0 0 .125.123l.05.05.075.073.05.025c.025.025.075.05.1.074.025 0 .025 0 .05.025.025 0 .05.025.05.025s.025 0 .025.024h.025c.05 0 .075.025.125.025h.15c.525.025.9-.272 1.2-.742Z"/><path d="M27.6 19.003c-.025-.025-.05-.074-.075-.1 0-.024-.025-.024-.025-.048-.05-.05-.075-.124-.125-.174-.325-.494-.5-1.137-.55-1.805v-.643c0-.05 0-.099.025-.148v-.099c0-.05.025-.1.025-.149V15.763c0-.024 0-.05.025-.074 0-.05.025-.099.025-.148l.025-.05v-.024c0-.05.025-.1.05-.149 0-.025.025-.05.025-.074v-.025c.025-.05.025-.074.05-.123 0-.025.025-.05.05-.1v-.024c0-.025.025-.05.025-.074.025-.025.025-.05.025-.05a.997.997 0 0 1 .125-.222l.025-.025c.05-.074.075-.124.125-.173 0-.025.025-.025.025-.05l.025-.024c.025-.05.075-.075.1-.124.025-.025.025-.05.05-.05a.435.435 0 0 0 .1-.123c.025-.025.05-.025.05-.05h-2.625l-1.525 2.498 1.5 2.671h2.625l-.05-.05-.025-.024-.1-.1s.025 0 0 0ZM12.625 4.783c-.275 0-.575.05-.875.149-.325.098-.65.247-.95.42-.85.52-1.45 1.261-1.55 1.954-.05.321.025.593.2.791.025.05.075.074.1.124.025.024.05.024.075.05l.05.049c.05.024.075.049.125.074.525.247 1.35.198 2.15-.173l.025-.025c.075-.025.15-.074.225-.099.075-.025.125-.074.2-.124l.225-.148c.075-.05.125-.099.2-.148l.05-.025c.05-.05.1-.074.15-.124l.05-.05c.05-.024.075-.073.1-.098a.342.342 0 0 0 .075-.1c.025-.049.075-.073.1-.123l.05-.05c.025-.049.075-.073.1-.123l.05-.05c.025-.049.05-.074.075-.123v-.025l.025-.05c.05-.049.075-.123.1-.172.025-.05.05-.124.075-.173l.025-.025c0-.025.025-.05.025-.05 0-.024 0-.024.025-.049 0-.05.025-.074.025-.124s.025-.05.025-.074v-.494c0-.05-.025-.075-.05-.124-.025-.05-.05-.074-.075-.124-.175-.37-.65-.569-1.2-.544Z"/><path d="M14.45 6.588c0 .05-.025.075-.05.124 0 .025 0 .025-.025.05a.737.737 0 0 1-.1.197C14 7.48 13.55 7.973 13 8.37l-.225.148c-.075.05-.15.1-.225.124h-.025c-.025.025-.05.025-.075.05-.05.024-.075.049-.125.074H12.3c-.025 0-.05.024-.075.024-.05.025-.1.05-.15.05l-.05.025H12c-.025 0-.05.024-.075.024-.05.025-.1.025-.15.05l-.05.025H11.7c-.05.024-.1.024-.15.049-.025 0-.05.025-.1.025h-.025c-.05 0-.1.024-.125.024-.025 0-.075 0-.1.025h-.025c-.025 0-.05 0-.075.025h-.075c-.075 0-.175.025-.25.025h-.325c-.05 0-.1 0-.15-.025-.025 0-.05 0-.075-.025-.05 0-.1-.025-.15-.025-.025 0-.05-.024-.075-.024l1.375 2.2 2.95-.024 1.525-2.67-1.375-2.227c0 .025 0 .05-.025.075v.05c0 .024-.025.049-.025.098.025.025.025.05.025.05Z"/><path d="m19.675 3.472-7.2.025-1.1-2.052-.75-1.41L12.55.06V.035l11-.025 1.1 1.88-7.925 13.428L1 15.343l-1-1.731.2-.322H.175l6.25-10.88L8.5 5.747 4.85 11.88h9.875l4.95-8.409ZM68.625 16.505c0 .965 0 1.78.05 2.424.025.643.075 1.162.15 1.582.3 1.756 1.65 2.77 3.375 2.77 1.125 0 2.15-.42 2.8-1.36.275-.42.5-.89.625-1.434.025-.05.05-.074.125-.074h3.875c.05 0 .075.049.075.098-.425 2.374-1.7 4.526-3.975 5.565-1.05.494-2.225.741-3.55.741-2.2 0-4.025-.741-5.525-2.225a6.033 6.033 0 0 1-1.675-3.042c-.225-1.137-.35-2.82-.35-5.045 0-2.226.125-3.907.35-5.045.225-1.187.825-2.2 1.675-3.042 1.5-1.483 3.35-2.225 5.525-2.225 1.325 0 2.5.247 3.55.742 2.275 1.063 3.55 3.19 3.975 5.564 0 .05 0 .099-.075.099H75.75c-.075 0-.1-.025-.125-.074A5.002 5.002 0 0 0 75 11.089c-.65-.94-1.675-1.36-2.8-1.36-1.725 0-3.075 1.039-3.375 2.77-.075.396-.125.94-.15 1.583-.05.643-.05 1.459-.05 2.423ZM88.925 16.505c0 .965 0 1.78.05 2.424.025.643.075 1.162.15 1.582.3 1.756 1.65 2.77 3.375 2.77 1.125 0 2.15-.42 2.8-1.36.275-.42.5-.89.625-1.434.025-.05.05-.074.125-.074h3.875c.05 0 .075.049.075.098-.425 2.374-1.7 4.526-3.975 5.565-1.05.494-2.225.741-3.55.741-2.2 0-4.025-.741-5.525-2.225a6.033 6.033 0 0 1-1.675-3.042c-.225-1.137-.35-2.82-.35-5.045 0-2.226.125-3.907.35-5.045.225-1.187.825-2.2 1.675-3.042 1.5-1.483 3.35-2.225 5.525-2.225 1.325 0 2.5.247 3.55.742 2.275 1.063 3.55 3.19 3.975 5.564 0 .05 0 .099-.075.099H96.05c-.075 0-.1-.025-.125-.074a5.002 5.002 0 0 0-.625-1.435c-.65-.94-1.675-1.36-2.8-1.36-1.725 0-3.075 1.039-3.375 2.77-.075.396-.125.94-.15 1.583a61.33 61.33 0 0 0-.05 2.423ZM47.625 26.298a.34.34 0 0 1-.35.346h-3.3a.34.34 0 0 1-.35-.346V6.712a.34.34 0 0 1 .35-.346h3.3c.2 0 .35.148.35.346v5.737l2.65 3.141 5.45-9.125c.05-.074.1-.1.2-.1h4c.175 0 .225.125.125.273l-7.125 11.944 6.525 7.74c.125.15.075.298-.125.298H54.95c-.075 0-.1-.025-.125-.075l-7.175-8.531v8.284h-.025Z"/></g><defs><clipPath id="clip0_205_89"><path fill="#fff" transform="matrix(1 0 0 -1 0 33)" d="M0 0h100v32.99H0z"/></clipPath></defs></svg>