<svg class="partner-size" width="85" height="19" viewBox="0 0 85 19" fill="none" xmlns="http://www.w3.org/2000/svg"><path d="M16.125 5.645a1.227 1.227 0 0 0-1.225 0l-2.812 1.674-1.91 1.092-2.811 1.675a1.227 1.227 0 0 1-1.226 0l-2.234-1.31a1.258 1.258 0 0 1-.613-1.056V5.135a1.183 1.183 0 0 1 .613-1.056l2.198-1.274a1.227 1.227 0 0 1 1.226 0l2.198 1.274a1.258 1.258 0 0 1 .613 1.056V6.81l1.91-1.13V4.007a1.183 1.183 0 0 0-.612-1.056L7.367.547a1.227 1.227 0 0 0-1.226 0L1.997 2.95a1.182 1.182 0 0 0-.613 1.056v4.842a1.182 1.182 0 0 0 .613 1.056l4.144 2.403a1.227 1.227 0 0 0 1.226 0l2.811-1.638 1.91-1.129L14.9 7.902a1.227 1.227 0 0 1 1.225 0l2.199 1.274a1.258 1.258 0 0 1 .612 1.056v2.585a1.183 1.183 0 0 1-.612 1.056l-2.199 1.31a1.227 1.227 0 0 1-1.225 0L12.7 13.91a1.258 1.258 0 0 1-.613-1.056v-1.675l-1.91 1.129v1.675a1.183 1.183 0 0 0 .613 1.056l4.145 2.403a1.228 1.228 0 0 0 1.225 0l4.145-2.403a1.257 1.257 0 0 0 .613-1.056V9.14a1.183 1.183 0 0 0-.613-1.056l-4.181-2.44Z" fill="#7B3FE4"/><path class="fill" d="M28.53 16.054v-4.02a2.733 2.733 0 0 0 2.165.855c2.36 0 3.956-1.662 3.956-4.197s-1.466-4.198-3.76-4.198a2.875 2.875 0 0 0-2.361 1.017v-.888h-2.263v11.43h2.263Zm1.888-5.102c-1.22 0-2.018-.904-2.018-2.26 0-1.372.797-2.277 2.018-2.277 1.188 0 2.002.905 2.002 2.277 0 1.356-.814 2.26-2.002 2.26ZM39.789 12.89a4.199 4.199 0 1 0-4.33-4.198 4.123 4.123 0 0 0 4.33 4.197Zm0-1.938c-1.221 0-2.051-.92-2.051-2.26 0-1.356.83-2.277 2.05-2.277 1.222 0 2.052.92 2.052 2.277 0 1.34-.83 2.26-2.051 2.26ZM47.75 12.76V1.088h-2.263V12.76h2.263ZM54.552 4.623l-1.71 5.247-1.725-5.247h-2.312l2.98 8.073-1.205 3.358h2.165l1.156-3.326 2.978-8.105h-2.327ZM63.234 5.43a2.866 2.866 0 0 0-2.263-.936c-2.393 0-3.841 1.663-3.841 4.198 0 2.534 1.448 4.197 3.874 4.197a2.738 2.738 0 0 0 2.247-.952v1.065a1.2 1.2 0 0 1-1.189 1.292h-3.776v1.76h4.134c1.856 0 3.093-1.114 3.093-2.81v-8.62h-2.279v.807Zm-1.872 5.522c-1.204 0-2.002-.888-2.002-2.26 0-1.372.798-2.277 2.002-2.277 1.221 0 2.019.905 2.019 2.277s-.798 2.26-2.019 2.26ZM71.218 12.89a4.2 4.2 0 1 0-4.33-4.198 4.124 4.124 0 0 0 4.33 4.197Zm0-1.938c-1.221 0-2.051-.92-2.051-2.26 0-1.356.83-2.277 2.05-2.277 1.222 0 2.052.92 2.052 2.277 0 1.34-.83 2.26-2.051 2.26ZM79.065 12.76V8.304a1.687 1.687 0 0 1 1.693-1.808 1.569 1.569 0 0 1 1.58 1.695v4.57h2.278V7.69c0-1.873-1.205-3.197-3.06-3.197a2.758 2.758 0 0 0-2.491 1.26v-1.13h-2.279v8.136h2.279Z" fill="#000"/></svg>