<svg class="partner-size" width="87" height="66" viewBox="0 0 87 66" fill="none" xmlns="http://www.w3.org/2000/svg"><path class="fill" d="M50.21 39.347c.152.605.533.836 1.033.946.848.176 1.675.011 2.48-.22 1.935-.561 3.697-1.529 5.448-2.508a2.717 2.717 0 0 0 1.294-1.452c.402-.99.892-1.958 1.37-2.992a9.136 9.136 0 0 1-.663-.044 6.84 6.84 0 0 1-.946-.066c-.413-.077-.729-.297-.827-.748-.087-.429.12-.748.446-.968.218-.165.479-.264.74-.297.51-.066 1.044-.055 1.555-.077.282-.011.533 0 .826 0 .38-.715.75-1.43 1.153-2.112 1.088-1.837 2.349-3.498 4.089-4.741a6.8 6.8 0 0 1 3.556-1.265c1.207-.088 2.088.506 2.501 1.683.348.99.261 2.002-.021 2.992-.196.715-1.186 1.056-1.806.671-.326-.209-.315-.506-.315-.836.033-.33.022-.671-.022-1.012-.12-.583-.457-.858-1.033-.737a2.814 2.814 0 0 0-1.087.462c-1.403.946-2.382 2.299-3.23 3.74-.196.341-.36.704-.598 1.166h1.022c1.381.022 2.751.033 4.132.066.163 0 .327.022.49.066.38.11.696.297.74.748a.97.97 0 0 1-.577 1.034 3.273 3.273 0 0 1-1.033.22c-1.74.055-3.47.077-5.199.099h-.695c-.185.363-.381.704-.544 1.056-1.838 3.894-3.665 7.777-5.514 11.671-.196.396-.435.77-.718 1.111-.37.44-.87.737-1.435.836-.968.187-1.544-.451-1.186-1.364.381-.957.849-1.892 1.273-2.827.446-.99.913-1.991 1.435-3.113-.554.297-.99.539-1.413.77-1.512.803-3.121 1.452-4.818 1.727a8.079 8.079 0 0 1-2.186.066c-1.283-.154-2.23-.902-2.85-2.046-.119-.198-.217-.396-.347-.638-.402.231-.772.462-1.153.66-1.653.924-3.382 1.65-5.252 1.958a7.212 7.212 0 0 1-2.121.077c-1.762-.242-2.806-1.375-3.339-3.036-.49-1.474-.26-2.893.413-4.235 1.306-2.574 3.274-4.4 6.069-5.203a7.509 7.509 0 0 1 2.62-.231c1.447.121 2.328 1.177 2.23 2.662a3.84 3.84 0 0 1-1.033 2.387c-1.12 1.232-2.545 2.035-4.013 2.75-.88.418-1.805.792-2.73 1.188.066.561.457.803.947.935.695.176 1.37.077 2.044-.077 1.784-.418 3.415-1.221 5.024-2.134.055-.242.076-.495.142-.737.815-3.399 4.447-7.106 8.797-7.018 2.578.055 3.035 2.178 2.458 3.696a4.995 4.995 0 0 1-1.392 1.925c-1.185 1.056-2.534 1.782-3.947 2.42-.74.308-1.48.594-2.284.946Zm-.163-2.134a35.916 35.916 0 0 0 4.556-2.893c.174-.143.327-.33.425-.539.348-.66.076-1.122-.664-1.122-.848 0-1.566.374-2.186.946-1.055.979-1.685 2.233-2.131 3.608Zm-11.897.033c.097-.022.195-.055.293-.088 1.37-.88 2.752-1.749 4.11-2.651.273-.198.49-.451.653-.748.348-.638.076-1.089-.641-1.1a3.04 3.04 0 0 0-2.056.803c-1.142.979-1.75 2.299-2.36 3.784ZM23.436 34.309a1.17 1.17 0 0 0-.044.187c.37 1.837 1.044 3.52 2.295 4.917a2.212 2.212 0 0 0 1.718.77c1.98.011 3.589-.814 4.905-2.266.217-.253.445-.495.696-.715.315-.242.696-.319 1.054-.088.36.231.414.561.37.946a2.535 2.535 0 0 1-.663 1.408c-1.5 1.595-3.24 2.849-5.405 3.388-1.968.495-3.578-.055-4.905-1.551a12.916 12.916 0 0 1-2.207-3.663c-.37-.858-.664-1.738-.99-2.596-.065-.165-.13-.341-.24-.649-.162.418-.282.704-.39.99-.599 1.606-1.164 3.212-1.795 4.796a7.55 7.55 0 0 1-1.49 2.409c-.5.539-1.087.858-1.838.77-.794-.11-1.326-.649-1.403-1.463a3.093 3.093 0 0 1 .381-1.837c.794-1.463 1.566-2.937 2.36-4.4 1.25-2.299 2.49-4.598 3.784-6.864a32.177 32.177 0 0 1 1.969-2.849c.26-.319.576-.605.913-.836a.891.891 0 0 1 1.066-.066c.326.176.5.55.424.924-.043.44-.141.869-.294 1.287-.532 1.331-1.12 2.64-1.674 3.949-.055.11-.098.231-.185.396a3.968 3.968 0 0 0 1.61-.066c2.838-.528 5.404-3.201 5.84-6.083.293-1.87-.534-3.366-2.263-4.114a6.57 6.57 0 0 0-2.675-.495c-1.131 0-2.23.066-3.328.396-1.696.539-2.936 1.606-3.839 3.157a35.063 35.063 0 0 1-1.25 2.035 2.111 2.111 0 0 1-1.327.979c-1 .231-2.164-.297-2.066-1.705.065-.913.446-1.705.968-2.431 1.174-1.65 2.73-2.794 4.513-3.641a14.461 14.461 0 0 1 7.112-1.408c1.805.099 3.502.55 5.035 1.54 3.012 1.958 3.654 5.709 2.143 8.525-1.055 1.991-2.697 3.355-4.611 4.422a15.77 15.77 0 0 1-4.274 1.595Z" fill="#000"/><path class="fill" d="M62.368 40.865c-.054-1.155.892-2.299 2.35-2.42.771-.066 1.609.693 1.706 1.485.153 1.353-.554 2.618-2.066 2.948-.815.165-1.838-.649-1.957-1.485-.033-.187-.022-.352-.033-.528Z" fill="#000"/></svg>