<svg class="partner-size" width="53" height="50" viewBox="0 0 53 50" fill="none" xmlns="http://www.w3.org/2000/svg"><g clip-path="url(#clip0_205_2)"><path d="M18.364 35.494c11.722 0 21.224-9.551 21.224-21.333 0-11.782-9.502-21.334-21.224-21.334S-2.86 2.38-2.86 14.161s9.502 21.333 21.224 21.333Z" fill="url(#paint0_linear_205_2)" fill-opacity=".05"/><path d="M51.55 18.805c.217-4.534-2.934-7.541-6.489-9.606l-2.31 13.646c1.6-.09 2.381.52 2.666.808.355.359 1.244 1.436.177 3.142 2.222-.36 5.693-2.514 5.955-7.99Z" fill="url(#paint1_linear_205_2)"/><path fill-rule="evenodd" clip-rule="evenodd" d="M21.237 2.918 18.48.135C22.63-.374 33.573.28 44.167 6.958c.178.718 0 1.795 0 1.795l.89.45c.77 1.107 2.079 4.255 1.154 7.99-.924 3.734-2.518 5.326-3.2 5.655-1.421 0-3.839.826-4.62 4.489-.783 3.663-2.282 4.459-2.934 4.399l-15.643.18-10.31-6.105-1.51-12.659 2.933-3.95 5.244-4.309 3.733-1.526 1.333-.449Zm18.474 5.23c-.69.721-1.334 1.068-1.519 1.162-4.027-.861-5.478-2.956-5.478-2.956 3.799-.024 7.228.885 9.737 2.421 0 0-1.358-.442-2.74-.628Z" fill="url(#paint2_linear_205_2)"/><path fill-rule="evenodd" clip-rule="evenodd" d="M38.253 27.338c-2.761 1.362-6.035 2.15-9.545 2.15-9.866 0-17.865-6.23-17.865-13.915 0-5.677 4.365-10.56 10.622-12.724C9.564 3.539 0 13.149 0 25.006 0 38.692 12.137 50 27.108 50c11.18 0 20.485-6.515 25.351-15.232-6.695 1.514-14.62-1.364-14.206-7.43Z" fill="url(#paint3_linear_205_2)"/></g><defs><linearGradient id="paint0_linear_205_2" x1="18.364" y1="7.757" x2="18.364" y2="36.055" gradientUnits="userSpaceOnUse"><stop stop-color="#01E8F8"/><stop offset="1" stop-color="#01E8F8" stop-opacity="0"/></linearGradient><linearGradient id="paint1_linear_205_2" x1="47.193" y1="13.128" x2="48.601" y2="29.814" gradientUnits="userSpaceOnUse"><stop stop-color="#01E8F7"/><stop offset="1" stop-color="#00C2FF"/></linearGradient><linearGradient id="paint2_linear_205_2" x1="20.462" y1="3.423" x2="36.708" y2="29.074" gradientUnits="userSpaceOnUse"><stop stop-color="#01E8F7"/><stop offset="1" stop-color="#00B3EC"/></linearGradient><linearGradient id="paint3_linear_205_2" x1="26.454" y1="16.185" x2="27.909" y2="57.692" gradientUnits="userSpaceOnUse"><stop stop-color="#01E8F7"/><stop offset="1" stop-color="#00C2FF"/></linearGradient><clipPath id="clip0_205_2"><path fill="#fff" d="M0 0h52.459v50H0z"/></clipPath></defs></svg>