<svg class="partner-size" width="100" height="31" viewBox="0 0 100 31" fill="none" xmlns="http://www.w3.org/2000/svg"><g clip-path="url(#clip0_205_75)" fill="#DE5959"><path d="m11.942 15.087-.262-.27a.317.317 0 0 0-.543.227v3.817a.32.32 0 0 0 .317.319h3.798a.32.32 0 0 0 .226-.545.327.327 0 0 1 0-.454l4.036-4.069a.327.327 0 0 0 0-.453l-.366-.368a.32.32 0 0 1 .225-.545h3.792c.177 0 .317.14.317.319v3.817c0 .282-.341.43-.543.227l-.256-.258a.312.312 0 0 0-.45 0l-6.81 6.84a.323.323 0 0 1-.451 0l-8.327-8.378a.321.321 0 0 1 0-.453L18.172 3.272a.327.327 0 0 0 0-.453L15.46.092a.323.323 0 0 0-.452 0L.091 15.099a.327.327 0 0 0 0 .453l14.924 15.001c.122.123.329.123.45 0l14.924-15a.327.327 0 0 0 0-.454L21.61 6.275a.323.323 0 0 0-.451 0l-8.767 8.812a.323.323 0 0 1-.45 0Zm68.886 3.793c-.384 0-.72.14-.994.417a1.367 1.367 0 0 0-.414.986c0 .582.292 1.036.877 1.354.64.178 1.153.062 1.537-.337.28-.282.414-.619.414-1.01 0-.4-.14-.73-.414-1-.28-.27-.61-.41-1.006-.41ZM58.15 8.095h-1.054a.822.822 0 0 0-.823.827v.588c-1.122-1.17-2.384-1.752-3.804-1.752-1.634 0-3 .613-4.084 1.832-1.092 1.22-1.634 2.745-1.634 4.571 0 1.863.542 3.414 1.627 4.664 1.098 1.22 2.488 1.832 4.164 1.832 1.329 0 2.573-.546 3.725-1.63v1.164c0 .564.457 1.03 1.018 1.03h1.798V9.045a.938.938 0 0 0-.933-.95Zm-2.657 8.959c-.64.717-1.482 1.078-2.518 1.078-.976 0-1.78-.374-2.42-1.115-.622-.735-.94-1.691-.94-2.856 0-1.09.324-2.016.964-2.757.646-.736 1.457-1.103 2.42-1.103 1.024 0 1.853.361 2.494 1.09.64.742.963 1.686.963 2.832-.006 1.145-.33 2.09-.963 2.83Zm-8.742-6.9V8.947a.848.848 0 0 0-.848-.852h-1.11c-.468 0-.846.38-.846.852v.527c-1.012-1.146-2.286-1.722-3.817-1.722-1.743 0-3.151.661-4.212 1.979-.987 1.244-1.481 2.758-1.481 4.534 0 1.833.53 3.359 1.597 4.572 1.055 1.207 2.408 1.802 4.066 1.802 1.45 0 2.737-.57 3.853-1.716v1.703c0 2.531-1.024 3.8-3.079 3.8-1.115 0-1.963-.38-2.542-1.14a2.506 2.506 0 0 1-.372-.723.991.991 0 0 0-.938-.668H35.96a.83.83 0 0 0-.799 1.035c.293 1.11.854 2.01 1.689 2.709 1.048.876 2.383 1.317 3.999 1.317 1.92 0 3.426-.637 4.523-1.905.58-.662.97-1.453 1.17-2.372.068-.33.122-.723.159-1.158.037-.435.055-.944.055-1.52v-1.77c-.786-1.14-1.183-2.495-1.183-4.082-.006-1.544.39-2.874 1.177-3.995Zm-3.554 6.802c-.622.784-1.47 1.176-2.542 1.176-1.073 0-1.914-.386-2.518-1.164-.555-.71-.835-1.618-.835-2.733 0-1.128.28-2.047.835-2.758.616-.79 1.457-1.188 2.518-1.188 1 0 1.816.361 2.456 1.09.634.711.951 1.661.951 2.844-.006 1.109-.292 2.022-.865 2.733Zm26.871-8.849v-.012h-5.815V4.516a.832.832 0 0 0-.83-.833H62.29a.845.845 0 0 0-.842.845v3.567h-1.194v2.629h1.194v10.484h1.598c.664 0 1.2-.539 1.207-1.207V10.73h2.877c.226-.435.506-.84.829-1.207a5.11 5.11 0 0 1 2.11-1.416Zm14.314-4.424c-.5 0-.927.178-1.28.54-.354.36-.537.783-.537 1.28 0 .52.177.956.537 1.317.36.362.792.54 1.298.54s.933-.178 1.28-.54c.36-.361.537-.79.537-1.305 0-.509-.177-.938-.537-1.287a1.745 1.745 0 0 0-1.298-.545Zm.567 5.797H83.93a.944.944 0 0 0-.945.95v8.952c.213.252.317.552.317.895 0 .343-.104.65-.317.9v.503h1.804c.555 0 1-.453 1-1.005V10.32a.84.84 0 0 0-.841-.84Zm13.186 1.728c-1.262-1.244-2.805-1.87-4.615-1.87-1.805 0-3.335.62-4.59 1.857-1.256 1.238-1.884 2.733-1.884 4.498 0 1.87.615 3.426 1.847 4.664 1.231 1.25 2.755 1.88 4.572 1.88 1.835 0 3.39-.612 4.651-1.844 1.25-1.238 1.884-2.77 1.884-4.602 0-1.814-.622-3.34-1.865-4.583Zm-1.988 7.445c-.652.71-1.53 1.06-2.627 1.06-1.091 0-1.97-.355-2.634-1.078-.646-.711-.975-1.68-.975-2.893 0-1.133.335-2.065 1-2.782.664-.717 1.53-1.078 2.603-1.078 1.085 0 1.963.361 2.627 1.078.659.711.988 1.66.988 2.844.006 1.188-.323 2.132-.982 2.849Z"/><path d="M71.11 18.157c-.578-.589-.901-1.391-.975-2.39h8.041c.366 0 .67-.294.677-.662 0-2.016-.518-3.59-1.543-4.725-1.042-1.145-2.456-1.715-4.242-1.715-1.768 0-3.189.588-4.262 1.765-1.066 1.194-1.597 2.757-1.597 4.687 0 1.949.549 3.511 1.646 4.688a5.34 5.34 0 0 0 2.816 1.593c.47.11.951.166 1.44.16 1.999.043 3.736.085 5.73.122v-.294a1.383 1.383 0 0 1-.366-.962c0-.368.128-.68.378-.95v-.355c-1.58-.037-5.395-.08-5.548-.08-.884 0-1.621-.294-2.194-.882Zm-.39-5.638c.177-.276.385-.508.629-.705.243-.196.518-.349.816-.453.299-.104.622-.16.963-.16 1.494 0 2.439.754 2.83 2.256h-5.64c.098-.35.232-.662.403-.938Z"/></g><defs><clipPath id="clip0_205_75"><path fill="#fff" d="M0 0h100v30.645H0z"/></clipPath></defs></svg>