<svg class="partner-size" width="83" height="25" viewBox="0 0 83 25" fill="none" xmlns="http://www.w3.org/2000/svg"><g clip-path="url(#clip0_403_12)" fill="#FF433E"><path d="M59.312 4.21h4.703l-8.188 20.354h-5.43L42.21 4.21h4.703l6.183 15.449 6.217-15.45ZM4.281 0H0v24.568h4.281V0ZM16.004 24.571 6.612 12.284 16.004.004h5.374l-9.261 12.28 9.26 12.287h-5.373ZM31.634 3.67c-4.689 0-8.223 2.595-8.479 6.448l-.028.45h4.205l.07-.332c.387-1.813 1.867-2.809 4.156-2.809 2.49 0 3.915 1.252 3.915 3.439v1.259l-5.27.297c-4.745.277-7.615 2.601-7.615 6.213 0 3.805 2.856 6.365 7.054 6.365 2.504 0 4.33-.685 5.817-2.207v1.868h4.267V10.547c-.007-4.179-3.23-6.877-8.092-6.877Zm3.839 11.769v1.266c-.277 2.76-2.186 4.497-5.118 4.642-1.128.055-2.103-.249-2.746-.858-.505-.477-.768-1.114-.768-1.84 0-1.62 1.384-2.643 3.797-2.795l4.835-.415ZM74.908 3.67c-4.689 0-8.223 2.595-8.479 6.448l-.028.45h4.205l.07-.332c.387-1.813 1.867-2.809 4.156-2.809 2.49 0 3.915 1.252 3.915 3.439v1.259l-5.27.297c-4.745.277-7.615 2.601-7.615 6.213 0 3.805 2.856 6.365 7.054 6.365 2.504 0 4.33-.685 5.817-2.207v1.868H83V10.547c-.007-4.179-3.23-6.877-8.092-6.877Zm3.839 11.769v1.266c-.277 2.76-2.186 4.497-5.118 4.642-1.128.055-2.103-.249-2.746-.858-.505-.477-.768-1.114-.768-1.84 0-1.62 1.384-2.643 3.797-2.795l4.835-.415Z"/></g><defs><clipPath id="clip0_403_12"><path fill="#fff" d="M0 0h83v25H0z"/></clipPath></defs></svg>