<svg class="partner-size" width="103" height="22" viewBox="0 0 103 22" fill="none" xmlns="http://www.w3.org/2000/svg">
<g id="partner_mojitoswap">
<path id="circle5351" d="M10.972 19.8862C15.7659 19.8862 19.6522 15.9484 19.6522 11.0909C19.6522 6.23344 15.7659 2.29565 10.972 2.29565C6.17801 2.29565 2.29175 6.23344 2.29175 11.0909C2.29175 15.9484 6.17801 19.8862 10.972 19.8862Z" stroke="url(#paint0_linear_218_3)" stroke-width="2.4"></path>
<path id="path5353" d="M15.4615 15.1184C15.437 15.1184 15.4135 15.1086 15.3961 15.091C15.3788 15.0736 15.3691 15.0498 15.3691 15.025V7.27821C15.3695 7.15697 15.3403 7.03744 15.2841 6.93033C15.2278 6.82316 15.1464 6.73166 15.0468 6.66389C14.9472 6.59611 14.8326 6.55417 14.7132 6.54177C14.5937 6.52937 14.4731 6.54689 14.3619 6.59278C13.3606 7.00938 12.4164 7.55385 11.5522 8.21292C9.79507 9.55483 9.07554 11.2366 9.07554 12.8399C9.07554 14.4433 10.1289 15.0885 10.9835 15.0885C11.838 15.0885 12.9081 14.3331 12.9081 12.8399C12.9081 11.3468 12.5243 10.7361 12.0239 9.86392C12.4884 9.61378 12.9871 9.43473 13.5036 9.33254C13.5397 9.32526 13.5769 9.3261 13.6126 9.33505C13.6483 9.34401 13.6816 9.36081 13.71 9.38427C13.7385 9.40777 13.7615 9.43735 13.7773 9.47086C13.7931 9.50436 13.8013 9.54101 13.8014 9.57813V15.1184C13.8014 15.2858 13.8673 15.4464 13.9846 15.5648C14.1018 15.6832 14.2608 15.7496 14.4266 15.7496H15.9878V15.1184H15.4615ZM10.9844 14.7524C10.6145 14.7524 10.0133 14.2574 10.0133 12.9585C10.0133 11.6596 10.7948 10.7903 10.9927 10.6548C11.1611 10.7753 11.9721 11.6437 11.9721 12.9576C11.9721 14.2715 11.3544 14.7524 10.9844 14.7524V14.7524ZM9.42326 9.60336C9.11636 9.46725 8.7939 9.37003 8.46327 9.3139C8.42804 9.30862 8.39213 9.31113 8.35792 9.32123C8.32372 9.33134 8.2921 9.34877 8.26523 9.37238C8.23836 9.39594 8.21682 9.42515 8.20214 9.45793C8.18752 9.4907 8.18003 9.5263 8.18029 9.56227V15.1184C8.18029 15.2858 8.11441 15.4464 7.99718 15.5648C7.87994 15.6832 7.72091 15.7496 7.55511 15.7496H5.95606V15.1184H6.52391C6.54845 15.1184 6.57196 15.1086 6.58931 15.091C6.60665 15.0736 6.6164 15.0498 6.6164 15.025V7.28753C6.61647 7.16623 6.64612 7.04687 6.70274 6.93986C6.75935 6.83291 6.84116 6.74166 6.94098 6.67419C7.0408 6.60672 7.15556 6.56511 7.27507 6.55303C7.39463 6.54095 7.51522 6.55877 7.62631 6.60493C8.66865 7.02975 9.64704 7.59956 10.5331 8.29789C10.1074 8.68138 9.73415 9.12041 9.42326 9.60336Z" fill="url(#paint1_linear_218_3)"></path>
<path class="fill" d="M55.0328 15.2628C55.0328 15.5151 54.8308 15.7197 54.5818 15.7197H53.3287C53.0796 15.7197 52.8776 15.5151 52.8776 15.2628V9.37588C52.8776 9.24699 52.7746 9.14255 52.6474 9.14255H51.9685C51.7333 9.14255 51.5425 8.94931 51.5425 8.71095C51.5425 8.47253 51.7333 8.2793 51.9685 8.2793H52.6474C52.7746 8.2793 52.8776 8.17485 52.8776 8.04596V5.99847C52.8776 5.74609 53.0796 5.5415 53.3287 5.5415H54.5818C54.8308 5.5415 55.0328 5.74609 55.0328 5.99847V8.04596C55.0328 8.17485 55.1362 8.2793 55.2633 8.2793H56.8319C57.0675 8.2793 57.2582 8.47253 57.2582 8.71095C57.2582 8.94931 57.0675 9.14255 56.8319 9.14255H55.2633C55.1362 9.14255 55.0328 9.24699 55.0328 9.37588V15.2628Z" fill="#2E2E2E"></path>
<path class="fill" fill-rule="evenodd" clip-rule="evenodd" d="M43.3817 11.9834C43.3817 12.3699 43.3309 12.7328 43.2292 13.0721C43.1274 13.4113 42.9855 13.7249 42.8032 14.0126C42.6252 14.3003 42.409 14.5602 42.1547 14.7921C41.9004 15.0197 41.6206 15.213 41.3155 15.3719C41.0146 15.5307 40.6903 15.6531 40.3428 15.7391C39.9995 15.8249 39.6456 15.8679 39.2811 15.8679C38.9166 15.8679 38.5626 15.8249 38.2194 15.7391C37.876 15.6531 37.5518 15.5307 37.2466 15.3719C36.9457 15.213 36.6681 15.0197 36.4138 14.7921C36.1595 14.5602 35.9412 14.3003 35.7589 14.0126C35.5809 13.7249 35.4411 13.4113 35.3393 13.0721C35.2376 12.7285 35.1868 12.3656 35.1868 11.9834C35.1868 11.6012 35.2376 11.2404 35.3393 10.9012C35.4411 10.5576 35.5809 10.242 35.7589 9.95422C35.9412 9.66649 36.1595 9.40881 36.4138 9.18118C36.6681 8.94925 36.9457 8.75387 37.2466 8.59498C37.5518 8.43609 37.876 8.31369 38.2194 8.22778C38.5626 8.14187 38.9166 8.09894 39.2811 8.09894C39.6456 8.09894 39.9995 8.14187 40.3428 8.22778C40.6903 8.31369 41.0146 8.43609 41.3155 8.59498C41.6206 8.75387 41.9004 8.94925 42.1547 9.18118C42.409 9.40881 42.6252 9.66649 42.8032 9.95422C42.9855 10.242 43.1274 10.5576 43.2292 10.9012C43.3309 11.2404 43.3817 11.6012 43.3817 11.9834ZM41.1947 11.9834C41.1947 11.7773 41.182 11.5604 41.1566 11.3328C41.1354 11.1009 41.0972 10.8754 41.0421 10.6564C40.987 10.433 40.9107 10.2205 40.8132 10.0186C40.72 9.8125 40.6035 9.63424 40.4636 9.48393C40.3237 9.32934 40.1563 9.20693 39.9613 9.11678C39.7664 9.02229 39.5396 8.97501 39.2811 8.97501C39.0352 8.97501 38.8169 9.02229 38.6262 9.11678C38.4355 9.21123 38.2681 9.33792 38.124 9.49681C37.9841 9.65146 37.8654 9.83182 37.7679 10.0379C37.6747 10.2441 37.5984 10.4588 37.5391 10.6821C37.4797 10.9012 37.4374 11.1245 37.4119 11.3521C37.3865 11.5754 37.3738 11.7858 37.3738 11.9834C37.3738 12.1809 37.3865 12.3935 37.4119 12.6212C37.4374 12.8445 37.4797 13.0678 37.5391 13.2911C37.5984 13.5144 37.6747 13.7292 37.7679 13.9353C37.8654 14.1372 37.9841 14.3175 38.124 14.4764C38.2681 14.631 38.4355 14.7556 38.6262 14.85C38.8169 14.9445 39.0352 14.9918 39.2811 14.9918C39.5354 14.9918 39.76 14.9467 39.955 14.8565C40.1499 14.762 40.3174 14.6375 40.4572 14.4828C40.6013 14.3282 40.72 14.15 40.8132 13.9482C40.9065 13.7463 40.9807 13.5337 41.0358 13.3105C41.0951 13.0871 41.1354 12.8616 41.1566 12.6341C41.182 12.4064 41.1947 12.1895 41.1947 11.9834V11.9834Z" fill="#2E2E2E"></path>
<path class="fill" d="M46.9166 13.5681C46.9166 14.0792 46.853 14.5988 46.7259 15.1271C46.5987 15.651 46.4185 16.1578 46.1855 16.6473C45.9566 17.1412 45.6811 17.6029 45.359 18.0324C45.1083 18.3743 44.8367 18.6789 44.5439 18.9461C44.4031 19.0746 44.1958 19.0871 44.0337 18.9876L43.8842 18.8957C43.6583 18.757 43.5994 18.4526 43.7317 18.221C43.8399 18.0314 43.9395 17.829 44.0302 17.6137C44.1913 17.2357 44.3248 16.8428 44.4308 16.4348C44.5409 16.0268 44.6236 15.6167 44.6787 15.2044C44.7338 14.7878 44.7613 14.3927 44.7613 14.0191V8.73629C44.7613 8.48389 44.9633 8.2793 45.2123 8.2793H46.4656C46.7146 8.2793 46.9166 8.48389 46.9166 8.73629V13.5681Z" fill="#2E2E2E"></path>
<path class="fill" d="M50.0108 15.7197C50.2598 15.7197 50.4618 15.5151 50.4618 15.2627V8.74269C50.4618 8.4903 50.2598 8.28571 50.0108 8.28571H48.7575C48.5085 8.28571 48.3065 8.4903 48.3065 8.74269V15.2627C48.3065 15.5151 48.5085 15.7197 48.7575 15.7197H50.0108Z" fill="#2E2E2E"></path>
<path class="fill" fill-rule="evenodd" clip-rule="evenodd" d="M65.1453 13.0721C65.247 12.7328 65.2982 12.3699 65.2982 11.9834C65.2982 11.6012 65.247 11.2404 65.1453 10.9012C65.044 10.5576 64.9019 10.242 64.7195 9.95422C64.5418 9.66649 64.3253 9.40881 64.0711 9.18118C63.8169 8.94925 63.5368 8.75387 63.232 8.59498C62.9308 8.43609 62.6068 8.31369 62.2591 8.22778C61.916 8.14187 61.5621 8.09894 61.1973 8.09894C60.8331 8.09894 60.4791 8.14187 60.1355 8.22778C59.7925 8.31369 59.468 8.43609 59.1631 8.59498C58.8619 8.75387 58.5845 8.94925 58.3303 9.18118C58.076 9.40881 57.8575 9.66649 57.6751 9.95422C57.4974 10.242 57.3573 10.5576 57.2556 10.9012C57.1538 11.2404 57.1031 11.6012 57.1031 11.9834C57.1031 12.3656 57.1538 12.7285 57.2556 13.0721C57.3573 13.4113 57.4974 13.7249 57.6751 14.0126C57.8575 14.3003 58.076 14.5602 58.3303 14.7921C58.5845 15.0197 58.8619 15.213 59.1631 15.3719C59.468 15.5307 59.7925 15.6531 60.1355 15.7391C60.4791 15.8249 60.8331 15.8679 61.1973 15.8679C61.5621 15.8679 61.916 15.8249 62.2591 15.7391C62.6068 15.6531 62.9308 15.5307 63.232 15.3719C63.5368 15.213 63.8169 15.0197 64.0711 14.7921C64.3253 14.5602 64.5418 14.3003 64.7195 14.0126C64.9019 13.7249 65.044 13.4113 65.1453 13.0721ZM63.0729 11.3328C63.0982 11.5604 63.1111 11.7773 63.1111 11.9834C63.1111 12.1895 63.0982 12.4064 63.0729 12.6341C63.0517 12.8616 63.0114 13.0871 62.952 13.3105C62.8972 13.5337 62.8228 13.7463 62.7298 13.9482C62.6363 14.15 62.5179 14.3282 62.3738 14.4828C62.2338 14.6375 62.0664 14.762 61.8716 14.8565C61.6763 14.9467 61.4515 14.9918 61.1973 14.9918C60.9514 14.9918 60.7333 14.9445 60.5427 14.85C60.352 14.7556 60.1846 14.631 60.0405 14.4764C59.9004 14.3175 59.7816 14.1372 59.6845 13.9353C59.591 13.7292 59.515 13.5144 59.4556 13.2911C59.3962 13.0678 59.3538 12.8445 59.3285 12.6212C59.3026 12.3935 59.2902 12.1809 59.2902 11.9834C59.2902 11.7858 59.3026 11.5754 59.3285 11.3521C59.3538 11.1245 59.3962 10.9012 59.4556 10.6821C59.515 10.4588 59.591 10.2441 59.6845 10.0379C59.7816 9.83182 59.9004 9.65146 60.0405 9.49681C60.1846 9.33792 60.352 9.21123 60.5427 9.11678C60.7333 9.02229 60.9514 8.97501 61.1973 8.97501C61.4562 8.97501 61.6825 9.02229 61.8778 9.11678C62.0726 9.20693 62.24 9.32934 62.38 9.48393C62.52 9.63424 62.6363 9.8125 62.7298 10.0186C62.8269 10.2205 62.9034 10.433 62.9587 10.6564C63.0134 10.8754 63.0517 11.1009 63.0729 11.3328Z" fill="#2E2E2E"></path>
<path class="fill" d="M74.5173 12.8853C74.5173 13.2846 74.4667 13.6368 74.3649 13.9417C74.2672 14.2467 74.1277 14.5108 73.9454 14.7341C73.7671 14.9574 73.5553 15.1442 73.3093 15.2945C73.0639 15.4449 72.7947 15.5651 72.5023 15.6553C72.214 15.7455 71.9065 15.8099 71.5805 15.8486C71.2581 15.8872 70.9295 15.9065 70.5947 15.9065C70.154 15.9065 69.7473 15.8722 69.3743 15.8034C69.0012 15.7391 68.6494 15.636 68.3187 15.4943C67.9927 15.3482 67.6765 15.1614 67.3716 14.9338C67.1717 14.7827 66.9722 14.6099 66.7723 14.4153C66.5982 14.2454 66.6028 13.965 66.7723 13.7905L67.2843 13.2642C67.5122 13.0302 67.9069 13.109 68.0929 13.3783C68.1436 13.4518 68.1978 13.5236 68.2552 13.5939C68.4629 13.843 68.6897 14.0577 68.9356 14.2381C69.1857 14.4185 69.444 14.5602 69.7112 14.6633C69.9783 14.7663 70.2304 14.8179 70.4676 14.8179C70.7476 14.8179 71.0101 14.7985 71.256 14.7598C71.502 14.7169 71.7159 14.6482 71.8983 14.5537C72.0807 14.4592 72.2222 14.3347 72.324 14.1801C72.4299 14.0212 72.4831 13.8236 72.4831 13.5875C72.4831 13.407 72.4429 13.2524 72.3622 13.1236C72.2816 12.9948 72.1757 12.8853 72.0445 12.7951C71.9174 12.7006 71.7712 12.6212 71.6058 12.5567C71.4405 12.4923 71.271 12.4386 71.0969 12.3957C70.9274 12.3485 70.76 12.3076 70.5947 12.2733C70.4293 12.2347 70.2831 12.196 70.156 12.1573C69.9059 12.0843 69.6455 12.007 69.3743 11.9254C69.103 11.8395 68.8359 11.7429 68.5729 11.6355C68.3104 11.5282 68.0604 11.4058 67.8227 11.2684C67.5897 11.1266 67.384 10.9613 67.2063 10.7723C67.028 10.579 66.8865 10.3579 66.78 10.1088C66.6741 9.85543 66.6214 9.56555 66.6214 9.23913C66.6214 8.84837 66.6679 8.50263 66.7614 8.20202C66.8586 7.89711 66.9945 7.63299 67.1681 7.40966C67.3417 7.18632 67.5473 6.99952 67.785 6.8492C68.0221 6.6946 68.2825 6.5722 68.5667 6.48202C68.8509 6.38753 69.1516 6.32097 69.4694 6.28232C69.7918 6.23937 70.1204 6.2179 70.4552 6.2179C70.913 6.2179 71.3279 6.26085 71.7009 6.34674C72.0781 6.43263 72.4258 6.55502 72.7436 6.71392C73.0618 6.87282 73.3517 7.06392 73.6147 7.28726C73.7759 7.41939 73.9309 7.5609 74.0797 7.71178C74.2461 7.88094 74.2368 8.15328 74.0714 8.32358L73.5842 8.82418C73.3481 9.06715 72.9352 8.97056 72.7544 8.68293C72.7188 8.62644 72.681 8.57137 72.6418 8.51765C72.464 8.26856 72.2646 8.056 72.0445 7.87989C71.8239 7.69953 71.5929 7.56211 71.3516 7.46761C71.1098 7.36887 70.8768 7.31945 70.652 7.31945C70.3596 7.31945 70.0904 7.34092 69.8445 7.3839C69.599 7.42254 69.3867 7.48908 69.209 7.58357C69.0353 7.67378 68.8995 7.79832 68.8018 7.95722C68.7047 8.11181 68.6556 8.3051 68.6556 8.53697C68.6556 8.72167 68.6918 8.87842 68.7641 9.00726C68.8359 9.1361 68.9315 9.24562 69.0498 9.33577C69.1728 9.42598 69.3107 9.5011 69.4632 9.56126C69.6156 9.61706 69.7726 9.66648 69.9339 9.70941C70.0992 9.75234 70.2599 9.79103 70.4169 9.82538C70.5782 9.85543 70.7244 9.88977 70.8556 9.92846C71.1098 10.0014 71.3769 10.0788 71.6565 10.1603C71.9365 10.2419 72.2119 10.3386 72.4831 10.4502C72.7544 10.5576 73.0128 10.6821 73.2587 10.8238C73.5046 10.9656 73.7206 11.1352 73.9071 11.3328C74.0936 11.526 74.2419 11.7515 74.352 12.0092C74.4626 12.2626 74.5173 12.5546 74.5173 12.8853V12.8853Z" fill="#2E2E2E"></path>
<path class="fill" fill-rule="evenodd" clip-rule="evenodd" d="M92.3515 15.7197C92.6006 15.7197 92.8021 15.5151 92.8021 15.2627V8.73628C92.8021 8.48389 92.6006 8.27929 92.3515 8.27929H92.2316C92.073 8.27929 91.9258 8.36384 91.8447 8.50185L91.4013 9.25353C91.251 9.50849 90.8557 9.4744 90.6858 9.23243C90.6692 9.20861 90.6516 9.1851 90.6341 9.16186C90.4734 8.93852 90.2848 8.74958 90.0683 8.59498C89.8565 8.43609 89.6214 8.31369 89.3631 8.22778C89.1083 8.14187 88.8391 8.09894 88.5555 8.09894C87.9959 8.09894 87.4958 8.19987 87.0551 8.40169C86.6143 8.60357 86.2413 8.88057 85.9359 9.23269C85.6311 9.58058 85.3975 9.99071 85.2369 10.4631C85.0757 10.9355 84.9951 11.4423 84.9951 11.9834C84.9951 12.5245 85.0757 13.0313 85.2369 13.5037C85.3975 13.9761 85.6311 14.3884 85.9359 14.7405C86.2413 15.0884 86.6143 15.3633 87.0551 15.5651C87.4958 15.767 87.9959 15.8679 88.5555 15.8679C88.9833 15.8679 89.3755 15.7841 89.7314 15.6167C89.9133 15.5299 90.0823 15.4201 90.2368 15.2872C90.3856 15.1601 90.6532 15.2569 90.6532 15.4538C90.6532 15.6007 90.771 15.7197 90.9157 15.7197H92.3515ZM90.6088 11.3714C90.63 11.5862 90.6408 11.7901 90.6408 11.9834C90.6408 12.1552 90.6279 12.3463 90.6026 12.5567C90.5772 12.7629 90.5369 12.9712 90.4817 13.1816C90.4269 13.392 90.3546 13.596 90.2657 13.7936C90.1768 13.9911 90.0663 14.1672 89.935 14.3218C89.8079 14.4764 89.6576 14.601 89.4834 14.6955C89.314 14.7857 89.1192 14.8307 88.8986 14.8307C88.6573 14.8307 88.4475 14.7878 88.2692 14.7019C88.0915 14.6117 87.9386 14.4936 87.8115 14.3476C87.6844 14.1973 87.5784 14.0255 87.4937 13.8323C87.4131 13.639 87.3496 13.4372 87.3031 13.2267C87.2566 13.0162 87.2225 12.8037 87.2013 12.5889C87.1842 12.3742 87.176 12.1724 87.176 11.9834C87.176 11.7944 87.1842 11.5947 87.2013 11.3843C87.2225 11.1696 87.2566 10.957 87.3031 10.7466C87.3496 10.5361 87.4131 10.3343 87.4937 10.141C87.5784 9.94778 87.6844 9.7781 87.8115 9.63209C87.9386 9.48179 88.0915 9.36368 88.2692 9.27782C88.4475 9.18762 88.6573 9.14254 88.8986 9.14254C89.1404 9.14254 89.3522 9.18547 89.5346 9.27138C89.717 9.35724 89.8715 9.47535 89.9986 9.62565C90.1298 9.77166 90.2357 9.94134 90.3163 10.1346C90.4011 10.3236 90.4667 10.5232 90.5137 10.7337C90.5602 10.9441 90.5917 11.1567 90.6088 11.3714Z" fill="#2E2E2E"></path>
<path class="fill" fill-rule="evenodd" clip-rule="evenodd" d="M102 11.9834C102 12.5245 101.919 13.0313 101.758 13.5037C101.597 13.9761 101.364 14.3884 101.059 14.7405C100.754 15.0884 100.381 15.3633 99.94 15.5651C99.4993 15.767 98.9991 15.8679 98.4395 15.8679C98.0112 15.8679 97.617 15.7841 97.2569 15.6167C97.2098 15.594 97.1644 15.5699 97.1189 15.5441C96.828 15.378 96.3413 15.5634 96.3413 15.9018V18.6963C96.3413 18.9487 96.1393 19.1532 95.8902 19.1532H94.6435C94.3945 19.1532 94.1924 18.9487 94.1924 18.6963V8.73628C94.1924 8.48389 94.3945 8.27929 94.6435 8.27929H94.7634C94.922 8.27929 95.0687 8.36384 95.1504 8.50185L95.5937 9.25353C95.744 9.50849 96.1383 9.47414 96.3057 9.23034C96.3212 9.20725 96.3377 9.18442 96.3542 9.16186C96.5196 8.93852 96.7082 8.74958 96.92 8.59498C97.136 8.43609 97.3716 8.31369 97.6258 8.22778C97.8841 8.14187 98.1554 8.09894 98.4395 8.09894C98.9991 8.09894 99.4993 8.19987 99.94 8.40169C100.381 8.60357 100.754 8.88057 101.059 9.23269C101.364 9.58058 101.597 9.99071 101.758 10.4631C101.919 10.9355 102 11.4423 102 11.9834V11.9834ZM99.8191 11.9834C99.8191 11.7944 99.8082 11.5947 99.7871 11.3843C99.7705 11.1696 99.7385 10.957 99.692 10.7466C99.6455 10.5361 99.5799 10.3343 99.4946 10.141C99.4145 9.94778 99.3107 9.7781 99.1831 9.63209C99.056 9.48179 98.9015 9.36368 98.7191 9.27782C98.5413 9.18762 98.3336 9.14254 98.096 9.14254C97.8505 9.14254 97.6361 9.18547 97.4542 9.27138C97.276 9.35724 97.1215 9.47535 96.9897 9.62565C96.8626 9.77167 96.7567 9.94134 96.672 10.1346C96.5914 10.3236 96.5278 10.5232 96.4813 10.7337C96.4348 10.9441 96.4007 11.1567 96.3795 11.3714C96.3625 11.5862 96.3542 11.7901 96.3542 11.9834C96.3542 12.1552 96.3666 12.3463 96.3925 12.5567C96.4178 12.7629 96.4581 12.9712 96.5128 13.1816C96.5681 13.392 96.6405 13.596 96.7293 13.7936C96.8182 13.9912 96.9262 14.1672 97.0533 14.3218C97.185 14.4764 97.3354 14.601 97.5049 14.6955C97.6785 14.7857 97.8759 14.8307 98.096 14.8307C98.3378 14.8307 98.5475 14.7878 98.7258 14.7019C98.9035 14.6117 99.056 14.4936 99.1831 14.3476C99.3107 14.1973 99.4145 14.0255 99.4946 13.8323C99.5799 13.639 99.6455 13.4372 99.692 13.2267C99.7385 13.0162 99.7705 12.8037 99.7871 12.5889C99.8082 12.3742 99.8191 12.1724 99.8191 11.9834V11.9834Z" fill="#2E2E2E"></path>
<path class="fill" d="M32.8825 6.27525C32.609 6.27433 32.3453 6.37935 32.1452 6.56896L32.1309 6.58173C32.1117 6.59982 32.0946 6.61896 32.078 6.63756C32.0729 6.64334 32.0678 6.64907 32.0627 6.65469C32.0575 6.65909 32.0527 6.66398 32.0483 6.66929C32.0195 6.70378 31.9931 6.74036 31.9694 6.77874L29.8544 9.72855L27.6909 6.71854V6.70942C27.5539 6.51997 27.3612 6.37975 27.1407 6.30908C26.9202 6.23841 26.6833 6.24095 26.4643 6.31633C26.2453 6.39172 26.0555 6.53604 25.9226 6.72839C25.7896 6.92076 25.7203 7.15111 25.7247 7.38623V15.4308C25.7247 15.6832 25.9266 15.8878 26.1757 15.8878H27.4534C27.7024 15.8878 27.9043 15.6832 27.9043 15.4308V9.21046L29.3556 11.1697C29.4136 11.2479 29.4887 11.3113 29.5749 11.355C29.6612 11.3987 29.7562 11.4214 29.8526 11.4214C29.9489 11.4214 30.0439 11.3987 30.1302 11.355C30.2163 11.3113 30.2915 11.2479 30.3495 11.1697L31.7846 9.21957V15.4326C31.7846 15.685 31.9865 15.8896 32.2356 15.8896H33.5223C33.7713 15.8896 33.9732 15.685 33.9732 15.4326V7.38623C33.9737 7.24032 33.9458 7.09583 33.8912 6.96091C33.8366 6.82603 33.7563 6.70346 33.655 6.60022C33.5536 6.49699 33.4332 6.41514 33.3006 6.35937C33.168 6.3036 33.026 6.27501 32.8825 6.27525Z" fill="#2E2E2E"></path>
<path class="fill" d="M77.6763 15.5329C77.4867 15.7138 77.2371 15.814 76.9783 15.8131C76.8424 15.8133 76.7075 15.786 76.582 15.7328C76.4564 15.6796 76.3427 15.6015 76.2466 15.5031C76.1505 15.4046 76.0746 15.2877 76.0229 15.159C75.9712 15.0303 75.9449 14.8925 75.9449 14.7533V8.70064C75.9449 8.44825 76.1469 8.24365 76.396 8.24365H77.5668C77.8158 8.24365 78.0178 8.44825 78.0178 8.70064V13.0044L79.3772 11.1441C79.432 11.0695 79.5033 11.009 79.5849 10.9673C79.6665 10.9256 79.7564 10.904 79.8479 10.904C79.9388 10.904 80.0292 10.9256 80.1109 10.9673C80.1925 11.009 80.2633 11.0695 80.3186 11.1441L81.693 13.0131V8.70237C81.693 8.45003 81.895 8.24543 82.144 8.24543H83.306C83.5551 8.24543 83.7571 8.45003 83.7571 8.70237V14.7533C83.7612 14.9775 83.6956 15.1973 83.5695 15.3808C83.444 15.5643 83.2642 15.702 83.057 15.7739C82.8493 15.8458 82.625 15.8482 82.4163 15.7808C82.207 15.7134 82.0247 15.5797 81.895 15.3989V15.3902L79.8458 12.5188L77.8432 15.3328C77.8204 15.3694 77.7956 15.4043 77.7683 15.4372C77.7641 15.4423 77.7595 15.4469 77.7548 15.4511C77.7497 15.4565 77.745 15.462 77.7398 15.4675C77.7243 15.4852 77.7083 15.5035 77.6902 15.5207L77.6763 15.5329Z" fill="#2E2E2E"></path>
</g>
<defs>
<linearGradient id="paint0_linear_218_3" x1="18.2464" y1="3.44016" x2="3.95046" y2="19.3011" gradientUnits="userSpaceOnUse">
<stop stop-color="#16D6A1"></stop>
<stop offset="1" stop-color="#0BC6DA"></stop>
</linearGradient>
<linearGradient id="paint1_linear_218_3" x1="5.95606" y1="16.2791" x2="16.4984" y2="6.63923" gradientUnits="userSpaceOnUse">
<stop stop-color="#0AC4DD"></stop>
<stop offset="1" stop-color="#18D995"></stop>
</linearGradient>
</defs>
</svg>