<svg class="partner-size" class="partner-size" width="153" height="38" viewBox="0 0 153 38" fill="none" xmlns="http://www.w3.org/2000/svg"><g clip-path="url(#clip0_205_103)"><path d="M19.67 0C8.81 0 0 8.625 0 19.257c0 7.66 4.563 14.276 11.19 17.378.25-.399.473-.707.683-.926 1.184-1.236 2.17-4.042 2.499-4.995.013-.013.026-.026.026-.039.013-.064.026-.141.052-.206.013-.038.027-.064.027-.064.236-.901.473-1.79.775-2.652.303.348 1.657.065 1.933.013.881-.18 2.275-.643 2.827-1.39.513-.708-.263-.785-.841-.695-1.262.232-2.512.94-3.643 1.532 0-.026-.013-.065-.026-.103.329-.914.697-1.802 1.105-2.678 1.814.232 3.8.065 5.167-1.223.132-.128-.026-.334-.17-.309-1.565.18-3.209.438-4.708.979.302-.592.631-1.172 1-1.751.236-.386.473-.734.736-1.081 2.038.232 4.076-.4 5.693-1.622.158-.129.04-.322-.131-.335-1.71-.026-3.432.322-4.944 1.12a26.327 26.327 0 0 1 2.34-2.626c1.854.36 3.905-.154 5.47-1.159.197-.128.04-.36-.145-.36-1.512-.013-3.076.206-4.51.747.5-.464 2.775-1.725 3.3-2.009 1.066-.592 2.078-1.235 2.96-2.06.157-.14.052-.36-.185-.334-2.617.27-5.877 3.566-6.364 4.004 1.091-1.378 2.012-2.935 2.288-4.673.026-.193-.197-.258-.329-.142-1.525 1.493-2.813 3.54-3.063 5.677 0 .052.012.103.052.129a24.936 24.936 0 0 0-2.038 2.317c.618-1.57.815-3.27.592-4.956-.013-.129-.184-.232-.303-.129-.775.63-.946 1.52-1.038 2.485a16.9 16.9 0 0 0 .012 3.36c0 .05.027.115.066.14-.013.014-.013.04-.026.052-.013.026-.04.052-.053.09-.039.026-.052.052-.065.103-.474.709-.92 1.43-1.328 2.163a11.07 11.07 0 0 0-.066-2.639c-.053-.335-.158-2.047-.789-1.944-.684.103-.434 1.648-.42 2.047.039 1.275.236 2.51.565 3.733.013.052.04.09.092.116a22.625 22.625 0 0 0-.947 2.356c-.105-.824-.513-1.674-.881-2.343-.197-.36-.75-1.622-1.354-1.468-.684.18.026 1.584.17 1.906.408.927 1.026 1.918 1.855 2.51a20.096 20.096 0 0 0-.71 3.115c-.421-.09-1.46-.386-2.564-1.236-1.329-.231-2.039-.927-2.565-2.407a11.9 11.9 0 0 0-.63-1.455c-.066-.141-.645-.051-.605-.412-.053.464-.342.026-.618-.566a3.934 3.934 0 0 1-.342-1.21c-.04-.528-.263-.85-.763-1.043-1.012-.412-1.446-1.21-1.551-2.214a10.7 10.7 0 0 1-.066-.643c-.066 0-.132.013-.197.013 0 .553-.474-.27.157-1.21.158-.232.237-.503.342-.76-.052-.039-.131-.103-.184-.141-.315.154-.302-.13.092-.387-.486-1.66.605-2.677 1.867-3.681-.25-.103-.394-.155-.644-.258.368-.09.618-.154.868-.193a.443.443 0 0 1 .184 0c.04-.27.184-.566.5-.927.25-.296.578-.36.933-.334.053-.386.171-.734.71-.734.92-.013 1.394-.592 1.946-1.159a20.165 20.165 0 0 1 1.539-1.441c.276-.232.657-.335.907-.58 1.249-1.21 2.906-1.673 4.536-1.93 1.091-.18 2.314.154 3.458.36.171.026.329.064.474.129 2.564.141 5.864.566 6.758 1.815 1.525 2.15 1.302 2.549 1.302 2.549l1.972 3.295s-.736 1.686-.434 2.317c.303.605 1.539 1.79 1.539 1.79s1.827 1.312 1.827 1.377c0 .064.066.386-.368.76-.447.36-1.302.823-1.302.823s.04.283.145.49c.118.23.395.553.302.849-.105.296-.723.527-.552.85.171.334.605.437.474.733-.132.296-.75.785-.697 1.017.052.232.5 2.265-.632 2.6-1.157.335-4.943.412-4.943.412s-.776.528-1.026 1.957c-.25 1.442-1.775 4.724-1.775 4.724s-1.091 2.047-.92 2.51c.17.464.486.708.867 1.03.027.026.066.052.119.103 8.415-2.188 14.621-9.693 14.621-18.601C39.341 8.625 30.531 0 19.67 0Z" fill="#00DACC"/><path class="fill" d="M53.629 11.316h3.632l3.997 6.324 4.021-6.324h3.632v14.985h-3.34v-9.783l-4.313 6.419h-.073l-4.241-6.324v9.712h-3.315V11.316ZM80.903 11.316h11.529v2.935h-8.19v3.03h7.215v2.96h-7.215v3.125h8.311v2.935h-11.65V11.316ZM107.397 14.394h-4.655v-3.03h12.65v3.03h-4.656v11.931h-3.363v-11.93h.024ZM126.433 11.316h3.363v14.985h-3.363V11.316ZM140.886 24.106l1.975-2.338c1.389 1.121 2.827 1.837 4.557 1.837 1.39 0 2.218-.525 2.218-1.408v-.048c0-.835-.536-1.288-3.071-1.909-3.095-.763-5.069-1.622-5.069-4.581v-.048c0-2.72 2.218-4.534 5.337-4.534 2.243 0 4.12.669 5.68 1.91l-1.731 2.481c-1.389-.907-2.681-1.456-3.973-1.456-1.292 0-1.974.55-1.974 1.313v.048c0 1.002.658 1.288 3.315 1.956 3.095.812 4.85 1.885 4.85 4.486v.048c0 2.983-2.315 4.63-5.606 4.63-2.364.023-4.68-.74-6.508-2.387Z" fill="#000"/></g><defs><clipPath id="clip0_205_103"><path fill="#fff" d="M0 0h153v38H0z"/></clipPath></defs></svg>