<svg class="partner-size" width="59" height="50" viewBox="0 0 59 50" fill="none" xmlns="http://www.w3.org/2000/svg"><g clip-path="url(#clip0_205_141)"><path d="M38.172 0v.348h20.454v44.594h.348V0H38.172ZM0 0V34.73H6.281V6.27h21.4l1.469.856c1.926 1.123 2.605 2.592 2.605 5.631 0 3.025-.997 5.203-2.791 6.094-1.065.53-2.34.607-9.943.607l-8.72.001 7.846 7.81c4.315 4.295 7.971 7.768 8.124 7.717.153-.05 1.175-.938 2.27-1.972l1.993-1.88-2.94-2.974-2.94-2.974 1.987-.249c6.046-.756 9.175-3.19 10.755-8.363 1.808-5.92-.967-13.14-5.94-15.458L29.488.196 14.744.099 0 0Zm49.138 14.922-8.08 7.79a4086.204 4086.204 0 0 0-18.027 17.52l-9.945 9.731 4.206.018 4.206.018 7.129-7.119 7.128-7.118 7.164 7.118L50.082 50h4.447c2.445 0 4.445-.117 4.445-.259 0-.142-4.12-4.357-9.155-9.368l-9.156-9.11 8.143-8.072 8.143-8.072-3.906-.099-3.905-.097ZM.001 36.377V50h11.466v-.348H.35V36.376H.001Z" fill="url(#paint0_linear_205_141)"/></g><defs><linearGradient id="paint0_linear_205_141" x1="0" y1=".001" x2="58.933" y2="50.652" gradientUnits="userSpaceOnUse"><stop stop-color="#36FAFA"/><stop offset=".5" stop-color="#8A5AFC"/><stop offset="1" stop-color="#19192A" stop-opacity=".976"/></linearGradient><clipPath id="#clip0_205_141"><path fill="#fff" d="M0 0h58.974v50H0z"/></clipPath></defs></svg>