<svg class="partner-size" width="100" height="30" viewBox="0 0 100 30" fill="none" xmlns="http://www.w3.org/2000/svg"><g clip-path="url(#clip0_205_58)"><path class="fill" d="m76.281 26.093 2.688-.84V3.11l-2.688.84v22.143Zm-31-13.435c1.688 0 3.25.746 4.25 1.99l1.094-2.519c-1.438-1.368-3.344-2.021-5.344-2.021-4.625 0-7.812 3.638-7.781 7.65.031 4.354 3.469 7.9 7.781 7.9 2.188 0 3.844-.653 5.094-1.555v-3.08c-1.313 1.307-3.219 2.085-4.875 2.085-2.5 0-5.313-2.022-5.313-5.35 0-3.078 2.438-5.1 5.094-5.1Zm17.875-2.55c-4.625 0-7.312 3.638-7.312 7.65 0 4.354 3.468 7.9 7.781 7.9 2.188 0 3.844-.653 5.094-1.555v-3.08c-1.313 1.307-3.219 2.085-4.875 2.085-2.219 0-4.657-1.369-5.157-4.261H70.47V17.82c0-4.292-2.844-7.713-7.313-7.713Zm29.032 0c-4.313 0-7.813 3.483-7.813 7.775s3.5 7.775 7.813 7.775c4.312 0 7.812-3.483 7.812-7.775s-3.5-7.775-7.812-7.775Zm-29 2.55c2.093 0 4.312 1.306 4.5 3.825h-9c.187-2.519 2.406-3.825 4.5-3.825Zm29 10.45c-2.907 0-5.25-2.333-5.25-5.225 0-2.893 2.343-5.225 5.25-5.225 2.906 0 5.25 2.332 5.25 5.225 0 2.892-2.344 5.225-5.25 5.225Z" fill="#1A1A1A"/><path d="M17.969 20.215c4.746 0 8.593-3.829 8.593-8.552 0-4.724-3.847-8.553-8.593-8.553s-8.594 3.83-8.594 8.553c0 4.723 3.848 8.552 8.594 8.552Zm0 3.11c-6.472 0-11.719-5.221-11.719-11.662C6.25 5.222 11.497 0 17.969 0c6.472 0 11.718 5.222 11.718 11.663 0 6.44-5.246 11.662-11.718 11.662Z" fill="#35D07F"/><path d="M11.719 26.435c4.746 0 8.594-3.829 8.594-8.552 0-4.724-3.848-8.553-8.594-8.553-4.746 0-8.594 3.83-8.594 8.553 0 4.723 3.848 8.552 8.594 8.552Zm0 3.11C5.247 29.545 0 24.324 0 17.883 0 11.442 5.247 6.22 11.719 6.22c6.472 0 11.719 5.222 11.719 11.663 0 6.44-5.247 11.662-11.72 11.662Z" fill="#FBCC5C"/><path d="M18.353 23.32a8.513 8.513 0 0 0 1.704-3.36 8.584 8.584 0 0 0 3.374-1.695 11.563 11.563 0 0 1-.91 4.148 11.715 11.715 0 0 1-4.168.906ZM9.631 9.583a8.584 8.584 0 0 0-3.374 1.696c.045-1.427.353-2.833.91-4.148a11.714 11.714 0 0 1 4.167-.906 8.511 8.511 0 0 0-1.703 3.358Z" fill="#ECFF8F"/></g><defs><clipPath id="clip0_205_58"><path fill="#fff" d="M0 0h100v29.546H0z"/></clipPath></defs></svg>