<svg class="partner-size" width="152" height="45" viewBox="0 0 152 45" fill="none" xmlns="http://www.w3.org/2000/svg"><path class="fill" d="m23.936 22.374 15.577 15.462a22.407 22.407 0 0 0 6.155-15.462c0-5.978-2.33-11.427-6.155-15.463L23.936 22.374ZM22.847 23.433 7.472 38.693 22.847 45l15.375-6.306-15.375-15.26ZM22.29 21.819l15.932-15.79L23.556 0 8.89 35.137l13.4-13.318ZM0 22.374c0 5.953 2.33 11.376 6.104 15.412l15.3-36.65L0 22.373ZM145.136 18.035c-4.078 0-5.573 3.002-5.573 3.002v-2.648h-3.039V36.02h3.039V24.493c0-1.564 1.47-3.759 4.712-3.759 3.014 0 4.686 1.816 4.686 5.12V36.02H152V25.325c-.025-4.414-2.71-7.29-6.864-7.29ZM128.672 12.536h-3.04v3.507a2.362 2.362 0 0 1-2.355 2.346h-3.42l-5.648 13.52-5.648-13.52h-3.116l7.219 17.278-1.849 4.465h-3.977v2.623h3.09a4.366 4.366 0 0 0 4.028-2.674l7.953-19.044h3.749v10.518c0 2.725 1.621 4.465 4.128 4.465h4.18v-2.623h-5.294v-12.36h5.294v-2.648h-5.294v-5.853ZM103.52 24.442c0-3.935-2.837-6.407-7.37-6.407-4.205 0-7.144 2.598-7.7 6.71h2.963c.633-3.052 2.76-4.162 4.66-4.162 2.761 0 4.433 1.539 4.433 4.137v1.185h-4.18c-5.876 0-8.409 1.867-8.409 5.07 0 3.28 2.61 5.297 6.713 5.297 3.292 0 5.192-1.21 6.053-3.127.228 1.614 1.14 2.85 3.496 2.85h2.001v-2.649h-2.635v-8.904h-.025Zm-3.039 6.382c0 1.79-2.23 3.204-5.345 3.204-2.507 0-4.052-.959-4.052-2.75v-.706c0-1.69 1.62-2.623 5.217-2.623h4.18v2.875ZM83.08 11.25h-3.04v20.28c0 2.724 1.621 4.465 4.129 4.465h1.545v-2.623h-2.66V11.25h.025ZM62.259 11.25h-3.04v24.745h3.04V11.25ZM77.938 11.25h-3.774l-9.372 9.308a2.428 2.428 0 0 0-.177 3.254l9.802 12.183h3.825L67.046 22.07 77.938 11.25Z" fill="#574A3B"/></svg>