<svg class="partner-size" width="103" height="22" viewBox="0 0 103 22" fill="none" xmlns="http://www.w3.org/2000/svg"><path d="M10.972 19.886c4.794 0 8.68-3.938 8.68-8.795 0-4.858-3.886-8.795-8.68-8.795s-8.68 3.937-8.68 8.795c0 4.857 3.886 8.795 8.68 8.795Z" stroke="url(#paint0_linear_218_3)" stroke-width="2.4"/><path d="M15.461 15.118a.094.094 0 0 1-.092-.093V7.278a.744.744 0 0 0-.322-.614.726.726 0 0 0-.685-.071 12.641 12.641 0 0 0-2.81 1.62c-1.757 1.342-2.476 3.024-2.476 4.627 0 1.603 1.053 2.248 1.907 2.248.855 0 1.925-.755 1.925-2.248 0-1.493-.384-2.104-.884-2.976.464-.25.963-.43 1.48-.531a.247.247 0 0 1 .273.138c.016.033.024.07.024.107v5.54c0 .168.066.328.184.447a.622.622 0 0 0 .442.185h1.56v-.632h-.526Zm-4.477-.366c-.37 0-.97-.495-.97-1.793 0-1.3.78-2.169.979-2.304.168.12.98.989.98 2.303 0 1.313-.619 1.794-.989 1.794Zm-1.56-5.149a4.033 4.033 0 0 0-.96-.29.244.244 0 0 0-.262.145.252.252 0 0 0-.022.104v5.556a.635.635 0 0 1-.183.447.622.622 0 0 1-.442.185H5.956v-.632h.568c.024 0 .048-.01.065-.027a.094.094 0 0 0 .027-.066V7.288a.744.744 0 0 1 .325-.614.727.727 0 0 1 .685-.07c1.043.426 2.021.996 2.907 1.694a6.472 6.472 0 0 0-1.11 1.305Z" fill="url(#paint1_linear_218_3)"/><path class="fill" d="M55.033 15.263a.454.454 0 0 1-.451.457h-1.253a.454.454 0 0 1-.451-.457V9.376a.232.232 0 0 0-.23-.233h-.68a.429.429 0 0 1-.426-.432c0-.238.191-.432.426-.432h.68c.127 0 .23-.104.23-.233V5.998c0-.252.202-.457.45-.457h1.254c.249 0 .45.205.45.457v2.048c0 .129.104.233.231.233h1.569c.236 0 .426.194.426.432s-.19.432-.426.432h-1.569a.232.232 0 0 0-.23.233v5.887Z" fill="#2E2E2E"/><path class="fill" fill-rule="evenodd" clip-rule="evenodd" d="M43.382 11.983c0 .387-.051.75-.153 1.09-.102.338-.243.652-.426.94a3.65 3.65 0 0 1-.648.78 4.276 4.276 0 0 1-1.812.947 4.362 4.362 0 0 1-1.062.128 4.362 4.362 0 0 1-2.034-.496 4.15 4.15 0 0 1-.833-.58 3.813 3.813 0 0 1-.655-.78 3.817 3.817 0 0 1-.572-2.03c0-.38.05-.742.152-1.08.102-.344.242-.66.42-.948.182-.288.4-.545.655-.773a4.01 4.01 0 0 1 .833-.586 4.423 4.423 0 0 1 3.096-.367c.347.086.672.208.972.367.306.159.585.354.84.586a3.75 3.75 0 0 1 1.075 1.72c.1.34.152.7.152 1.082Zm-2.187 0c0-.206-.013-.423-.038-.65a4.416 4.416 0 0 0-.115-.677 3.254 3.254 0 0 0-.229-.637 1.966 1.966 0 0 0-.35-.535 1.542 1.542 0 0 0-.502-.367 1.542 1.542 0 0 0-.68-.142c-.246 0-.464.047-.655.142-.19.094-.358.22-.502.38-.14.154-.259.335-.356.54a4.45 4.45 0 0 0-.356 1.314 5.6 5.6 0 0 0-.038.632c0 .198.012.41.038.638.025.223.068.447.127.67.06.223.136.438.229.644.097.202.216.383.356.541.144.155.311.28.502.374.19.095.41.142.655.142.254 0 .479-.045.674-.136.195-.094.362-.219.502-.373a2.02 2.02 0 0 0 .356-.535c.093-.202.168-.414.223-.638.06-.223.1-.448.12-.676.026-.228.039-.444.039-.65Z" fill="#2E2E2E"/><path class="fill" d="M46.917 13.568a6.65 6.65 0 0 1-.191 1.56 7.823 7.823 0 0 1-.54 1.52 7.693 7.693 0 0 1-.827 1.384c-.25.342-.522.647-.815.914a.424.424 0 0 1-.51.042l-.15-.092c-.226-.139-.285-.443-.152-.675.108-.19.208-.392.298-.607a8.37 8.37 0 0 0 .4-1.18 9.598 9.598 0 0 0 .331-2.415V8.736c0-.252.202-.457.451-.457h1.254c.249 0 .45.205.45.457v4.832ZM50.01 15.72a.454.454 0 0 0 .452-.457v-6.52a.454.454 0 0 0-.451-.457h-1.254a.454.454 0 0 0-.45.457v6.52c0 .252.201.457.45.457h1.254Z" fill="#2E2E2E"/><path class="fill" fill-rule="evenodd" clip-rule="evenodd" d="M65.145 13.072c.102-.34.153-.702.153-1.089a3.75 3.75 0 0 0-.153-1.082 3.728 3.728 0 0 0-1.074-1.72 3.947 3.947 0 0 0-.839-.586 4.271 4.271 0 0 0-.973-.367 4.355 4.355 0 0 0-1.062-.13 4.361 4.361 0 0 0-2.034.497 4 4 0 0 0-.833.586 3.67 3.67 0 0 0-.655.773 3.9 3.9 0 0 0-.42.947c-.101.34-.152.7-.152 1.082a3.813 3.813 0 0 0 .572 2.03c.183.287.401.547.655.78a4.14 4.14 0 0 0 1.806.946c.343.086.697.129 1.061.129a4.36 4.36 0 0 0 1.062-.129 4.28 4.28 0 0 0 .973-.367c.305-.159.585-.352.84-.58.253-.232.47-.492.647-.78.183-.287.325-.6.426-.94Zm-2.072-1.74a5.9 5.9 0 0 1 .038.651c0 .207-.013.423-.038.651a4.114 4.114 0 0 1-.121.676c-.055.224-.13.436-.222.638-.094.202-.212.38-.356.535-.14.154-.308.279-.502.373-.196.09-.42.136-.675.136-.246 0-.464-.048-.654-.142a1.73 1.73 0 0 1-.502-.374 2.359 2.359 0 0 1-.356-.54 4.119 4.119 0 0 1-.23-.645 4.632 4.632 0 0 1-.127-.67 5.657 5.657 0 0 1-.038-.638c0-.197.013-.408.038-.63a4.425 4.425 0 0 1 .356-1.315 2.19 2.19 0 0 1 .357-.541c.144-.16.311-.286.502-.38.19-.095.408-.142.654-.142.26 0 .485.047.68.142.196.09.363.212.503.367.14.15.256.329.35.535.097.201.173.414.229.637.054.22.093.445.114.677Z" fill="#2E2E2E"/><path class="fill" d="M74.517 12.885c0 .4-.05.752-.152 1.057a2.426 2.426 0 0 1-1.056 1.353c-.245.15-.514.27-.807.36-.288.09-.596.155-.921.194a8.286 8.286 0 0 1-.986.057c-.441 0-.848-.034-1.22-.103a4.694 4.694 0 0 1-1.056-.309 5.005 5.005 0 0 1-.947-.56c-.2-.151-.4-.324-.6-.519a.443.443 0 0 1 0-.624l.512-.527c.228-.234.623-.155.809.114.05.074.105.146.162.216.208.249.435.464.68.644.25.18.509.322.776.425.267.103.52.155.757.155.28 0 .542-.02.788-.058a2.22 2.22 0 0 0 .642-.206c.183-.095.324-.22.426-.374.106-.159.16-.356.16-.592 0-.181-.041-.336-.122-.464a1.113 1.113 0 0 0-.317-.329 1.868 1.868 0 0 0-.44-.238 4.106 4.106 0 0 0-.508-.161 7.72 7.72 0 0 0-.502-.123 6.918 6.918 0 0 1-.439-.116c-.25-.073-.51-.15-.782-.232a10.511 10.511 0 0 1-.801-.29 6.136 6.136 0 0 1-.75-.367 2.934 2.934 0 0 1-.617-.496 2.306 2.306 0 0 1-.426-.663 2.239 2.239 0 0 1-.159-.87c0-.39.047-.736.14-1.037a2.402 2.402 0 0 1 1.024-1.353c.237-.154.497-.277.782-.367.284-.094.585-.161.902-.2.323-.043.651-.064.986-.064.458 0 .873.043 1.246.129.377.086.725.208 1.043.367.318.159.608.35.87.573.162.132.317.274.466.425a.438.438 0 0 1-.009.612l-.487.5c-.236.243-.649.147-.83-.141a2.94 2.94 0 0 0-.112-.165 3.165 3.165 0 0 0-.597-.638 2.583 2.583 0 0 0-.693-.412 1.846 1.846 0 0 0-.7-.149c-.292 0-.562.022-.808.065a2.018 2.018 0 0 0-.635.2c-.174.09-.31.214-.407.373a1.071 1.071 0 0 0-.146.58c0 .185.036.341.108.47.072.13.168.239.286.329.123.09.26.165.413.225.153.056.31.105.47.148.166.043.327.082.484.116.161.03.307.065.439.103l.8.232c.28.082.556.179.827.29a5.9 5.9 0 0 1 .776.374c.246.142.462.311.648.509a2.172 2.172 0 0 1 .61 1.553Z" fill="#2E2E2E"/><path class="fill" fill-rule="evenodd" clip-rule="evenodd" d="M92.352 15.72c.249 0 .45-.205.45-.457V8.736a.454.454 0 0 0-.45-.457h-.12a.45.45 0 0 0-.387.223l-.444.752c-.15.254-.545.22-.715-.022a2.387 2.387 0 0 0-.052-.07 2.445 2.445 0 0 0-.566-.567 2.51 2.51 0 0 0-1.513-.496c-.56 0-1.06.1-1.5.303-.44.202-.814.479-1.12.83a3.606 3.606 0 0 0-.698 1.231c-.161.473-.242.98-.242 1.52 0 .541.08 1.048.242 1.52.16.473.394.885.699 1.238.305.347.678.622 1.12.824.44.202.94.303 1.5.303.427 0 .82-.084 1.175-.251.182-.087.351-.197.506-.33.149-.127.416-.03.416.167 0 .147.118.266.263.266h1.436Zm-1.743-4.349a4.843 4.843 0 0 1-.127 1.81c-.055.211-.127.415-.216.613-.09.197-.2.373-.331.528-.127.154-.277.279-.452.373-.169.09-.364.136-.584.136-.242 0-.451-.043-.63-.13a1.501 1.501 0 0 1-.458-.353 2.095 2.095 0 0 1-.317-.516 3.572 3.572 0 0 1-.19-.605 5.423 5.423 0 0 1-.103-.638 7.404 7.404 0 0 1 0-1.205c.021-.214.056-.427.102-.637.047-.21.11-.413.19-.606.085-.193.191-.363.319-.509a1.378 1.378 0 0 1 1.087-.49c.241 0 .453.043.636.13.182.085.337.203.464.354.13.146.237.315.317.509.085.189.15.388.198.599.046.21.078.423.095.637ZM102 11.983c0 .541-.081 1.048-.242 1.52a3.679 3.679 0 0 1-.699 1.238 3.285 3.285 0 0 1-1.119.824c-.44.202-.94.303-1.5.303a2.77 2.77 0 0 1-1.183-.251 2.324 2.324 0 0 1-.138-.073c-.291-.166-.778.02-.778.358v2.794a.454.454 0 0 1-.45.457h-1.248a.454.454 0 0 1-.45-.457v-9.96c0-.252.201-.457.45-.457h.12a.45.45 0 0 1 .387.223l.444.752c.15.254.544.22.712-.024.015-.023.032-.046.048-.068.166-.223.354-.412.566-.567.216-.159.452-.281.706-.367.258-.086.53-.13.813-.13.56 0 1.06.102 1.501.304.441.202.814.479 1.119.83.305.349.538.759.699 1.231.161.473.242.98.242 1.52Zm-2.18 0c0-.189-.012-.388-.033-.599a4.593 4.593 0 0 0-.095-.637 3.211 3.211 0 0 0-.197-.606 1.833 1.833 0 0 0-.312-.509 1.356 1.356 0 0 0-.464-.354 1.36 1.36 0 0 0-.623-.135c-.246 0-.46.042-.642.128a1.448 1.448 0 0 0-.464.355 1.978 1.978 0 0 0-.318.509c-.08.189-.144.388-.19.599-.047.21-.081.423-.103.637a7.766 7.766 0 0 0-.025.612 4.813 4.813 0 0 0 .159 1.198c.055.211.128.415.216.613.09.197.197.373.324.528.132.154.282.279.452.373.174.09.37.136.591.136.242 0 .451-.043.63-.13a1.5 1.5 0 0 0 .457-.353c.128-.15.231-.323.312-.516.085-.193.15-.395.197-.605.047-.21.079-.423.095-.638.021-.215.032-.417.032-.606Z" fill="#2E2E2E"/><path class="fill" d="M32.883 6.275c-.274 0-.538.104-.738.294l-.014.013a.881.881 0 0 0-.068.073.948.948 0 0 0-.093.124l-2.116 2.95-2.163-3.01v-.01a1.09 1.09 0 0 0-.55-.4 1.072 1.072 0 0 0-.677.007 1.09 1.09 0 0 0-.541.412 1.12 1.12 0 0 0-.198.658v8.045c0 .252.202.457.45.457h1.278c.25 0 .451-.205.451-.457V9.21l1.452 1.959a.625.625 0 0 0 .497.251.614.614 0 0 0 .496-.251l1.436-1.95v6.213c0 .252.201.457.45.457h1.287c.25 0 .451-.205.451-.457V7.386a1.124 1.124 0 0 0-.318-.786 1.088 1.088 0 0 0-.773-.325ZM77.676 15.533a1.006 1.006 0 0 1-1.094.2 1.03 1.03 0 0 1-.56-.574 1.088 1.088 0 0 1-.077-.406V8.701c0-.253.202-.457.451-.457h1.17c.25 0 .452.204.452.457v4.303l1.36-1.86a.593.593 0 0 1 .47-.24.58.58 0 0 1 .47.24l1.375 1.87V8.701c0-.252.202-.457.451-.457h1.162c.25 0 .451.205.451.457v6.051c.004.224-.061.444-.188.628a1.032 1.032 0 0 1-.512.393 1.008 1.008 0 0 1-.64.007 1.03 1.03 0 0 1-.522-.382v-.009l-2.05-2.871-2.002 2.814a.948.948 0 0 1-.088.118l-.015.016c-.016.018-.032.037-.05.054l-.014.012Z" fill="#2E2E2E"/><defs><linearGradient id="paint0_linear_218_3" x1="18.246" y1="3.44" x2="3.95" y2="19.301" gradientUnits="userSpaceOnUse"><stop stop-color="#16D6A1"/><stop offset="1" stop-color="#0BC6DA"/></linearGradient><linearGradient id="paint1_linear_218_3" x1="5.956" y1="16.279" x2="16.498" y2="6.639" gradientUnits="userSpaceOnUse"><stop stop-color="#0AC4DD"/><stop offset="1" stop-color="#18D995"/></linearGradient></defs></svg>