<svg class="partner-size" width="140" height="32" viewBox="0 0 140 32" fill="none" xmlns="http://www.w3.org/2000/svg">
<mask id="mask0_531_38" style="mask-type:alpha" maskUnits="userSpaceOnUse" x="0" y="0" width="140" height="32">
<path class="fill" d="M0 0H140V32H0V0Z" fill="white"/>
</mask>
<g mask="url(#mask0_531_38)">
<path class="fill" fill-rule="evenodd" clip-rule="evenodd" d="M115.902 9.50999H119.877V5.54056H115.902V9.50999ZM94.7686 16.1204C95.5283 14.1091 97.4738 12.6771 99.755 12.6771C102.036 12.6771 103.981 14.1091 104.741 16.1204H94.7686ZM99.755 8.98651C94.7712 8.98651 90.7298 13.0207 90.7298 17.9972C90.7298 22.9738 94.7712 27.0073 99.755 27.0073C103.175 27.0073 106.15 25.1089 107.682 22.3106L104.347 20.6953C103.42 22.2638 101.711 23.3167 99.755 23.3167C97.2836 23.3167 95.2061 21.6371 94.6033 19.3589H104.906C104.906 19.3606 104.905 19.3629 104.905 19.3649H108.678C108.747 18.9187 108.782 18.462 108.782 17.9972C108.782 13.0207 104.74 8.98651 99.755 8.98651ZM109.83 26.527H113.806V22.5575H109.83V26.527ZM115.902 26.527H119.877V11.255H115.902V26.527ZM130.975 23.3167C128.032 23.3167 125.646 20.935 125.646 17.9972C125.646 15.0588 128.032 12.6771 130.975 12.6771C133.918 12.6771 136.303 15.0588 136.303 17.9972C136.303 20.935 133.918 23.3167 130.975 23.3167ZM130.973 8.98651C125.989 8.98651 121.948 13.0207 121.948 17.9972C121.948 22.9738 125.989 27.0073 130.973 27.0073C135.959 27.0073 140 22.9738 140 17.9972C140 13.0207 135.959 8.98651 130.973 8.98651ZM47.8454 14.6758V18.78H53.4047C53.1145 19.9527 52.5406 21.0037 51.7177 21.8432C50.4765 23.1096 48.7555 23.8073 46.8712 23.8073C42.9614 23.8073 39.7801 20.6316 39.7801 16.7279C39.7801 12.8242 42.9614 9.64808 46.8712 9.64808C48.9656 9.64808 50.8907 10.543 52.2254 12.0866L55.4083 9.49008C53.298 7.02105 50.1669 5.54355 46.8712 5.54355C40.6945 5.54355 35.6692 10.5609 35.6692 16.7279C35.6692 22.8948 40.6945 27.9119 46.8712 27.9119C49.8703 27.9119 52.635 26.833 54.6562 24.771C56.3523 23.0402 57.4764 20.6259 57.6926 18.2074C57.798 17.0276 57.8076 15.8558 57.7454 14.6758H47.8454ZM68.097 23.3177C65.1541 23.3177 62.7681 20.9353 62.7681 17.9972C62.7681 15.0585 65.1541 12.6768 68.097 12.6768C71.0402 12.6768 73.4262 15.0585 73.4262 17.9972C73.4262 20.9353 71.0402 23.3177 68.097 23.3177ZM73.4268 10.7425C71.9329 9.64908 70.0909 9.00178 68.097 9.00178C63.1132 9.00178 59.0731 13.0356 59.0731 18.0112C59.0731 22.9874 63.1132 27.0206 68.097 27.0206C70.0909 27.0206 71.9329 26.3736 73.4268 25.2802V26.527H77.1212V9.49572H73.4268V10.7425ZM85.0518 5.54089H81.3571V9.50999H79.1427V12.9911H81.3571V22.1011C81.3571 23.0419 81.4755 23.8332 81.7102 24.4543C81.9417 25.0687 82.2954 25.5497 82.716 25.9255C83.1423 26.3069 83.6424 26.604 84.2352 26.7726C84.8377 26.9419 85.5023 27.0073 86.2049 27.0073C86.932 27.0073 87.5804 26.932 88.1337 26.7829C88.6474 26.6452 89.1398 26.4503 89.598 26.2027V23.3977C88.8692 23.7124 88.1879 23.8263 87.4105 23.8624C86.5899 23.9009 86.1045 23.6669 85.7005 23.2825C85.2772 22.8799 85.0518 22.3551 85.0518 21.4747V12.9911H89.598V9.50999H85.0518V5.54089Z" fill="black"/>
<path fill-rule="evenodd" clip-rule="evenodd" d="M16.0265 24.7998C11.1585 24.7998 7.21212 20.8603 7.21212 15.9999C7.21212 11.1398 11.1585 7.19959 16.0265 7.19959V-0.000366211C7.17521 -0.000366211 0 7.16307 0 15.9999C0 24.8363 7.17521 31.9998 16.0265 31.9998C24.8775 31.9998 32.053 24.8363 32.053 15.9999H24.8409C24.8409 20.8603 20.8946 24.7998 16.0265 24.7998Z" fill="#2354E6"/>
<path fill-rule="evenodd" clip-rule="evenodd" d="M16.0265 15.9999H24.8409V7.19995H16.0265V15.9999Z" fill="#17E6A1"/>
</g>
</svg>
