<svg class="partner-size" width="44" height="39" viewBox="0 0 44 39" fill="none" xmlns="http://www.w3.org/2000/svg">
<g id="partner_arbitrum" clip-path="url(#clip0_211_71)">
<g id="logo">
<path id="Polygon 1" d="M37.8855 22.7125C37.8855 23.4813 37.6794 24.2365 37.288 24.9018C36.8965 25.5672 36.3336 26.1193 35.656 26.5023L25.2138 32.4046C24.5401 32.7853 23.7768 32.9857 22.9999 32.9857C22.223 32.9857 21.4597 32.7853 20.786 32.4046L10.3438 26.5023C9.66615 26.1193 9.10318 25.5673 8.71169 24.9019C8.32021 24.2365 8.11407 23.4813 8.11406 22.7125V10.9434C8.11404 10.1747 8.32015 9.41951 8.7116 8.75413C9.10304 8.08875 9.66597 7.53669 10.3436 7.15365L20.7858 1.25141C21.4594 0.870657 22.2228 0.670288 22.9997 0.670288C23.7766 0.670288 24.5399 0.870657 25.2135 1.25141L35.6558 7.15365C36.3334 7.53666 36.8964 8.08871 37.2879 8.75409C37.6794 9.41947 37.8855 10.1747 37.8855 10.9434V22.7125Z" fill="#1D86CC"></path>
<path id="Path 83" d="M21.7127 2.8946L11.4038 8.7516C11.0119 8.97418 10.6864 9.29436 10.4602 9.67991C10.234 10.0655 10.115 10.5028 10.1152 10.948L10.1216 22.6749C10.1219 23.1194 10.241 23.5559 10.4669 23.9409C10.6929 24.3258 11.0177 24.6455 11.4089 24.868L21.7298 30.7368C22.1216 30.9593 22.566 31.0764 23.0184 31.0764C23.4708 31.0764 23.9153 30.9593 24.307 30.7368L34.616 24.8815C35.0079 24.6589 35.3333 24.3388 35.5595 23.9532C35.7857 23.5677 35.9047 23.1303 35.9046 22.6851L35.8982 10.9582C35.8978 10.5138 35.7787 10.0773 35.5528 9.69239C35.3268 9.30751 35.002 8.98782 34.6109 8.76537L24.29 2.89634C23.8982 2.67384 23.4537 2.5567 23.0013 2.5567C22.5489 2.5567 22.1045 2.67384 21.7127 2.89634V2.8946Z" fill="white"></path>
<path id="Path 84" d="M18.3101 26.7731C18.326 26.6967 18.3607 26.6253 18.4114 26.5652C21.4951 21.4181 24.5795 16.2711 27.6643 11.1244C27.7072 11.0529 27.7469 10.9795 27.7834 10.9154C27.7563 10.8689 27.7254 10.8785 27.6992 10.8785C26.3813 10.8831 25.0633 10.8914 23.7445 10.8899C23.6881 10.8889 23.6328 10.9049 23.586 10.9358C23.5391 10.9666 23.503 11.0109 23.4825 11.0625C22.4884 12.6798 21.4929 14.2966 20.4962 15.9129C18.3848 19.3396 16.2732 22.7661 14.1614 26.1926C14.1427 26.223 14.1232 26.2527 14.1065 26.284C14.0692 26.3548 14.0267 26.3659 13.951 26.3227C13.6233 26.1323 13.292 25.9481 12.9439 25.7512L22.3419 10.9246C22.3217 10.8643 22.2801 10.8794 22.2481 10.8783C21.7444 10.8634 21.2406 10.842 20.7374 10.8377C20.0304 10.8171 19.3259 10.9287 18.6613 11.1668C18.0561 11.3872 17.5417 11.798 17.1981 12.3353C15.481 14.9698 13.7573 17.6002 12.0272 20.2266C12.0001 20.2681 11.9712 20.3087 11.9432 20.3498C11.8441 20.3498 11.8588 20.2694 11.8496 20.2132C11.8409 20.1286 11.8388 20.0435 11.8435 19.9586C11.8435 17.0537 11.8537 14.1488 11.8344 11.2441C11.8188 10.9939 11.88 10.7447 12.01 10.529C12.14 10.3133 12.3328 10.141 12.5635 10.0343C14.8344 8.76082 17.0906 7.46114 19.3541 6.17478C20.3643 5.60066 21.3777 5.03201 22.3806 4.44587C22.5692 4.32137 22.7912 4.25488 23.0184 4.25488C23.2456 4.25488 23.4676 4.32137 23.6563 4.44587C25.5003 5.5104 27.3608 6.55023 29.2144 7.59968C30.6125 8.39155 32.0113 9.18203 33.4107 9.97112C33.5109 10.0273 33.6083 10.0874 33.709 10.1427C33.8726 10.2282 34.008 10.358 34.099 10.5168C34.19 10.6756 34.2329 10.8567 34.2227 11.0387C34.2253 14.1986 34.2253 17.3584 34.2227 20.5183C34.2292 20.5961 34.2206 20.6743 34.1973 20.7489C34.0862 20.8544 34.0461 20.736 34.0056 20.6798C33.839 20.4493 33.6895 20.2065 33.5346 19.9678C32.2946 18.0584 31.0504 16.1516 29.8021 14.2474C29.3826 13.6038 28.9578 12.9628 28.5428 12.3165C28.4459 12.1657 28.4284 12.1636 28.3315 12.3255C27.7053 13.3678 27.0794 14.4103 26.4539 15.4531C26.4196 15.5111 26.4048 15.5782 26.4117 15.645C26.4185 15.7117 26.4467 15.7746 26.4921 15.8246C27.0078 16.6431 27.5226 17.4623 28.0364 18.2819L30.6708 22.4736C31.0263 23.0401 31.3823 23.6061 31.739 24.1715C31.8052 24.2473 31.8424 24.3435 31.8443 24.4434C31.773 24.5828 31.6243 24.6219 31.5006 24.6853C31.2975 24.8296 31.0743 24.9442 30.8379 25.0256C30.7103 24.9943 30.6652 24.8811 30.6048 24.7885C29.7892 23.5371 28.984 22.2793 28.1738 21.0249C27.3404 19.7355 26.511 18.4413 25.6741 17.1532C25.5668 16.9879 25.5496 16.9868 25.4488 17.1532C24.7207 18.358 24.0026 19.5685 23.2728 20.772C23.2355 20.8285 23.2171 20.895 23.2203 20.9622C23.2236 21.0294 23.2482 21.0939 23.2908 21.1466C24.2739 22.6371 25.2344 24.1407 26.2071 25.6386C26.4783 26.056 26.7516 26.4719 27.018 26.8924C27.07 26.9741 27.1411 27.0557 27.094 27.1662C26.8386 27.3617 26.5631 27.5301 26.2719 27.6689C25.3634 28.1889 24.4544 28.7081 23.545 29.2267C23.3993 29.3192 23.2295 29.3684 23.0561 29.3684C22.8827 29.3684 22.713 29.3192 22.5674 29.2267C21.2278 28.4644 19.8858 27.7055 18.5414 26.9501C18.4488 26.9139 18.3685 26.8525 18.3101 26.7731Z" fill="#2D374B"></path>
<path id="Path 85" d="M34.1577 20.7806C34.1597 20.7025 34.1636 20.6247 34.1636 20.5469C34.1636 17.3942 34.1647 14.2416 34.1668 11.0892C34.1782 10.898 34.1325 10.7077 34.0355 10.5417C33.9385 10.3756 33.7943 10.241 33.6207 10.1545C30.2552 8.25662 26.8921 6.35448 23.5314 4.44803C23.3801 4.35119 23.2036 4.29942 23.0231 4.29896C22.8426 4.29849 22.6657 4.34935 22.5139 4.44541C20.6476 5.51235 18.779 6.57653 16.908 7.63793C15.4068 8.49273 13.9057 9.34775 12.4047 10.203C12.2444 10.2848 12.1115 10.4104 12.022 10.5647C11.9325 10.719 11.8902 10.8954 11.9002 11.0728C11.9079 14.0979 11.9122 17.123 11.9132 20.1481C11.9132 20.2154 11.8855 20.2904 11.9452 20.3498C11.5898 20.932 11.1992 21.4915 10.8248 22.0612C10.6373 22.3465 10.4491 22.6313 10.2601 22.9155C10.2298 22.961 10.195 23.0029 10.1352 23.084C10.1307 22.9887 10.1261 22.9361 10.1261 22.8836C10.1261 18.8943 10.1268 14.905 10.1283 10.9157C10.1184 10.4729 10.2327 10.036 10.4586 9.65292C10.6845 9.26983 11.0133 8.95535 11.4089 8.74398C12.714 7.98169 14.0363 7.24782 15.3501 6.49909C16.4585 5.86771 17.5632 5.23152 18.6709 4.59905C19.704 4.00898 20.7267 3.40121 21.7774 2.84326C22.1798 2.62285 22.635 2.51277 23.0954 2.52453C23.5558 2.5363 24.0046 2.66947 24.3948 2.91014C25.2391 3.38132 26.0798 3.86124 26.9216 4.33723C27.7134 4.78554 28.5052 5.23415 29.2969 5.68304C30.0265 6.09623 30.7564 6.50898 31.4865 6.92131C32.2103 7.33028 32.9342 7.73903 33.6582 8.14757C33.9764 8.32743 34.2943 8.50751 34.6104 8.69065C34.9594 8.88489 35.2596 9.15398 35.4884 9.47791C35.7173 9.80184 35.869 10.1723 35.9324 10.5618C35.9473 10.6743 35.952 10.7879 35.9462 10.9012C35.9462 14.8267 35.9467 18.7523 35.9477 22.678C35.9498 23.051 35.868 23.4198 35.7081 23.758C35.5482 24.0963 35.3143 24.3955 35.023 24.6344C34.8568 24.7591 34.6781 24.8668 34.4898 24.9559C33.4085 25.5764 32.3258 26.1944 31.2414 26.8098C30.0892 27.4654 28.9364 28.12 27.7832 28.7734C26.6751 29.4049 25.5683 30.0386 24.4626 30.6747C24.1873 30.8569 23.8775 30.9826 23.5517 31.0443C23.0104 31.1482 22.4496 31.078 21.952 30.8441C21.4006 30.5532 20.8634 30.2377 20.3197 29.9313C19.5897 29.5192 18.8599 29.1064 18.1306 28.6928C17.9246 28.5762 17.7184 28.4603 17.512 28.3451C17.4363 28.3027 17.3845 28.2596 17.4436 28.1624C17.7165 27.7128 17.9851 27.2606 18.2566 26.8102C18.2661 26.7938 18.2905 26.7862 18.3081 26.7741C18.5611 26.8904 18.806 27.0229 19.0413 27.1708C20.2326 27.841 21.4221 28.5145 22.6097 29.1913C22.7469 29.2766 22.9062 29.3211 23.0685 29.3194C23.2309 29.3177 23.3892 29.2699 23.5245 29.1817C24.6525 28.5306 25.7863 27.889 26.9176 27.244C26.9736 27.2121 27.0309 27.1831 27.0878 27.1529C27.1945 27.0188 27.337 26.9166 27.4993 26.8576C28.5213 26.2816 29.5357 25.6941 30.5575 25.1195C30.6428 25.0717 30.7197 24.9978 30.8308 25.0103L31.8319 24.4399C31.893 24.314 32.0234 24.2733 32.1327 24.2113C32.6364 23.9252 33.1354 23.6313 33.6436 23.3544C33.7906 23.2782 33.9121 23.162 33.9937 23.0196C34.0752 22.8771 34.1133 22.7146 34.1032 22.5514C34.1083 22.0501 34.1032 21.5485 34.1056 21.047C34.088 20.9549 34.1066 20.8596 34.1577 20.7806Z" fill="#96BEDC"></path>
</g>
<g id="arbitrum">
<path class="fill" d="M39.1688 37.5224V36.4168C39.1688 36.3602 39.1672 36.3034 39.1699 36.2468C39.1843 35.9522 39.2639 35.8643 39.5574 35.8497C39.7511 35.84 39.946 35.8497 40.1404 35.8527C40.2239 35.8513 40.3057 35.8759 40.3742 35.923C40.4427 35.9701 40.4943 36.0373 40.5216 36.115C40.6501 36.4074 40.7807 36.6985 40.9091 36.9907C41.0837 37.3865 41.258 37.7827 41.4319 38.1791C41.449 38.218 41.4652 38.2576 41.4838 38.2958C41.5061 38.3417 41.5338 38.3819 41.5949 38.3787C41.656 38.3754 41.6798 38.335 41.7001 38.2867C41.7223 38.2344 41.7474 38.1835 41.7702 38.1315C42.0449 37.5082 42.3193 36.8848 42.5936 36.2612C42.6194 36.2028 42.6472 36.1451 42.6741 36.0863C42.7006 36.0199 42.7462 35.9624 42.8054 35.9211C42.8646 35.8798 42.9348 35.8563 43.0073 35.8536C43.237 35.833 43.4681 35.8344 43.6974 35.8577C43.8896 35.882 43.9571 35.9543 43.9829 36.1451C43.9935 36.2294 43.9985 36.3143 43.9978 36.3993C43.9988 37.1786 43.9988 37.9581 43.9978 38.7377C43.9978 38.7731 43.9965 38.8085 43.9978 38.8442C44.0002 38.9403 43.9578 38.9878 43.8556 38.9849C43.7187 38.9812 43.5819 38.9836 43.445 38.9836C43.4288 38.986 43.4123 38.9846 43.3968 38.9795C43.3813 38.9745 43.3672 38.9659 43.3556 38.9545C43.3441 38.9431 43.3355 38.9292 43.3305 38.9139C43.3254 38.8986 43.3241 38.8824 43.3266 38.8665C43.3266 38.8168 43.3266 38.7672 43.3266 38.7176C43.3266 38.0375 43.3266 37.3572 43.3248 36.6771C43.3248 36.6213 43.363 36.5359 43.2737 36.5167C43.188 36.4983 43.1773 36.5844 43.1519 36.6393C42.8667 37.2579 42.582 37.8771 42.2979 38.4969C42.271 38.5552 42.243 38.6126 42.2142 38.6691C42.1651 38.7675 42.0886 38.85 41.9936 38.9072C41.8986 38.9644 41.789 38.9939 41.6776 38.9921C41.4991 39.0218 41.3158 38.9855 41.1628 38.8904C41.0099 38.7952 40.898 38.6479 40.8487 38.4766C40.6027 37.888 40.3208 37.3139 40.0542 36.7337C40.0393 36.7013 40.0257 36.6681 40.0097 36.6371C39.9826 36.5827 39.9715 36.4961 39.8858 36.5186C39.8 36.5411 39.8376 36.6255 39.8373 36.6823C39.8349 37.3554 39.8358 38.0286 39.8355 38.7017C39.8355 38.7585 39.8356 38.8151 39.8345 38.8717C39.8345 38.9515 39.79 38.9856 39.712 38.9853C39.6038 38.9853 39.4959 38.9853 39.3877 38.9853C39.1702 38.9838 39.1686 38.9834 39.1679 38.7758C39.1666 38.4285 39.1679 38.0814 39.1679 37.7342L39.1688 37.5224Z" fill="#2D364D"></path>
<path class="fill" d="M32.9648 36.9853C32.9648 36.6806 32.9648 36.376 32.9648 36.0711C32.9648 35.8589 32.9781 35.848 33.2011 35.8453C33.302 35.8442 33.4029 35.8414 33.5038 35.8453C33.6428 35.8523 33.6608 35.8727 33.6686 36.0112C33.6713 36.0606 33.6686 36.1104 33.6686 36.16C33.6686 36.6915 33.6633 37.223 33.6704 37.7543C33.6766 38.2227 33.8064 38.3424 34.2818 38.3444C34.6997 38.3455 35.1174 38.3444 35.5353 38.3444C35.5929 38.3456 35.6505 38.3437 35.7079 38.3387C35.7626 38.3403 35.8169 38.3308 35.8676 38.3107C35.9183 38.2906 35.9642 38.2604 36.0024 38.222C36.0407 38.1836 36.0704 38.1379 36.0898 38.0876C36.1092 38.0374 36.1177 37.9837 36.115 37.93C36.1247 37.8173 36.1241 37.7036 36.1245 37.5902C36.1245 37.0939 36.1245 36.5982 36.1245 36.1021C36.1245 35.8495 36.1292 35.846 36.3938 35.8451C36.4658 35.8451 36.538 35.8451 36.61 35.8451C36.8177 35.8488 36.8322 35.8609 36.8322 36.0624C36.8335 36.6008 36.8322 37.1393 36.8335 37.6781C36.8337 37.8339 36.824 37.9896 36.8046 38.1442C36.7968 38.3451 36.7158 38.5365 36.5765 38.6835C36.4371 38.8305 36.2486 38.9233 36.0454 38.945C35.9399 38.9677 35.8324 38.9802 35.7244 38.9821H34.0819C33.9593 38.9801 33.8373 38.9655 33.7179 38.9384C33.5306 38.9112 33.3579 38.823 33.2275 38.688C33.097 38.553 33.0163 38.3788 32.9983 38.1934C32.9722 38.0396 32.9598 37.8838 32.9612 37.7279C32.9674 37.4812 32.9648 37.2333 32.9648 36.9853Z" fill="#2D364D"></path>
<path class="fill" d="M23.0607 35.8451C23.6161 35.8451 24.1702 35.8451 24.7248 35.8451C24.95 35.8451 24.9551 35.8527 24.9567 36.0713C24.9567 36.1563 24.9589 36.2413 24.9567 36.3263C24.952 36.476 24.9345 36.4968 24.7789 36.4981C24.4117 36.5018 24.044 36.4994 23.6768 36.4994C23.6263 36.4994 23.5759 36.5012 23.5255 36.4994C23.4506 36.4968 23.423 36.5348 23.425 36.6037C23.4263 36.6533 23.425 36.7029 23.425 36.7525V38.7085C23.425 38.7581 23.425 38.8077 23.4239 38.8573C23.4222 38.9421 23.3832 38.9884 23.2906 38.986C23.1464 38.9836 23.0018 38.9832 22.858 38.986C22.7543 38.988 22.7167 38.9355 22.7189 38.8416C22.7203 38.792 22.7189 38.7423 22.7189 38.6927V36.6736C22.7189 36.5027 22.7167 36.501 22.5426 36.5005C22.168 36.4994 21.7931 36.5005 21.4188 36.5005C21.1966 36.5005 21.1942 36.4955 21.1924 36.27C21.1924 36.2063 21.1924 36.1425 21.1924 36.0787C21.1942 35.8482 21.1944 35.8464 21.439 35.846C21.9801 35.8441 22.5206 35.8438 23.0607 35.8451Z" fill="#2D364D"></path>
<path class="fill" d="M18.9951 37.4282C18.9951 37.8802 18.9951 38.3332 18.9951 38.7856C18.9951 38.9823 18.9906 38.9836 18.7877 38.986C18.6727 38.9873 18.5578 38.9838 18.4427 38.986C18.3454 38.9886 18.2932 38.9517 18.2972 38.8507C18.2994 38.8013 18.2972 38.7517 18.2972 38.7023V36.1366C18.2972 36.0872 18.2994 36.0376 18.2972 35.9882C18.2934 35.9028 18.3305 35.8503 18.4192 35.8484C18.57 35.8451 18.7211 35.8444 18.8718 35.8484C18.9931 35.8514 18.9966 35.9371 18.9964 36.0287C18.9939 36.495 18.9951 36.9616 18.9951 37.4282Z" fill="#2D364D"></path>
<path class="fill" d="M34.1587 20.7804C34.1614 21.4028 34.1754 22.0261 34.1612 22.6476C34.1651 22.7932 34.128 22.9371 34.0539 23.0632C33.9798 23.1894 33.8717 23.2929 33.7415 23.3623C33.1043 23.7172 32.4786 24.0922 31.8357 24.4375C31.5799 23.9785 31.2847 23.5415 31.0052 23.0956C29.5536 20.7814 28.1005 18.4684 26.6457 16.1568C26.5586 16.0183 26.4788 15.8745 26.3815 15.7436C26.3498 15.706 26.3325 15.6587 26.3325 15.6099C26.3325 15.5611 26.3498 15.5138 26.3815 15.4763C26.7287 14.905 27.0703 14.3304 27.414 13.7568L28.368 12.1649C28.3849 12.127 28.4147 12.0961 28.4522 12.0775C28.6181 12.329 28.7854 12.5827 28.9525 12.8367C29.9561 14.3738 30.9596 15.9109 31.9628 17.448C32.6431 18.4909 33.3233 19.5339 34.0034 20.5769C34.0408 20.6543 34.0936 20.7235 34.1587 20.7804Z" fill="#28A0F0"></path>
<path class="fill" d="M30.8345 25.0079C30.4202 25.2754 29.9807 25.5029 29.5537 25.751C28.7794 26.1988 28.0003 26.6383 27.2233 27.081C27.1789 27.1057 27.1344 27.1289 27.0916 27.1527C27.0817 27.082 27.0508 27.0158 27.0027 26.9624C26.3109 25.8928 25.6189 24.8235 24.9269 23.7543C24.3583 22.8764 23.788 21.9993 23.2161 21.1231C23.1774 21.0776 23.155 21.0209 23.1522 20.9617C23.1495 20.9024 23.1667 20.8439 23.2011 20.7952C23.9655 19.5288 24.7267 18.2606 25.4848 16.9904C25.5028 16.9611 25.5172 16.927 25.5619 16.9176C25.6241 16.9314 25.6392 16.9926 25.6687 17.0382C27.0462 19.1725 28.4237 21.307 29.8012 23.4416C30.0943 23.896 30.386 24.3514 30.6808 24.8049C30.7183 24.8817 30.7704 24.9507 30.8341 25.0084L30.8345 25.0079Z" fill="#28A0F0"></path>
<path class="fill" d="M15.7069 37.3727C15.8157 37.2874 15.8988 37.1746 15.9473 37.0463C15.9959 36.9181 16.0081 36.7793 15.9826 36.6447C15.9793 36.5881 15.9811 36.5313 15.9769 36.4749C15.9797 36.3203 15.9208 36.1707 15.8128 36.0582C15.7048 35.9458 15.5563 35.8795 15.3992 35.8735C15.2636 35.8556 15.1269 35.8464 14.9901 35.8458C14.2194 35.8431 13.4491 35.8444 12.6782 35.8458C12.6206 35.8458 12.5629 35.8457 12.5056 35.8495C12.4856 35.8488 12.4656 35.8524 12.4472 35.86C12.4287 35.8676 12.4121 35.8791 12.3986 35.8937C12.3851 35.9082 12.375 35.9255 12.369 35.9443C12.3629 35.963 12.3611 35.9829 12.3636 36.0024C12.3636 36.0451 12.3636 36.0875 12.3636 36.1301V38.8295C12.3636 38.9309 12.4081 38.9908 12.5191 38.9871C12.5551 38.986 12.5911 38.9871 12.6273 38.9871H15.1535C15.2327 38.9882 15.312 38.9852 15.391 38.9781C15.5406 38.9744 15.6838 38.9175 15.7941 38.8179C15.9043 38.7184 15.9743 38.5829 15.9909 38.4366C16.0079 38.3032 16.0143 38.1687 16.0099 38.0343C16.0273 37.9071 16.0082 37.7778 15.9546 37.6608C15.901 37.5439 15.8152 37.4441 15.7069 37.3727ZM13.065 36.5991C13.0626 36.5116 13.0899 36.4721 13.1865 36.4725C13.7971 36.4756 14.4085 36.4703 15.0184 36.4762C15.2388 36.4784 15.3121 36.5709 15.3139 36.8041C15.3159 37.0493 15.2432 37.1408 15.0115 37.1478C14.71 37.1568 14.4076 37.15 14.1064 37.15C13.8047 37.15 13.5027 37.1465 13.2012 37.152C13.1003 37.1537 13.0583 37.1266 13.0641 37.0209C13.0714 36.8797 13.0688 36.7381 13.0653 36.5969L13.065 36.5991ZM15.2885 38.229C15.2757 38.2583 15.2558 38.2841 15.2304 38.304C15.205 38.324 15.1749 38.3374 15.143 38.3431C15.0584 38.3585 14.9727 38.3674 14.8866 38.3697C14.3479 38.372 13.8093 38.372 13.2707 38.3697C13.0679 38.3697 13.0675 38.3673 13.0659 38.173C13.0659 38.0458 13.0717 37.9184 13.0639 37.7919C13.0577 37.6848 13.0904 37.6426 13.2068 37.6455C13.5009 37.6525 13.7955 37.6479 14.0899 37.6479C14.3769 37.6479 14.6645 37.6422 14.9515 37.6494C15.0219 37.6451 15.092 37.6603 15.1541 37.6932C15.2161 37.7261 15.2675 37.7754 15.3025 37.8356C15.3375 37.8958 15.3548 37.9644 15.3522 38.0337C15.3497 38.1029 15.3274 38.1702 15.2881 38.2277L15.2885 38.229Z" fill="#2D364D"></path>
<path class="fill" d="M10.0128 38.7249C9.80436 38.4639 9.59065 38.2071 9.37292 37.9409C9.42824 37.9202 9.46642 37.9034 9.50619 37.8913C9.63902 37.8549 9.75779 37.7802 9.84721 37.677C9.93663 37.5737 9.99263 37.4465 10.0081 37.3117C10.0559 37.0461 10.0564 36.7744 10.0097 36.5086C9.99336 36.3444 9.91876 36.191 9.79899 36.0755C9.67922 35.96 9.52193 35.8896 9.35469 35.8768C9.21925 35.8579 9.08266 35.848 8.94587 35.8471C8.21869 35.8442 7.49155 35.8458 6.76415 35.8458C6.73549 35.8458 6.70634 35.8447 6.6779 35.8458C6.50661 35.8547 6.47621 35.8838 6.46799 36.0451C6.46643 36.0733 6.46799 36.1017 6.46799 36.1301V38.8499C6.46799 38.948 6.51798 38.9893 6.61618 38.9871C6.7386 38.9845 6.86053 38.9884 6.9834 38.9871C7.15891 38.9843 7.16895 38.9768 7.1714 38.809C7.17473 38.5905 7.17562 38.3699 7.1714 38.1505C7.16918 38.0476 7.19358 37.9975 7.314 38.0004C7.71703 38.0074 8.12029 38.0058 8.52354 38.0004C8.56238 37.9984 8.60103 38.0068 8.63539 38.0248C8.66974 38.0427 8.6985 38.0695 8.7186 38.1022C8.84524 38.274 8.97521 38.444 9.10963 38.6101C9.20783 38.7316 9.27273 38.8964 9.41181 38.964C9.56437 39.0058 9.72463 39.0128 9.88035 38.9843C9.96633 38.9832 10.087 39.0385 10.1327 38.936C10.1705 38.849 10.0641 38.7887 10.0128 38.7249ZM9.3318 37.0495C9.31803 37.3395 9.21247 37.4429 8.91853 37.4483C8.65192 37.4527 8.38534 37.4483 8.11873 37.4483C7.85212 37.4483 7.58549 37.4433 7.31888 37.4508C7.20535 37.4538 7.16737 37.4173 7.17048 37.3067C7.1767 37.0733 7.17514 36.8395 7.17048 36.6059C7.1687 36.5075 7.20223 36.4679 7.30755 36.4688C7.85454 36.4728 8.40154 36.4675 8.94831 36.4723C8.99709 36.4649 9.04693 36.4685 9.09411 36.4827C9.1413 36.4969 9.18462 36.5214 9.22082 36.5544C9.25703 36.5874 9.2852 36.628 9.30322 36.6732C9.32124 36.7184 9.32867 36.767 9.32491 36.8154C9.33199 36.8929 9.33362 36.9707 9.3298 37.0484L9.3318 37.0495Z" fill="#2D364D"></path>
<path class="fill" d="M30.7526 38.802C30.5639 38.5695 30.3727 38.3393 30.1845 38.1066C30.13 38.0591 30.0891 37.9982 30.0662 37.9302C30.0942 37.9213 30.1209 37.911 30.1482 37.9036C30.2935 37.8698 30.424 37.7915 30.521 37.68C30.6181 37.5685 30.6765 37.4295 30.6879 37.2831C30.7327 37.0099 30.7276 36.7311 30.673 36.4596C30.6489 36.3074 30.5738 36.1675 30.4596 36.0622C30.3454 35.9568 30.1986 35.892 30.0427 35.8781C29.9147 35.8583 29.7854 35.8478 29.6559 35.8466C28.9072 35.8437 28.1585 35.8437 27.4097 35.8466C27.1642 35.8466 27.1531 35.8591 27.1529 36.0986C27.1529 36.9838 27.1529 37.8691 27.1529 38.7543C27.1529 38.7898 27.1542 38.8252 27.1529 38.8608C27.1498 38.9502 27.1931 38.9893 27.2833 38.9878C27.4128 38.9856 27.5426 38.9897 27.6721 38.9878C27.8343 38.9843 27.8461 38.974 27.8485 38.8197C27.8521 38.6071 27.8498 38.3948 27.8485 38.1824C27.8485 37.9951 27.8412 38.0032 28.0191 38.0036C28.4006 38.0036 28.7823 38.0089 29.1635 38.0008C29.2128 37.9975 29.2621 38.0076 29.3059 38.0301C29.3497 38.0525 29.3864 38.0864 29.412 38.128C29.5981 38.3798 29.7952 38.6243 29.9827 38.875C30.0074 38.9136 30.0425 38.9447 30.084 38.965C30.1255 38.9853 30.1718 38.994 30.218 38.9902C30.3689 38.9834 30.5204 38.9902 30.6715 38.9878C30.7192 38.9878 30.779 39.0061 30.8081 38.9517C30.8434 38.8848 30.7868 38.844 30.7526 38.802ZM30.0029 37.1424C29.9992 37.2214 29.9653 37.2962 29.908 37.3517C29.8507 37.4073 29.7743 37.4396 29.6939 37.4422C29.6369 37.4483 29.5795 37.4504 29.5221 37.4485C29.0196 37.4485 28.5171 37.4485 28.0147 37.4485C27.8525 37.4485 27.8512 37.4461 27.8501 37.2866C27.8484 37.0748 27.8484 36.8629 27.8501 36.6511C27.8512 36.473 27.8527 36.4721 28.0453 36.4712C28.3037 36.4712 28.5621 36.4712 28.8203 36.4712C29.0785 36.4712 29.3371 36.4686 29.5952 36.4712C29.887 36.4749 30 36.584 30.0096 36.867C30.0153 36.9585 30.013 37.0503 30.0027 37.1415L30.0029 37.1424Z" fill="#2D364D"></path>
<path class="fill" d="M4.26821 38.8612C4.2411 38.8112 4.21353 38.7616 4.18576 38.712L3.00822 36.6122C2.92135 36.4574 2.83252 36.3038 2.74743 36.148C2.69827 36.0571 2.62528 35.9809 2.5361 35.9271C2.44692 35.8733 2.34475 35.8439 2.24016 35.842C2.07669 35.8142 1.90852 35.8422 1.76348 35.9214C1.61843 36.0006 1.50527 36.1262 1.4428 36.2774C1.00556 37.1056 0.539638 37.9193 0.0850679 38.7388C0.0644056 38.776 0.040665 38.812 0.0235575 38.8507C-0.0224327 38.9539 -0.00935176 38.9803 0.101069 38.9836C0.273699 38.9882 0.446558 38.9816 0.619189 38.9864C0.658601 38.9887 0.697711 38.9783 0.730602 38.9568C0.763492 38.9353 0.788398 38.9039 0.801604 38.8673C0.866035 38.741 0.944663 38.6213 1.00154 38.4921C1.01934 38.4429 1.05395 38.4013 1.09945 38.3744C1.14495 38.3475 1.19853 38.337 1.25105 38.3446C1.7765 38.3516 2.30172 38.347 2.82716 38.3479C2.94774 38.3293 3.07084 38.3347 3.18928 38.3636C3.30148 38.4152 3.32905 38.5695 3.39437 38.6783C3.61166 39.0404 3.48459 38.9775 3.87495 38.9843C4.01004 38.9843 4.10357 38.9843 4.19688 38.9843C4.29019 38.9843 4.30864 38.9355 4.26821 38.8612ZM2.89068 37.8216H1.4179C1.38791 37.7707 1.42391 37.7368 1.44302 37.7014C1.63557 37.3455 1.82862 36.99 2.02221 36.6351C2.04141 36.5972 2.06408 36.5612 2.08996 36.5274C2.09598 36.5185 2.10414 36.5111 2.11366 36.5059C2.12319 36.5007 2.13386 36.4978 2.14474 36.4975C2.15563 36.4972 2.1664 36.4995 2.1762 36.5042C2.18601 36.5088 2.19452 36.5157 2.20105 36.5243C2.21466 36.5407 2.22584 36.5588 2.23419 36.5783C2.45311 36.9762 2.67164 37.3742 2.88981 37.7724C2.89537 37.7827 2.88981 37.7984 2.88981 37.8216H2.89068Z" fill="#2D364D"></path>
</g>
</g>
<defs>
<clipPath id="clip0_211_71">
<rect width="44" height="39" fill="white"></rect>
</clipPath>
</defs>
</svg>