<svg class="partner-size" width="167" height="18" viewBox="0 0 167 18" fill="none" xmlns="http://www.w3.org/2000/svg"><g clip-path="url(#clip0_508_2)"><path class="fill" fill-rule="evenodd" clip-rule="evenodd" d="M76.728 8.44c-1.683-.49-2.126-.787-2.126-1.33 0-.438.372-.805 1.152-.805.904 0 1.541.455 1.93 1.365l2.659-1.54c-.868-1.838-2.552-2.801-4.608-2.801-2.409 0-4.304 1.505-4.304 3.798 0 2.294 1.736 3.275 3.685 3.834 1.577.438 2.392.648 2.392 1.349 0 .42-.337.823-1.453.823-1.24 0-2.003-.579-2.445-1.629l-2.712 1.559c.656 1.803 2.375 3.046 5.068 3.046 2.8 0 4.714-1.4 4.714-3.834C80.68 9.7 78.642 9 76.728 8.44ZM90.433 7.495c-.936 0-1.791.335-2.454.887a3.825 3.825 0 0 0-2.44-.873c-2.104 0-3.81 1.686-3.81 3.766v4.571h2.729v-4.733h.005c0-.464.303-.893.778-1.027a1.083 1.083 0 0 1 1.339.732c.028.098.038.197.038.295h.003v4.733h2.73V11.1h.004c0-.465.303-.893.779-1.028a1.085 1.085 0 0 1 1.339.733c.028.098.037.197.037.295h.004v4.733h2.73v-4.571c0-2.08-1.707-3.766-3.811-3.766Z" fill="#333"/><mask id="mask0_508_2" style="mask-type:alpha" maskUnits="userSpaceOnUse" x="0" y="0" width="167" height="18"><path d="M0 18h166.356V.226H0V18Z" fill="#fff"/></mask><g class="fill" mask="url(#mask0_508_2)" fill-rule="evenodd" clip-rule="evenodd" fill="#333"><path d="M154.036 15.85h2.728V7.74h-2.728v8.11ZM99.543 13.154c-.83 0-1.503-.665-1.503-1.485 0-.819.673-1.484 1.502-1.484.831 0 1.503.665 1.503 1.484 0 .82-.672 1.485-1.502 1.485Zm0-5.664c-2.336 0-4.23 1.872-4.23 4.18 0 2.309 1.894 4.18 4.23 4.18.529 0 1.034-.1 1.502-.276v.277h2.729v-4.158h-.002l.002-.023c0-2.308-1.895-4.18-4.231-4.18ZM147.784 13.153c-.83 0-1.502-.665-1.502-1.485 0-.819.672-1.484 1.502-1.484s1.502.665 1.502 1.484c0 .82-.672 1.485-1.502 1.485Zm0-5.664c-2.336 0-4.23 1.872-4.23 4.18 0 2.309 1.894 4.18 4.23 4.18.529 0 1.034-.1 1.502-.276v.277h2.728v-4.158h-.001l.001-.024c0-2.307-1.893-4.18-4.23-4.18ZM105.102 11.67l.002.024h-.002v4.157h2.729v-4.158h.003c-.001-.008-.003-.015-.003-.023 0-.82.672-1.484 1.502-1.484h1.268V7.49h-1.268c-2.336 0-4.231 1.872-4.231 4.18ZM114.629 5.545H111.9v6.103h.001l-.001.023c0 2.309 1.894 4.18 4.231 4.18h1.268v-2.696h-1.268c-.83 0-1.502-.663-1.502-1.483l.002-.024h-.002v-1.28h2.77V7.672h-2.77V5.545ZM127.515 13.414c-2.066 0-3.74-1.654-3.74-3.695 0-2.04 1.674-3.695 3.74-3.695 1.317 0 2.474.673 3.14 1.69l2.348-1.366a6.475 6.475 0 0 0-5.488-3.02c-3.571 0-6.467 2.861-6.467 6.39 0 3.53 2.896 6.39 6.467 6.39a6.472 6.472 0 0 0 5.505-3.049l-2.348-1.365a3.744 3.744 0 0 1-3.157 1.72ZM138.488 7.122c-.455 0-.889.078-1.296.215V4.49h-2.728v11.357h2.728V11.09h.006c0-.543.348-1.046.9-1.216a1.29 1.29 0 0 1 1.612.837c.041.126.053.253.053.378h.007v4.756h2.728v-4.867h-.006c-.057-2.139-1.825-3.857-4.004-3.857ZM155.399 3.966c-.87 0-1.574.697-1.574 1.555 0 .86.704 1.556 1.574 1.556.87 0 1.575-.696 1.575-1.556 0-.858-.705-1.555-1.575-1.555ZM162.338 7.49c-2.218 0-4.017 1.778-4.017 3.97v4.386h2.73V11.46a1.28 1.28 0 0 1 1.287-1.272c.711 0 1.288.57 1.288 1.272V15.846h2.729V11.46c0-2.191-1.798-3.969-4.017-3.969ZM42.623 8.174h-4.255V3.358h-3.016V15.97h3.016v-4.816h4.255v4.816h3.015V3.36h-3.015v4.815ZM51.517 13.227c-1.21 0-2.191-.97-2.191-2.165 0-1.196.98-2.165 2.191-2.165 1.211 0 2.192.969 2.192 2.165 0 1.195-.98 2.165-2.192 2.165Zm0-7.073c-2.743 0-4.967 2.197-4.967 4.908 0 2.71 2.224 4.907 4.967 4.907 2.744 0 4.967-2.197 4.967-4.907s-2.223-4.908-4.967-4.908ZM62.282 13.227c-1.21 0-2.192-.97-2.192-2.165 0-1.196.981-2.165 2.192-2.165 1.21 0 2.191.969 2.191 2.165 0 1.195-.981 2.165-2.191 2.165Zm0-7.073c-2.743 0-4.968 2.197-4.968 4.908 0 2.71 2.224 4.907 4.968 4.907 2.743 0 4.967-2.197 4.967-4.907s-2.224-4.908-4.967-4.908Z"/></g><mask id="mask1_508_2" style="mask-type:alpha" maskUnits="userSpaceOnUse" x="0" y="0" width="30" height="18"><path d="M21.173.226c-3.251 0-6.084 1.836-7.568 4.55-.025.058-.062.127-.109.206-.109.212-.21.428-.303.649-.188.519-.335 1.166-.449 1.791-.114.631-.193 1.24-.241 1.672v.018H12.5v.001l-.006.054c-.029 2.14-1.73 3.867-3.825 3.867-2.112 0-3.825-1.755-3.825-3.92 0-2.167 1.713-3.922 3.825-3.922a3.77 3.77 0 0 1 2.768 1.215 10.372 10.372 0 0 1 2.206-4.175c.071-.082.145-.159.217-.237A8.493 8.493 0 0 0 8.67.225C3.882.226 0 4.206 0 9.114 0 14.021 3.882 17.996 8.67 18h.008c4.2 0 7.689-3.038 8.492-7.14.056-.289.1-.581.128-.879h.002v-.027a8.83 8.83 0 0 0 .03-.422c.01-.123.025-.266.044-.419.056-.476.153-1.054.317-1.49a4.571 4.571 0 0 1 .247-.474c.687-1.145 1.883-1.957 3.235-1.957 2.112 0 3.825 1.755 3.825 3.921s-1.713 3.921-3.825 3.921a3.772 3.772 0 0 1-2.768-1.215 10.388 10.388 0 0 1-2.425 4.412A8.5 8.5 0 0 0 21.173 18c4.788 0 8.669-3.979 8.669-8.887S25.961.226 21.172.226Z" fill="#fff"/></mask><g mask="url(#mask1_508_2)"><path fill-rule="evenodd" clip-rule="evenodd" d="M21.173.226c-3.251 0-6.084 1.836-7.568 4.55-.025.058-.062.127-.109.206-.109.212-.21.428-.303.649-.188.519-.335 1.166-.449 1.791-.114.631-.193 1.24-.241 1.672v.018H12.5v.001l-.006.054c-.029 2.14-1.73 3.867-3.825 3.867-2.112 0-3.825-1.755-3.825-3.92 0-2.167 1.713-3.922 3.825-3.922a3.77 3.77 0 0 1 2.768 1.215 10.372 10.372 0 0 1 2.206-4.175c.071-.082.145-.159.217-.237A8.493 8.493 0 0 0 8.67.225C3.882.226 0 4.206 0 9.114 0 14.021 3.882 17.996 8.67 18h.008c4.2 0 7.689-3.038 8.492-7.14.056-.289.1-.581.128-.879h.002v-.027a8.83 8.83 0 0 0 .03-.422c.01-.123.025-.266.044-.419.056-.476.153-1.054.317-1.49a4.571 4.571 0 0 1 .247-.474c.687-1.145 1.883-1.957 3.235-1.957 2.112 0 3.825 1.755 3.825 3.921s-1.713 3.921-3.825 3.921a3.772 3.772 0 0 1-2.768-1.215 10.388 10.388 0 0 1-2.425 4.412A8.5 8.5 0 0 0 21.173 18c4.788 0 8.669-3.979 8.669-8.887S25.961.226 21.172.226Z" fill="url(#paint0_linear_508_2)"/></g></g><defs><linearGradient id="paint0_linear_508_2" x1="0" y1="9.113" x2="29.843" y2="9.113" gradientUnits="userSpaceOnUse"><stop stop-color="#00BFAA"/><stop offset="1" stop-color="#00DBB1"/></linearGradient><clipPath id="clip0_508_2"><path fill="#fff" d="M0 0h167v18H0z"/></clipPath></defs></svg>