<svg class="partner-size" width="100" height="28" viewBox="0 0 100 28" fill="none" xmlns="http://www.w3.org/2000/svg">
<g id="Group 13">
<g id="Group 11">
<path id="Vector 4" d="M8.5 4H3.5L6 0H11L8.5 4Z" fill="#63D8D8"></path>
<path id="Vector 5" d="M8.5 5H3.5L6 9H10.5L8.5 5Z" fill="#63D8D8"></path>
<path id="Vector 11" d="M19.5 24H14.5L17 28H21.5L19.5 24Z" fill="#63D8D8"></path>
<path id="Vector 12" d="M29 8L24 16.5L26.5 20.5L31.5 11.5L29 8Z" fill="#63D8D8"></path>
<path id="Vector 6" d="M12 4L14 0H24L22 4H12Z" fill="#63D8D8"></path>
<path id="Vector 7" d="M14 9L11.5 5H22L22.5 7L21.5 9H14Z" fill="#63D8D8"></path>
<path id="Vector 8" d="M25.5 4L27.5 0H32.5L30 4H25.5Z" fill="#63D8D8"></path>
<path id="Vector 9" d="M31 4.5L33 0.5L35.5 4.5L33 8L31 4.5Z" fill="#63D8D8"></path>
<path id="Vector 10" d="M12.5 12H7.5L12.5 21H17.5L12.5 12Z" fill="#63D8D8"></path>
<path id="Vector 13" d="M28 7H23.5L20 13.5L21.5 16H23L28 7Z" fill="#63D8D8"></path>
<path id="Vector 14" d="M18 20.5L13 11.5L14 10H17L20.5 16.5L18 20.5Z" fill="#63D8D8"></path>
<path id="Vector 15" d="M22 19.5L20 23.5L22.5 27.5L24.6767 23.5L22 19.5Z" fill="#63D8D8"></path>
<path id="Vector 16" d="M12.5 11H7.5L8 10H12L13 8.5L13.5 9.5L12.5 11Z" fill="#63D8D8"></path>
<path id="Vector 17" d="M19.5 23H14L15 22H19L20.5 19H21.5L19.5 23Z" fill="#63D8D8"></path>
<path id="Vector 18" d="M9 4.5L11.5 0.5L12 2L10.5 4.5L12 7.5L11 8.5L9 4.5Z" fill="#63D8D8"></path>
<path id="Vector 19" d="M21.5 17L21 18H22.5L24 21H25.5L23 17H21.5Z" fill="#63D8D8"></path>
<path id="Vector 20" d="M30 5H25.5V6H29.5L31 9H32.5L30 5Z" fill="#63D8D8"></path>
<path id="Vector 21" d="M25.5 1.5L25 0.5L23 4.5L23.5 6H24.5L24 4.5L25.5 1.5Z" fill="#63D8D8"></path>
</g>
<path class="fill" d="M87.2174 9L86 11.5V19H100V16.7517H87.8261V15.25H100V12.75H87.8261V11.5H100V9H87.2174Z" fill="#191919"></path>
<path class="fill" d="M39.1304 9L38 11.5V19H51V16.5H40.2609V11.5H51V9H39.1304Z" fill="#191919"></path>
<path class="fill" d="M55.6957 9H54V17.125L55.1304 19H67V9H64.7391V16.5H55.6957V9Z" fill="#191919"></path>
<path class="fill" fill-rule="evenodd" clip-rule="evenodd" d="M70 19V9H81.9167L83 11.5V17.125L81.9167 19H70ZM72 13V11.5H81V13H72ZM72 15V16.5H81V15H72Z" fill="black"></path>
</g>
</svg>