<svg class="partner-size" width="184" height="36" viewBox="0 0 184 36" fill="none" xmlns="http://www.w3.org/2000/svg"><g clip-path="url(#clip0_517_48)"><path d="M27.5 29.458c-.11-1.23-.227-2.655-.354-4.272-.127-1.618-.253-3.31-.38-5.078-.127-1.768-.253-3.546-.377-5.336-.124-1.79-.23-3.464-.317-5.024a1224.8 1224.8 0 0 1-1.425 4.401l-1.369 4.198a282.07 282.07 0 0 1-1.198 3.596 830.5 830.5 0 0 1-.89 2.598c-.24.444-.484.867-.732 1.267-.226.37-.481.723-.763 1.052-.234.277-.505.52-.806.72a1.562 1.562 0 0 1-.86.268 1.798 1.798 0 0 1-.995-.258 1.12 1.12 0 0 1-.497-.773 1.84 1.84 0 0 1-.03-.204.709.709 0 0 1 .014-.203 317.292 317.292 0 0 1-2.607-12.26l-.272-1.417a46.98 46.98 0 0 1-.247-1.396 113.064 113.064 0 0 1-1.074 4.015 86 86 0 0 1-1.29 4.111 62.013 62.013 0 0 1-1.478 3.907 34.38 34.38 0 0 1-1.636 3.414 16.738 16.738 0 0 1-1.755 2.619 5.438 5.438 0 0 1-1.84 1.514c-.468.214-.953.39-1.448.526a4.6 4.6 0 0 1-1.136.16 2.01 2.01 0 0 1-1.194-.31 1.212 1.212 0 0 1-.518-.763c-.063-.388.02-.786.231-1.116a2.196 2.196 0 0 1 1.079-.902c.6-.258 1.202-.827 1.804-1.707a21.953 21.953 0 0 0 1.77-3.21 47.57 47.57 0 0 0 1.674-4.208 119.27 119.27 0 0 0 1.527-4.702c.48-1.589.92-3.145 1.32-4.67.4-1.524.751-2.902 1.053-4.133.301-1.23.546-2.258.734-3.081l.351-1.535c.08-.395.31-.742.642-.966a1.873 1.873 0 0 1 1.024-.301 1.453 1.453 0 0 1 1.14.419c.319.438.52.952.584 1.492a90.42 90.42 0 0 1 1.446 4.993c.217.837.43 1.739.636 2.705.207.966.431 2.08.673 3.339.173.902.346 1.897.52 2.984.173 1.088.389 2.304.647 3.65 1.098-3.12 2.072-5.872 2.923-8.255.85-2.384 1.606-4.38 2.265-5.99.49-1.261 1.075-2.482 1.75-3.65.507-.824.958-1.235 1.353-1.236h.149a.701.701 0 0 0 .125-.01.737.737 0 0 1 .125-.01c.34 0 .65.214.93.643.311.513.521 1.082.618 1.675.078.702.16 1.575.248 2.62.087 1.045.177 2.193.269 3.446.092 1.252.186 2.573.283 3.96l.284 4.134c.093 1.367.188 2.695.287 3.983.099 1.288.199 2.455.3 3.5.008.19.03.381.067.569l.113.592c.072.372.15.748.238 1.127.087.379.166.755.237 1.127.083.43.145.862.186 1.299.046.398.003.801-.123 1.18-.137.367-.398.671-.737.86a3.213 3.213 0 0 1-1.634.33 1.333 1.333 0 0 1-.996-.44c-.283-.292-.496-.818-.642-1.577ZM142.671 21.922c-.107.46-.243.911-.41 1.353a14.751 14.751 0 0 1-.67 1.535c-.25.5-.538.982-.86 1.438a5.755 5.755 0 0 1-.962 1.074c-.262.25-.603.398-.962.418-.358.01-.712-.079-1.024-.257a2.756 2.756 0 0 1-.74-.644 3.577 3.577 0 0 1-.507-.848 9.68 9.68 0 0 1-.328-.891 5.279 5.279 0 0 1-.223-2.094 4.804 4.804 0 0 1 .564-1.878 3.806 3.806 0 0 1 1.236-1.353 3.12 3.12 0 0 1 1.771-.515c.281.007.56.047.832.118.335.082.659.2.968.355.308.152.595.343.854.57.234.193.409.45.506.74.054.292.039.593-.045.879Zm-22.128 2.319c0-.272.02-.609.059-1.01.042-.423.114-.843.216-1.256.109-.448.245-.889.408-1.32.16-.43.386-.833.67-1.192.28-.35.628-.639 1.022-.848a2.93 2.93 0 0 1 1.406-.322h.191a1.214 1.214 0 0 1 .726.258c.173.127.3.308.362.515.076.305.048.626-.079.913a2.86 2.86 0 0 1-.965 1.127c-.115.086-.308.25-.579.494-.271.243-.594.515-.968.816-.374.3-.775.615-1.203.944-.428.33-.85.623-1.265.88h-.001Zm-10.515-.805a5.495 5.495 0 0 1-.79 2.179 4.82 4.82 0 0 1-1.586 1.557 4.168 4.168 0 0 1-2.204.591 2.68 2.68 0 0 1-1.078-.193 2.294 2.294 0 0 1-.736-.493 2.508 2.508 0 0 1-.468-.655 4.845 4.845 0 0 1-.28-.698 4.952 4.952 0 0 1-.146-2.459 5.757 5.757 0 0 1 .907-2.179 5.14 5.14 0 0 1 1.692-1.557 4.409 4.409 0 0 1 2.236-.59c.316-.009.629.061.912.204.242.127.461.298.643.504.175.2.319.424.428.666.103.223.192.453.266.687.25.786.319 1.62.202 2.437l.002-.002Zm-40.082.503a4.868 4.868 0 0 1-.55 1.921c-.293.55-.71 1.021-1.22 1.374a2.976 2.976 0 0 1-1.735.526 2.113 2.113 0 0 1-1.104-.279 2.901 2.901 0 0 1-.8-.698 4.124 4.124 0 0 1-.544-.901 8.272 8.272 0 0 1-.339-.892 5.398 5.398 0 0 1-.237-2.136c.056-.655.245-1.29.555-1.868.293-.54.713-.997 1.222-1.332a3.135 3.135 0 0 1 1.763-.503c.387-.012.77.073 1.116.247.298.158.563.373.78.633.212.256.386.542.516.848.125.291.235.589.329.891.223.7.306 1.437.247 2.17l.001-.001Zm113.976-.043a1.856 1.856 0 0 0-.587-.902 1.268 1.268 0 0 0-.795-.344.8.8 0 0 0-.32.065.46.46 0 0 0-.23.215c-.224.372-.538.834-.94 1.384a14.068 14.068 0 0 1-1.354 1.59 8.57 8.57 0 0 1-1.624 1.298 3.337 3.337 0 0 1-1.764.537 2.16 2.16 0 0 1-.793-.129.859.859 0 0 1-.472-.6 2.239 2.239 0 0 1-.045-1.106 5.89 5.89 0 0 1 .344-1.149c.148-.36.315-.711.502-1.052.181-.329.323-.601.427-.816a8.162 8.162 0 0 0 .71-2.125 4.984 4.984 0 0 0-.174-2.448 3.85 3.85 0 0 0-1.778-2.287 4.45 4.45 0 0 0-1.291-.503c-.454-.1-.918-.15-1.383-.15a5.304 5.304 0 0 0-1.667.237 4.793 4.793 0 0 0-1.26.621c-.357.25-.684.542-.972.87-.273.31-.526.635-.759.976a4.236 4.236 0 0 0-.693-1.245 3.838 3.838 0 0 0-2.028-1.31c-.382-.1-.775-.15-1.17-.15a5.426 5.426 0 0 0-2.036.344 5.243 5.243 0 0 0-1.46.87c-.399.341-.76.726-1.077 1.148l-.871 1.16a3.286 3.286 0 0 0-.124-1.224 2.18 2.18 0 0 0-.769-1.15 1.792 1.792 0 0 0-1.067-.396 1.58 1.58 0 0 0-1.102.45c-.355.37-.562.86-.581 1.375a78.843 78.843 0 0 1-.235 1.814 918.49 918.49 0 0 1-.317 2.265l-.097.69a34.742 34.742 0 0 1-1.765 2.445c-.246.3-.504.597-.774.89-.253.278-.523.54-.808.784a4.66 4.66 0 0 1-.774.548c-.21.125-.447.195-.69.204a1.05 1.05 0 0 1-.851-.419 3.137 3.137 0 0 1-.541-1.063 6.024 6.024 0 0 1-.219-1.191 18.412 18.412 0 0 1-.08-1.492 31.55 31.55 0 0 1 .018-1.621c.019-.551.043-1.08.07-1.59.028-.508.051-.97.071-1.384.019-.414.022-.758.009-1.03a1.012 1.012 0 0 0-.052-.237 1.958 1.958 0 0 0-.814-.988 2.49 2.49 0 0 0-1.455-.45 1.638 1.638 0 0 0-.568.118 4.492 4.492 0 0 0-.585.268 8.363 8.363 0 0 0-.63.365 9.164 9.164 0 0 0-1.208-.751 9.416 9.416 0 0 0-1.346-.515 5.83 5.83 0 0 0-1.706-.237 6.812 6.812 0 0 0-3.071.633 6.279 6.279 0 0 0-2.098 1.653 7.394 7.394 0 0 0-1.269 2.309 11.64 11.64 0 0 0-.572 2.608c-.066.638-.086 1.28-.061 1.92a31.02 31.02 0 0 1-2.338 1.537 21.22 21.22 0 0 1-1.83.977c-.638.301-1.299.548-1.977.74a7.322 7.322 0 0 1-1.999.29 3.288 3.288 0 0 1-1.574-.356 2.15 2.15 0 0 1-.959-.977 25.063 25.063 0 0 0 4.143-2.136 10.957 10.957 0 0 0 2.421-2.083c.5-.568.842-1.261.991-2.007a4.097 4.097 0 0 0-.117-1.89 4.594 4.594 0 0 0-1.607-2.383 4.669 4.669 0 0 0-2.896-.858 8.518 8.518 0 0 0-2.997.494 7.825 7.825 0 0 0-2.299 1.31 7.735 7.735 0 0 0-1.636 1.878 9.02 9.02 0 0 0-.99 2.18 8.164 8.164 0 0 0-.351 2.222c-.01.44.022.879.095 1.312l-.094.03a6.628 6.628 0 0 1-1.861.257 2.602 2.602 0 0 1-.547-.053.905.905 0 0 1-.471-.29 6.61 6.61 0 0 0 .312-1.493 15.212 15.212 0 0 0 .005-3.103 5.655 5.655 0 0 0-.138-.858 5.022 5.022 0 0 0-.865-1.664 6.044 6.044 0 0 0-2.76-1.965 4.424 4.424 0 0 0-1.417-.257 5.99 5.99 0 0 0-1.747.247 7.551 7.551 0 0 0-1.519.644c-.463.26-.902.562-1.312.901-.393.326-.767.674-1.12 1.042a98.485 98.485 0 0 0 1.047-6.215 93.5 93.5 0 0 1 1.053-6.194c.085-.306.145-.618.178-.934a2.286 2.286 0 0 0-.077-.934 1.866 1.866 0 0 0-.684-.945 2.442 2.442 0 0 0-1.488-.386 2.146 2.146 0 0 0-.717.118 2 2 0 0 0-.589.322 1.88 1.88 0 0 0-.419.462 1.348 1.348 0 0 0-.205.537l-1.884 13.934a26.523 26.523 0 0 0-.182 1.534 84.67 84.67 0 0 0-.086 1.095c-.016.222-.04.49-.07.805-.03.315-.07.709-.121 1.181-.04.404-.059.817-.059 1.236-.412.408-.867.816-1.366 1.223-.6.49-1.228.945-1.88 1.363a13.3 13.3 0 0 1-2.01 1.074.855.855 0 0 1-.398.225c-.109.02-.22.031-.33.032a.552.552 0 0 1-.38-.128.655.655 0 0 1-.199-.301 1.044 1.044 0 0 1 .03-.794c.06-.258.154-.584.28-.977.126-.393.265-.826.415-1.299.151-.472.295-.977.433-1.513.139-.541.246-1.09.32-1.643.074-.555.104-1.115.087-1.675a6.073 6.073 0 0 0-.265-1.61 3.111 3.111 0 0 0-1.327-1.857 3.935 3.935 0 0 0-2.048-.548 6.621 6.621 0 0 0-2.01.322 10.08 10.08 0 0 0-1.909.827 8.06 8.06 0 0 0-1.567 1.138 4.193 4.193 0 0 0-.955 1.235c.037-.227.044-.459.021-.688a3.264 3.264 0 0 0-.122-.6 2.07 2.07 0 0 0-.745-1.106 1.755 1.755 0 0 0-1.028-.376 1.613 1.613 0 0 0-1.112.45c-.365.37-.59.855-.636 1.375a32 32 0 0 1-.113.732.322.322 0 0 0-.173.127c-.117.214-.266.476-.446.783-.181.308-.388.633-.621.977-.233.343-.487.687-.763 1.03-.263.33-.55.64-.86.924-.276.256-.58.48-.907.666a1.85 1.85 0 0 1-.907.257c-.213 0-.425-.036-.627-.107a1.815 1.815 0 0 1-.601-.365c.04-.576.032-1.154-.026-1.728a7.68 7.68 0 0 0-.285-1.471 5.383 5.383 0 0 0-1.167-2.094 6.743 6.743 0 0 0-1.726-1.363 7.237 7.237 0 0 0-1.933-.73 8.558 8.558 0 0 0-1.796-.215 7.659 7.659 0 0 0-3.204.612 6.503 6.503 0 0 0-2.217 1.61 7.213 7.213 0 0 0-1.35 2.255 11.44 11.44 0 0 0-.637 2.534c-.11.821-.134 1.652-.07 2.48a9.66 9.66 0 0 0 .361 2.06c.231.79.624 1.521 1.152 2.148a7.203 7.203 0 0 0 1.64 1.428 6.64 6.64 0 0 0 1.738.783c.472.142.96.222 1.452.237a9.465 9.465 0 0 0 2.837-.397 7.768 7.768 0 0 0 2.245-1.106 6.769 6.769 0 0 0 1.65-1.696 8.647 8.647 0 0 0 1.062-2.19 5.52 5.52 0 0 0 1.222.558c.365.112.744.17 1.125.172a2.574 2.574 0 0 0 1.473-.451 5.934 5.934 0 0 0 1.21-1.095l.02-.026a56.386 56.386 0 0 0-.213 1.529c-.09.715-.15 1.345-.18 1.89a3.72 3.72 0 0 0 .068 1.18c.141.457.414.86.784 1.16a2 2 0 0 0 1.312.473 1.21 1.21 0 0 0 1.056-.462c.241-.349.411-.743.5-1.159.117-.496.206-.998.268-1.503a9.883 9.883 0 0 1 .306-1.514c.236-.701.513-1.496.832-2.383.314-.876.706-1.72 1.171-2.523a7.559 7.559 0 0 1 1.66-2.008 3.486 3.486 0 0 1 2.324-.816.881.881 0 0 1 .611.226 1.2 1.2 0 0 1 .35.547c.077.31.082.633.016.945-.064.386-.158.827-.281 1.32a56.79 56.79 0 0 1-.417 1.569c-.155.551-.29 1.106-.408 1.664a12.842 12.842 0 0 0-.238 1.632c-.044.489-.01.982.102 1.46.021.115.043.218.065.311.021.093.048.19.078.29.187.68.556 1.293 1.068 1.771.514.436 1.17.662 1.84.633.273-.001.544-.03.811-.085.315-.065.625-.151.928-.258a15.41 15.41 0 0 0 2.495-1.02c.656-.345 1.285-.74 1.883-1.18.57-.423 1.117-.878 1.636-1.364l.117-.108c.18.493.404.968.67 1.418a5.762 5.762 0 0 0 3.019 2.523c.739.262 1.518.389 2.301.376a7.794 7.794 0 0 0 4.065-1.02 7.69 7.69 0 0 0 2.833-3.212c.358.267.758.47 1.183.601.425.13.867.195 1.311.193a8.819 8.819 0 0 0 2.019-.225c.379-.09.753-.199 1.121-.327a9.09 9.09 0 0 0 1.602 1.862 7.863 7.863 0 0 0 2.087 1.332c.762.33 1.583.498 2.412.494.977.002 1.949-.132 2.889-.397a15.568 15.568 0 0 0 2.629-.999 17.521 17.521 0 0 0 2.264-1.32c.51-.353.97-.693 1.377-1.02.21.524.501 1.01.863 1.439a6.72 6.72 0 0 0 1.515 1.331 6.208 6.208 0 0 0 1.618.74c.44.135.894.211 1.353.226a3.952 3.952 0 0 0 1.976-.503 6.624 6.624 0 0 0 1.619-1.29 9.46 9.46 0 0 0 1.265-1.739c.343-.6.65-1.22.921-1.857-.019.276-.004.554.043.827a6.747 6.747 0 0 0 .797 2.233c.242.427.538.82.881 1.17.334.339.719.622 1.141.837.426.216.896.327 1.373.322a3.69 3.69 0 0 0 1.638-.397 8.487 8.487 0 0 0 1.583-1.02c.522-.421 1.01-.885 1.459-1.385.165-.183.325-.366.481-.548a24.02 24.02 0 0 0-.02.495c-.029.403.004.809.096 1.202.148.467.43.878.811 1.18.382.324.864.499 1.362.495a1.123 1.123 0 0 0 1.017-.483c.228-.365.387-.769.468-1.192.107-.51.177-1.026.211-1.546s.108-1.037.222-1.546c.141-.458.295-.966.462-1.524.167-.559.357-1.12.571-1.687a14.25 14.25 0 0 1 .743-1.642c.267-.508.594-.98.976-1.407a4.702 4.702 0 0 1 1.242-.987 3.211 3.211 0 0 1 1.56-.376.92.92 0 0 1 .621.226c.174.15.301.347.367.569.065.204.089.42.069.633a3.326 3.326 0 0 1-.137.655 28.49 28.49 0 0 1-.829 2.394c-.31.78-.581 1.55-.813 2.308-.224.721-.382 1.461-.472 2.212a5.046 5.046 0 0 0 .195 2.104c.076.194.192.37.339.515.158.16.336.297.529.408.197.114.406.205.624.269.189.06.384.092.582.096a1.123 1.123 0 0 0 1.017-.483c.228-.364.387-.768.468-1.191.106-.51.177-1.026.212-1.546.034-.52.108-1.037.221-1.546.141-.458.294-.966.461-1.524.167-.559.358-1.121.572-1.687.213-.563.461-1.112.743-1.643.267-.508.594-.98.976-1.406a4.702 4.702 0 0 1 1.242-.988 3.21 3.21 0 0 1 1.56-.375.92.92 0 0 1 .621.225c.174.15.301.348.367.57.065.204.089.419.069.633a3.4 3.4 0 0 1-.137.655 9.727 9.727 0 0 1-.641 1.631c-.272.55-.516 1.113-.731 1.687a7.746 7.746 0 0 0-.436 1.814 4.88 4.88 0 0 0 .222 2.019c.258.98.864 1.828 1.702 2.383.834.511 1.793.772 2.767.752a5.611 5.611 0 0 0 2.282-.474 9.196 9.196 0 0 0 2.05-1.256 14.293 14.293 0 0 0 1.861-1.803 29.617 29.617 0 0 0 1.682-2.136 2.04 2.04 0 0 0 .556-1.01 1.962 1.962 0 0 0-.037-.944M47.663 15.12a7.516 7.516 0 0 0-5.344 2.243 7.694 7.694 0 0 0-2.213 5.408v.028a.378.378 0 0 0 .116.253.37.37 0 0 0 .256.102H54.85a.37.37 0 0 0 .256-.102.378.378 0 0 0 .116-.253v-.028c0-1.004-.195-1.999-.574-2.927a7.655 7.655 0 0 0-1.639-2.482 7.556 7.556 0 0 0-2.452-1.659 7.485 7.485 0 0 0-2.893-.583Z" fill="#53CBC8"/><path d="M35.101 31.313a.469.469 0 0 1-.284.43.456.456 0 0 1-.501-.1.468.468 0 0 1 .325-.795c.122 0 .24.049.326.136a.468.468 0 0 1 .134.33ZM54.35 28.738H38.928a.45.45 0 0 0-.39.223.464.464 0 0 0-.009.453l.008.014a.456.456 0 0 0 .399.24H54.34a.448.448 0 0 0 .399-.24l.008-.014a.464.464 0 0 0-.175-.616.45.45 0 0 0-.224-.06ZM56.398 24.517h-17.47a.448.448 0 0 0-.33.144.461.461 0 0 0-.122.34v.015a.46.46 0 0 0 .141.307c.084.08.195.125.311.125h17.469a.45.45 0 0 0 .31-.125.46.46 0 0 0 .142-.307v-.014a.462.462 0 0 0-.272-.447.448.448 0 0 0-.179-.038ZM49.82 35.069h-7.873a.45.45 0 0 0-.44.354.463.463 0 0 0 .238.515l.03.014a.447.447 0 0 0 .202.048h7.815c.07 0 .14-.016.202-.048l.03-.014a.456.456 0 0 0 .237-.516.46.46 0 0 0-.44-.353ZM54.632 32.959h-7.875a.45.45 0 0 0-.44.353.464.464 0 0 0 .238.516l.03.014a.448.448 0 0 0 .202.048h7.815c.07 0 .14-.017.203-.048l.029-.014a.456.456 0 0 0 .238-.516.45.45 0 0 0-.44-.354ZM43.895 31.633l-.014-.015a.46.46 0 0 1 .333-.77h12.778a.45.45 0 0 1 .414.276.463.463 0 0 1-.082.494l-.013.015a.456.456 0 0 1-.332.146H44.227a.45.45 0 0 1-.332-.146ZM36.285 30.848h6.101a.45.45 0 0 1 .44.354.464.464 0 0 1-.238.515l-.03.014a.447.447 0 0 1-.201.048h-6.044a.448.448 0 0 1-.202-.048l-.029-.014a.456.456 0 0 1-.238-.516.46.46 0 0 1 .44-.353ZM37.745 24.983a.47.47 0 0 1-.284.43.456.456 0 0 1-.627-.34.471.471 0 0 1 .196-.477.456.456 0 0 1 .58.058.468.468 0 0 1 .135.33ZM48.588 27.217l.004-.014a.463.463 0 0 0-.238-.53.447.447 0 0 0-.2-.047h-12.78a.447.447 0 0 0-.36.179.461.461 0 0 0-.078.398c0 .004.003.01.004.014a.46.46 0 0 0 .439.34H48.15a.45.45 0 0 0 .439-.34M34.191 27.093a.469.469 0 0 1-.284.43.455.455 0 0 1-.5-.102.466.466 0 0 1 .325-.794c.122 0 .239.05.325.137a.468.468 0 0 1 .134.329ZM37.745 29.203a.47.47 0 0 1-.284.43.456.456 0 0 1-.627-.34.471.471 0 0 1 .196-.477.456.456 0 0 1 .58.058.468.468 0 0 1 .135.329ZM45.575 33.424a.47.47 0 0 1-.285.43.455.455 0 0 1-.501-.1.467.467 0 0 1 .325-.795c.122 0 .24.049.326.136a.468.468 0 0 1 .135.33ZM40.764 35.533a.468.468 0 0 1-.284.43.455.455 0 0 1-.5-.101.467.467 0 0 1 .324-.794c.122 0 .24.049.326.136a.468.468 0 0 1 .134.33Z" fill="#E1147B"/></g><defs><clipPath id="clip0_517_48"><path fill="#fff" d="M0 0h184v36H0z"/></clipPath></defs></svg>