<svg class="partner-size" width="101" height="31" viewBox="0 0 101 31" fill="none" xmlns="http://www.w3.org/2000/svg"><path class="fill" d="M29.608 0H.673A.672.672 0 0 0 0 .673v28.935a.672.672 0 0 0 .673.673h28.935a.673.673 0 0 0 .673-.673V.673A.673.673 0 0 0 29.608 0Zm-9.42 19.514a.673.673 0 0 1-.674.673h-8.748a.673.673 0 0 1-.672-.673v-8.748a.672.672 0 0 1 .672-.672h8.748a.672.672 0 0 1 .673.672v8.748ZM90.186 10.095h-8.748a.673.673 0 0 0-.673.672v8.748c0 .372.302.673.673.673h8.748a.673.673 0 0 0 .673-.673v-8.748a.673.673 0 0 0-.673-.672ZM80.088 0h-8.747a.673.673 0 0 0-.673.674V9.42c0 .372.3.673.673.673h8.747a.673.673 0 0 0 .673-.673V.674A.673.673 0 0 0 80.088 0ZM100.276 0h-8.748a.673.673 0 0 0-.673.674V9.42c0 .372.301.673.673.673h8.748a.673.673 0 0 0 .672-.673V.674a.672.672 0 0 0-.672-.673ZM80.088 20.188h-8.747a.673.673 0 0 0-.673.673v8.747c0 .372.3.673.673.673h8.747a.673.673 0 0 0 .673-.673v-8.747a.673.673 0 0 0-.673-.673ZM100.276 20.188h-8.748a.673.673 0 0 0-.673.673v8.747c0 .372.301.673.673.673h8.748a.673.673 0 0 0 .672-.673v-8.747a.672.672 0 0 0-.672-.673ZM64.935 0h-8.748a.673.673 0 0 0-.672.674V9.42c0 .372.3.673.672.673h8.748a.673.673 0 0 0 .673-.673V.674A.673.673 0 0 0 64.935 0ZM64.935 20.188h-8.748a.673.673 0 0 0-.672.673v8.747c0 .372.3.673.672.673h8.748a.673.673 0 0 0 .673-.673v-8.747a.673.673 0 0 0-.673-.673ZM55.515 10.759a.673.673 0 0 0-.673-.673H45.42V.673A.673.673 0 0 0 44.748 0H36a.672.672 0 0 0-.673.673v28.92a.672.672 0 0 0 .673.672h8.748a.673.673 0 0 0 .673-.672V20.18h9.42a.673.673 0 0 0 .674-.673v-8.748Z" fill="#000"/></svg>