<svg width="95" height="38" viewBox="0 0 95 38" fill="none" xmlns="http://www.w3.org/2000/svg"><path class="fill" d="M17.4 15H9.6a.6.6 0 0 0-.6.6v7.8a.6.6 0 0 0 .6.6h7.8a.6.6 0 0 0 .6-.6v-7.8a.6.6 0 0 0-.6-.6ZM8.4 6H.6a.6.6 0 0 0-.6.6v7.8a.6.6 0 0 0 .6.6h7.8a.6.6 0 0 0 .6-.6V6.6a.6.6 0 0 0-.6-.6ZM25.467 6h-6.934c-.294 0-.533.269-.533.6v7.8c0 .331.239.6.533.6h6.934c.294 0 .533-.269.533-.6V6.6c0-.331-.239-.6-.533-.6ZM8.4 24H.6c-.331 0-.6.239-.6.533v6.934c0 .294.269.533.6.533h7.8c.331 0 .6-.239.6-.533v-6.934C9 24.24 8.731 24 8.4 24ZM25.467 24h-6.934a.533.533 0 0 0-.533.533v6.934c0 .294.239.533.533.533h6.934a.533.533 0 0 0 .533-.533v-6.934a.533.533 0 0 0-.533-.533ZM52.719 18.094v1.078c0 1.729-.235 3.281-.703 4.656-.47 1.375-1.13 2.547-1.985 3.516a8.603 8.603 0 0 1-3.062 2.203c-1.177.51-2.485.765-3.922.765-1.427 0-2.734-.255-3.922-.765a8.79 8.79 0 0 1-3.063-2.203c-.864-.969-1.536-2.14-2.015-3.516-.469-1.375-.703-2.927-.703-4.656v-1.078c0-1.74.234-3.292.703-4.657.469-1.374 1.13-2.546 1.984-3.515a8.702 8.702 0 0 1 3.063-2.219c1.187-.51 2.495-.766 3.922-.766 1.437 0 2.744.256 3.922.766A8.518 8.518 0 0 1 50 9.922c.865.969 1.531 2.14 2 3.515.48 1.365.719 2.917.719 4.657Zm-4.735 1.078v-1.11c0-1.208-.109-2.27-.328-3.187-.218-.917-.541-1.688-.968-2.313-.428-.624-.948-1.093-1.563-1.406-.615-.323-1.318-.484-2.11-.484-.791 0-1.494.161-2.109.484-.604.313-1.12.781-1.547 1.406-.416.626-.734 1.396-.953 2.313-.218.917-.328 1.98-.328 3.188v1.109c0 1.198.11 2.26.328 3.187.219.917.542 1.693.969 2.328.427.625.948 1.1 1.563 1.422.614.323 1.317.485 2.109.485s1.495-.162 2.11-.485a4.194 4.194 0 0 0 1.546-1.422c.417-.635.734-1.411.953-2.328.219-.927.328-1.99.328-3.187ZM60.781 7.25V30h-4.687V7.25h4.687Zm13.625 0-9.015 11.234-5.204 5.594-.843-4.437 3.515-4.813 5.797-7.578h5.75ZM69.078 30l-6.703-10.516 3.469-2.906L74.625 30h-5.547Zm20.047-7.547h4.672c-.094 1.531-.516 2.89-1.266 4.078-.74 1.188-1.776 2.115-3.11 2.782-1.322.666-2.916 1-4.78 1-1.459 0-2.766-.25-3.922-.75a8.345 8.345 0 0 1-2.969-2.188c-.813-.948-1.432-2.094-1.86-3.438-.427-1.343-.64-2.849-.64-4.515v-1.578c0-1.667.219-3.172.656-4.516.448-1.354 1.084-2.505 1.906-3.453a8.494 8.494 0 0 1 2.985-2.188c1.156-.51 2.448-.765 3.875-.765 1.896 0 3.495.344 4.797 1.031 1.312.688 2.328 1.636 3.047 2.844.729 1.208 1.166 2.583 1.312 4.125h-4.687c-.053-.917-.235-1.693-.547-2.328a3.103 3.103 0 0 0-1.422-1.453c-.625-.334-1.459-.5-2.5-.5-.781 0-1.464.146-2.047.437-.583.292-1.073.735-1.469 1.328-.396.594-.693 1.344-.89 2.25-.188.896-.282 1.948-.282 3.156v1.61c0 1.177.089 2.213.266 3.11.177.885.448 1.635.813 2.25a3.782 3.782 0 0 0 1.437 1.374c.594.302 1.307.453 2.14.453.98 0 1.787-.156 2.422-.468a3.237 3.237 0 0 0 1.454-1.391c.343-.615.546-1.38.609-2.297Z" fill="#000"/></svg>