<svg width="1444" height="711" viewBox="0 0 1444 711" fill="none" xmlns="http://www.w3.org/2000/svg">
<path d="M714.543 2L1442 613.222L1330.08 699.887L1083.87 508.308L904.8 649.706L822.729 581.286L725.733 677.072L613.817 590.407L524.281 654.266L345.214 494.618L110.186 709L2 613.214L714.543 2Z" stroke="#41BEA5" stroke-width="2"/>
<path d="M576.146 616.736L579.295 234.675L648.984 234.235" stroke="#41BEA5" stroke-width="1.5"/>
<path d="M649.21 618.468V171.758L786.38 170.145L789.53 612.901" stroke="#41BEA5" stroke-width="1.5"/>
<path d="M785.719 231.976L861.551 231.389V614.18" stroke="#41BEA5" stroke-width="1.5"/>
<path d="M787.667 399.244L861.528 399.171" stroke="#41BEA5" stroke-width="1.5"/>
<path d="M649.506 440.231H787.667" stroke="#41BEA5" stroke-width="1.5"/>
<path d="M648.265 353.494L787.034 353.421" stroke="#41BEA5" stroke-width="1.5"/>
<path d="M648.738 219.636L787.66 220.15" stroke="#41BEA5" stroke-width="1.5"/>
<path d="M579.273 397.512L648.236 398.099" stroke="#41BEA5" stroke-width="1.5"/>
<path d="M709.881 113.705L116.336 621.701L75.4482 549.129" stroke="#41BEA5"/>
<path d="M730.301 112.117L1316.58 618.497L1360.11 542.699" stroke="#41BEA5"/>
<path d="M713.009 24.7302L1350.88 557.167" stroke="#41BEA5"/>
<path d="M713.835 44.5747L1333.76 562.01L1315.3 595.876L1060.73 379.777L1052.49 390.662" stroke="#41BEA5"/>
<path d="M1235.79 479.343L1206.59 523.215" stroke="#41BEA5"/>
<path d="M1134.69 395.925L1105.54 434.629" stroke="#41BEA5"/>
<path d="M1031.35 312.435L1006.62 350.736" stroke="#41BEA5"/>
<path d="M949.907 242.728L918.911 277.803" stroke="#41BEA5"/>
<path d="M930.136 226.564L901.449 260.833" stroke="#41BEA5"/>
<path d="M822.31 135.858L794.282 166.902" stroke="#41BEA5"/>
<path d="M756.859 83.5413L729.674 113.69H709.778L676.804 77.5823" stroke="#41BEA5"/>
<path d="M716.254 24.5139L83.8755 564.275" stroke="#41BEA5"/>
<path d="M716.431 44.3582L101.817 562.031L121.601 595.897L373.526 381.407L383.271 392.623" stroke="#41BEA5"/>
<path d="M200.85 477.754L231.108 524.963" stroke="#41BEA5"/>
<path d="M299.823 394.771L331.321 437.873" stroke="#41BEA5"/>
<path d="M397.498 313.445L431.556 350.756" stroke="#41BEA5"/>
<path d="M484.785 239.553L519.632 275.839" stroke="#41BEA5"/>
<path d="M497.651 227.719L531.128 265.726" stroke="#41BEA5"/>
<path d="M688.339 69.2537L719.078 102.391L745.151 71.6133" stroke="#41BEA5"/>
<path d="M309.325 456.828L344.79 493.737" stroke="#41BEA5"/>
<path d="M332.814 480.497L107.07 678.145L24.6216 592.779" stroke="#41BEA5"/>
<path d="M320.42 467.364L109.749 651.503L42.1265 576.73" stroke="#41BEA5"/>
<path d="M62.334 561.677L110.728 649.533" stroke="#41BEA5"/>
<path d="M228.824 570.698L242.958 586.238" stroke="#41BEA5"/>
<path d="M1127.37 453.798L1081.8 508.776" stroke="#41BEA5"/>
<path d="M1100.52 487.569L1328.44 671.708L1418.13 594.301" stroke="#41BEA5"/>
<path d="M1116.75 466.859L1328.77 647.881L1399.67 579.745" stroke="#41BEA5"/>
<path d="M1377.2 559.585L1329.02 646.488" stroke="#41BEA5"/>
<path d="M344.559 495.073L385.481 458.275L566.838 622.657" stroke="#41BEA5"/>
<path d="M460.588 526.535L420.073 561.355" stroke="#41BEA5"/>
<path d="M364.802 476.312L546.341 637.8" stroke="#41BEA5"/>
<path d="M374.422 399.749L576.329 578.174" stroke="#41BEA5"/>
<path d="M418.036 485.837L535.754 381.413L531.797 266.108" stroke="#41BEA5"/>
<path d="M483.015 429.768L576.334 517.66" stroke="#41BEA5"/>
<path d="M535.246 381.998L577.965 420.116" stroke="#41BEA5"/>
<path d="M401.216 377.74L453.974 415.235L507.063 367.661L508.382 287.029" stroke="#41BEA5"/>
<path d="M520.255 275.777L522.563 391.782" stroke="#41BEA5"/>
<path d="M476.405 395.131L496.406 416.316" stroke="#41BEA5"/>
<path d="M931.257 284.941L928.802 373.309L984.198 415.239L1030.36 371.696" stroke="#41BEA5"/>
<path d="M1055.43 397.512L861.026 582.532" stroke="#41BEA5"/>
<path d="M868.757 619.406L1037.45 466.642L1083.32 508.132" stroke="#41BEA5"/>
<path d="M1057.26 484.971L886.48 631.984" stroke="#41BEA5"/>
<path d="M974.164 523.793L1011.9 562.057" stroke="#41BEA5"/>
<path d="M1015.89 486.198L897.18 381.37L861.568 417.655" stroke="#41BEA5"/>
<path d="M959.173 434.603L862.891 515.235" stroke="#41BEA5"/>
<path d="M898.502 383.008L901.14 260.299" stroke="#41BEA5"/>
<path d="M920.339 276.643L916.313 398.327" stroke="#41BEA5"/>
<path d="M649.21 599.129L790.34 602.354" stroke="#41BEA5" stroke-width="1.5"/>
<path d="M667.329 599.489L723.385 651.498L768.889 602.312" stroke="#41BEA5"/>
<path d="M577.267 577.192L610.969 552.343L647.901 586.612" stroke="#41BEA5"/>
<path d="M789.024 580.944L823.317 550.707L860.248 583.364" stroke="#41BEA5"/>
<path d="M790.322 492.692C815.684 442.317 838.359 457.648 860.229 492.692" stroke="#41BEA5"/>
<path d="M576.677 494.28C598.588 459.49 621.667 439.71 650.538 494.28" stroke="#41BEA5"/>
<path d="M578.625 516.866C603.412 469.914 626.268 480.81 650.178 518.479" stroke="#41BEA5"/>
<path d="M788.316 516.866C811.511 478.753 833.225 473.605 860.79 514.886" stroke="#41BEA5"/>
</svg>
