<svg class="socials-size" width="24" height="20" viewBox="0 0 24 20" fill="none" xmlns="http://www.w3.org/2000/svg"><path class="fill" d="M24 9.779a2.654 2.654 0 0 0-4.497-1.899c-1.81-1.191-4.259-1.949-6.971-2.046l1.483-4.669 4.016.941-.006.058a2.17 2.17 0 0 0 2.174 2.163 2.17 2.17 0 0 0 2.172-2.163 2.171 2.171 0 0 0-4.193-.785L13.849.364a.37.37 0 0 0-.44.249L11.755 5.82c-2.838.034-5.409.798-7.3 2.025a2.643 2.643 0 0 0-1.799-.712A2.654 2.654 0 0 0 0 9.779c0 .97.533 1.811 1.317 2.271a4.716 4.716 0 0 0-.086.857C1.231 16.818 6.039 20 11.95 20s10.72-3.182 10.72-7.093c0-.274-.029-.544-.075-.81A2.633 2.633 0 0 0 24 9.779ZM6.776 11.595c0-.868.71-1.575 1.582-1.575a1.58 1.58 0 0 1 1.581 1.575 1.58 1.58 0 0 1-1.581 1.574 1.58 1.58 0 0 1-1.582-1.574Zm9.061 4.669c-.797.793-2.048 1.179-3.824 1.179L12 17.44l-.013.003c-1.777 0-3.028-.386-3.824-1.179a.369.369 0 0 1 0-.523.372.372 0 0 1 .526 0c.65.647 1.729.961 3.298.961l.013.003.013-.003c1.569 0 2.648-.315 3.298-.962a.373.373 0 0 1 .526 0 .37.37 0 0 1 0 .524Zm-.189-3.095a1.58 1.58 0 0 1-1.581-1.574 1.58 1.58 0 0 1 1.581-1.575 1.58 1.58 0 0 1 1.581 1.575 1.58 1.58 0 0 1-1.581 1.574Z" fill="#112338"/></svg>