<svg class="icon-size" width="34" height="34" viewBox="0 0 34 34" fill="none" xmlns="http://www.w3.org/2000/svg"><circle cx="17" cy="17" r="17" fill="url(#paint0_linear_607_32)"/><path d="M16.19 17.715h.214c.843 0 1.654-.176 2.393-.529a7.481 7.481 0 0 0 1.971-1.417 6.439 6.439 0 0 0 1.336-1.913c.318-.712.493-1.385.493-2.057 0-.464-.071-.921-.247-1.345a2.69 2.69 0 0 0-.81-1.098c-.35-.32-.81-.568-1.407-.744a6.718 6.718 0 0 0-2.004-.28c-.882 0-1.654.071-2.29.247a8.851 8.851 0 0 0-1.653.64c-.46.281-.843.568-1.16.921a7.232 7.232 0 0 0-.811 1.064 14.63 14.63 0 0 0-.597 1.065c-.175.352-.389.64-.596.92-.214.281-.422.497-.668.64a1.722 1.722 0 0 1-.914.249c-.493 0-.843-.105-1.09-.353-.246-.248-.35-.6-.35-1.064 0-.425.104-.888.35-1.385.247-.496.564-.992.986-1.489.421-.496.947-.953 1.55-1.417a9.314 9.314 0 0 1 2.042-1.201A12.767 12.767 0 0 1 18.272 6c.979 0 1.932.144 2.846.392.915.248 1.725.64 2.426 1.169a5.107 5.107 0 0 1 1.653 1.913c.422.777.636 1.665.636 2.69 0 .712-.143 1.346-.39 1.986a7.314 7.314 0 0 1-.985 1.77 9.872 9.872 0 0 1-1.478 1.52c-.565.464-1.161.85-1.758 1.202-.635.353-1.264.673-1.932.921a10.45 10.45 0 0 1-1.933.529c.072.464.214.993.422 1.56.214.569.46 1.137.74 1.633.278.53.596.954.946 1.313.35.352.707.568 1.09.6h.427c.707 0 1.336-.104 1.9-.352.564-.248 1.018-.496 1.375-.777a5.83 5.83 0 0 0 1.128-1.136c.318-.353.597-.53.915-.53.214 0 .35.073.492.216.143.144.214.32.214.568 0 .216-.07.497-.213.817-.143.28-.39.6-.707.92-.986.954-1.972 1.666-2.957 2.09-.947.424-1.868.64-2.71.64-.708 0-1.337-.216-1.933-.6-.597-.393-1.129-.954-1.622-1.633-.492-.712-.914-1.49-1.335-2.41-.39-.92-.74-1.913-1.057-2.939-.175.392-.35.889-.526 1.45-.175.53-.389 1.097-.596 1.698-.214.568-.422 1.169-.668 1.737a12.248 12.248 0 0 1-.772 1.521 4.635 4.635 0 0 1-.914 1.098c-.318.28-.668.424-1.057.424-.318 0-.564-.033-.772-.144a1.268 1.268 0 0 1-.46-.352 2.358 2.358 0 0 1-.247-.497c-.032-.176-.07-.352-.07-.496 0-.215.031-.463.07-.712.072-.248.143-.463.247-.672L13 17.12c.35-.673.739-1.313 1.09-1.946.388-.64.738-1.202 1.088-1.665a7.1 7.1 0 0 1 1.019-1.17c.31-.28.596-.463.843-.463.07 0 .142 0 .246.033a.549.549 0 0 1 .246.143c.072.072.143.144.214.281.072.105.072.281.072.464s-.072.463-.175.777c-.104.32-.247.712-.422 1.169-.175.424-.389.92-.596 1.45-.247.529-.493 1.025-.74 1.593.201-.072.234-.072.305-.072Z" fill="#fff"/><defs><linearGradient id="paint0_linear_607_32" x1="17" y1="0" x2="17" y2="34" gradientUnits="userSpaceOnUse"><stop stop-color="#681CFF"/><stop offset="1" stop-color="#FD3F83"/></linearGradient></defs></svg>