<svg xmlns="http://www.w3.org/2000/svg" class="icon-size" fill="none" viewBox="0 0 14 30"><path fill="#AF145B" d="M4.627 19.283c-.18 0-.323 0-.502-.179L1.47 16.452c-.072-.072-.108-.108-.108-.18-.036-.035-.072-.179-.036-.322 0-.072.036-.108.072-.144l.107-.107c.072-.072.108-.143.144-.18.646-.609 1.255-1.218 1.901-1.791l4.304-4.194c0-.072.108-.502.43-.61.108-.035.252-.035.324-.035.179 0 .322 0 .502.18l2.798 2.651c.107.144.215.323.179.502-.036.18-.215.287-.287.323-.323.179-1.327 1.183-3.228 3.19-1.148 1.11-2.26 2.222-3.408 3.297-.036.036-.072.144-.18.215-.107.036-.214.036-.358.036Z"/><path fill="url(#router-a)" d="M11.873 6.416 6.42 1.146C5.596.503 4.59 0 3.443 0 2.296 0 1.148.502.323 1.326 0 1.506 0 1.65 0 1.828c0 .18 0 .323.18.502l7.424 7.097c.18.179.323.179.323.322 1.65 1.828 1.83 4.445.323 6.273l3.623-3.477c.825-.645 1.327-1.828 1.327-2.975s-.502-2.33-1.327-3.154Z"/><path fill="url(#router-b)" d="M5.452 18.315c-1.65-1.828-1.829-4.444-.179-6.272L1.65 15.52C.825 16.344.323 17.49.323 18.638c0 1.147.502 2.294 1.327 3.118l7.927 8.065c.18.179.323.179.502.179.18 0 .323 0 .503-.18.825-.824 1.327-1.97 1.327-3.117 0-1.148-.502-2.294-1.327-3.119l-4.95-4.946c-.036-.18-.18-.18-.18-.323Z"/><defs><linearGradient id="router-a" x1="0" x2="13.2" y1="8.011" y2="8.011" gradientUnits="userSpaceOnUse"><stop stop-color="#CB0766"/><stop offset="1" stop-color="#E04391"/></linearGradient><linearGradient id="router-b" x1=".194" x2="11.855" y1="21.021" y2="21.021" gradientUnits="userSpaceOnUse"><stop stop-color="#CB0766"/><stop offset="1" stop-color="#E04391"/></linearGradient></defs></svg>