<svg class="icon-size" width="29" height="29" viewBox="0 0 29 29" fill="none" xmlns="http://www.w3.org/2000/svg"><g clip-path="url(#clip0_406_39)"><path d="M21.234 2.551a18.517 18.517 0 0 0-2.061 2.418l-.194-.063a14.249 14.249 0 0 0-3.453-.661 27.326 27.326 0 0 0-2.097 0c-1.297.085-2.291.277-3.421.666-.045.018-.086.03-.127.044a18.253 18.253 0 0 0-2.128-2.4 14.949 14.949 0 0 1 13.3-.093l.18.09ZM28.23 19.5a13.913 13.913 0 0 1-2.531 4.388 15.646 15.646 0 0 1-1.98 1.917 14.672 14.672 0 0 1-5.707 2.784c-2.305.55-4.71.55-7.014 0a14.642 14.642 0 0 1-5.708-2.784 15.647 15.647 0 0 1-1.98-1.917A13.67 13.67 0 0 1 .78 10.447c.307-.853.691-1.676 1.152-2.458.212-.357.475-.76.601-.925A45.917 45.917 0 0 0 3.7 11.117a1.003 1.003 0 0 1-.05.099c-1.053 2.109-1.622 4.142-1.758 6.304 0 .027-.004.059-.004.085-.036.648-.018.957.09 1.363.34 1.274 1.383 2.677 3.02 4.053 2.679 2.252 6.313 3.879 9.065 4.066 2.87.192 7.104-1.465 9.924-3.887.443-.389.859-.8 1.247-1.238.28-.322.696-.876.665-.876-.01 0 0-.009.018-.018.013-.009.027-.022.018-.03-.005-.005.004-.019.018-.023.013-.005.022-.014.018-.023-.005-.009 0-.017.018-.022.014-.004.018-.018.014-.027-.005-.009 0-.018.009-.018s.018-.013.018-.022.009-.022.018-.022.018-.01.018-.018a.467.467 0 0 1 .059-.103c.067-.103.338-.58.375-.661.257-.577.42-1.09.497-1.604.036-.246.059-.697.04-.805-.004-.018-.004-.049-.009-.098-.009-.09-.013-.223-.022-.357a14.99 14.99 0 0 0-.04-.622c-.195-2.028-.72-3.686-1.714-5.442a1.542 1.542 0 0 1-.1-.188c-.008-.013-.013-.027-.017-.036.14-.415.714-2.153 1.17-4.142l.01.01.067.089c.118.156.43.62.57.844a13.99 13.99 0 0 1 1.486 3.284c.818 2.775.75 5.733-.207 8.468Z" fill="#F00500"/><path d="M22.364 14.16c-.014.072-.226.286-.439.443-.623.45-1.74.871-2.874 1.072-.646.116-1.292.134-1.487.04-.126-.062-.145-.111-.1-.272.096-.335.403-.702.882-1.046.244-.174 1.234-.768 1.695-1.019.759-.41 1.373-.657 1.79-.715.13-.018.289-.022.338 0 .082.032.172.268.208.554.018.152.01.823-.013.943ZM11.716 15.64c-.027.053-.162.111-.316.133-.154.023-.624.01-.89-.022-.959-.125-1.975-.415-2.716-.773-.416-.201-.715-.402-.936-.621l-.127-.13-.013-.17c-.023-.294-.018-.76.018-.925.023-.138.072-.272.14-.393.036-.044.036-.044.199-.044.199 0 .366.03.637.116.556.17 1.383.58 2.39 1.18.832.491 1.144.732 1.384 1.063.162.205.27.496.23.585ZM18.116 21.86c0 .013-.055.227-.122.482-.068.255-.122.46-.122.47-.05.004-.095.008-.145.004h-.145l-.199.464c-.108.255-.207.492-.221.528l-.027.062-.095-.152-.095-.152v-1.238l-.036.01c-.077.017-.624.089-.863.111-.99.098-1.984.076-2.97-.062a3.058 3.058 0 0 0-.298-.036c-.004.004 0 .29.01.643l.013.635-.077.116c-.04.063-.081.116-.081.12-.014.014-.06-.057-.163-.263a2.999 2.999 0 0 1-.253-.68l-.032-.129-.14.01-.14.013-.036-.166a4.77 4.77 0 0 1-.05-.304l-.013-.143-.118-.102a4.155 4.155 0 0 0-.149-.125c-.023-.018-.032-.05-.032-.076v-.054l.565.004.565.005.018.058.018.058.195.009c.108.005.452.013.759.022l.565.014.144-.224.15-.223h.19l-.005-.465-.005-.464-.248-.108c-.8-.348-1.27-.746-1.446-1.229-.037-.098-.037-.134-.046-.58-.004-.443-.004-.483.028-.581a.653.653 0 0 1 .465-.456c.077-.023.28-.023 1.347-.023l1.256.005.14.067c.167.08.244.139.34.264.108.143.14.254.14.527 0 .389-.028.724-.069.858-.058.183-.149.357-.262.514-.226.286-.637.572-1.012.701l-.108.04.004.47.005.469.099.009.1.009.135.2.131.202h.606c.334 0 .628.004.655.009.045.009.054.004.1-.072l.054-.08h.52c.388-.018.506-.01.506.004Z" fill="#000"/><path d="M15.73 23.142c-.087.049-.145.071-.159.062-.013-.004-.077-.058-.144-.107L15.305 23l-.127.134c-.276.295-.285.308-.366.313-.127.013-.154-.01-.307-.237-.082-.116-.145-.215-.145-.215s-.059-.009-.127-.013l-.126-.014-.059.121-.059.12-.104-.03a2.215 2.215 0 0 1-.239-.094l-.136-.067v-.255l1.203.004 1.202.005.004.12c.005.144.01.14-.19.25Z" fill="#000"/><path d="M27.027 17.69c-.004-.018-.004-.049-.009-.098a9.69 9.69 0 0 0-7.054 2.158s-.927-4.2-5.265-4.2c-4.339 0-5.947 4.2-5.947 4.2-2.432-2.587-5.686-2.4-6.86-2.23 0 .027-.005.059-.005.085-.036.648-.018.957.09 1.363.34 1.274 1.383 2.677 3.02 4.053 2.679 2.252 6.313 3.879 9.065 4.066 2.87.192 7.104-1.465 9.924-3.887.443-.389.859-.8 1.247-1.238.28-.322.696-.876.665-.876-.01 0 0-.009.018-.018.013-.009.027-.022.018-.03-.005-.005.004-.019.018-.023.013-.005.022-.014.018-.023-.005-.009 0-.017.018-.022.014-.004.018-.018.014-.027-.005-.009 0-.018.009-.018s.018-.013.018-.022.009-.022.018-.022.018-.01.018-.018a.467.467 0 0 1 .059-.103c.067-.103.338-.58.375-.661.257-.577.42-1.09.497-1.604.027-.246.05-.697.031-.805ZM15.73 23.142c-.086.049-.144.071-.158.062-.013-.004-.077-.058-.144-.107L15.305 23l-.127.134c-.276.295-.285.308-.366.313-.127.013-.154-.01-.307-.237-.082-.116-.145-.215-.145-.215s-.059-.009-.127-.013l-.126-.014-.059.121-.059.12-.104-.03a2.225 2.225 0 0 1-.24-.094l-.135-.067v-.255l1.203.004 1.202.005.004.12c.005.144.01.14-.19.25Zm2.26-.805c-.068.255-.122.46-.122.47-.05.004-.095.009-.145.004h-.144l-.195.47c-.108.254-.207.49-.221.527l-.027.062-.095-.152-.095-.152v-1.238l-.036.01c-.077.017-.624.089-.863.111-.99.098-1.984.076-2.97-.062a3.058 3.058 0 0 0-.298-.036c-.004.004 0 .29.01.643l.013.635-.077.116c-.04.063-.081.116-.081.12-.014.014-.06-.057-.163-.263a2.996 2.996 0 0 1-.253-.68l-.032-.129-.14.01-.14.013-.036-.166a4.631 4.631 0 0 1-.05-.304l-.013-.143-.118-.102a4.188 4.188 0 0 0-.149-.125c-.023-.018-.032-.05-.032-.076v-.054l.565.004.565.005.018.058.018.058.195.009c.108.005.452.013.759.022l.565.014.144-.224.15-.223h.19l-.005-.465-.005-.464-.248-.108c-.8-.348-1.27-.746-1.446-1.229-.037-.098-.037-.134-.046-.58-.004-.443-.004-.483.027-.581a.653.653 0 0 1 .466-.456c.077-.023.28-.023 1.347-.023l1.256.005.14.067c.167.08.244.139.34.264.108.143.14.254.14.527 0 .389-.028.724-.069.858-.058.183-.149.357-.262.514-.226.286-.637.572-1.012.701l-.108.04.004.47.005.469.099.009.1.009.135.2.131.202h.606c.334 0 .628.004.655.009.045.009.054.004.1-.072l.054-.08h.52c.402 0 .519.004.519.018-.014-.005-.072.214-.14.464Z" fill="#fff"/><path d="M26.991 17.235a15.15 15.15 0 0 0-.04-.622c-.195-2.028-.719-3.686-1.713-5.442a1.54 1.54 0 0 1-.1-.188c-.009-.013-.013-.027-.018-.036.14-.415.714-2.153 1.17-4.142.62-2.699 1.013-5.853-.189-6.8 0 0-2.079-.153-4.863 2.546a18.509 18.509 0 0 0-2.06 2.418l-.195-.063a14.248 14.248 0 0 0-3.453-.661 27.324 27.324 0 0 0-2.096 0c-1.297.085-2.292.277-3.422.666-.045.018-.085.03-.126.044a18.254 18.254 0 0 0-2.129-2.4C4.861-.156 2.705 0 2.705 0c-1.275.978-.84 4.276-.18 7.064a45.92 45.92 0 0 0 1.165 4.053 1.003 1.003 0 0 1-.05.099c-1.053 2.109-1.622 4.142-1.758 6.304 1.18-.17 4.43-.361 6.865 2.23 0 0 1.609-4.2 5.947-4.2 4.339 0 5.265 4.2 5.265 4.2a9.71 9.71 0 0 1 7.055-2.158l-.023-.357ZM4.544 9.433s-1.69-4.178-1.256-6.564c.072-.403.208-.756.42-1.024 0 0 1.916.188 5.007 3.584 0 0-.587.281-1.373.88 0 0-.005.005-.01.005-.854.648-1.947 1.675-2.788 3.119Zm7.172 6.206c-.027.054-.162.112-.316.134-.154.023-.624.01-.89-.022-.959-.125-1.975-.415-2.716-.773-.416-.201-.715-.402-.936-.621l-.127-.13-.013-.17c-.023-.294-.018-.76.018-.925.023-.138.072-.272.14-.393.036-.044.036-.044.199-.044.199 0 .366.03.637.116.556.17 1.383.58 2.39 1.18.832.491 1.144.732 1.384 1.063.162.205.27.496.23.585Zm10.647-1.479c-.013.072-.225.286-.438.443-.623.45-1.74.871-2.874 1.072-.646.116-1.293.134-1.487.04-.126-.062-.145-.111-.1-.272.096-.335.403-.702.882-1.046.244-.174 1.234-.768 1.695-1.019.759-.41 1.373-.657 1.79-.715.13-.018.288-.022.338 0 .082.032.172.268.208.554.018.152.01.823-.014.943Zm-.75-7.85-.009-.005c-.759-.599-1.328-.88-1.328-.88C23.263 2.029 25.11 1.84 25.11 1.84c.204.272.335.621.407 1.023.42 2.386-1.211 6.569-1.211 6.569a10.676 10.676 0 0 0-2.694-3.124Z" fill="#FFA409"/><path d="M25.523 2.864c-.353-.045-2.02-.053-3.91 3.445l-.009-.004c-.759-.599-1.328-.88-1.328-.88C23.263 2.029 25.11 1.84 25.11 1.84c.208.272.34.621.412 1.023Z" fill="#FF9300"/><path d="M24.311 9.433a10.634 10.634 0 0 0-2.698-3.124c1.89-3.498 3.553-3.49 3.91-3.445.42 2.39-1.212 6.569-1.212 6.569ZM25.59 2.878l-.067-.014.067.014Z" fill="#FF8300"/><path d="M8.715 5.425s-.587.281-1.373.88c0 0-.005.004-.01.004-1.956-3.503-3.678-3.49-4.049-3.445.073-.402.208-.755.42-1.023.005 0 1.921.188 5.012 3.584Z" fill="#FF9300"/><path d="M7.337 6.31c-.859.652-1.952 1.675-2.793 3.123 0 0-1.69-4.178-1.256-6.569.366-.045 2.092-.053 4.05 3.445ZM3.288 2.864l-.072.014.072-.014Z" fill="#FF8300"/><path d="M19.738 11.752s-1.446.09-1.265-1.028c.18-1.117 1.31-1.251 1.626-1.206.317.044 1.582.491 1.356 1.43-.226.938-.542.76-.723.804-.18.044-.994 0-.994 0ZM9.072 11.752s-1.446.09-1.265-1.028c.18-1.117 1.31-1.251 1.627-1.206.316.044 1.582.491 1.356 1.43-.226.938-.542.76-.723.804-.181.044-.995 0-.995 0Z" fill="#fff"/></g><defs><clipPath id="clip0_406_39"><path fill="#fff" d="M0 0h29v29H0z"/></clipPath></defs></svg>