<svg class="icon-size" width="30" height="24" viewBox="0 0 30 24" fill="none" xmlns="http://www.w3.org/2000/svg"><g clip-path="url(#clip0_406_35)"><path d="M4.873 18.318a.972.972 0 0 1 .694-.293H29.51c.437 0 .656.539.347.855l-4.73 4.827a.972.972 0 0 1-.694.293H.49c-.437 0-.656-.539-.347-.855l4.73-4.827Z" fill="url(#paint0_linear_406_35)"/><path d="M4.873.293A.998.998 0 0 1 5.567 0h23.942c.438 0 .657.539.347.855l-4.73 4.827a.972.972 0 0 1-.693.293H.49c-.438 0-.656-.539-.347-.855L4.873.293Z" fill="url(#paint1_linear_406_35)"/><path d="M25.127 9.247a.972.972 0 0 0-.694-.292H.49c-.437 0-.656.539-.347.854l4.73 4.828c.181.185.43.293.694.293H29.51c.437 0 .656-.54.347-.855l-4.73-4.828Z" fill="url(#paint2_linear_406_35)"/></g><defs><linearGradient id="paint0_linear_406_35" x1="27.222" y1="-2.884" x2="10.112" y2="29.224" gradientUnits="userSpaceOnUse"><stop stop-color="#00FFA3"/><stop offset="1" stop-color="#DC1FFF"/></linearGradient><linearGradient id="paint1_linear_406_35" x1="19.977" y1="-6.745" x2="2.866" y2="25.363" gradientUnits="userSpaceOnUse"><stop stop-color="#00FFA3"/><stop offset="1" stop-color="#DC1FFF"/></linearGradient><linearGradient id="paint2_linear_406_35" x1="23.577" y1="-4.827" x2="6.466" y2="27.282" gradientUnits="userSpaceOnUse"><stop stop-color="#00FFA3"/><stop offset="1" stop-color="#DC1FFF"/></linearGradient><clipPath id="clip0_406_35"><path fill="#fff" d="M0 0h30v24H0z"/></clipPath></defs></svg>