<svg class="icon-size" width="32" height="31" viewBox="0 0 32 31" fill="none" xmlns="http://www.w3.org/2000/svg"><path d="M15.702 31c8.654 0 15.67-6.94 15.67-15.5 0-8.56-7.016-15.5-15.67-15.5S.032 6.94.032 15.5c0 8.56 7.016 15.5 15.67 15.5Z" fill="#301748"/><path d="M16.297 25.823a15.591 15.591 0 0 1-1.484-1.552c-1.092-1.391-3.527-3.837-4.132-4.447-.697-.703-1.401-1.404-2.092-2.12-.1-.102-.263-.221-.165-.394.1-.173.29-.147.459-.137.075.005.149.021.219.049.494.193.989.39 1.483.588.99.395 1.957.804 2.948 1.175.596.223.849 0 .737-.619a17.715 17.715 0 0 0-.366-1.532.795.795 0 0 1 .356-.904c.1-.061.213-.1.33-.114.204-.029.41-.034.614-.05.204-.017.414-.065.495-.3a.511.511 0 0 0-.172-.59c-.672-.641-1.337-1.289-2.003-1.938-1.668-1.63-3.335-3.26-5-4.891-.99-.962-1.974-1.924-2.954-2.885-.098-.094-.2-.177-.122-.326.077-.148.207-.13.34-.104.41.081.705.372 1.028.59.862.587 1.763 1.112 2.637 1.668.61.383 1.23.752 1.838 1.142.608.39 1.185.774 1.783 1.15.86.54 1.73 1.066 2.588 1.607a306.58 306.58 0 0 1 2.766 1.77c.165.108.318.164.495.01.176-.153.15-.306.07-.513-.184-.49-.528-.884-.659-1.385-.046-.163-.082-.326.083-.453a.401.401 0 0 1 .471-.021c.625.293 1.233.62 1.822.978.717.445 1.463.841 2.235 1.186 1.254.59 2.453 1.281 3.64 1.982.654.412 1.218.95 1.66 1.582.345.469.633.976.858 1.512.32.776.533 1.591.631 2.424.195 1.487-.354 3.398-1.055 4.422a8.417 8.417 0 0 1-2.29 2.368 9.428 9.428 0 0 1-1.979 1.016c-.73.283-1.483.326-2.293.355a1.592 1.592 0 0 1-.198 0c-1.668-.1-3.31-.334-5.622-2.299Zm10.798-4.967a4.797 4.797 0 0 0-.348-1.895 4.84 4.84 0 0 0-1.067-1.612 4.902 4.902 0 0 0-1.617-1.072 4.946 4.946 0 0 0-1.913-.365c-2.647.015-4.826 2.153-4.834 4.98 0 2.312 2.276 4.892 4.862 4.729 2.672.107 4.9-2.28 4.917-4.765Z" fill="url(#paint0_linear_302_28)"/><path d="M10.417 14.56a.755.755 0 0 0 .213.533.772.772 0 0 0 .529.234.745.745 0 0 0 .535-.234.728.728 0 0 0 .194-.547.777.777 0 0 0-.237-.526.794.794 0 0 0-.537-.222.755.755 0 0 0-.503.243.739.739 0 0 0-.194.52Z" fill="url(#paint1_linear_302_28)"/><path d="M13.534 5.236c.447 0 .712-.284.71-.736a.748.748 0 0 0-.226-.49.764.764 0 0 0-.502-.214c-.33 0-.783.414-.786.726.011.2.102.387.253.52.15.135.349.204.551.194Z" fill="url(#paint2_linear_302_28)"/><path d="M5.472 11.77a.634.634 0 0 0-.19-.486.649.649 0 0 0-.49-.187.756.756 0 0 0-.475.226.741.741 0 0 0-.21.477c.013.173.09.335.216.456.127.12.293.19.468.197a.666.666 0 0 0 .492-.194.651.651 0 0 0 .19-.49Z" fill="url(#paint3_linear_302_28)"/><path d="M22.178 25.613c2.672.115 4.9-2.272 4.917-4.757a4.797 4.797 0 0 0-.348-1.895 4.842 4.842 0 0 0-1.067-1.612 4.9 4.9 0 0 0-1.617-1.072 4.944 4.944 0 0 0-1.913-.365c-2.647.015-4.826 2.153-4.834 4.98-.009 2.312 2.276 4.884 4.862 4.72Z" fill="url(#paint4_linear_302_28)"/><defs><linearGradient id="paint0_linear_302_28" x1="29.774" y1="16.423" x2="5.418" y2="16.423" gradientUnits="userSpaceOnUse"><stop stop-color="#E2107B"/><stop offset="1" stop-color="#301748"/></linearGradient><linearGradient id="paint1_linear_302_28" x1="11.888" y1="14.561" x2="10.411" y2="14.561" gradientUnits="userSpaceOnUse"><stop stop-color="#E2107B"/><stop offset="1" stop-color="#0D1126"/></linearGradient><linearGradient id="paint2_linear_302_28" x1="14.245" y1="4.517" x2="12.732" y2="4.517" gradientUnits="userSpaceOnUse"><stop stop-color="#E2107B"/><stop offset="1" stop-color="#0D1126"/></linearGradient><linearGradient id="paint3_linear_302_28" x1="5.476" y1="11.773" x2="4.111" y2="11.773" gradientUnits="userSpaceOnUse"><stop stop-color="#E2107B"/><stop offset="1" stop-color="#0D1126"/></linearGradient><linearGradient id="paint4_linear_302_28" x1="29.729" y1="23.648" x2="17.599" y2="18.921" gradientUnits="userSpaceOnUse"><stop stop-color="#301748"/><stop offset="1" stop-color="#E2107B"/></linearGradient></defs></svg>