<svg class="icon-size" width="36" height="34" viewBox="0 0 36 34" fill="none" xmlns="http://www.w3.org/2000/svg"><path fill-rule="evenodd" clip-rule="evenodd" d="M31.105 28.97a18.302 18.302 0 0 1-3.248 2.24c.22-.175-.474-.902-.26-1.09 5.248-4.547 6.443-10.439 4.326-15.59-.286-.694.318-.974.318-1.617 4.885 4.553 4.365 11.302-1.136 16.056Z" fill="#1F5EFF"/><path fill-rule="evenodd" clip-rule="evenodd" d="M32.293 12.894a17.46 17.46 0 0 0-7.489-3.943c1.065.28 1.143 1.507 1.877 2.13 1.566 1.3 1.988 3.021 2.15 5.268.24 3.339.221 6.638-2.215 9.58a13.18 13.18 0 0 1-4.806 3.768l-.448.182a.187.187 0 0 1-.065 0c-.99.394-2.018.69-3.066.883-3.949.747-9.184.435-15.51-1.578a22.863 22.863 0 0 0 16.835 4.644 23.007 23.007 0 0 0 5.989-1.54c.795-.319 1.57-.688 2.319-1.104a13.2 13.2 0 0 0 .649-.545c6.001-5.15 7.353-12.179 3.78-17.745Z" fill="#1F5EFF"/><path fill-rule="evenodd" clip-rule="evenodd" d="M21.362 29.879c7.417-3.007 7.794-10.652-.78-14.94-6.248-3.123-3.488-8.086 4.222-5.975 8.62 2.254 6.073 17.258-3.442 20.915Z" fill="#1F5EFF"/><path fill-rule="evenodd" clip-rule="evenodd" d="M32.865 4.827c-8.132-2.598-14.44-2.364-18.577-.702h-.065c-6.15 2.533-7.463 8.217-2.786 12.562-1.234-1.02-2.637-2.11-3.248-3.488a10.58 10.58 0 0 1-.701-5.787 8.528 8.528 0 0 1 4.547-6.093A13.464 13.464 0 0 1 16.01.176a22.792 22.792 0 0 1 16.855 4.65Z" fill="#1F5EFF"/><path fill-rule="evenodd" clip-rule="evenodd" d="M12.814 25.495c-.533-.176-1.137-.254-1.63-.455-6.281-2.527-9.633-7.223-9.516-11.86.091-3.293 2.02-6.632 5.196-9.38a21.64 21.64 0 0 1 3.164-2.078 22.597 22.597 0 0 1 4.728-1.35c.422-.079.851-.137 1.3-.19-.492.072-.978.174-1.456.306-8.132 2.208-8.612 11.691-3.143 16.238a15.55 15.55 0 0 0 3.578 2.41c5.677 2.806 3.91 7.151-2.221 6.359Z" fill="#1F5EFF"/><path fill-rule="evenodd" clip-rule="evenodd" d="M12.814 25.495c-.68-.092-1.353-.23-2.014-.416C-1.242 21.792-3.008 11.562 4.474 5.06a19.888 19.888 0 0 1 5.547-3.339A20.09 20.09 0 0 0 7.033 3.86C-.937 10.783.65 21.552 12.814 25.495Z" fill="#1F5EFF"/></svg>