<svg class="socials-size" width="24" height="20" viewBox="0 0 24 20" fill="none" xmlns="http://www.w3.org/2000/svg"><path class="fill" fill-rule="evenodd" clip-rule="evenodd" d="M18.384 19.779a1.19 1.19 0 0 0 1.107.145 1.16 1.16 0 0 0 .724-.84C21.084 15 23.192 4.663 23.983.948a.78.78 0 0 0-.26-.758.8.8 0 0 0-.797-.14C18.733 1.602 5.82 6.447.542 8.4A.827.827 0 0 0 0 9.199c.012.354.25.661.593.764 2.367.708 5.474 1.693 5.474 1.693s1.452 4.385 2.209 6.615c.095.28.314.5.603.576a.866.866 0 0 0 .81-.207l3.097-2.923s3.572 2.619 5.598 4.062Zm-11.01-8.677 1.679 5.538.373-3.507L19.61 3.947a.277.277 0 0 0 .033-.377.284.284 0 0 0-.376-.064L7.374 11.102Z" fill="#112338"/></svg>