<svg class="icon-size" width="32" height="32" viewBox="0 0 32 32" fill="none" xmlns="http://www.w3.org/2000/svg"><path d="M16 32C7.2 32 0 24.8 0 16S7.2 0 16 0s16 7.2 16 16-7.2 16-16 16Z" fill="#002868"/><path d="M24.064 25.6H7.936A1.54 1.54 0 0 1 6.4 24.064V7.936A1.54 1.54 0 0 1 7.936 6.4h16.128A1.54 1.54 0 0 1 25.6 7.936v16.128a1.54 1.54 0 0 1-1.536 1.536Z" fill="#fff"/><path d="M10.147 23.667c-.051 0-.092-.046-.092-.096v-2.58c0-.05-.04-.097-.091-.097h-.911c-.051 0-.097-.04-.097-.091v-.499a.1.1 0 0 1 .097-.097h2.803a.1.1 0 0 1 .097.097v.499c0 .05-.046.091-.097.091h-.906a.1.1 0 0 0-.096.097v2.58c0 .05-.041.096-.092.096h-.615ZM14.75 20.304c0-.05.042-.097.092-.097h.61a.1.1 0 0 1 .098.097v1.76c0 1.044-.59 1.65-1.527 1.65-.931 0-1.516-.606-1.516-1.65v-1.76c0-.05.04-.097.091-.097h.611a.1.1 0 0 1 .097.097v1.786c0 .514.264.88.722.88.458 0 .723-.366.723-.88v-1.786ZM18.353 21.337c-.081 0-.107-.03-.137-.092-.107-.25-.341-.407-.697-.407-.32 0-.59.112-.59.326 0 .234.25.331.798.397.835.097 1.313.351 1.313 1.012 0 .744-.651 1.135-1.485 1.135-.723 0-1.344-.351-1.44-1.088-.01-.072.025-.097.096-.097h.56c.071 0 .112.03.133.086.076.245.336.433.712.433.33 0 .62-.122.62-.382 0-.31-.305-.366-.915-.442-.702-.092-1.19-.295-1.19-.942 0-.646.555-1.109 1.424-1.109.784 0 1.328.422 1.44 1.053.016.072-.005.118-.081.118h-.56v-.001ZM19.732 23.667c-.05 0-.092-.046-.092-.096v-3.267c0-.05.041-.097.092-.097h1.384c1.027 0 1.826.708 1.826 1.74 0 1.018-.788 1.72-1.826 1.72h-1.384Zm1.384-.687c.554 0 .986-.438.986-1.043 0-.606-.432-1.044-.992-1.044h-.574c-.05 0-.092.046-.092.097v1.898c0 .05.041.091.092.091h.58ZM25.088 18.304H6.912a.257.257 0 0 1-.256-.256V7.936c0-.704.576-1.28 1.28-1.28h16.128c.704 0 1.28.576 1.28 1.28v10.112c0 .14-.115.256-.256.256Z" fill="#002868"/><path d="M16.943 16.228h-1.664a.193.193 0 0 1-.192-.192v-7.04c0-.106.086-.192.192-.192h1.664c.105 0 .192.086.192.192v7.04a.193.193 0 0 1-.192.192Z" fill="#fff"/><path d="M19.776 10.852h-7.552a.193.193 0 0 1-.192-.192V8.996c0-.106.086-.192.192-.192h7.552c.106 0 .192.086.192.192v1.664a.193.193 0 0 1-.192.192Z" fill="#fff"/></svg>