<svg class="icon-size" width="31" height="31" viewBox="0 0 31 31" fill="none" xmlns="http://www.w3.org/2000/svg">
<path class="fill" d="M28.4324 7.60401C24.2344 0.336605 14.8958 -2.15983 7.62837 2.03788C4.11487 4.07201 1.58147 7.34514 0.527374 11.2839C-0.526726 15.2043 0.00967646 19.3095 2.04388 22.8415C4.85468 27.7235 9.99537 30.4419 15.2472 30.4419C17.8362 30.4419 20.4436 29.7945 22.8289 28.4076C30.1154 24.21 32.6114 14.8714 28.4324 7.60401ZM12.6952 16.7206C10.7166 13.3181 7.01827 11.4689 3.24577 11.8387C3.28277 11.8202 3.33818 11.7832 3.37518 11.7463C7.64698 9.28679 13.1392 10.7477 15.5986 15.0194C18.0579 19.291 16.5971 24.7831 12.3254 27.2427C12.2884 27.2611 12.2514 27.2797 12.2144 27.3167C14.3967 24.2284 14.637 20.0862 12.6952 16.7206ZM17.1334 26.54C19.8702 22.9155 20.3509 17.8487 17.9469 13.6879C15.5246 9.49019 10.8645 7.38211 6.35247 7.95536C8.79347 6.60543 11.6227 6.25408 14.3411 6.97528C17.1148 7.71496 19.4264 9.4902 20.8687 11.9867C23.7721 17.0535 22.0892 23.5259 17.1334 26.54ZM4.39227 21.4916C3.17177 19.3835 2.61697 17.0165 2.72797 14.631C5.74217 14.0023 8.81187 15.3522 10.3838 18.0706C11.9371 20.7519 11.5857 24.099 9.55167 26.392C7.46197 25.3195 5.64977 23.6552 4.39227 21.4916ZM22.0338 25.7633C25.3809 21.5656 26.0281 15.5741 23.1803 10.6552C21.3867 7.54854 18.4833 5.32948 15.0252 4.40488C13.1946 3.90558 11.3083 3.81313 9.47768 4.109C11.3083 3.1659 13.2686 2.7036 15.2102 2.7036C19.5374 2.7036 23.7721 4.95963 26.0837 8.97243C29.4494 14.7605 27.6183 22.1758 22.0338 25.7633Z" fill="white"/>
</svg>
