<svg xmlns="http://www.w3.org/2000/svg" class="icon-size" width="32" height="32" fill="none" viewBox="0 0 32 32"><g clip-path="url(#clip0_1437_2)"><path fill="#F50DB4" d="M25.905 0H6.095A6.095 6.095 0 0 0 0 6.095v19.81A6.095 6.095 0 0 0 6.095 32h19.81A6.095 6.095 0 0 0 32 25.905V6.095A6.095 6.095 0 0 0 25.905 0Z"/><path fill="#fff" d="M28.647 15.76c-6.855 0-12.406-5.558-12.406-12.408h-.482V15.76H3.352v.482c6.856 0 12.407 5.557 12.407 12.406h.482V16.241h12.406v-.482Z"/></g><defs><clipPath id="clip0_1437_2"><path fill="#fff" d="M0 0h32v32H0z"/></clipPath></defs></svg>