<svg class="icon-size" width="30" height="30" viewBox="0 0 30 30" fill="none" xmlns="http://www.w3.org/2000/svg"><g fill="#00A6C4"><path d="m26.655 7.5-1.103 1.104c.877 1.38 1.153 3.111.552 4.766-1.004 2.809-4.112 4.29-6.946 3.286a4.997 4.997 0 0 1-1.104-.552l-3.536 3.537-3.084-3.111a5.634 5.634 0 0 1-4.99.627c-2.91-1.053-4.413-4.239-3.36-7.123.149-.452.375-.854.626-1.229L2.38 7.476l-.25.426A14.481 14.481 0 0 0 0 15.452C-.026 23.451 6.493 30 14.492 30h.025c7.999 0 14.495-6.497 14.519-14.499 0-2.662-.73-5.272-2.107-7.55l-.275-.451Z"/><path d="M5.341 10.435a3.004 3.004 0 0 0-.601 1.806c0 1.631 1.329 2.96 2.959 2.96.677 0 1.304-.226 1.805-.627l-4.163-4.139ZM19.86 14.322a2.875 2.875 0 0 0 1.655.501 2.964 2.964 0 0 0 2.959-2.96c0-.601-.176-1.178-.501-1.655l-4.113 4.114ZM14.568 17.433 2.582 5.393l.477-.502A15.471 15.471 0 0 1 14.392 0h.026c4.387 0 8.601 1.881 11.534 5.142l.451.501-11.835 11.79ZM4.539 5.393 14.57 15.45l9.905-9.858c-2.659-2.657-6.27-4.189-10.03-4.189h-.026c-3.737 0-7.222 1.405-9.879 3.989Z"/></g></svg>