<svg class="icon-size" width="39" height="30" viewBox="0 0 39 30" fill="none" xmlns="http://www.w3.org/2000/svg"><path d="M6.174 22.897c.23-.231.545-.366.88-.366H37.38c.554 0 .831.674.44 1.069l-5.992 6.034c-.229.231-.544.366-.879.366H.623c-.554 0-.831-.674-.44-1.068l5.991-6.035Z" fill="url(#paint0_linear_211_69)"/><path d="M6.174.366C6.414.135 6.73 0 7.054 0H37.38c.554 0 .831.674.44 1.068l-5.992 6.035c-.229.231-.544.366-.879.366H.623c-.554 0-.831-.674-.44-1.069L6.174.366Z" fill="url(#paint1_linear_211_69)"/><path d="M31.83 11.56a1.239 1.239 0 0 0-.88-.367H.623c-.554 0-.831.674-.44 1.069l5.991 6.034c.23.231.545.366.88.366H37.38c.554 0 .831-.674.44-1.068l-5.992-6.035Z" fill="url(#paint2_linear_211_69)"/><defs><linearGradient id="paint0_linear_211_69" x1="34.484" y1="-3.605" x2="13.254" y2="36.764" gradientUnits="userSpaceOnUse"><stop stop-color="#00FFA3"/><stop offset="1" stop-color="#DC1FFF"/></linearGradient><linearGradient id="paint1_linear_211_69" x1="25.306" y1="-8.431" x2="4.076" y2="31.938" gradientUnits="userSpaceOnUse"><stop stop-color="#00FFA3"/><stop offset="1" stop-color="#DC1FFF"/></linearGradient><linearGradient id="paint2_linear_211_69" x1="29.866" y1="-6.033" x2="8.636" y2="34.336" gradientUnits="userSpaceOnUse"><stop stop-color="#00FFA3"/><stop offset="1" stop-color="#DC1FFF"/></linearGradient></defs></svg>