<svg class="icon-size" width="28" height="30" viewBox="0 0 28 30" fill="none" xmlns="http://www.w3.org/2000/svg"><path d="M27.187 20.463a4.058 4.058 0 0 1-2.036 3.518l-9.536 5.48a4.057 4.057 0 0 1-4.043 0l-9.536-5.48A4.058 4.058 0 0 1 0 20.463V9.537A4.058 4.058 0 0 1 2.036 6.02l9.536-5.48a4.058 4.058 0 0 1 4.043 0l9.536 5.48a4.058 4.058 0 0 1 2.036 3.518v10.926Z" fill="#1D86CC"/><path d="M12.418 2.065 3.004 7.502a2.354 2.354 0 0 0-1.177 2.04l.006 10.886a2.353 2.353 0 0 0 1.176 2.036l9.425 5.448a2.353 2.353 0 0 0 2.353 0l9.414-5.435a2.355 2.355 0 0 0 1.177-2.04l-.006-10.886a2.354 2.354 0 0 0-1.176-2.036l-9.425-5.448a2.354 2.354 0 0 0-2.353 0v-.002Z" fill="#fff"/><path d="M9.31 24.233a.44.44 0 0 1 .093-.193l8.45-14.335c.04-.066.075-.134.109-.194-.025-.043-.053-.034-.077-.034-1.204.004-2.407.012-3.612.01a.252.252 0 0 0-.239.16 84980.223 84980.223 0 0 1-8.512 14.046c-.017.029-.035.057-.05.086-.034.065-.073.076-.142.035-.3-.176-.602-.347-.92-.53L12.992 9.52c-.018-.056-.056-.042-.085-.043-.46-.014-.92-.034-1.38-.038a5.1 5.1 0 0 0-1.895.305 2.677 2.677 0 0 0-1.337 1.085 1792.273 1792.273 0 0 1-4.722 7.326c-.024.039-.05.076-.076.114-.09 0-.077-.074-.086-.126a1.525 1.525 0 0 1-.005-.237c0-2.696.009-5.393-.009-8.09a1.163 1.163 0 0 1 .666-1.123c2.074-1.182 4.134-2.389 6.201-3.583.923-.533 1.848-1.06 2.764-1.605a1.045 1.045 0 0 1 1.165 0c1.684.988 3.383 1.954 5.075 2.928 1.277.735 2.554 1.469 3.832 2.201.092.053.18.108.273.16a.886.886 0 0 1 .469.832c.002 2.933.002 5.867 0 8.8a.57.57 0 0 1-.023.214c-.102.098-.138-.012-.175-.064-.152-.214-.29-.44-.43-.661a1471.757 1471.757 0 0 0-3.409-5.31c-.383-.598-.77-1.193-1.15-1.793-.088-.14-.104-.142-.193.008l-1.714 2.904a.294.294 0 0 0 .034.345c.471.76.942 1.52 1.41 2.28l2.406 3.892c.325.526.65 1.052.976 1.576.06.07.094.16.096.253-.065.13-.2.165-.314.224-.185.134-.39.24-.605.316-.117-.029-.158-.134-.213-.22-.745-1.162-1.48-2.33-2.22-3.494-.76-1.197-1.518-2.398-2.283-3.594-.098-.153-.113-.154-.205 0-.665 1.118-1.32 2.242-1.987 3.36a.298.298 0 0 0 .016.347c.898 1.384 1.775 2.78 2.663 4.17.248.388.497.774.74 1.164.048.076.113.152.07.255a4.216 4.216 0 0 1-.75.466l-2.49 1.446a.823.823 0 0 1-.894 0 773.356 773.356 0 0 0-3.676-2.113.48.48 0 0 1-.211-.164Z" fill="#2D374B"/><path d="M23.782 18.67c.002-.073.006-.145.006-.218 0-2.926 0-5.853.003-8.78a.913.913 0 0 0-.499-.867 4136.185 4136.185 0 0 1-9.213-5.298.855.855 0 0 0-.93-.002A18300.776 18300.776 0 0 0 3.919 8.85a.856.856 0 0 0-.46.807c.006 2.809.01 5.617.011 8.425 0 .063-.025.132.03.188-.325.54-.682 1.06-1.024 1.588-.17.265-.343.53-.515.793-.028.043-.06.082-.114.157-.004-.089-.009-.137-.009-.186l.002-11.11a2.238 2.238 0 0 1 1.17-2.017c1.191-.707 2.4-1.389 3.599-2.084 1.012-.586 2.02-1.177 3.032-1.764.944-.547 1.878-1.112 2.837-1.63a2.349 2.349 0 0 1 2.39.062c.771.438 1.539.883 2.308 1.325l2.169 1.25a1863.537 1863.537 0 0 0 3.982 2.288c.29.167.581.334.87.504a2.438 2.438 0 0 1 1.207 1.737c.014.104.018.21.013.315l.001 10.933a2.348 2.348 0 0 1-.844 1.816 2.807 2.807 0 0 1-.487.299 1985.654 1985.654 0 0 1-6.124 3.544 859.781 859.781 0 0 0-3.033 1.765c-.251.169-.534.285-.832.343a2.346 2.346 0 0 1-1.46-.186c-.504-.27-.995-.563-1.491-.848-.667-.382-1.333-.765-2-1.15l-.564-.322c-.07-.04-.116-.08-.062-.17.249-.417.494-.837.742-1.255.009-.015.03-.022.047-.033.231.107.455.23.67.368 1.087.622 2.174 1.247 3.258 1.875a.77.77 0 0 0 .835-.008c1.03-.605 2.066-1.2 3.099-1.8.051-.029.104-.056.155-.084a.851.851 0 0 1 .376-.274c.933-.535 1.86-1.08 2.793-1.613.078-.045.148-.114.25-.102l.914-.53c.056-.116.175-.154.274-.212.46-.265.916-.538 1.38-.795a.789.789 0 0 0 .42-.746c.004-.465 0-.93.002-1.396a.342.342 0 0 1 .047-.248Z" fill="#96BEDC"/><path d="M23.784 18.67c.002.577.015 1.156.002 1.733a.732.732 0 0 1-.384.663c-.581.33-1.153.678-1.74.998-.233-.426-.503-.831-.758-1.245a5011.98 5011.98 0 0 0-3.981-6.442c-.08-.129-.153-.262-.242-.384a.194.194 0 0 1 0-.248c.317-.53.63-1.063.943-1.596l.872-1.478a.165.165 0 0 1 .076-.081l.457.705a23527.743 23527.743 0 0 1 4.613 7.185.59.59 0 0 0 .142.19ZM20.748 22.594c-.379.248-.78.46-1.17.69-.707.415-1.418.823-2.128 1.234l-.12.067a.335.335 0 0 0-.081-.177l-1.896-2.978c-.52-.815-1.04-1.63-1.562-2.443a.251.251 0 0 1-.014-.304 811.562 811.562 0 0 0 2.086-3.532c.016-.027.03-.06.07-.068.057.013.07.07.098.112l3.773 5.945c.268.422.534.844.804 1.265a.625.625 0 0 0 .14.19v-.001Z" fill="#28A0F0"/></svg>