<svg class="icon-size" xmlns="http://www.w3.org/2000/svg" viewBox="0 0 101 128" width="101" height="128" fill="none"><path fill="#fff" class="fill" d="M44.956 1.226c3.11-1.635 7.844-1.635 10.955 0l31.745 16.682c1.874.985 2.903 2.452 3.087 3.967h.03v83.853c-.04 1.652-1.08 3.293-3.117 4.364l-31.745 16.682c-3.11 1.635-7.845 1.635-10.956 0l-31.744-16.682c-2.03-1.066-3.003-2.719-3.051-4.364a5.946 5.946 0 0 1 0-.409l-.001-82.906a4.248 4.248 0 0 1 0-.271l.001-.267h.014c.141-1.532 1.123-2.961 3.037-3.967L44.956 1.226Zm40.82 67.43L55.911 84.35c-3.11 1.635-7.845 1.635-10.956 0L15.157 68.691v36.871l29.8 15.577c1.682.895 3.429 1.767 5.136 1.878l.341.011c1.78.006 3.508-.893 5.26-1.744l30.083-15.856V68.656Zm-80.78 35.249c0 3.212.376 5.324 1.121 6.812.618 1.233 1.544 2.175 3.236 3.322l.097.065c.371.249.78.51 1.278.816l.588.358 1.803 1.083-2.586 4.254-2.019-1.213-.339-.207a44.85 44.85 0 0 1-1.518-.969C1.835 114.991.036 111.465 0 104.128L0 103.905h4.997Zm42.938-57.724a4.56 4.56 0 0 0-.645.274L15.544 63.137a3.468 3.468 0 0 0-.095.052l-.027.016.05.028.072.039L47.29 79.954c.198.104.414.195.645.274V46.181Zm4.998 0v34.047c.232-.079.448-.17.646-.274l31.745-16.682.095-.052.027-.015-.05-.029-.072-.039-31.745-16.682a4.553 4.553 0 0 0-.646-.274Zm32.844-18.358L57.299 42.788l28.477 14.965v-29.93Zm-70.62.035v29.86l28.411-14.93-28.411-14.93ZM53.578 5.622c-1.651-.867-4.638-.867-6.289 0L15.544 22.304a3.468 3.468 0 0 0-.095.052l-.027.016.05.028.072.04L47.29 39.12c1.651.868 4.638.868 6.289 0L85.323 22.44l.095-.052.027-.015-.05-.029-.072-.039L53.578 5.622Zm36.89 1.83 2.018 1.212.339.207a44.6 44.6 0 0 1 1.518.97c4.822 3.234 6.621 6.76 6.656 14.097l.001.224h-4.997c0-3.213-.375-5.325-1.12-6.813-.618-1.233-1.544-2.175-3.236-3.321l-.097-.066c-.371-.249-.78-.51-1.278-.816l-.588-.358-1.803-1.083 2.587-4.253Z"/></svg>