<svg class="icon-size" width="28" height="30" viewBox="0 0 28 30" fill="none" xmlns="http://www.w3.org/2000/svg"><path d="M27.383 20.074V9.926a4.833 4.833 0 0 0-2.417-4.188L16.107.664c-1.45-.885-3.382-.885-4.832 0L2.416 5.738A4.833 4.833 0 0 0 0 9.926v10.148c0 1.691.886 3.302 2.416 4.188l8.86 5.074c1.449.886 3.382.886 4.831 0l8.86-5.074c1.45-.886 2.416-2.497 2.416-4.188Z" fill="url(#paint0_linear_211_68)"/><path d="M13.649 17.187a.858.858 0 0 0-.032.138c.272 1.351.768 2.59 1.688 3.618.32.372.783.574 1.263.566 1.456.008 2.64-.599 3.608-1.667.16-.186.328-.364.512-.526.232-.178.512-.235.776-.065.264.17.303.413.272.696a1.865 1.865 0 0 1-.488 1.036c-1.104 1.174-2.384 2.096-3.976 2.493-1.448.364-2.631-.04-3.607-1.141a9.508 9.508 0 0 1-1.624-2.695c-.272-.632-.488-1.28-.728-1.91-.048-.122-.096-.252-.176-.478-.12.307-.208.518-.288.728-.44 1.182-.856 2.364-1.32 3.53a5.557 5.557 0 0 1-1.096 1.772c-.368.396-.8.631-1.351.566-.584-.08-.976-.477-1.032-1.076-.048-.47.048-.939.28-1.352.584-1.076 1.152-2.16 1.735-3.237.92-1.692 1.832-3.384 2.784-5.051.448-.729.928-1.425 1.448-2.096.192-.235.424-.446.672-.615a.655.655 0 0 1 .784-.05c.24.13.368.406.312.68-.032.325-.104.64-.216.948-.392.98-.824 1.942-1.232 2.905-.04.082-.072.17-.136.292.392.065.8.049 1.184-.049 2.087-.388 3.975-2.355 4.295-4.476.216-1.376-.392-2.476-1.664-3.027a4.83 4.83 0 0 0-1.967-.364c-.832 0-1.64.049-2.448.291-1.248.397-2.16 1.182-2.824 2.323-.296.51-.592 1.012-.92 1.498a1.552 1.552 0 0 1-.975.72c-.736.17-1.592-.218-1.52-1.255.048-.671.328-1.254.712-1.788.864-1.214 2.007-2.056 3.32-2.68a10.633 10.633 0 0 1 5.23-1.035c1.328.072 2.576.404 3.704 1.133 2.216 1.44 2.688 4.2 1.576 6.273-.776 1.465-1.984 2.468-3.392 3.253-.976.535-2.04.94-3.143 1.174Z" fill="#fff"/><defs><linearGradient id="paint0_linear_211_68" x1="13.691" y1="-.001" x2="13.691" y2="30.033" gradientUnits="userSpaceOnUse"><stop offset=".001" stop-color="#A90FE3"/><stop offset="1" stop-color="#CF3FA7"/></linearGradient></defs></svg>