<svg class="icon-size" width="32" height="30" viewBox="0 0 32 30" fill="none" xmlns="http://www.w3.org/2000/svg"><g clip-path="url(#clip0_211_16)"><path d="M31.234 18.775 16.214 29.88a.599.599 0 0 1-.69.013L.265 19.107a.632.632 0 0 1-.119-.916L15.153.2a.538.538 0 0 1 .835 0l15.326 17.886a.476.476 0 0 1-.08.69Z" fill="#FFF4FC"/><path d="M30.425 18.403 16.148 28.952l-.08-10.748-.106-16.877 14.13 16.678.333.398Z" fill="url(#paint0_linear_211_16)"/><path d="m.85 18.629 14.648 10.323-.332-27.625L.849 18.629Z" fill="url(#paint1_linear_211_16)"/><path d="m15.378 18.23-14.423.28-.106.119 14.649 10.323-.12-10.721Z" fill="url(#paint2_linear_211_16)"/><path d="m16.068 18.204 14.025-.199.332.398-14.277 10.549-.08-10.748Z" fill="url(#paint3_linear_211_16)"/><path d="M16.041 18.072 30 17.888m-14.645.209L1 18.355m19.756-.344-4.741-3.854m10.565 6.677c.119-.16 1.598-2.185.686-4.087-.673-1.412-2.324-2.063-2.575-2.16-.33-.136-.343-.099-1.888-.565-.938-.295-1.413-.43-1.823-.577a17.363 17.363 0 0 1-3.261-1.498 17.192 17.192 0 0 1-1.73-1.178m-.7 2.97c-3.09-2.197-4.398-2.54-4.886-2.172-1.347 1.043 3.644 7.83 1.65 9.537-.58.49-1.783.601-4.094.81A20.97 20.97 0 0 1 6.27 22l9.02-8.26ZM12.885 5a6.076 6.076 0 0 0 .647 3.105 6.575 6.575 0 0 0 1.717 2.124L12.885 5Z" stroke="#98C9C0" stroke-width=".2" stroke-miterlimit="10"/></g><defs><linearGradient id="paint0_linear_211_16" x1="15.96" y1="15.14" x2="30.428" y2="15.14" gradientUnits="userSpaceOnUse"><stop stop-color="#3B8270"/><stop offset="1" stop-color="#305C6E"/></linearGradient><linearGradient id="paint1_linear_211_16" x1=".855" y1="15.14" x2="15.501" y2="15.14" gradientUnits="userSpaceOnUse"><stop stop-color="#4E7F98"/><stop offset="1" stop-color="#3BC0B5"/></linearGradient><linearGradient id="paint2_linear_211_16" x1=".855" y1="23.59" x2="15.501" y2="23.59" gradientUnits="userSpaceOnUse"><stop stop-color="#30435C"/><stop offset="1" stop-color="#299AA9"/></linearGradient><linearGradient id="paint3_linear_211_16" x1="16.071" y1="23.483" x2="30.428" y2="23.483" gradientUnits="userSpaceOnUse"><stop stop-color="#2E2C29"/><stop offset="1" stop-color="#323232"/></linearGradient><clipPath id="clip0_211_16"><path fill="#fff" d="M0 0h31.433v30H0z"/></clipPath></defs></svg>