<?xml version="1.0" encoding="UTF-8"?>
<svg xmlns="http://www.w3.org/2000/svg" xmlns:xlink="http://www.w3.org/1999/xlink" width="30px" height="30px" viewBox="0 0 200 200" version="1.1">
<g id="surface1">
<path style="stroke:none;fill-rule:evenodd;fill:rgb(0%,0%,0%);fill-opacity:1;" d="M 100 200 C 44.769531 200 0 155.230469 0 100 C 0 44.769531 44.769531 0 100 0 C 155.230469 0 200 44.769531 200 100 C 200 155.230469 155.230469 200 100 200 Z M 140.625 119.710938 C 140.625 103.945312 130.773438 95.039062 107.730469 89.488281 L 107.730469 61.738281 C 114.855469 63.199219 121.675781 66.269531 128.34375 71.085938 L 136.835938 57.363281 C 128.472656 51.234375 118.644531 47.40625 108.335938 46.261719 L 108.335938 37.5 L 95.148438 37.5 L 95.148438 45.96875 C 76.199219 47.429688 63.320312 58.238281 63.320312 74.007812 C 63.320312 90.507812 73.625 98.539062 95.757812 104.085938 L 95.757812 132.710938 C 85.898438 131.25 77.71875 126.867188 69.074219 120.148438 L 59.375 133.4375 C 69.757812 141.429688 82.128906 146.433594 95.148438 147.898438 L 95.148438 162.5 L 108.335938 162.5 L 108.335938 148.042969 C 127.585938 146.4375 140.625 135.773438 140.625 119.710938 Z M 95.75 86.417969 C 84.082031 83.0625 81.207031 79.117188 81.207031 72.980469 C 81.207031 66.5625 86.207031 61.449219 95.757812 60.71875 Z M 122.738281 120.730469 C 122.738281 127.742188 117.28125 132.5625 107.730469 133.292969 L 107.730469 106.863281 C 119.554688 110.226562 122.738281 114.164062 122.738281 120.738281 Z M 122.738281 120.730469 "/>
</g>
</svg>
