<svg class="icon-size" width="34" height="34" viewBox="0 0 34 34" fill="none" xmlns="http://www.w3.org/2000/svg"><circle cx="17" cy="17" r="17" fill="#31CB9E"/><path d="M24.142 16.875h-2.879a1.604 1.604 0 0 0-1.125.472l-2.137 2.126a1.595 1.595 0 0 1-2.258 0 1.596 1.596 0 0 0-2.725 1.13v7.395a1.595 1.595 0 0 0 2.725 1.128l9.527-9.525a1.597 1.597 0 0 0-1.128-2.727Z" fill="#fff"/><path d="m15.751 19.473 3.698 3.698a1.598 1.598 0 0 1 0 2.258l-3.698 3.698a1.596 1.596 0 0 1-2.725-1.128v-7.395a1.596 1.596 0 0 1 2.725-1.13ZM9.596 16.721h2.878c.423 0 .828-.167 1.128-.465l2.133-2.133a1.595 1.595 0 0 1 2.259 0 1.599 1.599 0 0 0 2.726-1.13V5.597a1.597 1.597 0 0 0-2.726-1.128l-9.528 9.526a1.598 1.598 0 0 0 1.13 2.726Z" fill="#fff"/><path d="m17.993 15.123-3.705-3.698a1.597 1.597 0 0 1 0-2.258l3.698-3.698a1.596 1.596 0 0 1 2.726 1.128v7.395a1.598 1.598 0 0 1-2.72 1.13Z" fill="#fff"/></svg>