<svg class="icon-size" width="33" height="33" viewBox="0 0 33 33" fill="none" xmlns="http://www.w3.org/2000/svg"><g id="wbtc" clip-path="url(#clip0_406_7)"><g id="Layer 2"><g id="Layer 1"><g id="Page-1"><g id="wbtc colour"><path class="fill" d="m26.908 6.926-.906.906a12.827 12.827 0 0 1 0 17.312l.906.906a14.123 14.123 0 0 0 0-19.146v.022Z" fill="#5A5564"/><path class="fill" d="M7.853 7.004a12.827 12.827 0 0 1 17.312 0l.906-.906a14.123 14.123 0 0 0-19.145 0l.927.906Z" fill="#5A5564"/><path class="fill" d="M7.004 25.153a12.827 12.827 0 0 1 0-17.303l-.906-.906a14.123 14.123 0 0 0 0 19.146l.906-.937Z" fill="#5A5564"/><path class="fill" d="M25.153 25.99a12.827 12.827 0 0 1-17.312 0l-.906.906a14.123 14.123 0 0 0 19.145 0l-.927-.906Z" fill="#5A5564"/><path id="Shape" d="M22.22 13.477c-.18-1.891-1.812-2.525-3.875-2.719V8.155h-1.594v2.555h-1.275V8.155h-1.583v2.622H10.66v1.706s1.178-.021 1.16 0a.825.825 0 0 1 .906.7v7.177a.559.559 0 0 1-.194.39.554.554 0 0 1-.41.139c.02.018-1.16 0-1.16 0l-.302 1.905h3.204v2.664h1.595v-2.624h1.275v2.612h1.597v-2.634c2.694-.163 4.573-.827 4.809-3.35.19-2.029-.764-2.935-2.29-3.3.927-.456 1.501-1.302 1.372-2.685Zm-2.235 5.672c0 1.981-3.394 1.755-4.476 1.755v-3.516c1.082.003 4.476-.308 4.476 1.76Zm-.74-4.954c0 1.813-2.833 1.592-3.733 1.592v-3.195c.9 0 3.733-.284 3.733 1.603Z" fill="#F09242"/><path class="fill" d="M16.497 33a16.5 16.5 0 1 1 .006-33.002A16.5 16.5 0 0 1 16.497 33Zm0-31.713a15.204 15.204 0 1 0 .024 30.408 15.204 15.204 0 0 0-.024-30.408Z" fill="#282138"/></g></g></g></g></g><defs><clipPath id="clip0_406_7"><path fill="#fff" d="M0 0h33v33H0z"/></clipPath></defs></svg>