<svg class="icon-size" width="38" height="38" viewBox="0 0 38 38" fill="none" xmlns="http://www.w3.org/2000/svg"><g clip-path="url(#clip0_805_2)"><path d="M10.653 37.688c9.551 0 9.551-.142 11.17-.622 2.117-.629-5.975-6.23-11.17-6.23s-9.407 1.534-9.407 3.426c0 1.892 4.212 3.426 9.407 3.426Z" fill="#000"/><path d="m32.341 8.553.44.473-.384.52C19.94 26.387 12.764 34.013 9.719 32.99c-1.854-.623-3.714-2.497-5.574-5.217a38.424 38.424 0 0 1-1.826-2.966 32.285 32.285 0 0 1-.85-1.618c-.208-.437-.296-.707-.366-1.06l-.008-.043c-.03-.15-.04-.198-.061-.28a16.999 16.999 0 0 1-.567-4.364C.467 8.067 8.067.467 17.443.467a16.9 16.9 0 0 1 8.276 2.15l.064.041c2.054 1.43 4.239 3.395 6.558 5.895Zm-7.416-4.594a15.344 15.344 0 0 0-7.482-1.934c-8.516 0-15.418 6.902-15.418 15.418 0 1.353.174 2.682.514 3.965.034.127.049.198.085.382l.007.038c.045.228.093.374.244.692.15.312.449.892.805 1.53.536.964 1.126 1.93 1.75 2.845 1.681 2.458 3.348 4.137 4.785 4.62 1.918.644 9.136-6.997 20.543-22.374-2.071-2.186-4.017-3.914-5.833-5.182Z" fill="#000"/><path d="M24.925 3.959a15.343 15.343 0 0 0-7.482-1.934c-8.516 0-15.418 6.902-15.418 15.418 0 1.353.174 2.682.514 3.965.034.127.049.198.085.382l.007.038c.045.228.093.374.244.692.15.312.449.892.805 1.53.536.964 1.126 1.93 1.75 2.845 1.681 2.458 3.348 4.137 4.785 4.62 1.918.644 9.136-6.997 20.543-22.374-2.071-2.186-4.017-3.914-5.833-5.182Z" fill="#EC1C79"/><path d="M20.557 37.533c-9.375 0-16.975-7.6-16.975-16.976 0-9.375 7.6-16.975 16.975-16.975 9.376 0 16.976 7.6 16.976 16.975 0 9.376-7.6 16.976-16.976 16.976Zm0-1.558c8.516 0 15.418-6.902 15.418-15.418 0-8.515-6.902-15.418-15.418-15.418-8.515 0-15.418 6.903-15.418 15.418 0 8.516 6.903 15.418 15.418 15.418Z" fill="#000"/><path d="M20.557 35.975c8.516 0 15.418-6.902 15.418-15.418 0-8.515-6.902-15.418-15.418-15.418-8.515 0-15.418 6.903-15.418 15.418 0 8.516 6.903 15.418 15.418 15.418Z" fill="#fff"/><path fill-rule="evenodd" clip-rule="evenodd" d="m9.024 23.716-2.04-6.149H8.77L9.835 21.1l1.177-3.55h1.457l1.177 3.55 1.064-3.532h1.753l-2.04 6.149h-1.474l-1.23-3.515-1.221 3.515H9.024Zm8.11-.044v-6.105h4.911v1.44h-3.236v.924h2.93v1.334h-2.93v.968h3.28v1.44h-4.954Zm7.31 0V19.05h-1.832v-1.483h5.355v1.483h-1.832v4.622h-1.692Zm4.264 0v-6.105H30.4v2.285h2.172v-2.285h1.691v6.105h-1.691v-2.32H30.4v2.32h-1.692Z" fill="#000"/><path d="M1.479 15.73a.872.872 0 0 1 .78-1.56l2.492 1.247a.872.872 0 1 1-.78 1.56L1.479 15.73ZM1.192 19.863a.872.872 0 1 1 .73-1.584l2.493 1.15a.872.872 0 1 1-.731 1.584l-2.492-1.15Z" fill="#000"/></g><defs><clipPath id="clip0_805_2"><path fill="#fff" d="M0 0h38v38H0z"/></clipPath></defs></svg>