<svg class="icon-size" width="31" height="32" viewBox="0 0 31 32" fill="none" xmlns="http://www.w3.org/2000/svg">
<ellipse cx="15.3478" cy="15.6818" rx="15" ry="15.6818" fill="#53378C"/>
<path d="M20.5716 13.6916L23.7293 15.7418L20.5716 17.7955C20.8012 17.1567 20.9362 16.465 20.9362 15.7418C20.9362 15.0183 20.8012 14.3304 20.5716 13.6916V13.6916ZM10.1275 13.6916C9.898 14.3304 9.76298 15.0218 9.76298 15.7418C9.76298 16.465 9.89463 17.1532 10.1275 17.7919L6.96985 15.7418L10.1275 13.6916ZM15.3497 11.1229C17.7951 11.1229 19.7622 13.1834 19.7622 15.7418C19.7622 18.2999 17.792 20.3571 15.3497 20.3571C12.9038 20.3571 10.9336 18.2966 10.9336 15.7418C10.9336 13.1872 12.9072 11.1229 15.3497 11.1229V11.1229ZM15.3497 8.87867L14.8031 9.23158L12.6405 10.6359C12.4854 10.7277 12.3372 10.823 12.192 10.9288L4.78725 15.7418L12.192 20.5512C12.3403 20.657 12.4922 20.7559 12.6506 20.8476L15.3528 22.6013L18.0112 20.8723C18.0179 20.8688 18.0247 20.8617 18.0314 20.8582C18.1966 20.7629 18.3586 20.657 18.5139 20.5441L25.9153 15.7418L18.5105 10.9324C18.362 10.8265 18.2103 10.7241 18.0517 10.6324L15.3497 8.87867Z" fill="white"/>
<path d="M27.0014 16.8322C26.6607 16.8357 26.2897 16.931 25.9152 17.1604L16.4424 23.3106L16.5371 23.3706C16.8033 23.5329 17.1542 23.6459 17.5424 23.6385C17.8831 23.6353 18.2541 23.54 18.6284 23.3106L20.4905 22.1001L28.0978 17.1568L28.0002 17.0933C27.7335 16.938 27.3894 16.8286 27.0014 16.8322Z" fill="white"/>
<path d="M13.1567 7.84124C12.816 7.84477 12.4449 7.94006 12.0705 8.16945L10.2083 9.37968L2.59787 14.3232C3.09023 14.6691 3.92354 14.8455 4.78361 14.3232L14.2567 8.17298L14.1622 8.11298C13.8955 7.94712 13.548 7.83419 13.1567 7.84124Z" fill="white"/>
</svg>
