<svg viewBox="0 0 57.613 50.738" xmlns="http://www.w3.org/2000/svg"><g stroke-width="20.829"><path d="M48.137.139h-4.565l-.02 50.32h4.566V34.69h4.049V30.06h-4.05l.02-18.739h4.049V6.693h-4.05zM38.85 6.694h-4.494v20.4h4.494zM38.815.139H34.39v4.719h4.425zM4.215 27.093h25.429V6.694h-4.491v15.908h-7.757V6.694h-4.49v15.908H6.17a1.68 1.68 0 0 1-1.68-1.68V6.694H-.002v16.183a4.216 4.216 0 0 0 4.215 4.216M13.91 30.06H.27v20.387h4.49V34.552h7.196c.928 0 1.68.752 1.68 1.68v14.215h4.491v-16.17a4.216 4.216 0 0 0-4.216-4.216M28.479 34.854c2.06-1.094 4.049-.72 5.727.67l-8.62 4.583c-.179-2.188.764-4.121 2.893-5.253m5.98 11.078c-2.623 1.395-5.66.643-7.56-2.075l14.045-7.465a10.365 10.365 0 0 0-.864-1.627c-.075-.119-.154-.23-.231-.344-1.891-2.686-5.01-4.446-8.546-4.446-1.39 0-2.714.276-3.927.77-.09.038-.181.072-.271.114a10.539 10.539 0 0 0-1.98 1.152c-2.587 1.901-4.273 4.957-4.273 8.414 0 5.771 4.68 10.45 10.45 10.45 5.241 0 9.569-3.862 10.322-8.893-1.125-.003-4.126-.011-4.147-.013a5.9 5.9 0 0 1-3.018 3.964" fill="#fff"/><path d="M53.05 50.449h4.56v-4.56h-4.56z" fill="#41bea5"/></g></svg>