<svg width="284" height="53" viewBox="0 0 284 53" fill="none" xmlns="http://www.w3.org/2000/svg">
<path d="M48.8406 20.0652L57.4207 25.9202L48.8406 31.7854C49.4635 29.9618 49.8306 27.9861 49.8306 25.9202C49.8306 23.8542 49.4635 21.8888 48.8406 20.0652ZM20.4602 20.0652C19.8128 21.9342 19.4773 23.9181 19.4702 25.9202C19.4702 27.9861 19.8281 29.9515 20.4602 31.7762L11.8801 25.9202L20.4602 20.0652ZM34.6504 12.7286C41.2959 12.7286 46.6409 18.6132 46.6409 25.9202C46.6409 33.2271 41.2866 39.1026 34.6504 39.1026C28.0039 39.1026 22.6506 33.218 22.6506 25.9202C22.6506 18.6247 28.0132 12.7286 34.6504 12.7286ZM34.6504 6.31799L33.1654 7.3264L27.2893 11.3372C26.8675 11.6001 26.4643 11.8711 26.0703 12.1741L5.94935 25.919L26.0693 39.656C26.4735 39.959 26.886 40.2414 27.3171 40.502L34.6597 45.5121L41.8827 40.5729C41.9012 40.5638 41.9188 40.5432 41.9373 40.5329C42.3859 40.2608 42.8263 39.959 43.248 39.6365L63.3608 25.919L43.2408 12.1844C42.8371 11.8772 42.4207 11.5911 41.993 11.3269L34.6504 6.31799ZM66.3122 29.0346C65.3862 29.046 64.3776 29.317 63.3597 29.9721L37.6204 47.5392L37.8783 47.7107C38.7103 48.2333 39.654 48.4975 40.6101 48.4755C41.5351 48.4664 42.5437 48.1943 43.5605 47.538L48.6209 44.0818L69.2915 29.9618L69.0265 29.7811C68.1942 29.279 67.2597 29.022 66.3122 29.0346ZM28.6918 3.35452C27.7657 3.36595 26.7571 3.63691 25.7403 4.29204L20.6799 7.74943L0 21.8694C1.33858 22.8561 3.6022 23.3603 5.94007 21.8694L31.6804 4.30233L31.4236 4.13083C30.5941 3.59901 29.6487 3.33044 28.6907 3.35452H28.6918ZM122.689 11.7922H118.315V40.1808H122.689V23.5695H126.57V18.6955H122.689V11.7911V11.7922ZM109.482 40.1796H113.788V18.6967H109.482V40.1796ZM113.754 11.7933H109.514V16.7622H113.754V11.7933ZM100.662 35.4509H93.2271V18.6967H88.9237V35.4509H82.468C82.0429 35.4527 81.6345 35.2673 81.3326 34.9354C81.0307 34.6035 80.8601 34.1523 80.8582 33.681V18.6967H76.5537V35.7401C76.5537 38.1937 78.3636 40.1819 80.5952 40.1819H104.965V18.699H100.662V35.4509Z" fill="#181819"/>
<path d="M48.8406 20.0652L57.4207 25.9202L48.8406 31.7854C49.4635 29.9618 49.8306 27.9861 49.8306 25.9202C49.8306 23.8542 49.4635 21.8888 48.8406 20.0652ZM20.4602 20.0652C19.8128 21.9342 19.4773 23.9181 19.4702 25.9202C19.4702 27.9861 19.8281 29.9515 20.4602 31.7762L11.8801 25.9202L20.4602 20.0652ZM34.6504 12.7286C41.2959 12.7286 46.6409 18.6132 46.6409 25.9202C46.6409 33.2271 41.2866 39.1026 34.6504 39.1026C28.0039 39.1026 22.6506 33.218 22.6506 25.9202C22.6506 18.6247 28.0132 12.7286 34.6504 12.7286ZM34.6504 6.31799L33.1654 7.3264L27.2893 11.3372C26.8675 11.6001 26.4643 11.8711 26.0703 12.1741L5.94935 25.919L26.0693 39.656C26.4735 39.959 26.886 40.2414 27.3171 40.502L34.6597 45.5121L41.8827 40.5729C41.9012 40.5638 41.9188 40.5432 41.9373 40.5329C42.3859 40.2608 42.8263 39.959 43.2481 39.6365L63.3608 25.919L43.2408 12.1844C42.8371 11.8772 42.4207 11.5911 41.993 11.3269L34.6504 6.31799ZM66.3122 29.0346C65.3862 29.046 64.3776 29.317 63.3597 29.9721L37.6204 47.5392L37.8783 47.7107C38.7103 48.2333 39.654 48.4975 40.6101 48.4755C41.5351 48.4664 42.5437 48.1943 43.5605 47.538L48.6209 44.0818L69.2916 29.9618L69.0265 29.7811C68.1942 29.279 67.2597 29.022 66.3122 29.0346ZM28.6918 3.35452C27.7657 3.36595 26.7571 3.63691 25.7403 4.29204L20.6799 7.74943L0 21.8694C1.33858 22.8561 3.6022 23.3603 5.94007 21.8694L31.6804 4.30233L31.4236 4.13083C30.5941 3.59901 29.6497 3.33044 28.6918 3.35452ZM122.689 11.7922H118.315V40.1808H122.689V23.5695H126.57V18.6955H122.689V11.7911V11.7922ZM109.482 40.1796H113.788V18.6967H109.482V40.1796ZM113.754 11.7933H109.514V16.7622H113.754V11.7933ZM100.662 35.4509H93.2272V18.6967H88.9237V35.4509H82.468C82.0429 35.4527 81.6345 35.2673 81.3326 34.9354C81.0308 34.6035 80.8601 34.1523 80.8582 33.681V18.6967H76.5537V35.7401C76.5537 38.1937 78.3636 40.1819 80.5952 40.1819H104.965V18.699H100.662V35.4509Z" fill="white" class="dark:fill-white-50 fill-black-950"/>
<path d="M238.023 11V23.4793H237.95C236.928 22.1553 235.066 20.7902 232.401 20.7902C227.107 20.7902 223.819 25.6859 223.819 31.263C223.819 36.8401 226.997 41.8947 232.474 41.8947C234.884 41.8947 237.257 40.732 238.425 38.7254H238.498V41.3322H244.012V11H238.023ZM167 12.9265V41.3322H173.17V30.2992H183.173V24.6398H173.17V18.7826H184.014V12.9253L167 12.9265ZM193.279 20.7102C187.765 20.7102 183.457 24.8833 183.457 31.4231C183.457 38.1641 187.984 41.9748 193.461 41.9748C197.149 41.9748 199.996 40.4507 201.712 37.7216L197.551 34.8325C196.748 36.0364 195.433 36.919 193.534 36.919C191.38 36.919 189.371 35.3549 189.189 33.1483H202.37C202.406 32.667 202.406 32.1056 202.406 31.5831C202.406 24.7621 198.645 20.7102 193.279 20.7102ZM213.46 20.7102C207.947 20.7102 203.639 24.8833 203.639 31.4231C203.639 38.1641 208.166 41.9748 213.642 41.9748C217.33 41.9748 220.178 40.4507 221.894 37.7216L217.732 34.8325C216.929 36.0364 215.614 36.919 213.715 36.919C211.561 36.919 209.553 35.3549 209.37 33.1483H222.551C222.588 32.667 222.588 32.1056 222.588 31.5831C222.588 24.7621 218.827 20.7102 213.46 20.7102ZM253.86 20.7102C250.391 20.7102 246.302 22.6355 246.302 27.41C246.302 31.1818 249.077 32.5858 251.597 33.2284C254.079 33.8709 255.211 34.2711 255.211 35.515C255.211 36.799 254.043 37.2403 253.057 37.2403C251.305 37.2403 249.661 36.2776 248.603 34.9937L245.243 38.8855C247.141 40.892 250.208 41.9748 253.166 41.9748C256.89 41.9748 260.943 40.2095 260.943 35.1549C260.943 31.263 257.913 29.7367 255.138 29.0553C252.801 28.4939 251.815 28.1726 251.815 27.0487C251.815 25.8848 252.946 25.4447 254.079 25.4447C255.539 25.4447 256.927 26.2473 257.876 27.25L261.161 23.5182C259.373 21.6729 256.562 20.7102 253.86 20.7102ZM193.315 25.2434C195.689 25.2434 196.893 26.9699 196.893 29.0553H189.189C189.335 27.0087 191.015 25.2434 193.315 25.2434ZM213.497 25.2434C215.869 25.2434 217.075 26.9699 217.075 29.0553H209.37C209.517 27.0087 211.196 25.2434 213.497 25.2434ZM233.898 26.1661C236.6 26.1661 238.279 28.774 238.279 31.3019C238.279 33.9098 236.6 36.4377 233.898 36.4377C231.05 36.4377 229.589 33.8709 229.589 31.263C229.589 28.6951 231.05 26.1661 233.898 26.1661Z" fill="#00E2ED"/>
<line x1="140.547" y1="48.6274" x2="150.547" y2="9.62744" stroke="#00E2ED" stroke-width="3"/>
</svg>
