<svg class="witnet-logo" width="300" height="46" fill="none" viewBox="0 0 300 46" xmlns="http://www.w3.org/2000/svg"><path class="fill" d="m47.36 17.55 8.32 5.121-8.32 5.13c.604-1.595.96-3.323.96-5.13s-.356-3.526-.96-5.121Zm-27.52 0a14.442 14.442 0 0 0-.96 5.121c0 1.807.347 3.526.96 5.122l-8.32-5.122 8.32-5.121Zm13.76-6.417c6.444 0 11.627 5.147 11.627 11.538s-5.192 11.53-11.627 11.53c-6.445 0-11.636-5.147-11.636-11.53 0-6.381 5.2-11.538 11.636-11.538Zm0-5.607-1.44.882-5.698 3.508c-.409.23-.8.467-1.182.732L5.769 22.67l19.51 12.015c.392.265.792.512 1.21.74l7.12 4.382 7.004-4.32c.018-.008.035-.026.053-.035.435-.238.862-.502 1.271-.784L61.44 22.67 41.93 10.657a15.31 15.31 0 0 0-1.21-.75L33.6 5.526ZM64.302 25.395c-.898.01-1.876.247-2.863.82L36.48 41.58l.25.15a5.157 5.157 0 0 0 2.649.669c.897-.008 1.875-.246 2.861-.82l4.907-3.023 20.044-12.35-.257-.158a5.372 5.372 0 0 0-2.632-.653ZM27.822 2.934c-.898.01-1.876.247-2.862.82l-4.907 3.024L0 19.128c1.298.863 3.493 1.304 5.76 0L30.72 3.763l-.249-.15a5.064 5.064 0 0 0-2.65-.679ZM118.97 10.314h-4.242v24.83h4.242V20.615h3.763v-4.263h-3.763v-6.039ZM169.955 16.353v-6.038h-4.242v24.829h4.242V20.617h3.763v-4.264h-3.763ZM106.163 35.143h4.176v-18.79h-4.176v18.79ZM110.306 10.315h-4.112v4.346h4.112v-4.346ZM97.61 31.007h-7.209V16.353h-4.173v14.654h-6.26a1.555 1.555 0 0 1-1.561-1.548V16.353h-4.174V31.26c0 2.146 1.755 3.885 3.919 3.885h23.631v-18.79H97.61v14.653ZM138.165 16.353h-12.677v18.779h4.172V20.49h6.688c.863 0 1.562.693 1.562 1.548v13.094h4.174V20.237c0-2.145-1.755-3.884-3.919-3.884ZM151.703 20.3c1.914-1.009 3.763-.663 5.322.617l-8.01 4.221c-.166-2.015.71-3.796 2.688-4.838Zm5.558 10.204c-2.439 1.285-5.26.592-7.026-1.91l13.052-6.878a9.519 9.519 0 0 0-.803-1.498c-.069-.11-.143-.211-.215-.316a9.72 9.72 0 0 0-7.941-4.097 9.75 9.75 0 0 0-3.65.71c-.084.034-.169.067-.252.104-.345.15-.675.323-.998.51a10.86 10.86 0 0 0-.842.551c-2.403 1.752-3.97 4.567-3.97 7.75 0 5.318 4.348 9.628 9.712 9.628 4.87 0 8.891-3.558 9.592-8.193-1.046-.003-3.835-.01-3.855-.012a5.439 5.439 0 0 1-2.804 3.65Z" fill="#181819"/><path class="fill" d="M178.776 35.132h-4.238v-4.2h4.238v4.2Z" fill="#41BEA5"/><path class="fill" d="m47.36 17.55 8.32 5.121-8.32 5.13c.604-1.595.96-3.323.96-5.13s-.356-3.526-.96-5.121Zm-27.52 0a14.442 14.442 0 0 0-.96 5.121c0 1.807.347 3.526.96 5.122l-8.32-5.122 8.32-5.121Zm13.76-6.417c6.444 0 11.627 5.147 11.627 11.538s-5.192 11.53-11.627 11.53c-6.445 0-11.636-5.147-11.636-11.53 0-6.381 5.2-11.538 11.636-11.538Zm0-5.607-1.44.882-5.698 3.508c-.409.23-.8.467-1.182.732L5.769 22.67l19.51 12.015c.392.265.792.512 1.21.74l7.12 4.382 7.004-4.32c.018-.008.035-.026.053-.035.435-.238.862-.502 1.271-.784L61.44 22.67 41.93 10.657a15.31 15.31 0 0 0-1.21-.75L33.6 5.526ZM64.302 25.395c-.898.01-1.876.247-2.863.82L36.48 41.58l.25.15a5.157 5.157 0 0 0 2.649.669c.897-.008 1.875-.246 2.861-.82l4.907-3.023 20.044-12.35-.257-.158a5.372 5.372 0 0 0-2.632-.653ZM27.822 2.934c-.898.01-1.876.247-2.862.82l-4.907 3.024L0 19.128c1.298.863 3.493 1.304 5.76 0L30.72 3.763l-.249-.15a5.064 5.064 0 0 0-2.65-.679ZM118.97 10.314h-4.242v24.83h4.242V20.615h3.763v-4.263h-3.763v-6.039ZM169.955 16.353v-6.038h-4.242v24.829h4.242V20.617h3.763v-4.264h-3.763ZM106.163 35.143h4.176v-18.79h-4.176v18.79ZM110.306 10.315h-4.112v4.346h4.112v-4.346ZM97.61 31.007h-7.209V16.353h-4.173v14.654h-6.26a1.555 1.555 0 0 1-1.561-1.548V16.353h-4.174V31.26c0 2.146 1.755 3.885 3.919 3.885h23.631v-18.79H97.61v14.653ZM138.165 16.353h-12.677v18.779h4.172V20.49h6.688c.863 0 1.562.693 1.562 1.548v13.094h4.174V20.237c0-2.145-1.755-3.884-3.919-3.884ZM151.703 20.3c1.914-1.009 3.763-.663 5.322.617l-8.01 4.221c-.166-2.015.71-3.796 2.688-4.838Zm5.558 10.204c-2.439 1.285-5.26.592-7.026-1.91l13.052-6.878a9.519 9.519 0 0 0-.803-1.498c-.069-.11-.143-.211-.215-.316a9.72 9.72 0 0 0-7.941-4.097 9.75 9.75 0 0 0-3.65.71c-.084.034-.169.067-.252.104-.345.15-.675.323-.998.51a10.86 10.86 0 0 0-.842.551c-2.403 1.752-3.97 4.567-3.97 7.75 0 5.318 4.348 9.628 9.712 9.628 4.87 0 8.891-3.558 9.592-8.193-1.046-.003-3.835-.01-3.855-.012a5.439 5.439 0 0 1-2.804 3.65Z" fill="#181819"/><path d="M178.776 35.132h-4.238v-4.2h4.238v4.2ZM252.499 8.63v10.915h-.071c-.991-1.158-2.796-2.352-5.381-2.352-5.133 0-8.321 4.282-8.321 9.16s3.081 9.299 8.392 9.299c2.337 0 4.638-1.017 5.771-2.772h.071v2.28h5.346V8.63h-5.807Zm-68.87 1.685V35.16h5.983V25.51h9.7V20.56h-9.7v-5.123h10.515v-5.123h-16.498Zm25.482 6.808c-5.346 0-9.524 3.65-9.524 9.37 0 5.896 4.39 9.229 9.701 9.229 3.576 0 6.337-1.333 8.001-3.72l-4.035-2.527c-.779 1.053-2.054 1.825-3.895 1.825-2.089 0-4.037-1.368-4.214-3.298h12.782c.035-.421.035-.912.035-1.369 0-5.966-3.647-9.51-8.851-9.51Zm19.57 0c-5.346 0-9.524 3.65-9.524 9.37 0 5.896 4.39 9.229 9.7 9.229 3.576 0 6.338-1.333 8.002-3.72l-4.036-2.527c-.779 1.053-2.054 1.825-3.895 1.825-2.089 0-4.036-1.368-4.213-3.298h12.781c.036-.421.036-.912.036-1.369 0-5.966-3.647-9.51-8.851-9.51Zm39.175 0c-3.364 0-7.329 1.684-7.329 5.86 0 3.299 2.691 4.527 5.134 5.089 2.407.562 3.505.912 3.505 2 0 1.123-1.133 1.509-2.089 1.509-1.699 0-3.293-.842-4.319-1.965L259.5 33.02c1.841 1.755 4.815 2.702 7.683 2.702 3.611 0 7.541-1.544 7.541-5.965 0-3.404-2.938-4.739-5.629-5.335-2.266-.491-3.222-.772-3.222-1.755 0-1.018 1.097-1.403 2.195-1.403 1.416 0 2.762.702 3.682 1.579l3.186-3.264c-1.734-1.614-4.46-2.456-7.08-2.456Zm-58.71 3.965c2.302 0 3.47 1.51 3.47 3.334h-7.471c.142-1.79 1.771-3.334 4.001-3.334Zm19.57 0c2.301 0 3.47 1.51 3.47 3.334h-7.471c.142-1.79 1.77-3.334 4.001-3.334Zm19.783.807c2.62 0 4.248 2.281 4.248 4.492 0 2.281-1.628 4.492-4.248 4.492-2.762 0-4.178-2.245-4.178-4.526 0-2.246 1.416-4.458 4.178-4.458Z" fill="#41BEA5"/></svg>