<svg width="100" height="56" viewBox="0 0 100 56" fill="none" xmlns="http://www.w3.org/2000/svg">
<g clip-path="url(#clip0)">
<mask id="mask0" mask-type="alpha" maskUnits="userSpaceOnUse" x="0" y="0" width="50" height="56">
<path d="M50 45.5898C46.4307 50.1493 41.0491 53.2446 35.5233 54.8751C29.9976 56.5057 24.1061 56.3605 18.6658 54.4596C13.2254 52.5588 8.50582 48.9965 5.16126 44.2666C1.81671 39.5367 0.0129482 33.8737 6.9449e-05 28.0626C-0.0128094 22.2516 1.76583 16.5804 5.08939 11.8355C8.41294 7.09062 13.1167 3.50702 18.5486 1.58162C23.9804 -0.343784 29.8712 -0.5156 35.4041 1.09C40.9371 2.69559 46.4106 6.04656 50 10.5898C50 10.5898 44.0558 18.0898 44.0863 28C44.1167 37.9102 50 45.5898 50 45.5898Z" fill="#C4C4C4"/>
</mask>
<g mask="url(#mask0)">
<g clip-path="url(#clip1)">
<path d="M36.579 42.0271H21.4243L23.0672 32.439H34.9244L36.579 42.0271ZM20.2839 42.0271H5.12882L6.77524 32.439H18.6326L20.2839 42.0271Z" fill="#FFB800" stroke="#FFB800"/>
<path d="M21.4653 19.1045L23.1115 9.52539H34.9778L36.6241 19.1045H21.4653Z" fill="#FFB800" stroke="#FFB800"/>
<path d="M29.6645 30.5658L31.3108 20.978H43.168L44.8144 30.5658H29.6645Z" fill="#FFB800" stroke="#FFB800"/>
<path d="M13.2748 30.5658L14.9211 20.978H26.7783L28.4247 30.5658H13.2748Z" fill="#FFB800" stroke="#FFB800"/>
<path d="M37.8105 42.0271L39.4569 32.439H51.314L52.9604 42.0271H37.8105Z" fill="#FFB800" stroke="#FFB800"/>
</g>
</g>
<g clip-path="url(#clip2)">
<path class="fill" d="M91.7763 8.22369C86.4733 2.92053 79.4499 0 72 0C64.5501 0 57.5267 2.92053 52.2237 8.22369C46.9205 13.5267 44 20.5501 44 28C44 35.4499 46.9205 42.4733 52.2237 47.7763C57.5267 53.0795 64.5501 56 72 56C79.4499 56 86.4733 53.0795 91.7763 47.7763C97.0795 42.4733 100 35.4499 100 28C100 20.5501 97.0795 13.5267 91.7763 8.22369ZM72 52.7188C58.37 52.7188 47.2812 41.63 47.2812 28C47.2812 14.37 58.37 3.28125 72 3.28125C85.63 3.28125 96.7188 14.37 96.7188 28C96.7188 41.63 85.63 52.7188 72 52.7188Z" fill="#2D2C39"/>
<path class="fill" d="M73.24 10.296C74.84 10.296 76.344 10.472 77.752 10.824C79.16 11.176 80.52 11.736 81.832 12.504L80.056 15.96C79.16 15.48 78.104 15.032 76.888 14.616C75.704 14.2 74.488 13.992 73.24 13.992C68.376 13.992 65.352 17.048 64.168 23.16H75.88V26.28H63.832C63.8 26.6 63.784 26.904 63.784 27.192C63.784 27.48 63.784 27.784 63.784 28.104C63.784 28.392 63.784 28.712 63.784 29.064C63.784 29.384 63.8 29.72 63.832 30.072H74.44V33.192H64.216C64.76 35.912 65.8 38.024 67.336 39.528C68.904 41 71 41.736 73.624 41.736C74.872 41.736 76.12 41.592 77.368 41.304C78.648 40.984 79.784 40.616 80.776 40.2V43.944C79.784 44.36 78.68 44.712 77.464 45C76.28 45.32 74.92 45.48 73.384 45.48C69.512 45.48 66.472 44.376 64.264 42.168C62.088 39.96 60.648 36.968 59.944 33.192H56.104V30.072H59.56C59.528 29.688 59.512 29.368 59.512 29.112C59.512 28.856 59.512 28.52 59.512 28.104C59.512 27.752 59.512 27.416 59.512 27.096C59.544 26.744 59.56 26.472 59.56 26.28H56.104V23.16H59.896C60.504 19.224 61.928 16.104 64.168 13.8C66.408 11.464 69.432 10.296 73.24 10.296Z" fill="black"/>
</g>
</g>
<defs>
<clipPath id="clip0">
<rect width="100" height="56" fill="white"/>
</clipPath>
<clipPath id="clip1">
<rect width="49.0179" height="49.0179" fill="white" transform="translate(4.53564 1.26758)"/>
</clipPath>
<clipPath id="clip2">
<rect width="56" height="56" fill="white" transform="translate(44)"/>
</clipPath>
</defs>
</svg>
