<svg xmlns="http://www.w3.org/2000/svg" class="icon-size" width="32" height="32" fill="none" viewBox="0 0 32 32"><path fill="#fff" class="fill" fill-rule="evenodd" d="M16 32c-2.425 0-3.906-2.558-5.322-5.003-.744-1.284-1.47-2.537-2.304-3.371-.834-.835-2.087-1.56-3.371-2.304C2.558 19.906 0 18.425 0 16c0-2.425 2.558-3.906 5.003-5.322 1.284-.744 2.537-1.47 3.371-2.304.835-.834 1.56-2.087 2.304-3.371C12.094 2.558 13.575 0 16 0c2.425 0 3.906 2.558 5.322 5.003.744 1.284 1.47 2.537 2.304 3.371.834.835 2.087 1.56 3.371 2.304C29.442 12.094 32 13.575 32 16c0 2.425-2.558 3.906-5.003 5.322-1.284.744-2.537 1.47-3.371 2.304-.835.834-1.56 2.087-2.304 3.371C19.906 29.442 18.425 32 16 32ZM6.783 16l5.267-5.267v2.634h5.267l-5.267 3.95v3.95L6.783 16Zm13.167 5.267L25.217 16l-5.267-5.267v3.95l-5.267 3.95h5.267v2.634Z" clip-rule="evenodd"/></svg>